<svg width="188" height="188" viewBox="0 0 188 188" fill="none" xmlns="http://www.w3.org/2000/svg">
<path d="M177.519 132.857C181.16 100.755 163.535 58.0949 145.261 40.4793C112.276 8.67272 84.8698 14.8223 63.558 26.2101C42.2462 37.5979 39.1991 75.6369 24.4787 92.8428C9.75839 110.049 1.39017 133.193 23.7192 156.235C46.0483 179.278 64.0644 167.568 87.4107 166.104C110.757 164.64 141.726 176.148 158.458 166.145C170.154 159.167 175.912 147.061 177.519 132.857Z" fill="#5CB0FF"/>
<path opacity="0.7" d="M177.519 132.857C181.16 100.755 163.535 58.0949 145.261 40.4793C112.276 8.67272 84.8698 14.8223 63.558 26.2101C42.2462 37.5979 39.1991 75.6369 24.4787 92.8428C9.75839 110.049 1.39017 133.193 23.7192 156.235C46.0483 179.278 64.0644 167.568 87.4107 166.104C110.757 164.64 141.726 176.148 158.458 166.145C170.154 159.167 175.912 147.061 177.519 132.857Z" fill="white"/>
<path d="M94 175C140.392 175 178 170.971 178 166C178 161.029 140.392 157 94 157C47.6081 157 10 161.029 10 166C10 170.971 47.6081 175 94 175Z" fill="#5CB0FF"/>
<path opacity="0.5" d="M94 175C140.392 175 178 170.971 178 166C178 161.029 140.392 157 94 157C47.6081 157 10 161.029 10 166C10 170.971 47.6081 175 94 175Z" fill="white"/>
<path d="M40.0227 72.4682C39.3921 72.6354 38.7401 72.7079 38.0881 72.6831C38.0881 72.6831 38.3837 71.7857 38.4106 71.7319C38.7115 71.0978 39.6627 70.0607 40.4365 70.1628C40.5648 70.1837 40.6873 70.2314 40.7959 70.3029C40.9045 70.3743 40.9968 70.4679 41.0668 70.5774C41.1367 70.6869 41.1828 70.81 41.202 70.9386C41.2212 71.0672 41.2131 71.1983 41.1781 71.3235C41.0805 71.5869 40.9265 71.8258 40.7269 72.0235C40.5274 72.2213 40.287 72.373 40.0227 72.4682Z" fill="#263238"/>
<path d="M22.0532 67.7984C22.8271 67.7125 23.7514 68.7819 24.0362 69.4106C24.0362 69.4697 24.3425 70.3725 24.3318 70.3725L24.7993 70.9099C25.1056 71.2861 25.4442 71.7106 25.7827 72.1943C26.1506 72.7137 26.4914 73.2518 26.8038 73.8065C27.1493 74.4343 27.4405 75.0905 27.6743 75.7679C27.6743 75.5369 27.6743 74.8974 27.6743 74.849C27.7657 74.1558 28.3461 72.8714 29.1146 72.7317C29.2432 72.7094 29.3751 72.7148 29.5015 72.7475C29.6279 72.7802 29.7458 72.8395 29.8475 72.9213C29.9492 73.0032 30.0323 73.1058 30.0912 73.2223C30.1502 73.3388 30.1836 73.4665 30.1893 73.5969C30.1802 73.8784 30.1089 74.1544 29.9807 74.4053C29.8525 74.6561 29.6705 74.8755 29.4477 75.0478C28.9071 75.4009 28.3166 75.6709 27.6958 75.8486C27.9228 76.5523 28.1023 77.2704 28.2332 77.9981C28.3085 78.4173 28.3676 78.8418 28.4267 79.2664C28.4267 79.0675 28.4267 78.8902 28.4267 78.8633C28.5127 78.1755 29.093 76.8857 29.8615 76.746C29.9903 76.7255 30.1221 76.7323 30.2481 76.766C30.3741 76.7997 30.4916 76.8596 30.593 76.9417C30.6944 77.0238 30.7773 77.1263 30.8365 77.2426C30.8956 77.3589 30.9296 77.4863 30.9363 77.6166C30.9245 77.8968 30.8521 78.1712 30.7241 78.4207C30.5961 78.6703 30.4155 78.8891 30.1947 79.0621C29.6708 79.4102 29.0962 79.6748 28.4912 79.8467L28.5557 80.3358C28.647 81.1204 28.7384 81.905 28.8512 82.668C28.8888 82.9421 28.9372 83.2054 28.9856 83.4688C28.9856 83.2914 28.9856 83.1463 28.9856 83.1248C29.0769 82.4316 29.6573 81.1472 30.4258 81.0021C30.5547 80.9807 30.6868 80.9869 30.8131 81.0203C30.9395 81.0536 31.0574 81.1134 31.159 81.1957C31.2605 81.278 31.3435 81.3809 31.4024 81.4976C31.4613 81.6143 31.4947 81.7421 31.5006 81.8727C31.4896 82.1539 31.4175 82.4293 31.2895 82.6798C31.1614 82.9304 30.9804 83.1501 30.759 83.3237C30.2517 83.6616 29.6952 83.919 29.1092 84.0868C29.1629 84.3608 29.222 84.6241 29.2919 84.8875C29.3403 85.0648 29.3779 85.2368 29.437 85.4249C29.4961 85.6129 29.5445 85.7688 29.6036 85.9622C29.7164 86.2847 29.84 86.6179 29.9582 86.9296C30.0442 87.1445 30.1248 87.3541 30.2108 87.5583C30.1678 87.2896 30.098 86.763 30.098 86.72C30.1048 86.1064 30.2695 85.5049 30.5763 84.9735C30.5707 84.9055 30.5707 84.8372 30.5763 84.7692C30.5924 84.6406 30.6354 84.5169 30.7025 84.406C30.7696 84.2951 30.8593 84.1995 30.9657 84.1255C31.0721 84.0516 31.1929 84.0008 31.3203 83.9765C31.4476 83.9522 31.5786 83.955 31.7048 83.9847C32.4625 84.1835 32.9408 85.5108 32.973 86.2095C32.973 86.2471 32.973 86.6985 32.93 86.9779C32.9676 86.8167 32.9999 86.6555 33.0429 86.4889C33.1235 86.1557 33.2095 85.8225 33.3062 85.4678C33.3546 85.2959 33.4083 85.1239 33.462 84.9305C33.5158 84.737 33.5856 84.5812 33.6448 84.3931C33.7952 83.9846 33.9672 83.5762 34.1445 83.1732C33.5335 83.0468 32.946 82.8256 32.4034 82.5176C32.17 82.3617 31.9732 82.157 31.8266 81.9176C31.68 81.6782 31.5871 81.4099 31.5543 81.1311C31.5517 81.0016 31.5762 80.8729 31.6262 80.7534C31.6762 80.6339 31.7507 80.5261 31.8448 80.437C31.9389 80.348 32.0506 80.2796 32.1727 80.2362C32.2948 80.1929 32.4246 80.1755 32.5539 80.1853C33.3331 80.2713 34.0048 81.5073 34.166 82.1898C34.166 82.2328 34.2198 82.7272 34.2359 83.012C34.3487 82.7702 34.4616 82.523 34.5798 82.2811C34.9291 81.5825 35.2999 80.8839 35.6546 80.1907L35.9878 79.5458C35.3559 79.4153 34.7473 79.1906 34.1821 78.8794C33.9485 78.7238 33.7515 78.5191 33.6049 78.2797C33.4583 78.0403 33.3655 77.7718 33.3331 77.493C33.3304 77.3636 33.3549 77.2352 33.405 77.1159C33.455 76.9966 33.5296 76.8892 33.6238 76.8006C33.718 76.7119 33.8298 76.644 33.9519 76.6013C34.074 76.5586 34.2037 76.542 34.3326 76.5525C35.1118 76.6331 35.7836 77.8745 35.9448 78.557C35.9448 78.6054 36.02 79.3308 36.0308 79.5136C36.2726 79.0407 36.5144 78.5731 36.7294 78.0948C37.0255 77.4562 37.2804 76.7993 37.4925 76.128C36.8571 75.9951 36.245 75.7687 35.6761 75.4563C35.4432 75.2998 35.2468 75.095 35.1002 74.8557C34.9537 74.6164 34.8605 74.3484 34.827 74.0698C34.8236 73.9398 34.8476 73.8105 34.8973 73.6904C34.947 73.5702 35.0213 73.4618 35.1155 73.3722C35.2097 73.2825 35.3216 73.2136 35.4441 73.17C35.5666 73.1263 35.6969 73.1088 35.8266 73.1186C36.6058 73.2046 37.2775 74.4406 37.4387 75.1285C37.4387 75.1822 37.5193 75.956 37.5193 76.1011C37.5304 76.0606 37.5448 76.0211 37.5623 75.9829C37.7517 75.302 37.883 74.6063 37.9546 73.9032C37.9976 73.5109 38.0191 73.1401 38.0299 72.7747C37.3984 72.7185 36.7799 72.5625 36.1974 72.3125C35.9477 72.1836 35.729 72.002 35.5564 71.7802C35.3838 71.5585 35.2615 71.3019 35.1978 71.0282C35.1771 70.8976 35.1845 70.7641 35.2195 70.6367C35.2545 70.5092 35.3162 70.3906 35.4007 70.2889C35.4851 70.1872 35.5902 70.1047 35.7091 70.0468C35.8279 69.9889 35.9577 69.9571 36.0899 69.9534C36.8691 69.9534 37.6752 71.1088 37.8901 71.7751C37.8901 71.8127 37.9815 72.1889 38.0352 72.4684C38.0352 72.3018 38.0352 72.1352 38.0352 71.9793C38.0352 71.3882 37.9976 70.8454 37.96 70.3672C37.96 70.0931 37.9116 69.8298 37.8848 69.6202C37.3547 69.2766 36.88 68.8544 36.4768 68.3681C36.3124 68.1374 36.2012 67.8733 36.151 67.5945C36.1008 67.3158 36.113 67.0294 36.1866 66.7559C36.2293 66.6327 36.2973 66.5199 36.3864 66.4247C36.4755 66.3295 36.5836 66.2542 36.7037 66.2035C36.8238 66.1528 36.9532 66.128 37.0836 66.1306C37.2139 66.1331 37.3422 66.1631 37.4602 66.2185C38.1535 66.5786 38.3362 67.9758 38.2233 68.6636C38.2233 68.7228 37.9492 69.6363 37.9385 69.6256C37.9707 69.8459 37.9976 70.0823 38.0299 70.3403C38.0729 70.8186 38.1266 71.3613 38.1373 71.9525C38.1597 72.5923 38.1454 73.2328 38.0943 73.871C38.036 74.5837 37.9174 75.2902 37.7397 75.9829V76.0098C37.8633 75.8163 38.2233 75.2897 38.2771 75.252C38.7338 74.7147 39.9268 73.9731 40.647 74.2794C40.765 74.333 40.8705 74.4109 40.9565 74.5079C41.0425 74.605 41.1071 74.7191 41.1461 74.8427C41.1851 74.9664 41.1977 75.0969 41.183 75.2258C41.1683 75.3546 41.1266 75.4789 41.0607 75.5906C40.8962 75.8187 40.6842 76.0084 40.4392 76.1466C40.1943 76.2849 39.9223 76.3683 39.642 76.3913C38.9949 76.3842 38.3522 76.2828 37.7343 76.0904C37.5349 76.791 37.2872 77.4769 36.9927 78.1432C36.8261 78.5355 36.6434 78.9224 36.4553 79.3094C36.5682 79.1428 36.6703 78.9977 36.6864 78.9815C37.1432 78.4442 38.3362 77.7026 39.0563 78.0089C39.1739 78.063 39.2788 78.1413 39.3643 78.2385C39.4497 78.3358 39.5137 78.45 39.5522 78.5736C39.5908 78.6972 39.6029 78.8276 39.5878 78.9561C39.5727 79.0847 39.5308 79.2087 39.4647 79.3201C39.3007 79.5487 39.0887 79.7388 38.8437 79.8771C38.5987 80.0154 38.3265 80.0985 38.046 80.1208C37.419 80.1192 36.7958 80.0232 36.1974 79.836L35.977 80.2767C35.6223 80.9806 35.2677 81.6846 34.9399 82.3886C34.8216 82.6304 34.7142 82.8776 34.6121 83.1248C34.7088 82.9797 34.7948 82.8615 34.8109 82.8454C35.2677 82.308 36.4607 81.5664 37.1754 81.8673C37.2937 81.9215 37.3992 82 37.4852 82.0975C37.5713 82.1951 37.6359 82.3096 37.6749 82.4337C37.7139 82.5578 37.7264 82.6887 37.7116 82.8179C37.6969 82.9471 37.6552 83.0718 37.5892 83.1839C37.4244 83.4113 37.2122 83.6001 36.9672 83.7375C36.7223 83.8748 36.4504 83.9573 36.1705 83.9793C35.56 83.9846 34.9525 83.8939 34.3702 83.7106C34.2681 83.9685 34.166 84.248 34.08 84.4791C34.0263 84.651 33.9618 84.8122 33.9134 85.0164L33.7684 85.5538C33.6878 85.887 33.6071 86.2309 33.5319 86.5588C33.4835 86.7898 33.4405 87.0048 33.3976 87.2251C33.5104 86.9779 33.7415 86.4996 33.763 86.462C34.1338 85.8709 35.1978 84.9466 35.9555 85.14C36.0806 85.1752 36.197 85.2363 36.2969 85.3194C36.3968 85.4025 36.478 85.5057 36.5353 85.6224C36.5926 85.739 36.6247 85.8664 36.6294 85.9963C36.6341 86.1261 36.6114 86.2555 36.5628 86.376C36.4348 86.6269 36.2535 86.8469 36.0317 87.0205C35.8098 87.194 35.5528 87.3171 35.2784 87.381C34.6444 87.4779 33.9993 87.4779 33.3653 87.381C33.2901 87.7464 33.2256 88.0957 33.1665 88.4557C32.9623 89.6165 32.8333 90.6053 32.7581 91.2717C32.7581 91.3899 32.7581 91.5028 32.7204 91.6049H35.0742L34.2144 108.361H30.2055L29.3456 91.6049H31.5382L31.4898 91.5028C31.1889 90.874 30.7697 89.9766 30.3183 88.8749C30.1786 88.5256 30.0335 88.1494 29.883 87.7679C29.258 87.9115 28.6149 87.9604 27.9753 87.913C27.6976 87.8696 27.4327 87.7663 27.1989 87.6105C26.9651 87.4546 26.7679 87.2498 26.6211 87.0102C26.5641 86.8936 26.5323 86.7665 26.5274 86.6368C26.5226 86.5072 26.5449 86.3781 26.593 86.2576C26.6411 86.1371 26.7139 86.0281 26.8066 85.9374C26.8994 85.8468 27.0101 85.7765 27.1316 85.7312C27.8732 85.484 29.0071 86.3223 29.4209 86.8866C29.4209 86.9188 29.6681 87.3057 29.8078 87.5529C29.7487 87.3971 29.6896 87.2466 29.6304 87.08C29.5122 86.7576 29.4047 86.4352 29.2865 86.0859C29.2328 85.9139 29.1844 85.7419 29.1307 85.5485C29.0769 85.355 29.0393 85.1884 28.9909 85.0111C28.8888 84.5865 28.8082 84.1512 28.7384 83.716C28.1575 83.9457 27.545 84.0852 26.922 84.1298C26.6413 84.1291 26.3641 84.0672 26.1098 83.9484C25.8555 83.8296 25.6302 83.6568 25.4495 83.4419C25.3753 83.3352 25.3243 83.2141 25.2998 83.0865C25.2753 82.9589 25.2778 82.8276 25.3072 82.701C25.3365 82.5744 25.3921 82.4553 25.4703 82.3516C25.5485 82.2478 25.6476 82.1615 25.7612 82.0984C26.4545 81.7437 27.7012 82.3994 28.1956 82.8938C28.2278 82.926 28.5395 83.3183 28.733 83.5386C28.69 83.2753 28.647 83.0012 28.6148 82.7433C28.518 81.9641 28.4428 81.1795 28.3676 80.3949C28.3676 80.1531 28.3192 79.9166 28.2923 79.6748C27.6925 79.9139 27.0604 80.0624 26.4168 80.1154C26.1359 80.1131 25.8588 80.0499 25.6046 79.9302C25.3505 79.8105 25.1252 79.6372 24.9444 79.4222C24.8703 79.3159 24.8193 79.1953 24.7949 79.0681C24.7704 78.9409 24.7729 78.8099 24.8023 78.6838C24.8317 78.5576 24.8873 78.439 24.9655 78.3357C25.0436 78.2324 25.1426 78.1467 25.2561 78.0841C25.9493 77.724 27.1961 78.385 27.6905 78.8794C27.7281 78.9171 28.1795 79.4813 28.287 79.6318C28.2332 79.0944 28.1741 78.557 28.0935 78.0626C27.9879 77.3657 27.8371 76.6764 27.6421 75.999C27.0386 76.2383 26.4029 76.3868 25.7559 76.4397C25.4752 76.439 25.198 76.3772 24.9437 76.2584C24.6893 76.1396 24.464 75.9667 24.2834 75.7518C24.2092 75.6451 24.1582 75.5241 24.1337 75.3964C24.1091 75.2688 24.1116 75.1375 24.141 75.0109C24.1704 74.8843 24.226 74.7653 24.3042 74.6615C24.3824 74.5577 24.4815 74.4715 24.5951 74.4083C25.2883 74.0537 26.5351 74.7093 27.0295 75.2037C27.0671 75.2413 27.5669 75.8539 27.6367 75.9668C27.6235 75.9281 27.6127 75.8886 27.6045 75.8486C27.3908 75.1753 27.1174 74.5225 26.7876 73.8978C26.6103 73.5485 26.4168 73.2261 26.2503 72.9144C25.6912 73.2141 25.0895 73.4261 24.4661 73.5431C24.1854 73.5711 23.902 73.5375 23.6357 73.4447C23.3693 73.3518 23.1264 73.2021 22.9238 73.0058C22.8382 72.9079 22.774 72.7932 22.7354 72.669C22.6969 72.5448 22.6848 72.4139 22.7 72.2848C22.7152 72.1556 22.7573 72.0311 22.8236 71.9193C22.89 71.8074 22.979 71.7107 23.085 71.6354C23.7353 71.2055 25.0465 71.7214 25.5946 72.1728L26.0944 72.6726L25.8311 72.2588C25.5033 71.7698 25.1755 71.3398 24.8799 70.9583C24.7079 70.7433 24.5521 70.5552 24.4016 70.3779C23.7703 70.385 23.1416 70.2962 22.5369 70.1146C22.2758 70.0111 22.0403 69.8523 21.8464 69.6492C21.6525 69.446 21.5049 69.2033 21.4137 68.9377C21.3476 68.7018 21.3778 68.4493 21.4977 68.2357C21.6176 68.0221 21.8174 67.8648 22.0532 67.7984ZM30.6515 88.6761C31.119 89.7509 31.5543 90.6429 31.8606 91.2556L32.0326 91.5887H32.0863C32.0863 91.4651 32.1186 91.3362 32.1401 91.1911C32.2314 90.5032 32.3819 89.5198 32.613 88.3536C32.6882 87.9828 32.7688 87.5905 32.8602 87.1875C32.4935 87.0396 32.1347 86.8728 31.7854 86.6877C31.315 87.0907 30.7927 87.4287 30.2323 87.6926C30.3828 88.0312 30.5171 88.3751 30.6569 88.6761H30.6515Z" fill="#263238"/>
<path d="M26.1474 72.791C26.1474 72.791 25.8948 71.8829 25.8895 71.8184C25.7927 71.1305 26.0131 69.7387 26.717 69.3947C26.8342 69.342 26.9611 69.3142 27.0896 69.313C27.2181 69.3118 27.3454 69.3373 27.4636 69.3878C27.5818 69.4383 27.6882 69.5127 27.7761 69.6064C27.8641 69.7001 27.9316 69.811 27.9745 69.9321C28.0406 70.2088 28.045 70.4967 27.9874 70.7753C27.9299 71.0539 27.8117 71.3164 27.6414 71.5443C27.2078 72.0315 26.7043 72.4516 26.1474 72.791Z" fill="#263238"/>
<path d="M140.751 78.1797L145.087 90.9642L149.311 119.844L164.971 158.804H160.048L137.274 121.606L130.256 98.6328L120.421 122.643L118.685 159.095H113.489L110.297 120.333L116.665 90.3408L118.019 83.9728L140.751 78.1797Z" fill="#263238" stroke="#263238" stroke-width="0.5" stroke-linecap="round" stroke-linejoin="round"/>
<path d="M112.344 44.1899C112.344 44.1899 120.265 42.8679 127.466 44.4264C134.667 45.9848 144.249 49.0479 151.273 54.0242C152.693 55.0801 154.021 56.254 155.244 57.5333L149.994 61.4724C149.994 61.4724 141.497 59.1616 138.708 59.1401C137.089 59.0925 135.474 58.9472 133.872 58.7048L140.734 78.1799C140.734 78.1799 141.1 82.8605 136.054 84.9026C131.008 86.9447 121.641 88.0732 117.879 85.1767C115.896 83.6559 106.443 59.1939 106.443 59.1939C106.443 59.1939 103.676 73.5744 102.838 75.7347C102.22 77.1852 101.366 78.5235 100.312 79.6953L95.0346 75.7347C95.0346 75.7347 97.9258 61.5906 99.006 56.9261C100.086 52.2615 104.192 44.91 112.344 44.1899Z" fill="#5CB0FF" stroke="#263238" stroke-width="0.5" stroke-linecap="round" stroke-linejoin="round"/>
<path d="M125.548 57.6296L133.829 58.7098L127.348 60.3918" stroke="#263238" stroke-width="0.5" stroke-linecap="round" stroke-linejoin="round"/>
<path d="M125.789 45.748C125.789 45.748 122.903 50.5523 125.547 55.4694" stroke="#263238" stroke-width="0.5" stroke-linecap="round" stroke-linejoin="round"/>
<path d="M106.459 59.1938L100.94 58.3501" stroke="#263238" stroke-width="0.5" stroke-linecap="round" stroke-linejoin="round"/>
<path d="M106.222 59.6719L98.8978 60.752" stroke="#263238" stroke-width="0.5" stroke-linecap="round" stroke-linejoin="round"/>
<path d="M112.945 42.7496C112.945 42.7496 116.782 43.948 117.744 45.1464C118.706 46.3448 118.701 57.7536 118.701 57.7536L113.778 56.6788L109.576 59.9031C109.576 59.9031 109.818 53.0622 110.538 48.3761C111.258 43.6901 112.945 42.7496 112.945 42.7496Z" fill="#5CB0FF" stroke="#263238" stroke-width="0.5" stroke-linecap="round" stroke-linejoin="round"/>
<path d="M111.145 39.7454C111.145 39.7454 114.262 44.1897 114.982 45.1193C115.702 46.049 115.224 51.2456 114.864 53.0458C114.601 54.2725 114.242 55.4765 113.789 56.6464L108.866 51.482C108.866 51.482 110.79 49.2035 110.43 46.3231C110.07 43.4427 108.49 40.3366 108.619 39.509C108.748 38.6814 111.145 39.7454 111.145 39.7454Z" fill="white" stroke="#263238" stroke-width="0.5" stroke-linecap="round" stroke-linejoin="round"/>
<path d="M111.263 41.7872C111.263 41.7872 113.413 47.0697 112.945 48.9882C112.478 50.9067 107.421 55.3509 105.019 54.6308C102.617 53.9107 102.262 49.4665 102.262 49.4665C102.262 49.4665 101.187 49.9501 100.822 49.7083C100.456 49.4665 100.338 46.484 100.338 46.484C99.7844 45.8729 99.2642 45.2325 98.7796 44.5655C98.4593 44.0671 98.179 43.5442 97.9412 43.0017C97.9412 43.0017 93.9753 42.8834 94.3353 39.2829C94.6954 35.6824 101.418 30.5181 106.222 30.5181C111.027 30.5181 112.822 36.0371 112.822 37.7084C112.822 39.3796 111.263 41.7872 111.263 41.7872Z" fill="white" stroke="#263238" stroke-width="0.5" stroke-linecap="round" stroke-linejoin="round"/>
<path d="M102.332 45.6191C103.075 44.8142 104.102 44.3304 105.196 44.2703L102.332 45.6191Z" fill="white"/>
<path d="M102.332 45.6191C103.075 44.8142 104.102 44.3304 105.196 44.2703" stroke="#263238" stroke-width="0.5" stroke-linecap="round" stroke-linejoin="round"/>
<path d="M103.369 46.2477L103.799 46.9731C103.799 46.9731 104.81 47.2365 105.191 46.6185" fill="white"/>
<path d="M103.369 46.2477L103.799 46.9731C103.799 46.9731 104.81 47.2365 105.191 46.6185" stroke="#263238" stroke-width="0.5" stroke-linecap="round" stroke-linejoin="round"/>
<path d="M94.3353 39.2619C94.6954 35.6614 101.418 30.4971 106.222 30.4971C111.027 30.4971 112.822 36.0376 112.822 37.7089C112.822 39.3801 111.263 41.7877 111.263 41.7877C111.263 41.7877 113.413 47.0702 112.945 48.9887C112.478 50.9072 107.421 55.3514 105.019 54.6313C103.127 54.0617 102.504 51.1866 102.332 49.9936C104.041 48.1504 106.593 50.1065 108.028 50.531C109.586 51.0093 111.15 48.849 111.15 47.6452C111.15 46.4415 109.586 43.2064 109.226 42.6045C108.866 42.0026 106.948 42.4863 105.868 42.368C104.788 42.2498 106.346 40.4442 106.104 39.364C105.862 38.2839 102.267 42.008 100.827 42.8463C100.389 43.0882 99.9007 43.2248 99.4008 43.2453C98.9008 43.2658 98.403 43.1697 97.9466 42.9645C97.9466 42.9645 93.9807 42.8678 94.3353 39.2619ZM104.782 51.0308C102.982 50.7889 102.982 51.509 102.982 51.509C103.632 53.0299 103.939 52.7128 104.54 52.471C105.142 52.2292 106.582 51.2726 104.782 51.0308Z" fill="#263238" stroke="#263238" stroke-width="0.5" stroke-linecap="round" stroke-linejoin="round"/>
<path d="M110.786 42.8677C110.786 42.8677 110.426 40.4655 111.861 40.2291C113.295 39.9926 113.419 42.0294 113.419 43.346C113.419 44.6626 111.861 44.668 111.14 44.4208" fill="white"/>
<path d="M110.786 42.8677C110.786 42.8677 110.426 40.4655 111.861 40.2291C113.295 39.9926 113.419 42.0294 113.419 43.346C113.419 44.6626 111.861 44.668 111.14 44.4208" stroke="#263238" stroke-width="0.5" stroke-linecap="round" stroke-linejoin="round"/>
<path d="M156.248 63.5411C156.248 63.5411 154.636 60.9938 152.616 61.7139C151.158 62.3151 149.817 63.1682 148.655 64.2343L146.855 61.3539C146.855 61.3539 146.495 58.3552 149.735 56.7968C152.976 55.2384 154.776 56.555 154.776 56.555C156.012 56.7861 157.565 62.8478 156.248 63.5411Z" fill="#5CB0FF" stroke="#263238" stroke-width="0.5" stroke-linecap="round" stroke-linejoin="round"/>
<path d="M94.5667 73.3323C96.4397 73.8591 98.2211 74.6691 99.8493 75.7344C101.099 76.5884 101.995 77.8684 102.37 79.3349C102.37 79.3349 99.6074 82.3335 99.0109 82.3335C98.4144 82.3335 93.8466 77.2928 93.3683 76.8146C92.89 76.3363 94.5667 73.3323 94.5667 73.3323Z" fill="#5CB0FF" stroke="#263238" stroke-width="0.5" stroke-linecap="round" stroke-linejoin="round"/>
<path d="M73.4427 86.8962C73.4427 86.8962 73.561 88.5782 74.0446 88.9383C74.5283 89.2983 76.6832 88.9383 76.6832 88.9383C76.6832 88.9383 78.1234 86.8962 77.5269 86.0579C76.9304 85.2195 75.8449 85.456 75.1248 85.6978C74.4981 85.9955 73.9287 86.4011 73.4427 86.8962Z" fill="white" stroke="#263238" stroke-width="0.5" stroke-linecap="round" stroke-linejoin="round"/>
<path d="M93.3675 76.8149L80.5454 83.4141L75.8647 84.016C75.8647 84.016 70.1039 86.8964 70.1039 87.3747C70.1039 87.8529 70.7004 88.1001 71.1787 87.9765C71.657 87.8529 75.1392 86.4181 75.8594 86.4181C76.5795 86.4181 77.1813 86.6545 77.0577 87.2564C76.9341 87.8583 75.2575 90.3787 76.2194 90.3787C77.1813 90.3787 78.1379 87.9765 78.6215 87.7347C79.3912 87.1142 80.11 86.4331 80.7711 85.698C80.7711 85.698 91.8145 83.4141 94.3348 83.054C95.7484 82.8855 97.1038 82.3926 98.2954 81.6138L93.3675 76.8149Z" fill="white" stroke="#263238" stroke-width="0.5" stroke-linecap="round" stroke-linejoin="round"/>
<path d="M160.053 158.804L158.511 161.013C157.865 161.933 157.006 162.683 156.007 163.2L153.019 164.742C152.92 164.793 152.836 164.87 152.778 164.965C152.719 165.059 152.687 165.168 152.686 165.28C152.686 165.364 152.703 165.447 152.736 165.524C152.769 165.601 152.817 165.671 152.878 165.729C152.939 165.786 153.011 165.831 153.09 165.86C153.168 165.889 153.252 165.902 153.336 165.898C156.141 165.753 167.131 165.194 167.512 165.194C167.894 165.194 168.098 164.608 167.953 162.845C167.808 161.083 164.971 158.793 164.971 158.793L160.053 158.804Z" fill="white" stroke="#263238" stroke-width="0.5" stroke-linecap="round" stroke-linejoin="round"/>
<path d="M113.515 158.804L111.973 161.013C111.327 161.933 110.467 162.683 109.469 163.2L106.486 164.742C106.386 164.792 106.301 164.868 106.241 164.963C106.181 165.058 106.149 165.168 106.148 165.28C106.148 165.364 106.165 165.447 106.198 165.524C106.231 165.601 106.279 165.671 106.34 165.729C106.401 165.786 106.473 165.831 106.552 165.86C106.63 165.889 106.714 165.902 106.798 165.898C109.603 165.753 120.593 165.194 120.974 165.194C121.356 165.194 121.566 164.608 121.415 162.845C121.265 161.083 118.433 158.793 118.433 158.793L113.515 158.804Z" fill="white" stroke="#263238" stroke-width="0.5" stroke-linecap="round" stroke-linejoin="round"/>
<path d="M153.717 83.1129C153.717 83.1129 155.329 85.687 154.883 87.8043C154.437 89.9216 150.498 99.1433 147.575 107.613C144.651 116.082 145.237 125.303 145.237 128.033C145.237 130.763 145.382 132.719 143.335 133.778C141.287 134.837 138.074 134.235 137.198 132.268C136.322 130.301 135.736 117.758 137.343 110.187C138.95 102.615 144.651 89.3198 146.113 86.2942C147.575 83.2687 148.306 79.0287 153.717 83.1129Z" fill="white"/>
<path opacity="0.25" d="M153.717 83.1129C153.717 83.1129 155.329 85.687 154.883 87.8043C154.437 89.9216 150.498 99.1433 147.574 107.613C144.651 116.082 145.237 125.303 145.237 128.033C145.237 130.763 145.382 132.719 143.334 133.778C141.287 134.837 138.073 134.235 137.197 132.268C136.321 130.301 135.736 117.758 137.342 110.187C138.949 102.615 144.651 89.3198 146.113 86.2942C147.574 83.2687 148.305 79.0287 153.717 83.1129Z" fill="black"/>
<path opacity="0.25" d="M155.866 84.7252C155.866 84.7252 157.479 87.2993 157.033 89.4166C156.587 91.5339 152.647 100.756 149.724 109.225C146.801 117.694 147.386 126.916 147.386 129.646C147.386 132.376 147.532 134.332 145.484 135.39C143.437 136.449 140.223 135.847 139.347 133.88C138.471 131.914 137.885 119.371 139.492 111.799C141.099 104.227 146.801 90.9321 148.262 87.9065C149.724 84.881 150.455 80.641 155.866 84.7252Z" fill="black"/>
<path d="M153.717 83.1129C153.717 83.1129 155.329 85.687 154.883 87.8043C154.437 89.9216 150.498 99.1433 147.575 107.613C144.651 116.082 145.237 125.303 145.237 128.033C145.237 130.763 145.382 132.719 143.335 133.778C141.287 134.837 138.074 134.235 137.198 132.268C136.322 130.301 135.736 117.758 137.343 110.187C138.95 102.615 144.651 89.3198 146.113 86.2942C147.575 83.2687 148.306 79.0287 153.717 83.1129Z" stroke="#263238" stroke-width="0.5" stroke-linecap="round" stroke-linejoin="round"/>
<path d="M155.975 61.8325C156.161 64.6473 155.756 67.4699 154.787 70.1191C153.846 72.6878 148.833 80.7917 148.833 80.7917C148.833 80.7917 153.035 82.3555 154.233 83.4356C155.432 84.5158 156.877 87.9927 156.157 88.1163C155.437 88.2399 152.793 85.2359 152.191 84.9941C151.589 84.7522 148.113 84.5158 148.113 84.5158C148.113 84.5158 148.833 85.4992 149.392 86.4074C149.684 86.8148 149.901 87.2717 150.031 87.7562C150.031 88.3527 149.193 88.2345 148.714 87.2726C148.236 86.3107 146.791 86.4343 146.312 84.274C146.056 82.7539 146.138 81.1959 146.554 79.7115L148.655 64.2293C148.655 64.2293 150.832 59.8818 155.975 61.8325Z" fill="white" stroke="#263238" stroke-width="0.5" stroke-linecap="round" stroke-linejoin="round"/>
<path d="M156.157 88.1209C156.157 88.1209 154.491 84.5365 152.658 83.9238" stroke="#263238" stroke-width="0.5" stroke-linecap="round" stroke-linejoin="round"/>
<path d="M155.712 86.063C154.947 84.9637 154.021 83.9855 152.966 83.1611" stroke="#263238" stroke-width="0.5" stroke-linecap="round" stroke-linejoin="round"/>
<path d="M122.737 132.01H124.699V150.911H122.737V132.01Z" fill="white" stroke="#263238" stroke-width="0.5" stroke-linecap="round" stroke-linejoin="round"/>
<path d="M121.226 151.684V148.497H126.208V151.711L146.129 159.363V163.136H144.769V160.266L123.644 155.806L103.078 160.266V163.136H101.756V159.363L121.226 151.684Z" fill="white" stroke="#263238" stroke-width="0.5" stroke-linecap="round" stroke-linejoin="round"/>
<path d="M118.813 132.01H128.621V138.045H118.813V132.01Z" fill="white" stroke="#263238" stroke-width="0.5" stroke-linecap="round" stroke-linejoin="round"/>
<path d="M148.243 165.398C147.076 165.398 146.131 164.453 146.131 163.286C146.131 162.12 147.076 161.174 148.243 161.174C149.409 161.174 150.354 162.12 150.354 163.286C150.354 164.453 149.409 165.398 148.243 165.398Z" fill="#263238" stroke="#263238" stroke-width="0.5" stroke-linecap="round" stroke-linejoin="round"/>
<path d="M147.333 163.286C147.333 163.107 147.387 162.931 147.486 162.782C147.586 162.632 147.728 162.516 147.894 162.447C148.06 162.379 148.242 162.361 148.419 162.396C148.595 162.431 148.757 162.517 148.884 162.644C149.011 162.771 149.097 162.933 149.132 163.109C149.167 163.285 149.149 163.468 149.081 163.634C149.012 163.8 148.895 163.942 148.746 164.041C148.597 164.141 148.421 164.195 148.241 164.195C148.001 164.195 147.77 164.099 147.599 163.929C147.429 163.758 147.333 163.527 147.333 163.286Z" fill="white" stroke="#263238" stroke-width="0.5" stroke-linecap="round" stroke-linejoin="round"/>
<path d="M99.4955 165.398C98.3291 165.398 97.3835 164.453 97.3835 163.286C97.3835 162.12 98.3291 161.174 99.4955 161.174C100.662 161.174 101.607 162.12 101.607 163.286C101.607 164.453 100.662 165.398 99.4955 165.398Z" fill="#263238" stroke="#263238" stroke-width="0.5" stroke-linecap="round" stroke-linejoin="round"/>
<path d="M99.4949 164.195C98.9933 164.195 98.5867 163.788 98.5867 163.286C98.5867 162.785 98.9933 162.378 99.4949 162.378C99.9965 162.378 100.403 162.785 100.403 163.286C100.403 163.788 99.9965 164.195 99.4949 164.195Z" fill="white" stroke="#263238" stroke-width="0.5" stroke-linecap="round" stroke-linejoin="round"/>
<path d="M122.812 163.587H124.473L125.3 152.27H121.979L122.812 163.587Z" fill="white" stroke="#263238" stroke-width="0.5" stroke-linecap="round" stroke-linejoin="round"/>
<path d="M122.888 161.174H124.549V165.855H122.888V161.174Z" fill="#263238" stroke="#263238" stroke-width="0.5" stroke-linecap="round" stroke-linejoin="round"/>
<path d="M117.466 99.7131C117.466 99.7131 104.209 97.628 102.956 97.4184C101.704 97.2088 99.3022 98.8801 98.1576 99.7131C97.0129 100.546 91.7895 103.679 92.4129 103.889C93.0362 104.098 95.1267 103.265 96.4863 102.744C97.8459 102.223 98.8884 101.804 98.8884 101.804C98.3831 102.506 97.8243 103.169 97.2171 103.786C96.6797 104.206 96.9001 104.517 98.3618 103.889C99.6273 103.371 100.718 102.502 101.506 101.384C102.043 100.551 102.865 99.0897 102.865 99.0897C102.865 99.0897 114.344 103.389 116.225 103.996C118.106 104.603 121.029 104.619 120.921 102.636C120.814 100.653 117.466 99.7131 117.466 99.7131Z" fill="white" stroke="#263238" stroke-width="0.5" stroke-linecap="round" stroke-linejoin="round"/>
<path d="M98.1572 99.713C99.3018 98.8801 101.704 97.2088 102.956 97.4184C103.622 97.5313 107.653 98.1654 111.302 98.7404L110.834 102.045C107.073 100.67 102.854 99.0897 102.854 99.0897C102.854 99.0897 102.016 100.551 101.494 101.384C100.71 102.501 99.623 103.369 98.3614 103.889C96.8997 104.517 96.6955 104.206 97.2168 103.786C97.824 103.169 98.3827 102.506 98.8881 101.803C98.8881 101.803 97.8401 102.223 96.4859 102.744C95.1317 103.265 93.0412 104.098 92.4125 103.889C91.7838 103.679 97.0072 100.551 98.1572 99.713Z" fill="white" stroke="#263238" stroke-width="0.5" stroke-linecap="round" stroke-linejoin="round"/>
<path d="M97.4258 100.863L92.4119 103.888" stroke="#263238" stroke-width="0.5" stroke-linecap="round" stroke-linejoin="round"/>
<path d="M107.109 66.8246C107.109 66.8246 104.185 64.9437 104.706 62.8586C105.228 60.7736 113.89 57.6352 118.066 58.5595C122.241 59.4838 123.601 63.7776 124.751 66.9106C125.901 70.0436 130.593 83.5106 130.593 83.5106C130.593 83.5106 127.148 87.369 122.763 85.3861C118.378 83.4031 114.412 72.6553 112.429 70.4627C110.446 68.2702 107.109 66.8246 107.109 66.8246Z" fill="#263238" stroke="#263238" stroke-width="0.5" stroke-linecap="round" stroke-linejoin="round"/>
<path d="M123.182 77.7822C123.182 77.7822 130.706 81.0065 132.893 82.1673C135.08 83.328 135.499 85.6119 135.499 87.5949C135.499 89.5779 132.672 104.507 132.672 104.507H120.366C120.366 104.507 118.174 100.121 116.604 98.6598C115.035 97.1981 113.788 94.2801 114.412 92.2917C115.035 90.3034 115.669 89.2662 115.669 87.2832C115.669 85.3002 116.083 82.796 117.652 81.2268C119.221 79.6576 120.049 77.1588 123.182 77.7822Z" fill="white" stroke="#263238" stroke-width="0.5" stroke-linecap="round" stroke-linejoin="round"/>
<path d="M97.2485 134.59C96.9798 135.955 95.8889 137.647 95.3515 138.943C94.2767 141.57 92.2991 145.735 91.1061 148.32C89.4133 152.007 88.1451 156.779 88.3762 157.101C88.7863 157.918 89.0535 158.8 89.1661 159.707C89.1661 160.358 88.7147 165.887 88.7147 165.887H87.9194L87.3551 162.631C87.3551 162.631 85.5495 162.744 84.9853 163.281C84.421 163.818 83.7439 165.017 82.7282 165.56C81.7125 166.102 77.0856 166.317 77.0856 166.317C77.0856 166.317 76.2956 165.887 77.3113 165.017C78.327 164.146 79.9069 162.959 80.8097 161.658C81.7125 160.358 84.3081 157.214 84.3081 157.214C84.3081 157.214 90.1818 125.019 90.6332 123.632C91.0846 122.246 92.5517 119.188 93.9059 118.866C95.2601 118.543 99.8925 118.076 99.8925 118.076L100.113 123.632C100.113 123.632 99.038 123.417 97.8074 125.911C97.0443 127.394 98.0277 130.575 97.2485 134.59Z" fill="white" stroke="#263238" stroke-width="0.5" stroke-linecap="round" stroke-linejoin="round"/>
<path d="M79.3103 163.308C81.9972 164.2 84.7755 161.534 86.0008 160.137C86.7827 159.287 87.7526 158.632 88.8328 158.224C89.0064 158.702 89.1183 159.201 89.166 159.707C89.166 160.357 88.7146 165.887 88.7146 165.887H87.9193L87.355 162.63C87.355 162.63 85.5494 162.743 84.9851 163.281C84.4209 163.818 83.7437 165.016 82.7281 165.559C81.7124 166.102 77.0855 166.317 77.0855 166.317C77.0855 166.317 76.2955 165.887 77.3112 165.016C77.8593 164.538 78.6117 163.936 79.3103 163.308Z" fill="#263238" stroke="#263238" stroke-width="0.5" stroke-linecap="round" stroke-linejoin="round"/>
<path d="M93.8676 116.721C93.8676 116.721 88.9504 118.097 89.2568 119.156C89.5631 120.214 96.9468 142.317 99.7144 147.503C102.482 152.689 103.508 156.816 103.202 158.084C102.896 159.353 100.327 163.485 99.5102 164.119C98.6934 164.753 96.6405 165.812 96.9468 165.92C99.131 166.08 101.324 166.08 103.508 165.92C104.014 165.86 106.889 162.427 107.404 162.212L107.942 162.002V165.812H109.027L109.436 159.992C109.116 158.915 108.594 157.908 107.899 157.026C106.872 155.865 105.851 154.591 104.927 151.421C104.003 148.25 100.628 131.962 100.091 128.678C99.7426 126.571 99.1343 124.515 98.2796 122.557L93.8676 116.721Z" fill="white" stroke="#263238" stroke-width="0.5" stroke-linecap="round" stroke-linejoin="round"/>
<path d="M99.5111 164.119C99.7856 163.87 100.031 163.591 100.242 163.286C101.044 163.333 101.845 163.187 102.58 162.862C103.912 162.12 105.143 160.427 106.272 159.154C106.88 158.535 107.598 158.034 108.389 157.676C108.847 158.401 109.208 159.183 109.464 160.003L109.055 165.823H107.927V162.002L107.389 162.211C106.852 162.426 103.998 165.86 103.493 165.919C101.309 166.08 99.1159 166.08 96.9317 165.919C96.6415 165.812 98.6889 164.753 99.5111 164.119Z" fill="#263238" stroke="#263238" stroke-width="0.5" stroke-linecap="round" stroke-linejoin="round"/>
<path d="M132.672 104.507C132.672 104.507 133.624 116.109 133.747 119.871C133.871 123.632 130.722 127.281 126.439 127.7C122.156 128.12 96.6673 124.653 96.6673 124.653L92.4917 117.033C92.4917 117.033 104.809 113.9 108.984 112.734C113.16 111.568 117.126 110.853 117.126 110.853L120.35 104.485L132.672 104.507Z" fill="#263238" stroke="#263238" stroke-width="0.5" stroke-linecap="round" stroke-linejoin="round"/>
<path d="M118.383 83.9406L116.293 87.5948C116.293 87.5948 117.024 83.7363 117.443 82.3767C117.862 81.0171 119.007 81.4363 119.007 82.1672C118.941 82.897 118.797 83.6177 118.577 84.3167" fill="#5CB0FF"/>
<path d="M118.383 83.9406L116.293 87.5948C116.293 87.5948 117.024 83.7363 117.443 82.3767C117.862 81.0171 119.007 81.4363 119.007 82.1672C118.941 82.897 118.797 83.6177 118.577 84.3167" stroke="#263238" stroke-width="0.5" stroke-linecap="round" stroke-linejoin="round"/>
<path d="M118.099 71.2149L121.699 76.9757L118.577 84.295C118.577 84.295 116.658 79.8562 115.697 78.776C114.735 77.6959 113.058 76.132 113.058 76.132C113.058 76.132 116.057 72.5315 116.282 71.575C116.508 70.6184 117.857 70.253 118.099 71.2149Z" fill="white" stroke="#263238" stroke-width="0.5" stroke-linecap="round" stroke-linejoin="round"/>
<path d="M122.35 75.9065L124.226 77.782L120.888 87.3905L118.384 83.9405L122.35 75.9065Z" fill="#5CB0FF" stroke="#263238" stroke-width="0.5" stroke-linecap="round" stroke-linejoin="round"/>
<path d="M133.937 91.2486C133.937 91.2486 128.509 103.463 127.359 105.968C126.209 108.472 123.705 108.993 121.41 108.993C119.115 108.993 104.729 108.585 104.729 108.585C104.729 108.585 96.7974 108.896 95.4379 108.585C94.0783 108.273 91.8911 106.392 91.4719 106.392C91.0527 106.392 88.7581 108.477 88.2476 108.477C87.737 108.477 87.4092 108.166 87.8284 107.435C88.2476 106.704 89.9188 103.469 91.0527 103.367C92.1866 103.265 97.1091 106.494 97.1091 106.494C97.1091 106.494 105.251 105.35 109.528 104.2C113.806 103.05 120.491 100.438 120.491 100.438C120.491 100.438 123.205 95.4241 124.355 92.3771C125.505 89.3301 125.709 85.2782 127.8 83.6069C129.89 81.9356 132.496 83.8165 132.496 83.8165" fill="white"/>
<path d="M133.937 91.2486C133.937 91.2486 128.509 103.463 127.359 105.968C126.209 108.472 123.705 108.993 121.41 108.993C119.115 108.993 104.729 108.585 104.729 108.585C104.729 108.585 96.7974 108.896 95.4378 108.585C94.0783 108.273 91.8911 106.392 91.4719 106.392C91.0527 106.392 88.7581 108.477 88.2476 108.477C87.737 108.477 87.4092 108.166 87.8284 107.435C88.2476 106.704 89.9188 103.469 91.0527 103.367C92.1866 103.265 97.1091 106.494 97.1091 106.494C97.1091 106.494 105.251 105.35 109.528 104.2C113.806 103.05 120.491 100.438 120.491 100.438C120.491 100.438 123.205 95.4241 124.355 92.3771C125.505 89.3301 125.709 85.2782 127.8 83.6069C129.89 81.9356 132.496 83.8165 132.496 83.8165" stroke="#263238" stroke-width="0.5" stroke-linecap="round" stroke-linejoin="round"/>
<path d="M91.0312 103.362C92.1812 103.255 97.0876 106.49 97.0876 106.49C97.0876 106.49 101.166 105.915 105.068 105.173L104.966 108.585H104.729C104.729 108.585 96.7974 108.897 95.4378 108.585C94.0782 108.274 91.891 106.393 91.4719 106.393C91.0527 106.393 88.7581 108.478 88.2475 108.478C87.737 108.478 87.4092 108.166 87.8284 107.435C88.2475 106.705 89.8866 103.464 91.0312 103.362Z" fill="white" stroke="#263238" stroke-width="0.5" stroke-linecap="round" stroke-linejoin="round"/>
<path d="M91.2407 105.237C91.2407 105.237 88.4248 107.22 87.796 108.161" stroke="#263238" stroke-width="0.5" stroke-linecap="round" stroke-linejoin="round"/>
<path d="M90.9292 104.297L88.425 106.387" stroke="#263238" stroke-width="0.5" stroke-linecap="round" stroke-linejoin="round"/>
<path d="M107.415 64.3687C107.087 65.525 106.822 66.6982 106.62 67.8832C106.502 68.958 107.34 69.5652 106.98 70.1617C106.62 70.7582 105.696 72.6445 106.174 72.8809C106.596 73.0417 107.044 73.1237 107.496 73.1228C107.496 73.1228 109.694 77.2123 110.183 77.9593C110.672 78.7062 114.025 77.0027 115.589 76.2826C117.153 75.5625 117.266 72.0802 117.266 72.0802L117.389 69.6781C117.389 69.6781 109.812 66.889 107.415 64.3687Z" fill="white" stroke="#263238" stroke-width="0.5" stroke-linecap="round" stroke-linejoin="round"/>
<path d="M109.178 68.3292C107.62 66.4376 107.641 68.528 107.641 68.528L109.178 68.3292Z" fill="white"/>
<path d="M109.178 68.3292C107.62 66.4376 107.641 68.528 107.641 68.528" stroke="#263238" stroke-width="0.5" stroke-linecap="round" stroke-linejoin="round"/>
<path d="M108.432 70.5702C108.571 71.0108 108.824 71.3225 109.001 71.2688C109.178 71.215 109.205 70.812 109.071 70.3713C108.937 69.9307 108.679 69.619 108.501 69.6781C108.324 69.7372 108.297 70.1349 108.432 70.5702Z" fill="#263238"/>
<path d="M116.551 70.6129C116.551 70.6129 117.395 67.6089 118.351 68.2108C119.308 68.8127 119.792 71.0912 118.835 72.295C117.879 73.4987 116.315 72.7733 116.315 72.7733" fill="white"/>
<path d="M116.551 70.6129C116.551 70.6129 117.395 67.6089 118.351 68.2108C119.308 68.8127 119.792 71.0912 118.835 72.295C117.879 73.4987 116.315 72.7733 116.315 72.7733" stroke="#263238" stroke-width="0.5" stroke-linecap="round" stroke-linejoin="round"/>
<path d="M109.89 125.77L137.028 126.584C138.286 126.622 139.276 127.673 139.238 128.931L139.121 132.827C139.083 134.086 138.033 135.075 136.774 135.037L109.636 134.223C108.378 134.185 107.388 133.135 107.426 131.876L107.543 127.98C107.58 126.722 108.631 125.732 109.89 125.77Z" fill="white"/>
<path opacity="0.25" d="M109.889 125.77L137.027 126.584C138.286 126.622 139.275 127.672 139.237 128.931L139.12 132.827C139.083 134.085 138.032 135.075 136.774 135.037L109.635 134.223C108.377 134.185 107.387 133.134 107.425 131.876L107.542 127.98C107.58 126.722 108.63 125.732 109.889 125.77Z" fill="black"/>
<path opacity="0.25" d="M109.667 127.722L136.792 128.58C138.049 128.619 139.037 129.671 138.997 130.929L138.874 134.823C138.834 136.081 137.782 137.068 136.525 137.029L109.4 136.171C108.142 136.132 107.155 135.08 107.195 133.822L107.318 129.928C107.357 128.67 108.409 127.683 109.667 127.722Z" fill="black"/>
<path d="M109.89 125.77L137.028 126.584C138.286 126.622 139.276 127.673 139.238 128.931L139.121 132.827C139.083 134.086 138.033 135.075 136.774 135.037L109.636 134.223C108.378 134.185 107.388 133.135 107.426 131.876L107.543 127.98C107.58 126.722 108.631 125.732 109.89 125.77Z" stroke="#263238" stroke-width="0.5" stroke-linecap="round" stroke-linejoin="round"/>
<path d="M117.905 130.839C118.049 130.839 118.192 130.809 118.325 130.753C118.459 130.7 118.581 130.62 118.684 130.519C118.787 130.418 118.868 130.297 118.924 130.164C118.979 130.03 119.007 129.887 119.005 129.743C119.004 129.598 118.973 129.456 118.916 129.323C117.153 125.078 115.154 117.501 117.201 115.244C117.685 114.911 120.598 114.201 136.3 115.641L137.439 115.744C138.514 115.83 139.476 117.227 139.718 117.71C139.848 117.97 140.077 118.167 140.352 118.258C140.628 118.349 140.928 118.327 141.188 118.197C141.447 118.066 141.644 117.838 141.735 117.563C141.827 117.287 141.805 116.986 141.674 116.727C141.524 116.426 140.116 113.755 137.611 113.562L136.499 113.465C119.77 111.928 116.562 112.702 115.589 113.761C111.903 117.786 116.374 128.91 116.895 130.167C116.976 130.368 117.116 130.539 117.296 130.659C117.477 130.779 117.689 130.842 117.905 130.839Z" fill="white" stroke="#263238" stroke-width="0.5" stroke-linecap="round" stroke-linejoin="round"/>
<path d="M22.1178 109.681H108.261V115.716H22.1178V109.681Z" fill="#5CB0FF" stroke="#263238" stroke-width="0.5" stroke-linecap="round" stroke-linejoin="round"/>
<path d="M73.2397 107.247H91.9946V111.331H73.2397V107.247Z" fill="white" stroke="#263238" stroke-width="0.5" stroke-linecap="round" stroke-linejoin="round"/>
<path d="M36.8632 103.388H55.6182V106.414H36.8632V103.388Z" fill="white" stroke="#263238" stroke-width="0.5" stroke-linecap="round" stroke-linejoin="round"/>
<path d="M36.1059 100.363H54.8608V103.388H36.1059V100.363Z" fill="white" stroke="#263238" stroke-width="0.5" stroke-linecap="round" stroke-linejoin="round"/>
<path d="M35.7292 106.339H54.4841V111.331H35.7292V106.339Z" fill="white" stroke="#263238" stroke-width="0.5" stroke-linecap="round" stroke-linejoin="round"/>
<path d="M22.1178 109.816H108.261V112.691H22.1178V109.816Z" fill="#263238" stroke="#263238" stroke-width="0.5" stroke-linecap="round" stroke-linejoin="round"/>
<path d="M107.788 165.909C107.947 165.909 108.099 165.846 108.212 165.734C108.324 165.622 108.389 165.471 108.39 165.312L108.782 109.816H106.799L107.192 165.312C107.192 165.47 107.254 165.622 107.366 165.734C107.478 165.846 107.63 165.909 107.788 165.909Z" fill="#5CB0FF" stroke="#263238" stroke-width="0.5" stroke-linecap="round" stroke-linejoin="round"/>
<path d="M22.6389 165.909C22.7971 165.909 22.9488 165.846 23.0607 165.734C23.1726 165.622 23.2354 165.47 23.2354 165.312L23.6277 109.816H21.6447L22.037 165.312C22.0398 165.47 22.1043 165.621 22.2167 165.733C22.3291 165.844 22.4806 165.907 22.6389 165.909Z" fill="#5CB0FF" stroke="#263238" stroke-width="0.5" stroke-linecap="round" stroke-linejoin="round"/>
<path d="M61.6865 108.827H70.9725C71.1507 108.827 71.3216 108.756 71.4475 108.63C71.5735 108.504 71.6443 108.333 71.6443 108.155C71.6443 107.977 71.5735 107.806 71.4475 107.68C71.3216 107.554 71.1507 107.483 70.9725 107.483H61.6865C61.4638 107.48 61.2443 107.43 61.0417 107.338C60.8392 107.245 60.658 107.112 60.5096 106.946C60.3309 106.746 60.2049 106.505 60.143 106.244C60.081 105.983 60.0851 105.711 60.1549 105.452L63.4491 93.6293C63.4728 93.5443 63.4795 93.4554 63.4688 93.3678C63.4581 93.2802 63.4303 93.1955 63.3869 93.1186C63.3435 93.0418 63.2853 92.9742 63.2158 92.9198C63.1462 92.8655 63.0666 92.8253 62.9816 92.8017C62.8099 92.7554 62.6268 92.7784 62.472 92.8659C62.3171 92.9534 62.2029 93.0983 62.154 93.2693L58.8598 105.092C58.7389 105.528 58.7203 105.985 58.8055 106.43C58.8908 106.874 59.0775 107.292 59.3512 107.652C59.6248 108.012 59.978 108.304 60.3831 108.505C60.7882 108.706 61.2342 108.811 61.6865 108.811V108.827Z" fill="white" stroke="#263238" stroke-width="0.5" stroke-linecap="round" stroke-linejoin="round"/>
<path d="M62.8475 78.1482L64.9497 77.896L68.21 105.076L66.1077 105.328L62.8475 78.1482Z" fill="white" stroke="#263238" stroke-width="0.5" stroke-linecap="round" stroke-linejoin="round"/>
<path d="M62.8144 78.1362C60.7548 87.3027 61.9064 96.8986 66.0764 105.317L62.8144 78.1362Z" fill="#263238" stroke="#263238" stroke-width="0.5" stroke-linecap="round" stroke-linejoin="round"/>
<path d="M80.5858 107.258C80.9765 107.248 81.3594 107.147 81.7036 106.962C82.2155 106.707 82.6413 106.307 82.9279 105.812C83.2145 105.317 83.3494 104.749 83.3157 104.178C83.3024 103.907 83.229 103.641 83.1007 103.402C82.9725 103.162 82.7926 102.954 82.5741 102.792C81.6445 102.125 80.2365 102.448 80.0753 102.491C79.937 102.526 79.8183 102.614 79.7453 102.737C79.6722 102.859 79.6508 103.006 79.6857 103.144C79.7206 103.282 79.809 103.401 79.9315 103.474C80.0539 103.547 80.2004 103.568 80.3386 103.533C80.8747 103.388 81.4446 103.434 81.9508 103.662C82.0429 103.733 82.1171 103.824 82.1675 103.929C82.2179 104.033 82.2431 104.148 82.241 104.264C82.2598 104.624 82.1726 104.981 81.9901 105.292C81.8076 105.602 81.5379 105.852 81.2146 106.011C81.0741 106.108 80.9101 106.165 80.7398 106.176C80.5695 106.188 80.3993 106.153 80.2473 106.075C80.1375 105.984 79.996 105.94 79.8539 105.953C79.7836 105.96 79.7152 105.98 79.6527 106.013C79.5901 106.046 79.5347 106.091 79.4895 106.145C79.4444 106.199 79.4104 106.262 79.3894 106.33C79.3685 106.397 79.3611 106.468 79.3675 106.538C79.374 106.609 79.3943 106.677 79.4272 106.74C79.4602 106.802 79.5051 106.858 79.5594 106.903C79.8502 107.136 80.213 107.262 80.5858 107.258Z" fill="white" stroke="#263238" stroke-width="0.5" stroke-linecap="round" stroke-linejoin="round"/>
<path d="M75.6573 108.177C76.3559 108.757 78.5914 108.757 79.29 108.177C80.5368 107.14 80.4991 101.803 80.4991 101.803H74.4481C74.4481 101.803 74.4105 107.14 75.6573 108.177Z" fill="white" stroke="#263238" stroke-width="0.5" stroke-linecap="round" stroke-linejoin="round"/>
<path d="M20.0003 108.499H110.379V111.003H20.0003V108.499Z" fill="#5CB0FF" stroke="#263238" stroke-width="0.5" stroke-linecap="round" stroke-linejoin="round"/>
</svg>
