<svg width="240" height="240" viewBox="0 0 240 240" fill="none" xmlns="http://www.w3.org/2000/svg">
<path d="M81.1785 213.559C81.1785 213.559 118.138 226.697 154.407 205.778C190.676 184.86 209.002 143.335 224.703 110.062C240.404 76.7881 231.375 42.9577 203.684 27.5305C175.993 12.1033 157.162 34.8553 118.316 35.9545C79.4697 37.0537 69.0249 31.4953 36.7881 53.4505C4.55127 75.4057 -1.27113 127.222 24.1545 165.569C49.5801 203.916 81.1785 213.559 81.1785 213.559Z" fill="#5CB0FF"/>
<path opacity="0.7" d="M81.1785 213.559C81.1785 213.559 118.138 226.697 154.407 205.778C190.676 184.86 209.002 143.335 224.703 110.062C240.404 76.7881 231.375 42.9577 203.684 27.5305C175.993 12.1033 157.162 34.8553 118.316 35.9545C79.4697 37.0537 69.0249 31.4953 36.7881 53.4505C4.55127 75.4057 -1.27113 127.222 24.1545 165.569C49.5801 203.916 81.1785 213.559 81.1785 213.559Z" fill="white"/>
<path d="M60.552 142.262H18V180.917H60.552V142.262Z" stroke="#263238" stroke-width="0.5" stroke-miterlimit="10"/>
<path d="M56.0159 144.874H22.5455V178.301H56.0159V144.874Z" fill="#5CB0FF"/>
<path d="M18 140.894V222.48" stroke="#263238" stroke-width="0.5" stroke-linejoin="round"/>
<path d="M60.7054 140.894V222.48" stroke="#263238" stroke-width="0.5" stroke-linejoin="round"/>
<path d="M30.8593 152.985H33.6769V154.968H30.8593V160.699H28.6801V146.817H34.4401V148.8H30.8593V152.985Z" fill="white"/>
<path d="M35.3232 150.149C35.3232 147.926 36.4944 146.659 38.6352 146.659C40.776 146.659 41.9472 147.926 41.9472 150.149V157.349C41.9472 159.571 40.776 160.838 38.6352 160.838C36.4944 160.838 35.3232 159.571 35.3232 157.349V150.149ZM37.5024 157.507C37.5024 158.496 37.9392 158.875 38.6352 158.875C39.3312 158.875 39.7632 158.496 39.7632 157.507V150.01C39.7632 149.016 39.3312 148.642 38.6352 148.642C37.9392 148.642 37.5024 149.016 37.5024 150.01V157.507Z" fill="white"/>
<path d="M47.9136 160.699C47.7356 160.15 47.6687 159.57 47.7168 158.995V156.811C47.7168 155.525 47.28 155.049 46.2768 155.049H45.5376V160.699H43.3536V146.817H46.6464C48.9072 146.817 49.8768 147.869 49.8768 150.009V151.099C49.8768 152.539 49.3968 153.461 48.4368 153.917C49.5264 154.373 49.8768 155.424 49.8768 156.873V159.014C49.8373 159.586 49.9174 160.16 50.112 160.699H47.9136ZM45.5376 148.8V153.062H46.3872C47.2032 153.062 47.6976 152.707 47.6976 151.598V150.24C47.6976 149.246 47.3616 148.8 46.5888 148.8H45.5376Z" fill="white"/>
<path d="M28.1857 162.686C30.3073 162.686 31.3969 163.953 31.3969 166.176V166.613H29.3329V166.037C29.3329 165.043 28.9393 164.669 28.2433 164.669C27.5473 164.669 27.1537 165.043 27.1537 166.037C27.1537 168.893 31.4161 169.425 31.4161 173.395C31.4161 175.617 30.3073 176.885 28.1665 176.885C26.0257 176.885 24.9313 175.617 24.9313 173.395V172.541H26.9953V173.534C26.9953 174.523 27.4273 174.883 28.1233 174.883C28.8193 174.883 29.2561 174.523 29.2561 173.534C29.2561 170.678 24.9889 170.141 24.9889 166.176C24.9697 163.953 26.0641 162.686 28.1857 162.686Z" fill="white"/>
<path d="M39.7247 176.726H37.5263L37.1471 174.206H34.4687L34.0943 176.726H32.0879L34.3103 162.845H37.5023L39.7247 176.726ZM34.7471 172.32H36.8495L35.7983 165.298L34.7471 172.32Z" fill="white"/>
<path d="M40.7375 162.845H42.9167V174.744H46.5311V176.726H40.7711L40.7375 162.845Z" fill="white"/>
<path d="M49.6415 168.696H52.6367V170.678H49.6415V174.744H53.4095V176.726H47.4575V162.845H53.4095V164.827H49.6415V168.696Z" fill="white"/>
<path d="M218.853 125.246C218.853 125.246 218.853 123 215.704 119.851C212.555 116.702 210.534 114.907 210.534 114.907C210.534 114.907 208.96 120.077 211.883 123.221C214.033 125.436 216.364 127.467 218.853 129.293V125.246Z" fill="#5CB0FF"/>
<path d="M214.283 139.282C214.283 139.282 214.283 137.035 211.139 133.886C207.995 130.738 205.97 128.942 205.97 128.942C205.97 128.942 204.395 134.112 207.318 137.261C209.467 139.474 211.796 141.503 214.283 143.328V139.282Z" fill="#5CB0FF"/>
<path d="M218.651 129.072C218.651 129.072 218.891 126.84 222.352 124.042C225.813 121.243 228.016 119.674 228.016 119.674C228.016 119.674 229.033 124.978 225.793 127.8C223.422 129.768 220.89 131.535 218.224 133.08L218.651 129.072Z" fill="#5CB0FF"/>
<path d="M213.136 145.651C213.136 145.651 213.616 143.453 217.346 141.034C221.075 138.614 223.432 137.28 223.432 137.28C223.432 137.28 223.912 142.661 220.374 145.128C217.807 146.841 215.102 148.338 212.286 149.602L213.136 145.651Z" fill="#5CB0FF"/>
<path d="M214.173 163.723C214.173 163.723 214.173 161.477 217.321 158.328C220.47 155.179 222.491 153.384 222.491 153.384C222.491 153.384 224.061 158.554 221.142 161.702C218.992 163.915 216.66 165.944 214.173 167.77V163.723Z" fill="#5CB0FF"/>
<path d="M214.12 168.135C214.12 168.135 214.442 165.912 211.773 162.375C209.104 158.837 207.357 156.744 207.357 156.744C207.357 156.744 205.067 161.635 207.51 165.168C209.324 167.663 211.342 170.002 213.544 172.162L214.12 168.135Z" fill="#5CB0FF"/>
<path d="M211.019 181.209C211.019 181.209 211.019 178.963 214.163 175.814C217.307 172.665 219.333 170.88 219.333 170.88C219.333 170.88 220.907 176.049 217.984 179.198C215.836 181.416 213.507 183.451 211.019 185.28V181.209Z" fill="#5CB0FF"/>
<path d="M213.121 193.061C213.121 193.061 212.55 190.886 214.797 187.046C217.043 183.206 218.56 180.96 218.56 180.96C218.56 180.96 221.392 185.563 219.361 189.346C217.842 192.031 216.102 194.586 214.158 196.982L213.121 193.061Z" fill="#5CB0FF"/>
<path d="M219.136 124.67C218.978 127.011 218.69 129.341 218.272 131.65C217.029 138.077 213.918 142.21 212.675 148.027C211.432 153.845 215.003 161.309 214.048 168.763C213.093 176.218 210.208 180.365 211.019 185.338C211.83 190.31 216.299 204.797 216.299 204.797" stroke="#263238" stroke-width="0.5" stroke-linecap="round" stroke-linejoin="round"/>
<path d="M218.622 130.57L222.011 127.963" stroke="#263238" stroke-width="0.5" stroke-linecap="round" stroke-linejoin="round"/>
<path d="M218.781 127.57L217.36 125.05" stroke="#263238" stroke-width="0.5" stroke-linecap="round" stroke-linejoin="round"/>
<path d="M212.867 147.758C212.867 147.758 215.704 145.627 218.627 143.501" stroke="#263238" stroke-width="0.5" stroke-linecap="round" stroke-linejoin="round"/>
<path d="M214.283 143.328C214.283 143.328 211.917 138.691 209.238 135.615" stroke="#263238" stroke-width="0.5" stroke-linecap="round" stroke-linejoin="round"/>
<path d="M214.283 166.92C215.904 163.934 217.949 161.198 220.355 158.798" stroke="#263238" stroke-width="0.5" stroke-linecap="round" stroke-linejoin="round"/>
<path d="M213.731 170.074C212.872 168.047 211.844 166.097 210.659 164.242C209.003 161.794 208.739 161.482 208.739 161.482" stroke="#263238" stroke-width="0.5" stroke-linecap="round" stroke-linejoin="round"/>
<path d="M211.019 185.338C211.739 183.553 212.593 181.824 213.573 180.168C214.557 178.64 215.665 177.195 216.885 175.848" stroke="#263238" stroke-width="0.5" stroke-linecap="round" stroke-linejoin="round"/>
<path d="M214.144 196.978C213.98 195.273 214.274 193.555 214.994 192C216.179 189.711 217.518 186.72 218.07 185.53" stroke="#263238" stroke-width="0.5" stroke-linecap="round" stroke-linejoin="round"/>
<path d="M198.246 155.271C198.246 155.271 198.001 153.864 199.633 151.546C201.265 149.227 202.336 147.883 202.336 147.883C202.336 147.883 203.886 150.955 202.393 153.245C201.288 154.869 200.047 156.396 198.683 157.81L198.246 155.271Z" fill="#5CB0FF"/>
<path d="M202.634 163.579C202.634 163.579 202.389 162.168 204.021 159.855C205.653 157.541 206.728 156.192 206.728 156.192C206.728 156.192 208.274 159.264 206.781 161.554C205.674 163.175 204.433 164.701 203.07 166.114L202.634 163.579Z" fill="#5CB0FF"/>
<path d="M198.784 157.651C198.784 157.651 198.395 156.274 195.904 154.896C193.413 153.519 191.882 152.77 191.882 152.77C191.882 152.77 191.819 156.211 194.152 157.627C195.854 158.607 197.634 159.444 199.475 160.128L198.784 157.651Z" fill="#5CB0FF"/>
<path d="M204.045 167.448C204.045 167.448 203.512 166.118 200.906 165.01C198.299 163.901 196.677 163.32 196.677 163.32C196.677 163.32 196.979 166.742 199.451 167.909C201.246 168.702 203.103 169.345 205.005 169.829L204.045 167.448Z" fill="#5CB0FF"/>
<path d="M205.355 178.891C205.355 178.891 205.11 177.485 202.797 175.853C200.483 174.221 199.019 173.314 199.019 173.314C199.019 173.314 198.592 176.727 200.766 178.383C202.355 179.541 204.037 180.563 205.797 181.44L205.355 178.891Z" fill="#5CB0FF"/>
<path d="M205.869 181.651C205.869 181.651 205.427 180.293 206.714 177.768C208 175.243 208.869 173.76 208.869 173.76C208.869 173.76 210.837 176.582 209.689 179.04C208.822 180.802 207.811 182.489 206.666 184.085L205.869 181.651Z" fill="#5CB0FF"/>
<path d="M209.819 193.022C209.819 193.022 209.982 191.582 212.219 189.84C214.456 188.098 215.843 187.09 215.843 187.09C215.843 187.09 216.462 190.474 214.403 192.25C212.883 193.494 211.261 194.608 209.555 195.581L209.819 193.022Z" fill="#5CB0FF"/>
<path d="M209.234 189.514C209.234 189.514 208.989 188.107 206.675 186.475C204.362 184.843 202.898 183.936 202.898 183.936C202.898 183.936 202.47 187.349 204.645 189.005C206.232 190.159 207.913 191.179 209.67 192.053L209.234 189.514Z" fill="#5CB0FF"/>
<path d="M209.2 197.174C209.2 197.174 209.325 195.734 207.496 193.584C205.667 191.434 204.486 190.171 204.486 190.171C204.486 190.171 203.209 193.368 204.894 195.518C206.137 197.038 207.505 198.451 208.984 199.742L209.2 197.174Z" fill="#5CB0FF"/>
<path d="M198.006 154.939C198.359 156.391 198.792 157.822 199.302 159.226C200.781 163.118 203.181 165.379 204.582 168.888C205.984 172.397 204.582 177.466 205.974 182.04C207.366 186.614 209.651 188.894 209.67 192.12C209.69 195.346 208.422 204.25 208.422 204.25" stroke="#263238" stroke-width="0.5" stroke-linecap="round" stroke-linejoin="round"/>
<path d="M198.966 158.582L196.557 157.32" stroke="#263238" stroke-width="0.5" stroke-linecap="round" stroke-linejoin="round"/>
<path d="M198.544 156.72L199.158 154.987" stroke="#263238" stroke-width="0.5" stroke-linecap="round" stroke-linejoin="round"/>
<path d="M204.443 168.739C204.443 168.739 202.432 167.712 200.373 166.695" stroke="#263238" stroke-width="0.5" stroke-linecap="round" stroke-linejoin="round"/>
<path d="M203.07 166.114C203.663 164.245 204.443 162.44 205.398 160.728" stroke="#263238" stroke-width="0.5" stroke-linecap="round" stroke-linejoin="round"/>
<path d="M205.633 180.912C204.293 179.215 202.713 177.721 200.944 176.477" stroke="#263238" stroke-width="0.5" stroke-linecap="round" stroke-linejoin="round"/>
<path d="M206.32 182.827C206.641 181.462 207.075 180.127 207.616 178.834C208.389 177.12 208.504 176.914 208.504 176.914" stroke="#263238" stroke-width="0.5" stroke-linecap="round" stroke-linejoin="round"/>
<path d="M209.574 194.539C210.355 193.568 211.22 192.668 212.162 191.851C212.761 191.408 213.324 190.919 213.846 190.387" stroke="#263238" stroke-width="0.5" stroke-linecap="round" stroke-linejoin="round"/>
<path d="M209.68 192.106C209.039 191.056 208.317 190.057 207.52 189.12C206.738 188.266 205.887 187.478 204.976 186.763" stroke="#263238" stroke-width="0.5" stroke-linecap="round" stroke-linejoin="round"/>
<path d="M208.984 199.742C208.903 198.655 208.532 197.609 207.909 196.714C206.92 195.408 205.754 193.67 205.278 192.989" stroke="#263238" stroke-width="0.5" stroke-linecap="round" stroke-linejoin="round"/>
<path d="M216.203 222.11H207.141C206.747 222.11 206.43 221.63 206.43 221.074L204.16 204.365H219.146L216.899 221.074C216.918 221.645 216.602 222.11 216.203 222.11Z" fill="#263238" stroke="#263238" stroke-width="0.5" stroke-linecap="round" stroke-linejoin="round"/>
<path d="M204.77 207.274H215.555" stroke="white" stroke-width="0.5" stroke-linecap="round" stroke-linejoin="round"/>
<path d="M216.573 207.274H218.349" stroke="white" stroke-width="0.5" stroke-linecap="round" stroke-linejoin="round"/>
<path d="M132.789 213.269C132.789 213.269 130.259 216.427 128.743 217.186C127.226 217.944 122.93 219.461 122.8 220.598C122.671 221.736 122.675 222.494 122.675 222.494H142.653C142.653 222.494 143.032 222.014 142.903 220.219C142.773 218.424 141.515 212.89 141.515 212.89L132.789 213.269Z" fill="white" stroke="#263238" stroke-width="0.5" stroke-linecap="round" stroke-linejoin="round"/>
<path d="M142.926 220.978H122.766C122.68 221.904 122.68 222.495 122.68 222.495H142.658C142.658 222.495 142.917 222.139 142.926 220.978Z" fill="white" stroke="#263238" stroke-width="0.5" stroke-linecap="round" stroke-linejoin="round"/>
<path d="M164.522 221.866C164.522 221.866 164.383 218.352 164.522 216.806C164.588 215.541 164.546 214.273 164.397 213.014H172.739C172.739 213.014 173.627 216.427 174.511 217.69C175.394 218.952 176.407 220.728 176.407 221.357V222.494H164.651L164.522 221.866Z" fill="white" stroke="#263238" stroke-width="0.5" stroke-linecap="round" stroke-linejoin="round"/>
<path d="M176.407 221.357C176.404 221.273 176.391 221.189 176.368 221.107H164.498L164.522 221.866L164.651 222.495H176.407V221.357Z" fill="white" stroke="#263238" stroke-width="0.5" stroke-linecap="round" stroke-linejoin="round"/>
<path d="M136.586 127.075C136.586 127.075 133.043 147.365 132.573 157.752C132.103 168.139 131.392 180.403 132.338 186.302C133.283 192.202 133.043 208.248 133.043 208.248C133.043 208.248 130.687 209.899 131.392 212.026L132.103 214.147L142.365 216.624C142.674 215.266 142.871 213.886 142.955 212.496C143.191 209.664 142.475 208.718 142.475 207.067C142.475 205.416 147.779 173.578 148.015 172.637C148.25 171.696 150.736 145.714 150.736 145.714L152.243 150.96C152.243 150.96 156.904 175.07 158.32 182.16C159.736 189.25 163.24 203.28 163.24 205.2C163.24 207.12 163.475 208.738 163.475 210.389C163.475 212.04 162.77 211.57 163.475 213.221C164.181 214.872 164.656 216.293 164.656 216.293L173.776 216.538C173.407 214.591 173.269 212.608 173.363 210.629C173.599 208.032 173.363 204.019 173.599 200.246C173.834 196.474 175.25 185.366 174.309 179.952C173.368 174.538 172.418 175.229 172.418 170.275V140.05C172.418 135.806 170.061 126.835 170.061 126.835C170.061 126.835 153.304 128.491 147.405 128.016C141.506 127.541 136.586 127.075 136.586 127.075Z" fill="#263238" stroke="#263238" stroke-width="0.5" stroke-linecap="round" stroke-linejoin="round"/>
<path d="M142.749 128.419C148.473 130.452 154.713 130.506 160.471 128.573L159.991 126.086C159.991 126.086 150.506 126.24 147.395 125.774C144.285 125.309 142.595 125.155 142.595 125.155" fill="#5E5E5E"/>
<path d="M142.749 128.419C148.473 130.452 154.713 130.506 160.471 128.573L159.991 126.086C159.991 126.086 150.506 126.24 147.395 125.774C144.285 125.309 142.595 125.155 142.595 125.155" stroke="#263238" stroke-width="0.5" stroke-linecap="round" stroke-linejoin="round"/>
<path d="M151.921 127.909L148.755 127.629L148.591 129.499L151.756 129.778L151.921 127.909Z" fill="white" stroke="#263238" stroke-width="0.5" stroke-linecap="round" stroke-linejoin="round"/>
<path d="M155.2 77.7312C155.2 77.7312 148.514 79.2864 146.181 80.2176C143.848 81.1488 143.382 99.6528 143.382 106.498C143.382 113.342 141.515 124.997 141.986 125.621C142.456 126.245 145.091 127.795 151 127.795C154.239 127.842 157.473 127.53 160.643 126.864C160.643 126.864 158.152 116.304 161.123 106.186C164.094 96.0672 165.63 82.8624 164.541 80.6832C163.451 78.504 155.2 77.7312 155.2 77.7312Z" fill="#5CB0FF" stroke="#263238" stroke-width="0.5" stroke-linecap="round" stroke-linejoin="round"/>
<path d="M151.922 90.2642C151.922 90.2642 149.493 110.693 149.493 126.264" stroke="#263238" stroke-width="0.5" stroke-linecap="round" stroke-linejoin="round"/>
<path d="M153.242 91.896C153.242 91.991 153.213 92.0838 153.161 92.1627C153.108 92.2416 153.033 92.3032 152.945 92.3395C152.858 92.3758 152.761 92.3853 152.668 92.3668C152.575 92.3483 152.489 92.3026 152.422 92.2354C152.355 92.1683 152.309 92.0828 152.291 91.9897C152.272 91.8966 152.282 91.8 152.318 91.7123C152.354 91.6246 152.416 91.5497 152.495 91.4969C152.574 91.4442 152.667 91.416 152.762 91.416C152.889 91.416 153.011 91.4666 153.101 91.5566C153.191 91.6466 153.242 91.7687 153.242 91.896Z" fill="#263238"/>
<path d="M152.483 98.8801C152.483 98.9751 152.455 99.0679 152.402 99.1468C152.35 99.2258 152.275 99.2873 152.187 99.3236C152.099 99.3599 152.003 99.3694 151.91 99.3509C151.817 99.3324 151.731 99.2867 151.664 99.2196C151.597 99.1524 151.551 99.0669 151.533 98.9738C151.514 98.8807 151.524 98.7842 151.56 98.6965C151.596 98.6087 151.658 98.5338 151.737 98.481C151.816 98.4283 151.908 98.4001 152.003 98.4001C152.131 98.4001 152.253 98.4507 152.343 98.5407C152.433 98.6308 152.483 98.7528 152.483 98.8801Z" fill="#263238"/>
<path d="M151.864 106.594C151.864 106.689 151.836 106.781 151.783 106.86C151.73 106.939 151.655 107.001 151.568 107.037C151.48 107.074 151.384 107.083 151.29 107.065C151.197 107.046 151.112 107 151.045 106.933C150.978 106.866 150.932 106.781 150.913 106.687C150.895 106.594 150.904 106.498 150.941 106.41C150.977 106.322 151.038 106.247 151.117 106.195C151.196 106.142 151.289 106.114 151.384 106.114C151.511 106.114 151.633 106.164 151.723 106.254C151.813 106.344 151.864 106.466 151.864 106.594Z" fill="#263238"/>
<path d="M151.034 114.739C151.302 114.739 151.519 114.522 151.519 114.254C151.519 113.987 151.302 113.77 151.034 113.77C150.766 113.77 150.549 113.987 150.549 114.254C150.549 114.522 150.766 114.739 151.034 114.739Z" fill="#263238"/>
<path d="M150.343 122.674C150.61 122.674 150.827 122.457 150.827 122.189C150.827 121.921 150.61 121.704 150.343 121.704C150.075 121.704 149.858 121.921 149.858 122.189C149.858 122.457 150.075 122.674 150.343 122.674Z" fill="#263238"/>
<path d="M134.819 84.4177C134.819 84.4177 134.215 89.1025 134.215 91.4977C134.215 93.8929 128.719 105.394 127.922 106.987C126.917 108.844 126.086 110.79 125.44 112.8C124.245 116.256 124.48 120.706 125.147 121.92C125.815 123.134 129.568 123.182 132.093 121.718C134.618 120.254 137.143 115.205 137.81 108.691C138.477 102.178 137.939 89.6737 137.675 87.2833C137.411 84.8929 136.355 83.8513 134.819 84.4177Z" fill="#5E5E5E" stroke="#263238" stroke-width="0.5" stroke-linecap="round" stroke-linejoin="round"/>
<path d="M129.823 108.351C129.823 108.351 134.541 109.613 134.699 114.643" stroke="#263238" stroke-width="0.5" stroke-linecap="round" stroke-linejoin="round"/>
<path d="M129.035 106.622C129.035 106.622 130.135 105.207 132.179 106.781" stroke="#263238" stroke-width="0.5" stroke-linecap="round" stroke-linejoin="round"/>
<path d="M148.346 87.0624C148.346 87.0624 145.701 109.296 145.077 117.845C144.453 126.394 141.971 137.592 140.57 140.702C139.168 143.813 132.487 148.008 132.487 148.008C132.487 148.008 133.73 136.968 134.507 129.509C135.285 122.05 136.375 112.709 136.375 107.909C136.375 103.109 134.661 86.1408 134.819 84.432C134.978 82.7232 147.88 78.8352 147.88 78.8352C148.565 81.5218 148.723 84.3157 148.346 87.0624Z" fill="#5E5E5E" stroke="#263238" stroke-width="0.5" stroke-linecap="round" stroke-linejoin="round"/>
<path d="M145.6 112.181C146.584 102.101 148.37 87.0624 148.37 87.0624C148.745 84.31 148.582 81.511 147.89 78.8208C147.89 78.8208 147.213 79.0224 146.176 79.3536L141.376 88.0704L145.96 89.5968L141.568 92.8464L145.6 112.181Z" fill="#263238" stroke="#263238" stroke-width="0.5" stroke-linecap="round" stroke-linejoin="round"/>
<path d="M200.219 108.552C200.219 108.552 201.439 102.984 201.093 101.419C200.747 99.8544 197.253 101.246 197.253 102.984C197.253 104.722 199.178 107.683 200.219 108.552Z" fill="#263238" stroke="#263238" stroke-width="0.5" stroke-linecap="round" stroke-linejoin="round"/>
<path d="M198.136 99.3312C198.136 99.3312 200.056 97.7664 200.743 96.7248C201.361 95.7953 202.06 94.9216 202.831 94.1136C203.354 93.5904 206.311 92.8944 207.179 91.5072C208.048 90.12 209.267 89.9376 209.267 91.3296C209.267 92.7216 206.829 94.2864 206.829 94.2864C206.829 94.2864 210.669 95.3328 211.528 95.3328C212.387 95.3328 216.919 94.2864 216.919 95.3328C216.919 96.3792 214.135 99.6816 212.57 100.2C211.005 100.718 201.439 102.638 201.439 102.638L198.655 105.595C198.655 105.595 197.09 102.288 198.136 99.3312Z" fill="white" stroke="#263238" stroke-width="0.5" stroke-linecap="round" stroke-linejoin="round"/>
<path d="M216.376 95.3232C216.376 95.3232 217.149 92.8704 216.587 93.0096C216.026 93.1488 214.903 95.4624 214.763 96.3696C214.624 97.2768 216.376 95.3232 216.376 95.3232Z" fill="white" stroke="#263238" stroke-width="0.5" stroke-linecap="round" stroke-linejoin="round"/>
<path d="M214.586 98.8224C215.564 97.9342 216.376 96.8794 216.986 95.7072C217.835 93.9312 217.274 93.96 216.678 94.4064C216.083 94.8528 215.397 96.4944 214.922 97.2288C214.446 97.9632 213.962 98.6352 213.962 98.6352" fill="white"/>
<path d="M214.586 98.8224C215.564 97.9342 216.376 96.8794 216.986 95.7072C217.835 93.9312 217.274 93.96 216.678 94.4064C216.083 94.8528 215.397 96.4944 214.922 97.2288C214.446 97.9632 213.962 98.6352 213.962 98.6352" stroke="#263238" stroke-width="0.5" stroke-linecap="round" stroke-linejoin="round"/>
<path d="M212.901 99.6866C214.07 99.2914 215.039 98.4564 215.603 97.3586C216.515 95.5346 216.515 94.9586 215.887 95.3234C215.258 95.6882 214.763 96.2834 214.135 97.2866C213.722 97.9184 213.168 98.4458 212.517 98.8274" fill="white"/>
<path d="M212.901 99.6866C214.07 99.2914 215.039 98.4564 215.603 97.3586C216.515 95.5346 216.515 94.9586 215.887 95.3234C215.258 95.6882 214.763 96.2834 214.135 97.2866C213.722 97.9184 213.168 98.4458 212.517 98.8274" stroke="#263238" stroke-width="0.5" stroke-linecap="round" stroke-linejoin="round"/>
<path d="M201.031 100.872C201.031 100.872 202.216 98.7938 202.811 98.3474C203.407 97.901 210.823 98.9426 210.823 98.9426C210.823 98.9426 214.183 95.5154 214.624 95.813C215.066 96.1106 213.232 99.173 212.901 99.6866C212.57 100.2 206.373 101.319 206.373 101.319" fill="white"/>
<path d="M201.031 100.872C201.031 100.872 202.216 98.7938 202.811 98.3474C203.407 97.901 210.823 98.9426 210.823 98.9426C210.823 98.9426 214.183 95.5154 214.624 95.813C215.066 96.1106 213.232 99.173 212.901 99.6866C212.57 100.2 206.373 101.319 206.373 101.319" stroke="#263238" stroke-width="0.5" stroke-linecap="round" stroke-linejoin="round"/>
<path d="M177.28 83.1554C177.28 83.1554 179.368 93.941 180.76 97.9394C182.152 101.938 183.194 105.072 183.194 105.072C183.319 105.026 183.453 105.008 183.587 105.019C183.72 105.03 183.849 105.07 183.965 105.136C184.082 105.203 184.182 105.293 184.259 105.403C184.336 105.512 184.389 105.637 184.413 105.768L184.758 106.81L198.501 98.2898C198.495 100.15 198.612 102.008 198.851 103.853C199.202 105.45 199.666 107.02 200.238 108.552C200.238 108.552 191.546 115.507 188.238 117.768C184.931 120.029 180.078 121.421 178.845 121.248C177.611 121.075 170.843 109.944 170.843 109.944C170.843 109.944 173.454 94.8098 173.8 89.7842C174.146 84.7586 176.392 82.637 177.28 83.1554Z" fill="#5E5E5E" stroke="#263238" stroke-width="0.5" stroke-linecap="round" stroke-linejoin="round"/>
<path d="M184.739 106.81C184.739 106.81 182.819 108.826 182.819 111.029" stroke="#263238" stroke-width="0.5" stroke-linecap="round" stroke-linejoin="round"/>
<path d="M183.174 105.072C183.174 105.072 180.16 108.197 179.531 111.792" stroke="#263238" stroke-width="0.5" stroke-linecap="round" stroke-linejoin="round"/>
<path d="M174.467 95.2995C174.467 95.2995 170.891 116.899 171.669 121.733C172.447 126.567 180.064 144.432 180.064 144.432C166.624 149.405 162.784 146.923 161.253 145.776C160.25 145.023 157.984 130.752 156.429 123.288C154.874 115.824 155.949 108.36 158.296 99.4995C160.643 90.6387 161.407 78.0435 161.407 78.0435C161.407 78.0435 167.935 81.3075 171.823 81.7731C175.711 82.2387 176.795 81.9315 177.266 83.9523C177.736 85.9731 176.488 89.5491 176.488 90.0147" fill="#5E5E5E"/>
<path d="M174.467 95.2995C174.467 95.2995 170.891 116.899 171.669 121.733C172.447 126.567 180.064 144.432 180.064 144.432C166.624 149.405 162.784 146.923 161.253 145.776C160.25 145.023 157.984 130.752 156.429 123.288C154.874 115.824 155.949 108.36 158.296 99.4995C160.643 90.6387 161.407 78.0435 161.407 78.0435C161.407 78.0435 167.935 81.3075 171.823 81.7731C175.711 82.2387 176.795 81.9315 177.266 83.9523C177.736 85.9731 176.488 89.5491 176.488 90.0147" stroke="#263238" stroke-width="0.5" stroke-linecap="round" stroke-linejoin="round"/>
<path d="M159.342 104.314C161.824 99.1535 167.2 90.7439 167.2 90.7439L162.232 88.8239L167.963 86.9039L166.139 80.0975C163.576 79.0943 161.43 78.0239 161.43 78.0239C161.43 78.0239 160.653 90.6191 158.32 99.4799C157 104.501 156.078 109.08 155.81 113.448C156.786 110.329 157.966 107.278 159.342 104.314Z" fill="#263238" stroke="#263238" stroke-width="0.5" stroke-linecap="round" stroke-linejoin="round"/>
<path d="M161.815 127.358L172.255 124.531L172.61 126.298L166.063 128.069" stroke="#263238" stroke-width="0.5" stroke-linecap="round" stroke-linejoin="round"/>
<path d="M149.339 79.5122C148.05 80.8605 147.221 82.5831 146.973 84.4322C146.651 86.7218 146.637 89.1602 145.422 91.1282C148.226 91.4642 149.949 87.2258 152.762 87.4562C154.034 87.5618 155.008 88.5698 156.011 89.3762C156.884 90.076 157.854 90.6451 158.891 91.0658C158.984 91.1307 159.092 91.1687 159.205 91.1756C159.318 91.1824 159.43 91.1578 159.529 91.1046C159.629 91.0513 159.712 90.9715 159.769 90.874C159.825 90.7764 159.854 90.665 159.851 90.5522C160.328 88.6002 160.8 86.6482 161.267 84.6962C161.829 82.3826 162.314 79.6898 160.835 77.8178C159.65 76.3202 157.475 75.8978 155.608 76.2386C153.24 76.6826 151.057 77.8223 149.339 79.5122Z" fill="#5CB0FF" stroke="#263238" stroke-width="0.5" stroke-linecap="round" stroke-linejoin="round"/>
<path d="M143.68 56.7409C143.68 56.7409 142.749 59.8513 142.902 61.2481C143.056 62.6449 143.056 63.2737 142.422 63.5809C141.789 63.8881 139.792 65.2801 139.95 66.2401C140.109 67.2001 141.813 68.5729 141.813 68.5729C141.815 70.2353 141.919 71.896 142.125 73.5457C142.437 75.5713 143.368 75.8785 143.834 76.0369C144.299 76.1953 146.632 76.0369 146.632 76.0369C146.632 76.0369 148.187 81.7969 149.742 85.0513C151.298 88.3057 151.763 89.8753 152.387 88.9393C153.011 88.0033 158.45 81.3217 159.227 78.3793C160.005 75.4369 160.158 71.0401 160.158 71.0401C160.158 71.0401 163.269 66.3745 158.138 60.3121C153.006 54.2497 149.123 53.7841 147.098 54.0721C145.072 54.3601 143.68 56.7409 143.68 56.7409Z" fill="white" stroke="#263238" stroke-width="0.5" stroke-linecap="round" stroke-linejoin="round"/>
<path d="M144.611 52.5457C144.611 52.5457 138.395 52.3873 139.015 55.8097C139.634 59.2321 149.431 56.5873 149.431 56.5873C149.431 56.5873 147.568 59.5393 149.123 60.4753C150.679 61.4113 152.075 61.2481 152.075 61.7185C152.075 62.1889 151.298 62.9617 152.699 63.5809C154.101 64.2001 155.963 64.0609 156.117 65.6017C156.271 67.1425 153.784 70.1137 154.874 71.0449C155.963 71.9761 160.005 72.6001 160.936 71.3569C161.867 70.1137 165.136 67.4689 166.067 60.4753C166.999 53.4817 164.047 50.2129 161.095 49.1233C158.143 48.0337 158.45 50.9905 158.45 50.9905C158.45 50.9905 150.832 46.7905 146.013 48.3457C141.194 49.9009 144.611 52.5457 144.611 52.5457Z" fill="#263238" stroke="#263238" stroke-width="0.5" stroke-linecap="round" stroke-linejoin="round"/>
<path d="M152.387 64.9824C152.387 64.9824 153.477 61.0944 155.498 61.7184C157.519 62.3424 157.053 66.3792 155.978 67.7808C155.646 68.183 155.207 68.4836 154.712 68.6483C154.217 68.8129 153.686 68.835 153.179 68.712C153.179 68.712 152.248 71.5104 149.915 72.6L147.583 73.6896" fill="white"/>
<path d="M152.387 64.9824C152.387 64.9824 153.477 61.0944 155.498 61.7184C157.519 62.3424 157.053 66.3792 155.978 67.7808C155.646 68.183 155.207 68.4836 154.712 68.6483C154.217 68.8129 153.686 68.835 153.179 68.712C153.179 68.712 152.248 71.5104 149.915 72.6L147.583 73.6896" stroke="#263238" stroke-width="0.5" stroke-linecap="round" stroke-linejoin="round"/>
<path d="M143.68 61.248C143.68 61.248 145.077 59.8512 145.547 61.728" stroke="#263238" stroke-width="0.5" stroke-linecap="round" stroke-linejoin="round"/>
<path d="M144.611 63.8929C144.611 64.5793 144.439 65.1361 144.223 65.1361C144.007 65.1361 143.834 64.5793 143.834 63.8929C143.834 63.2065 144.011 62.6497 144.223 62.6497C144.434 62.6497 144.611 63.2065 144.611 63.8929Z" fill="#263238"/>
<path d="M129.559 125.938C129.559 125.938 132.482 123.413 133.399 120.883C134.315 118.354 131.959 116.496 130.475 117.826C128.992 119.155 129.559 125.938 129.559 125.938Z" fill="white" stroke="#263238" stroke-width="0.5" stroke-linecap="round" stroke-linejoin="round"/>
<path d="M133.014 114.888L144.851 113.429L145.115 126.063H135.141L132.083 115.954L133.014 114.888Z" fill="#263238" stroke="#263238" stroke-width="0.5" stroke-linecap="round" stroke-linejoin="round"/>
<path d="M130.754 112.363C130.754 112.363 135.674 117.816 136.072 118.214C136.471 118.613 135.146 120.341 134.215 121.67C133.283 123 131.152 123.931 131.152 123.931L129.559 128.318C129.559 128.318 124.903 122.736 124.639 120.475C124.375 118.214 126.501 114.235 127.298 113.275C127.699 112.745 128.196 112.294 128.762 111.946" fill="#5E5E5E"/>
<path d="M130.754 112.363C130.754 112.363 135.674 117.816 136.072 118.214C136.471 118.613 135.146 120.341 134.215 121.67C133.283 123 131.152 123.931 131.152 123.931L129.559 128.318C129.559 128.318 124.903 122.736 124.639 120.475C124.375 118.214 126.501 114.235 127.298 113.275C127.699 112.745 128.196 112.294 128.762 111.946" stroke="#263238" stroke-width="0.5" stroke-linecap="round" stroke-linejoin="round"/>
<path d="M135.275 117.816C135.275 117.816 137.805 117.816 138.467 118.215C139.13 118.613 140.728 121.541 141.659 121.939C142.59 122.338 142.456 123.269 142.058 123.379C141.659 123.49 139.797 122.981 139.398 122.717C139 122.453 137.402 121.651 137.402 121.651C137.402 121.651 140.066 124.311 140.594 124.843C141.122 125.376 141.659 126.173 141.126 126.706C140.594 127.239 138.333 127.239 138.333 127.239C137.865 127.774 137.271 128.185 136.605 128.434C135.674 128.703 134.205 128.967 133.014 128.17C131.824 127.373 131.152 125.64 131.152 123.912C131.152 122.184 135.275 117.816 135.275 117.816Z" fill="white" stroke="#263238" stroke-width="0.5" stroke-linecap="round" stroke-linejoin="round"/>
<path d="M112.283 97.9199C112.283 97.9199 115.058 112.56 116.071 118.325C117.083 124.09 119.431 134.866 119.431 134.866C119.431 134.866 121.298 142.694 121.053 145.171C120.808 147.648 119.887 150.326 119.013 151.166C118.139 152.006 116.311 151.819 116.104 151.272C115.898 150.725 116.647 149.746 116.647 149.746C116.647 149.746 114.952 150.898 114.511 150.062C114.069 149.227 115.432 148.704 115.432 148.704C115.432 148.704 114.05 148.042 114.376 147.413C114.703 146.784 116.003 146.933 116.003 146.933C116.003 146.933 114.525 144.533 114.722 142.589C114.919 140.645 115.682 138.206 115.72 137.813C115.759 137.419 111.607 127.392 111.607 127.392C111.607 127.392 107.445 112.939 105.818 108.038C104.19 103.138 106.552 98.4383 107.531 97.8719C108.511 97.3055 112.283 97.9199 112.283 97.9199Z" fill="white" stroke="#263238" stroke-width="0.5" stroke-linecap="round" stroke-linejoin="round"/>
<path d="M118.504 140.438C118.504 140.438 117.064 142.934 117.674 144.84C118.283 146.746 118.605 147.432 118.552 147.955C118.499 148.478 117.213 150.835 117.136 151.637C117.059 152.438 118.269 152.146 119.027 151.157C119.786 150.168 120.525 150.643 120.837 147.514C120.976 145.285 120.797 143.048 120.304 140.87" fill="white"/>
<path d="M118.504 140.438C118.504 140.438 117.064 142.934 117.674 144.84C118.283 146.746 118.605 147.432 118.552 147.955C118.499 148.478 117.213 150.835 117.136 151.637C117.059 152.438 118.269 152.146 119.027 151.157C119.786 150.168 120.525 150.643 120.837 147.514C120.976 145.285 120.797 143.048 120.304 140.87" stroke="#263238" stroke-width="0.5" stroke-linecap="round" stroke-linejoin="round"/>
<path d="M119.445 134.88C119.445 134.88 117.083 124.104 116.085 118.339C115.086 112.574 112.283 97.9199 112.283 97.9199C112.283 97.9199 108.525 97.2863 107.546 97.8479C106.566 98.4095 104.186 103.128 105.832 108.019C107.478 112.91 111.621 127.373 111.621 127.373C111.621 127.373 115.773 137.405 115.734 137.794L119.814 136.488C119.598 135.514 119.445 134.88 119.445 134.88Z" fill="#5CB0FF" stroke="#263238" stroke-width="0.5" stroke-linecap="round" stroke-linejoin="round"/>
<path d="M116.171 212.894C116.171 212.894 123.055 213.537 125.613 213.057C128.171 212.577 130.893 213.696 131.215 214.814C131.536 215.933 131.051 217.056 127.691 218.496C124.331 219.936 122.095 219.777 117.933 220.737C113.771 221.697 112.495 222.336 111.213 221.856C109.931 221.376 109.451 215.616 109.451 215.616L116.171 212.894Z" fill="white" stroke="#263238" stroke-width="0.5" stroke-linecap="round" stroke-linejoin="round"/>
<path d="M116.171 212.894C116.171 212.894 123.055 213.537 125.613 213.057C128.171 212.577 130.893 213.696 131.215 214.814C131.536 215.933 131.051 217.056 127.691 218.496C124.331 219.936 122.095 219.777 117.933 220.737C113.771 221.697 112.495 222.336 111.213 221.856C109.931 221.376 109.451 215.616 109.451 215.616L116.171 212.894Z" fill="#263238" stroke="#263238" stroke-width="0.5" stroke-linecap="round" stroke-linejoin="round"/>
<path d="M131.2 214.814C130.888 213.73 128.32 212.645 125.819 213.024L126.559 217.214C126.559 217.214 121.6 218.016 116.637 219.298C114.555 219.836 112.435 220.214 110.296 220.43C110.541 221.16 110.839 221.722 111.199 221.87C112.48 222.35 113.757 221.712 117.919 220.752C122.08 219.792 124.317 219.95 127.677 218.51C131.037 217.07 131.531 215.938 131.2 214.814Z" fill="white" stroke="#263238" stroke-width="0.5" stroke-linecap="round" stroke-linejoin="round"/>
<path d="M85.1203 214.018C85.1203 214.018 85.7587 216.576 88.0003 217.056C90.2419 217.536 92.8003 219.778 92.8003 220.896C92.8003 222.014 91.6771 222.494 87.3571 222.494C83.0371 222.494 80.6083 222.878 78.6883 221.755C76.7683 220.632 77.5987 215.774 77.9203 214.018C78.2419 212.261 85.1203 214.018 85.1203 214.018Z" fill="#263238" stroke="#263238" stroke-width="0.5" stroke-linecap="round" stroke-linejoin="round"/>
<path d="M92.8001 220.896C92.8001 220.272 91.9985 219.298 90.9041 218.472C89.7953 218.635 88.1105 218.952 87.1985 219.456C85.7585 220.258 85.7585 221.054 85.7585 221.054C85.7585 221.054 81.6785 221.904 79.8065 220.958C78.9437 220.505 78.1381 219.951 77.4065 219.307C77.5025 220.339 77.8529 221.266 78.6977 221.755C80.6177 222.878 83.0465 222.494 87.3665 222.494C91.6865 222.494 92.8001 222.014 92.8001 220.896Z" fill="white" stroke="#263238" stroke-width="0.5" stroke-linecap="round" stroke-linejoin="round"/>
<path d="M113.133 131.616C113.133 131.616 114.093 136.574 115.053 143.458C116.013 150.341 115.854 167.774 115.854 175.618C115.854 183.461 116.013 207.778 116.013 208.574V210.658C116.013 210.658 108.971 213.538 108.491 213.538C108.011 213.538 106.091 201.538 104.651 195.134C103.211 188.731 102.4 182.016 102.4 178.176C102.4 174.336 101.757 171.134 101.757 170.338C101.757 169.541 97.1201 145.214 97.1201 145.214C97.1201 145.214 92.9585 172.258 91.8401 177.854C90.7217 183.451 85.6001 207.936 85.2785 209.376C85.0673 210.537 84.9596 211.714 84.9569 212.894L78.2369 212.256C78.2369 212.256 78.0785 203.938 77.9201 197.218C77.7617 190.498 77.1185 184.738 77.5985 180.418C78.0785 176.098 79.5185 168.576 79.6769 167.774C79.8353 166.973 79.1969 148.896 79.1969 147.134C79.1969 145.373 79.6769 130.176 79.6769 130.176L101.757 130.498L113.133 131.616Z" fill="#263238" stroke="#263238" stroke-width="0.5" stroke-linecap="round" stroke-linejoin="round"/>
<path d="M106.571 211.296L108.655 217.378L118.413 212.736L116.651 207.298L106.571 211.296Z" fill="white" stroke="#263238" stroke-width="0.5" stroke-linecap="round" stroke-linejoin="round"/>
<path d="M76.8114 210.014L86.8914 210.974V214.814L76.9746 215.136L76.8114 210.014Z" fill="white" stroke="#263238" stroke-width="0.5" stroke-linecap="round" stroke-linejoin="round"/>
<path d="M90.2802 80.3904C90.2802 80.3904 81.8946 82.4208 79.053 83.5008C76.2114 84.5808 75.5394 85.8 75.1314 87.4224C74.7234 89.0448 79.1874 120.106 79.5954 123.35C80.0034 126.595 78.7842 131.059 81.0834 133.358C83.3826 135.658 94.9602 136.56 101.368 136.469C107.512 136.378 112.12 135.336 113.339 133.037C114.559 130.738 114.218 129.706 114.218 124.838C114.218 119.971 113.81 103.2 113.407 96.9984C113.003 90.7968 113.133 87.936 110.834 86.3136C108.535 84.6912 104.479 80.4096 102.045 80.2752C99.6114 80.1408 92.1714 79.3104 90.2802 80.3904Z" fill="#5CB0FF" stroke="#263238" stroke-width="0.5" stroke-linecap="round" stroke-linejoin="round"/>
<path d="M94.0001 98.8895L90.1121 92.8367L86.2241 98.8895L90.1121 104.937L94.0001 98.8895Z" fill="white"/>
<path d="M102.861 98.8895L98.9728 92.8367L95.0848 98.8895L98.9728 104.937L102.861 98.8895Z" fill="white"/>
<path d="M111.717 98.8895L107.829 92.8367L103.946 98.8895L107.829 104.937L111.717 98.8895Z" fill="white"/>
<path d="M94.0001 112.09L90.1121 106.037L86.2241 112.09L90.1121 118.142L94.0001 112.09Z" fill="white"/>
<path d="M102.861 112.09L98.9728 106.037L95.0848 112.09L98.9728 118.142L102.861 112.09Z" fill="white"/>
<path d="M111.717 112.09L107.829 106.037L103.946 112.09L107.829 118.142L111.717 112.09Z" fill="white"/>
<path d="M94.0001 125.29L90.1121 119.242L86.2241 125.29L90.1121 131.342L94.0001 125.29Z" fill="white"/>
<path d="M102.861 125.29L98.9728 119.242L95.0848 125.29L98.9728 131.342L102.861 125.29Z" fill="white"/>
<path d="M111.717 125.29L107.829 119.242L103.946 125.29L107.829 131.342L111.717 125.29Z" fill="white"/>
<path d="M93.7938 77.76C93.7938 77.76 91.2258 79.248 90.8178 80.328C90.4098 81.408 89.061 84.2496 89.061 84.2496L91.629 91.5552L95.5506 86.8176L97.0386 86.1408L100.691 86.28L105.011 91.56C105.011 91.56 105.688 87.096 105.011 83.712C104.335 80.328 103.091 78.9792 101.627 78.432C100.163 77.8848 95.013 77.76 93.7938 77.76Z" fill="white" stroke="#263238" stroke-width="0.5" stroke-linecap="round" stroke-linejoin="round"/>
<path d="M92.9825 75.8783C92.9825 75.8783 92.8481 80.1983 92.8481 81.0191C92.8481 81.8399 98.2577 90.3503 99.2033 89.5391C100.149 88.7279 102.563 81.9647 102.563 81.9647L103.643 73.3247L92.9825 75.8783Z" fill="white" stroke="#263238" stroke-width="0.5" stroke-linecap="round" stroke-linejoin="round"/>
<path d="M90.957 61.9486C90.957 61.9486 89.3298 59.107 88.7922 61.2719C88.2546 63.4367 89.061 65.5919 89.8722 65.4671C90.6834 65.3423 90.957 61.9486 90.957 61.9486Z" fill="white" stroke="#263238" stroke-width="0.5" stroke-linecap="round" stroke-linejoin="round"/>
<path d="M91.9025 51.3984C91.9025 51.3984 89.1953 55.3248 89.1953 57.6384C89.1978 59.0194 89.5725 60.3741 90.2801 61.56L93.5249 52.4976L91.9025 51.3984Z" fill="#263238" stroke="#263238" stroke-width="0.5" stroke-linecap="round" stroke-linejoin="round"/>
<path d="M92.9825 51.8064C92.9825 51.8064 90.9569 56.5392 90.8177 57.8928C90.6785 59.2464 88.9265 67.4928 88.9265 70.2C88.9265 72.9072 89.8865 73.56 92.1713 74.664C94.4561 75.768 100.015 75.744 102.045 74.664C104.075 73.584 105.832 69.384 105.832 69.384C105.832 69.384 109.754 68.424 109.485 66C109.216 63.576 106.778 64.6512 106.778 64.6512C106.778 64.6512 108.535 61.4016 108.535 58.6992C108.535 55.9968 98.6657 51.5328 97.0385 51.2592C95.4113 50.9856 92.9825 51.8064 92.9825 51.8064Z" fill="white" stroke="#263238" stroke-width="0.5" stroke-linecap="round" stroke-linejoin="round"/>
<path d="M93.5059 47.3328C91.6771 47.5632 90.1027 48.2592 90.8179 50.0496C91.9027 52.752 93.6595 54.1056 96.9043 55.1856C100.149 56.2656 104.075 56.6736 104.747 57.7584C105.419 58.8432 103.399 59.6496 104.21 60.3264L105.832 61.68C105.832 61.68 102.722 71.1456 102.448 71.5536C102.175 71.9616 99.4771 71.688 98.8003 70.5936C98.1235 69.4992 98.3923 67.6176 97.0387 67.2336C95.6851 66.8496 91.3603 65.7456 90.9571 66.2736C90.0284 67.2206 89.3332 68.371 88.9267 69.6336C88.3843 71.5296 87.9667 75.72 90.8179 76.5312C93.6691 77.3424 99.3379 77.208 100.826 76.3968C102.314 75.5856 104.21 74.232 104.747 72.6096C105.285 70.9872 106.375 66.6576 107.455 64.224C108.535 61.7904 111.645 59.0832 110.296 55.4352C108.947 51.7872 99.7363 47.592 97.3363 47.3184C96.0628 47.1838 94.7784 47.1887 93.5059 47.3328Z" fill="#263238" stroke="#263238" stroke-width="0.5" stroke-linecap="round" stroke-linejoin="round"/>
<path d="M98.1042 61.3295C97.9362 61.9439 97.5954 62.3855 97.3458 62.2895C97.0962 62.1935 97.0241 61.6655 97.1921 61.0559C97.3602 60.4463 97.701 60.0047 97.9554 60.0959C98.2098 60.1871 98.2722 60.7199 98.1042 61.3295Z" fill="#263238"/>
<path d="M93.0354 59.9136C92.8674 60.5232 92.5266 60.9648 92.2722 60.8736C92.0178 60.7824 91.9506 60.2544 92.1234 59.64C92.2962 59.0256 92.6322 58.5888 92.8818 58.656C93.1314 58.7232 93.2034 59.2992 93.0354 59.9136Z" fill="#263238"/>
<path d="M97.6002 58.0272C97.6002 58.0272 99.8994 57.624 100.442 60.192" stroke="#263238" stroke-width="0.5" stroke-linecap="round" stroke-linejoin="round"/>
<path d="M93.9282 57.216C93.9282 57.216 93.117 56.256 91.629 57.0816" stroke="#263238" stroke-width="0.5" stroke-linecap="round" stroke-linejoin="round"/>
<path d="M94.8787 58.4351L94.3363 61.2719C94.3363 61.2719 90.9763 64.1135 91.6291 65.7359C92.2819 67.3583 95.5507 66.0047 95.5507 66.0047" stroke="#263238" stroke-width="0.5" stroke-linecap="round" stroke-linejoin="round"/>
<path d="M94.0386 69.9935C93.0058 70.0193 91.9989 69.6677 91.2066 69.0047C91.1005 68.8951 91.0393 68.7496 91.0353 68.5971C91.0312 68.4446 91.0844 68.2961 91.1845 68.1809C91.2846 68.0657 91.4243 67.9923 91.5759 67.9751C91.7275 67.9579 91.88 67.9981 92.0034 68.0879C92.8242 68.8031 94.0818 68.9759 95.4498 68.5679C95.6038 68.5221 95.7698 68.5393 95.9111 68.6159C96.0524 68.6924 96.1576 68.8219 96.2034 68.9759C96.2492 69.13 96.232 69.2959 96.1555 69.4372C96.0789 69.5786 95.9494 69.6837 95.7954 69.7295C95.2254 69.9009 94.6338 69.9898 94.0386 69.9935Z" fill="white" stroke="#263238" stroke-width="0.5" stroke-linecap="round" stroke-linejoin="round"/>
<path d="M96.9523 150.955C96.144 148.341 95.0409 145.827 93.6643 143.462C92.7859 142.075 92.6515 141.994 91.7443 140.582L91.2211 139.838L86.6323 142.042C86.6323 142.042 87.6835 146.261 87.9811 147.322C88.4127 148.373 89.0143 149.346 89.7619 150.202L89.8387 150.586L90.1267 152.448C90.1939 152.928 89.9395 154.368 90.1267 154.949C90.3139 155.53 90.9427 154.829 91.0867 154.09C91.1827 153.533 91.2883 152.136 91.3363 151.507L91.4131 151.536C91.4947 152.069 91.6435 153.067 91.6963 153.403C91.8309 154.239 92.1154 155.044 92.5363 155.779C92.9923 156.427 93.3523 155.654 93.3619 154.939C93.3619 154.363 93.0643 152.218 92.9395 151.397H93.0259C93.3584 152.142 93.6453 152.906 93.8851 153.686C93.9523 154.166 94.1827 155.669 94.7059 155.947C95.2291 156.226 95.6035 155.573 95.5603 154.507C95.428 153.346 95.2276 152.194 94.9603 151.056H95.2003C95.5619 151.622 95.843 152.236 96.0355 152.88C96.1459 153.581 96.2515 154.282 96.9139 153.941C97.5763 153.6 97.1923 151.757 96.9523 150.955Z" fill="white" stroke="#263238" stroke-width="0.5" stroke-linecap="round" stroke-linejoin="round"/>
<path d="M77.6994 84.4463C77.6994 84.4463 74.7234 85.4063 73.9122 87.9647C73.101 90.5231 72.1458 117.725 72.8946 119.928C73.6434 122.131 86.5266 143.04 86.5266 143.04L91.7634 140.602L81.3618 117.12L83.517 93.7679" fill="#5CB0FF"/>
<path d="M77.6994 84.4463C77.6994 84.4463 74.7234 85.4063 73.9122 87.9647C73.101 90.5231 72.1458 117.725 72.8946 119.928C73.6434 122.131 86.5266 143.04 86.5266 143.04L91.7634 140.602L81.3618 117.12L83.517 93.7679" stroke="#263238" stroke-width="0.5" stroke-linecap="round" stroke-linejoin="round"/>
</svg>
