<svg width="240" height="240" viewBox="0 0 240 240" fill="none" xmlns="http://www.w3.org/2000/svg">
<path d="M201.081 42.6021C201.081 42.6021 180.427 23.2798 150.422 29.0892C120.417 34.8985 105.742 58.3947 87.3007 73.9561C77.6478 82.1057 64.3661 84.4184 53.265 90.437C17.7701 109.666 17.7977 158.514 41.6408 178.618C62.2792 196.024 89.8997 199.636 127.245 190.496C164.59 181.355 191.175 176.179 217.001 144.274C242.826 112.369 226.307 68.6368 201.081 42.6021Z" fill="#5CB0FF"/>
<path opacity="0.75" d="M201.081 42.6021C201.081 42.6021 180.427 23.2798 150.422 29.0892C120.417 34.8985 105.742 58.3947 87.3007 73.9561C77.6478 82.1057 64.3661 84.4184 53.265 90.437C17.7701 109.666 17.7977 158.514 41.6408 178.618C62.2792 196.024 89.8997 199.636 127.245 190.496C164.59 181.355 191.175 176.179 217.001 144.274C242.826 112.369 226.307 68.6368 201.081 42.6021Z" fill="white"/>
<path d="M211.659 91.5769C208.823 90.0296 207.529 91.3237 206.5 90.0296C205.47 88.7356 209.335 85.3876 201.593 82.0287C201.593 82.0287 201.081 74.8042 190.498 74.5454C179.914 74.2866 182.756 81.7809 179.931 83.5815C177.106 85.3821 176.313 82.5463 173.477 84.3524C170.641 86.1586 171.93 89.7708 169.623 90.2884C167.315 90.806 164.204 87.9647 161.363 89.7708C158.521 91.5769 158.527 93.1298 157.233 93.1298C155.939 93.1298 153.378 92.0946 151.815 93.1298C150.251 94.165 148.461 95.448 148.461 95.448H213.724C213.724 95.448 214.5 93.1298 211.659 91.5769Z" fill="#5CB0FF"/>
<g opacity="0.5">
<path opacity="0.5" d="M211.659 91.5769C208.823 90.0296 207.529 91.3237 206.5 90.0296C205.47 88.7356 209.335 85.3876 201.593 82.0287C201.593 82.0287 201.081 74.8042 190.498 74.5454C179.914 74.2866 182.756 81.7809 179.931 83.5815C177.106 85.3821 176.313 82.5463 173.477 84.3524C170.641 86.1586 171.93 89.7708 169.623 90.2884C167.315 90.806 164.204 87.9647 161.363 89.7708C158.521 91.5769 158.527 93.1298 157.233 93.1298C155.939 93.1298 153.378 92.0946 151.815 93.1298C150.251 94.165 148.461 95.448 148.461 95.448H213.724C213.724 95.448 214.5 93.1298 211.659 91.5769Z" fill="white"/>
</g>
<path d="M169.132 169.224C164.545 166.718 162.459 168.805 160.796 166.718C159.133 164.631 165.377 159.213 152.872 153.794C152.872 153.794 152.035 142.121 134.943 141.68C117.85 141.24 122.432 153.354 117.845 156.272C113.258 159.191 112.008 154.62 107.427 157.528C102.845 160.435 104.921 166.305 101.188 167.131C97.4543 167.957 92.4324 163.381 87.8455 166.3C83.2586 169.218 83.2586 171.718 81.1716 171.718C79.0847 171.718 74.9163 170.066 72.4163 171.718C69.9164 173.37 66.9979 175.474 66.9979 175.474H172.469C172.469 175.474 173.719 171.724 169.132 169.224Z" fill="#5CB0FF"/>
<g opacity="0.5">
<path opacity="0.5" d="M169.132 169.224C164.545 166.718 162.459 168.805 160.796 166.718C159.133 164.631 165.377 159.213 152.872 153.794C152.872 153.794 152.035 142.121 134.943 141.68C117.85 141.24 122.432 153.354 117.845 156.272C113.258 159.191 112.008 154.62 107.427 157.528C102.845 160.435 104.921 166.305 101.188 167.131C97.4543 167.957 92.4324 163.381 87.8455 166.3C83.2586 169.218 83.2586 171.718 81.1716 171.718C79.0847 171.718 74.9163 170.066 72.4163 171.718C69.9164 173.37 66.9979 175.474 66.9979 175.474H172.469C172.469 175.474 173.719 171.724 169.132 169.224Z" fill="white"/>
</g>
<path d="M67.4824 120.684C65.913 119.825 65.1972 120.541 64.6245 119.825C64.0518 119.109 66.1939 117.254 61.9098 115.42C61.9098 115.42 61.6235 111.417 55.7646 111.274C49.9057 111.13 51.4805 115.277 49.9112 116.274C48.3418 117.27 47.9068 115.723 46.3374 116.703C44.7681 117.683 45.4784 119.704 44.1954 120.007C42.9124 120.31 41.1944 118.724 39.625 119.721C38.0557 120.717 38.0502 121.538 37.3123 121.538C36.5744 121.538 35.1703 120.987 34.3168 121.538C33.4633 122.088 32.4556 122.826 32.4556 122.826H68.6057C68.6057 122.826 69.0517 121.538 67.4824 120.684Z" fill="#5CB0FF"/>
<g opacity="0.5">
<path opacity="0.5" d="M67.4824 120.684C65.913 119.825 65.1972 120.541 64.6245 119.825C64.0518 119.109 66.1939 117.254 61.9098 115.42C61.9098 115.42 61.6235 111.417 55.7646 111.274C49.9057 111.13 51.4805 115.277 49.9112 116.274C48.3418 117.27 47.9068 115.723 46.3374 116.703C44.7681 117.683 45.4784 119.704 44.1954 120.007C42.9124 120.31 41.1944 118.724 39.625 119.721C38.0557 120.717 38.0502 121.538 37.3123 121.538C36.5744 121.538 35.1703 120.987 34.3168 121.538C33.4633 122.088 32.4556 122.826 32.4556 122.826H68.6057C68.6057 122.826 69.0517 121.538 67.4824 120.684Z" fill="white"/>
</g>
<path d="M75.9186 204.68C75.9186 204.68 79.9934 196.266 77.0199 190.683C74.0464 185.099 70.3185 190.308 65.1094 183.607C59.9002 176.905 59.9002 169.466 55.4289 168.739C50.9577 168.012 48.3586 169.841 45.0107 168.739C41.6627 167.638 45.754 157.947 38.6782 155.711C31.6023 153.475 27.1145 159.064 22.3019 153.85C17.4892 148.635 10.3913 146.405 10.0169 149.015C9.64243 151.625 15.6005 151.245 17.8361 154.968C20.0717 158.69 26.7676 165.391 26.7676 172.462C26.7676 179.532 33.0946 176.184 37.5659 178.045C42.0371 179.906 41.6572 184.003 42.0316 189.609C42.4061 195.215 52.081 189.609 53.5953 192.213C55.1096 194.818 51.7341 195.567 52.8519 201.519C53.9697 207.472 64.9111 207.764 64.9111 207.764" fill="#263238"/>
<path d="M75.9186 204.68C75.9186 204.68 79.9934 196.266 77.0199 190.683C74.0464 185.099 70.3185 190.308 65.1094 183.607C59.9002 176.905 59.9002 169.466 55.4289 168.739C50.9577 168.012 48.3586 169.841 45.0107 168.739C41.6627 167.638 45.754 157.947 38.6782 155.711C31.6023 153.475 27.1145 159.064 22.3019 153.85C17.4892 148.635 10.3913 146.405 10.0169 149.015C9.64243 151.625 15.6005 151.245 17.8361 154.968C20.0717 158.69 26.7676 165.391 26.7676 172.462C26.7676 179.532 33.0946 176.184 37.5659 178.045C42.0371 179.906 41.6572 184.003 42.0316 189.609C42.4061 195.215 52.081 189.609 53.5953 192.213C55.1096 194.818 51.7341 195.567 52.8519 201.519C53.9697 207.472 64.9111 207.764 64.9111 207.764" stroke="#263238" stroke-width="0.5" stroke-linecap="round" stroke-linejoin="round"/>
<path d="M68.8265 205.941C68.8265 205.941 60.9908 187.704 49.4712 176.162C37.9516 164.621 30.1158 163.877 25.2756 159.786" stroke="white" stroke-width="0.5" stroke-linecap="round" stroke-linejoin="round"/>
<path d="M31.9882 171.344L40.9527 169.379L37.2358 160.854" stroke="white" stroke-width="0.5" stroke-linecap="round" stroke-linejoin="round"/>
<path d="M47.7312 184.026L55.5614 183.519L54.9447 176.812" stroke="white" stroke-width="0.5" stroke-linecap="round" stroke-linejoin="round"/>
<path d="M59.7513 199.113L66.0948 200.204L67.1851 191.024" stroke="white" stroke-width="0.5" stroke-linecap="round" stroke-linejoin="round"/>
<path d="M45.0218 146.455C45.0218 146.455 42.0043 146.857 38.7775 139.203C36.1233 132.898 39.7466 127.826 41.1122 126.224C41.1653 126.162 41.2326 126.114 41.3082 126.084C41.3838 126.054 41.4656 126.042 41.5467 126.05C41.6278 126.058 41.7057 126.086 41.7738 126.13C41.842 126.175 41.8983 126.235 41.9382 126.306C42.9899 128.195 46.1011 134.043 46.437 137.386C46.839 141.416 45.0218 146.455 45.0218 146.455Z" fill="#5CB0FF"/>
<path d="M75.4559 172.853C75.4559 172.853 73.6387 171.245 73.2533 167.82C72.8678 164.395 75.6706 157.743 77.284 158.751C78.8974 159.758 79.4866 167.214 78.8974 169.83C78.3082 172.445 75.4559 172.853 75.4559 172.853Z" fill="#5CB0FF"/>
<path d="M85.1312 184.543C85.1312 184.543 83.314 182.93 82.9286 179.505C82.5431 176.08 85.3459 169.428 86.9593 170.436C88.5727 171.443 89.1619 178.899 88.5727 181.52C87.9835 184.141 85.1312 184.543 85.1312 184.543Z" fill="#5CB0FF"/>
<path d="M90.2136 192.489C90.2136 192.489 89.4261 190.193 90.7642 187.01C92.1023 183.827 97.8235 179.428 98.7321 181.096C99.6407 182.765 96.5295 189.554 94.6903 191.558C92.8512 193.563 90.2136 192.489 90.2136 192.489Z" fill="#5CB0FF"/>
<path d="M76.96 180.898C76.96 180.898 75.2475 182.616 71.8059 182.831C68.3644 183.046 61.8942 179.852 62.9955 178.299C64.0968 176.746 71.5692 176.559 74.1517 177.308C76.7343 178.057 76.96 180.898 76.96 180.898Z" fill="#5CB0FF"/>
<path d="M85.1303 193.414C85.1303 193.414 83.4178 195.132 79.9762 195.341C76.5347 195.551 70.0645 192.368 71.1658 190.815C72.2671 189.262 79.7395 189.075 82.322 189.824C84.9045 190.573 85.1303 193.414 85.1303 193.414Z" fill="#5CB0FF"/>
<path d="M63.16 159.351C63.16 159.351 61.1447 159.351 59.9387 154.516C58.7328 149.682 61.1447 144.439 62.3561 145.447C63.5675 146.455 65.9849 152.705 65.5829 155.728C65.1809 158.751 63.16 159.351 63.16 159.351Z" fill="#5CB0FF"/>
<path d="M51.2715 158.145C51.0603 157.143 50.5985 156.211 49.9293 155.435C49.26 154.66 48.4051 154.067 47.4444 153.712C44.0139 152.297 37.7695 154.114 37.7695 154.918C37.7695 155.722 40.3906 158.145 45.0216 159.153C49.6525 160.16 51.2715 158.145 51.2715 158.145Z" fill="#5CB0FF"/>
<path d="M65.7811 170.838C65.7811 170.838 65.5828 169.23 61.5521 166.983C57.5213 164.737 53.0556 166.053 53.2924 166.923C53.5291 167.793 57.5434 169.803 60.9684 171.218C64.3934 172.633 65.7811 170.838 65.7811 170.838Z" fill="#5CB0FF"/>
<path d="M50.6655 150.486C50.6655 150.486 48.8539 148.872 48.4629 145.447C48.072 142.022 50.8803 135.37 52.4937 136.378C54.1071 137.386 54.6963 144.842 54.1016 147.463C53.5069 150.084 50.6655 150.486 50.6655 150.486Z" fill="#5CB0FF"/>
<path d="M89.5853 201.718C89.5853 201.718 91.6448 196.569 81.3256 182.847C71.0064 169.125 45.2966 155.397 42.2295 138.927" stroke="#263238" stroke-width="0.5" stroke-linecap="round" stroke-linejoin="round"/>
<path d="M55.9081 158.949L44.2178 156.328" stroke="#263238" stroke-width="0.5" stroke-linecap="round" stroke-linejoin="round"/>
<path d="M63.7657 166.206L62.1523 153.106" stroke="#263238" stroke-width="0.5" stroke-linecap="round" stroke-linejoin="round"/>
<path d="M71.827 173.057L59.5365 168.828" stroke="#263238" stroke-width="0.5" stroke-linecap="round" stroke-linejoin="round"/>
<path d="M50.4675 153.509L51.0677 143.834" stroke="#263238" stroke-width="0.5" stroke-linecap="round" stroke-linejoin="round"/>
<path d="M75.2531 175.876L75.8588 166.207" stroke="#263238" stroke-width="0.5" stroke-linecap="round" stroke-linejoin="round"/>
<path d="M84.9272 187.566L85.533 177.891" stroke="#263238" stroke-width="0.5" stroke-linecap="round" stroke-linejoin="round"/>
<path d="M88.5554 195.022L93.8361 186.894" stroke="#263238" stroke-width="0.5" stroke-linecap="round" stroke-linejoin="round"/>
<path d="M79.9767 181.283L70.3513 180.138" stroke="#263238" stroke-width="0.5" stroke-linecap="round" stroke-linejoin="round"/>
<path d="M88.1373 193.783L78.512 192.638" stroke="#263238" stroke-width="0.5" stroke-linecap="round" stroke-linejoin="round"/>
<path d="M195.409 205.771C195.409 205.771 201.499 201.013 201.329 195.782C201.158 190.551 196.488 193.062 195.068 186.19C193.647 179.318 196.362 173.795 193.317 171.609C190.272 169.423 187.661 169.858 185.608 167.809C183.554 165.761 190.095 160.073 185.663 155.833C181.23 151.593 175.878 154.109 174.187 148.476C172.497 142.843 168.064 138.608 166.836 140.409C165.608 142.209 170.167 144.098 170.465 147.677C170.762 151.257 173.295 158.69 170.712 163.916C168.13 169.142 174.049 168.988 176.687 172C179.325 175.012 177.552 177.914 175.789 182.192C174.027 186.471 183.234 185.854 183.383 188.332C183.532 190.81 180.778 190.138 179.435 194.967C178.091 199.796 186.103 204.025 186.103 204.025" fill="#263238"/>
<path d="M195.409 205.771C195.409 205.771 201.499 201.013 201.329 195.782C201.158 190.551 196.488 193.062 195.068 186.19C193.647 179.318 196.362 173.795 193.317 171.609C190.272 169.423 187.661 169.858 185.608 167.809C183.554 165.761 190.095 160.073 185.663 155.833C181.23 151.593 175.878 154.109 174.187 148.476C172.497 142.843 168.064 138.608 166.836 140.409C165.608 142.209 170.167 144.098 170.465 147.677C170.762 151.257 173.295 158.69 170.712 163.916C168.13 169.142 174.049 168.988 176.687 172C179.325 175.012 177.552 177.914 175.789 182.192C174.027 186.471 183.234 185.854 183.383 188.332C183.532 190.81 180.778 190.138 179.435 194.967C178.091 199.796 186.103 204.025 186.103 204.025" stroke="#263238" stroke-width="0.5" stroke-linecap="round" stroke-linejoin="round"/>
<path d="M189.683 204.119C189.683 204.119 190.536 187.737 186.181 174.962C181.825 162.187 176.302 158.79 174.204 153.982" stroke="white" stroke-width="0.5" stroke-linecap="round" stroke-linejoin="round"/>
<path d="M174.969 165.012L182.336 166.818L182.689 159.136" stroke="white" stroke-width="0.5" stroke-linecap="round" stroke-linejoin="round"/>
<path d="M182.023 180.16L188.02 182.643L190.008 177.44" stroke="white" stroke-width="0.5" stroke-linecap="round" stroke-linejoin="round"/>
<path d="M185.443 195.743L189.749 198.866L193.906 192.45" stroke="white" stroke-width="0.5" stroke-linecap="round" stroke-linejoin="round"/>
<path d="M203.411 154.434C201.489 152.176 201.913 149.45 202.761 146.207C203.455 143.531 206.731 139.357 210.272 138.894C210.867 138.817 210.878 138.894 210.823 139.34C210.613 142.171 209.931 146.422 208.686 148.751C207.205 151.554 205.569 152.473 203.411 154.434Z" fill="#5CB0FF"/>
<path d="M212.574 184.521C212.127 183.018 212.607 181.443 213.124 180.066C213.642 178.69 218.196 173.316 219.594 175.353C220.993 177.39 217.518 182.236 216.29 183.64C215.062 185.044 213.983 184.753 212.574 184.521Z" fill="#5CB0FF"/>
<path d="M214.457 196.867C214.055 195.342 214.55 193.706 215.09 192.324C215.63 190.942 220.184 185.716 221.555 187.776C222.926 189.835 219.446 194.681 218.218 196.074C216.99 197.467 215.861 197.159 214.457 196.867Z" fill="#5CB0FF"/>
<path d="M214.451 204.725C214.88 203.188 216.147 202.037 217.314 201.107C218.481 200.176 225.023 198.001 225.183 200.468C225.342 202.935 219.891 205.336 218.123 205.92C216.356 206.503 215.535 205.677 214.451 204.725Z" fill="#5CB0FF"/>
<path d="M210.282 190.81C208.729 191.179 207.171 190.6 205.8 190.022C204.429 189.444 199.511 184.659 201.587 183.414C203.663 182.17 208.289 185.854 209.666 187.071C211.042 188.288 210.596 189.46 210.282 190.81Z" fill="#5CB0FF"/>
<path d="M210.519 203.105C208.967 203.414 207.408 202.808 206.07 202.164C204.732 201.519 199.919 196.569 202.056 195.363C204.193 194.157 208.724 197.984 210.013 199.306C211.301 200.627 210.899 201.729 210.519 203.105Z" fill="#5CB0FF"/>
<path d="M209.616 170.727C208.251 170.237 209.33 167.137 209.589 166.124C209.847 165.111 213.966 159.009 215.183 161.168C216.4 163.326 214.016 167.963 212.981 169.334C211.945 170.705 210.982 171.217 209.616 170.727Z" fill="#5CB0FF"/>
<path d="M202.106 165.155C202.86 163.613 202.464 161.851 201.588 160.425C200.712 158.999 196.203 155.469 194.738 156.856C193.273 158.244 196.461 161.812 197.447 162.914C198.433 164.015 200.41 165.634 202.106 165.155Z" fill="#5CB0FF"/>
<path d="M206.428 179.406C207.006 178.068 205.564 176.19 205.095 175.149C204.627 174.109 200.514 170.05 199.589 171.669C198.664 173.288 202.001 176.476 202.81 177.693C203.62 178.91 205.062 179.742 206.428 179.406Z" fill="#5CB0FF"/>
<path d="M205.349 159.775C205.029 158.228 205.613 156.658 206.246 155.309C206.88 153.96 211.753 149.12 213.019 151.246C214.286 153.371 210.459 157.914 209.165 159.213C207.871 160.513 206.731 160.128 205.349 159.775Z" fill="#5CB0FF"/>
<path d="M209.826 211.348C213.218 203.639 213.642 203.513 212.304 192.736C210.965 181.96 198.961 161.393 205.2 148.459" stroke="#263238" stroke-width="0.5" stroke-linecap="round" stroke-linejoin="round"/>
<path d="M204.842 167.627C202.541 165.386 200.371 163.029 198.207 160.662" stroke="#263238" stroke-width="0.5" stroke-linecap="round" stroke-linejoin="round"/>
<path d="M206.995 175.513C208.542 172.379 210.189 169.301 211.763 166.185" stroke="#263238" stroke-width="0.5" stroke-linecap="round" stroke-linejoin="round"/>
<path d="M209.898 183.178C207.612 180.579 205.162 178.134 202.882 175.524" stroke="#263238" stroke-width="0.5" stroke-linecap="round" stroke-linejoin="round"/>
<path d="M203.779 161.708L208.774 155.458" stroke="#263238" stroke-width="0.5" stroke-linecap="round" stroke-linejoin="round"/>
<path d="M211.164 186.548C212.662 184.345 214.176 182.17 215.663 179.968" stroke="#263238" stroke-width="0.5" stroke-linecap="round" stroke-linejoin="round"/>
<path d="M212.97 198.921C214.55 196.718 216.076 194.515 217.601 192.313" stroke="#263238" stroke-width="0.5" stroke-linecap="round" stroke-linejoin="round"/>
<path d="M212.16 205.754C214.613 204.653 217.059 203.524 219.5 202.368" stroke="#263238" stroke-width="0.5" stroke-linecap="round" stroke-linejoin="round"/>
<path d="M212.243 192.346C210.147 190.72 208.027 189.119 205.883 187.544" stroke="#263238" stroke-width="0.5" stroke-linecap="round" stroke-linejoin="round"/>
<path d="M212.419 204.697C210.367 203.001 208.303 201.318 206.229 199.647" stroke="#263238" stroke-width="0.5" stroke-linecap="round" stroke-linejoin="round"/>
<path d="M163.858 201.96C163.858 204.136 151.457 205.903 136.16 205.903C120.863 205.903 108.468 204.136 108.468 201.96C108.468 199.785 120.869 198.018 136.16 198.018C151.452 198.018 163.858 199.785 163.858 201.96Z" fill="#5CB0FF"/>
<path opacity="0.5" d="M163.858 201.96C163.858 204.136 151.457 205.903 136.16 205.903C120.863 205.903 108.468 204.136 108.468 201.96C108.468 199.785 120.869 198.018 136.16 198.018C151.452 198.018 163.858 199.785 163.858 201.96Z" fill="white"/>
<path d="M141.826 78.0697C144.728 77.453 146.848 76.5169 146.562 73.8573C146.275 71.1976 143.043 69.4245 142.707 68.0644C142.371 66.7043 144.601 64.6614 144.117 62.0623C143.632 59.4633 141.044 56.5558 138.445 57.0184C138.445 57.0184 138.016 57.8774 137.592 56.0327C137.168 54.1881 135.78 51.9029 133.225 52.7894C130.543 53.72 130.543 55.2783 129.756 55.5427C127.575 56.4671 125.445 57.5056 123.374 58.6538C121.309 59.7937 120.973 63.3674 120.665 64.6174C120.356 65.8673 119.371 66.1647 117.911 65.9169C116.452 65.6691 114.927 65.3993 114.607 66.831C114.288 68.2627 114.123 69.6393 113.11 69.5567C112.097 69.4741 110.962 67.9708 110.18 69.2373C109.398 70.5038 107.868 72.9377 106.227 72.1888C104.586 71.4399 102.686 68.4058 100.048 69.6283C97.4107 70.8507 96.9096 74.3088 97.9338 74.8539C98.958 75.3991 99.4646 76.2416 99.2168 77.1281C98.9691 78.0147 95.8524 77.1997 94.8722 79.0829C93.8921 80.9661 96.2103 82.6676 96.2213 83.6919C96.2323 84.7161 95.6707 85.6522 93.8315 86.1698C91.9923 86.6874 90.6983 88.1466 91.9262 89.1047C93.1542 90.0629 92.989 88.912 93.2919 88.2237C93.5947 87.5354 94.5528 87.4142 95.6652 87.9759C96.7775 88.5376 97.4493 87.3537 97.4493 87.3537C97.4493 87.3537 97.2896 88.8184 98.5506 89.2204C99.8116 89.6223 100.015 90.9659 98.5506 91.3624C97.0858 91.7589 96.0726 93.8238 97.1684 95.0407C98.2642 96.2577 99.9988 97.0176 102.928 96.2191C105.858 95.4207 112.174 90.7126 116.237 93.1135C120.301 95.5143 127.575 95.4482 131.149 94.2148C134.723 92.9813 135.648 89.2094 138.462 88.5816C141.275 87.9539 140.527 86.3295 140.053 84.7271C139.579 83.1247 138.924 78.6864 141.826 78.0697ZM143.869 75.4376C144.275 75.0152 144.532 74.472 144.601 73.8903C144.747 73.9743 144.875 74.0868 144.977 74.2212C145.078 74.3555 145.152 74.509 145.193 74.6724C145.234 74.8358 145.242 75.0058 145.216 75.1722C145.19 75.3387 145.131 75.4983 145.042 75.6414C144.464 76.8473 142.955 76.4013 142.955 76.4013L143.869 75.4376ZM102.345 73.0148C101.711 72.9046 100.384 75.2174 100.037 74.4795C99.6904 73.7416 100.483 70.8287 101.904 70.702C103.325 70.5754 104.817 73.257 104.817 73.257C104.63 74.3418 102.978 73.1249 102.345 73.0148ZM132.939 55.5041C132.697 55.4365 132.444 55.4211 132.196 55.4591C131.948 55.4971 131.712 55.5875 131.501 55.7244C131.514 55.4859 131.577 55.2526 131.684 55.0394C131.792 54.8262 131.943 54.6375 132.127 54.4854C132.311 54.3333 132.525 54.221 132.755 54.1556C132.984 54.0902 133.225 54.0732 133.462 54.1055C134.635 54.3092 134.899 56.0327 134.899 56.0327C134.261 55.8038 133.605 55.627 132.939 55.5041Z" fill="#263238"/>
<path d="M70.7432 133.294L78.9478 129.341C79.1975 130.427 79.2088 131.554 78.9809 132.645C78.6285 134.699 78.0668 136.951 76.2276 136.912C74.3885 136.874 70.7432 133.294 70.7432 133.294Z" fill="#263238" stroke="#263238" stroke-width="0.5" stroke-linecap="round" stroke-linejoin="round"/>
<path d="M98.5341 147.65C98.5341 147.65 101.568 140.315 102.207 139.197C102.846 138.08 107.488 137.766 106.689 141.56C105.891 145.354 103.275 147.353 101.618 147.617C100.598 147.785 99.5576 147.796 98.5341 147.65Z" fill="#263238" stroke="#263238" stroke-width="0.5" stroke-linecap="round" stroke-linejoin="round"/>
<path d="M60.0108 102.408C58.9905 103.354 58.1459 104.472 57.5163 105.712C56.7564 107.447 55.8644 109.567 55.8644 109.567C55.8644 109.567 64.7794 101.726 69.6306 101.412C74.4818 101.098 75.6878 101.131 75.6878 101.131C75.6878 101.131 69.6747 98.3281 66.4644 99.1871C64.2639 99.8601 62.1908 100.895 60.3301 102.249L60.0108 102.408Z" fill="#263238" stroke="#263238" stroke-width="0.5" stroke-linecap="round" stroke-linejoin="round"/>
<path d="M123.809 89.4297C123.809 89.4297 112.18 92.3096 100.567 94.6333C88.9534 96.9571 77.8082 94.3415 71.3436 96.0375C64.879 97.7335 60.0112 102.409 60.0112 102.409C60.0112 102.409 66.151 98.6861 69.9229 101.858C73.6949 105.03 73.2984 107.067 70.6498 110.866C68.0012 114.666 65.6939 120.31 69.6751 122.43C73.6563 124.55 77.5494 131.956 77.5164 133.608C77.4833 135.26 76.9327 135.26 76.9327 135.26L70.7269 133.294C70.7269 133.294 74.24 141.081 82.1088 142.165C89.9776 143.25 93.8982 140.211 98.8485 140.513C103.799 140.816 103.524 145.2 103.524 145.2C103.524 145.2 98.7219 146.571 98.5182 147.666C98.3144 148.762 99.7571 149.709 105.484 148.179C111.211 146.648 114.057 142.121 116.75 144.93C119.443 147.738 121.04 150.343 123.98 150.403C126.921 150.464 128.82 147.017 132.493 138.465C136.166 129.913 149.431 118.642 150.004 108.912C150.577 99.1817 145.142 86.9573 145.142 86.9573L123.809 89.4297Z" fill="#5CB0FF" stroke="#263238" stroke-width="0.5" stroke-linecap="round" stroke-linejoin="round"/>
<path d="M120.048 93.5759C120.048 93.5759 111.375 95.5968 104.492 99.8588C97.6091 104.121 84.366 105.31 80.6601 106.885C78.7697 107.633 76.9643 108.58 75.2748 109.71" stroke="#263238" stroke-width="0.5" stroke-linecap="round" stroke-linejoin="round"/>
<path d="M76.9592 135.26C79.7652 132.482 82.068 129.239 83.7653 125.673C86.9897 118.905 92.1683 113.259 98.6328 109.462C105.698 105.387 109.189 105.277 115.703 101.01" stroke="#263238" stroke-width="0.5" stroke-linecap="round" stroke-linejoin="round"/>
<path d="M103.54 145.183C103.54 145.183 108.496 128.762 112.449 123.157" stroke="#263238" stroke-width="0.5" stroke-linecap="round" stroke-linejoin="round"/>
<path d="M117.427 183.293C116.794 186.625 115.611 189.827 113.925 192.77C111.061 197.847 110.296 199.3 109.552 199.834C108.809 200.369 107.317 201.261 108.782 201.657C110.246 202.054 114.288 202.136 115.758 201.619C117.229 201.101 117.074 199.994 117.669 197.99C117.787 197.448 118.064 196.953 118.464 196.569C118.864 196.184 119.369 195.928 119.916 195.831L119.789 201.888H120.89L121.364 196.756C121.364 196.756 122.14 194.757 121.986 193.452C121.832 192.147 120.384 191.03 120.384 191.03L122.195 183.541L117.427 183.293Z" fill="white" stroke="#263238" stroke-width="0.5" stroke-linecap="round" stroke-linejoin="round"/>
<path d="M120.89 201.911L121.364 196.779C121.364 196.779 122.14 194.78 121.986 193.475C121.865 192.473 120.973 191.57 120.576 191.217C119.382 192.704 117.922 196.603 115.824 198.299C115.075 198.872 114.2 199.261 113.272 199.433C112.344 199.605 111.389 199.556 110.483 199.29L110.18 199.158C110.005 199.408 109.793 199.631 109.552 199.818C108.809 200.369 107.317 201.245 108.782 201.641C110.246 202.038 114.288 202.12 115.758 201.603C117.229 201.085 117.074 199.978 117.669 197.974C117.787 197.432 118.064 196.937 118.464 196.553C118.864 196.168 119.369 195.912 119.916 195.815L119.789 201.872L120.89 201.911Z" fill="#263238" stroke="#263238" stroke-width="0.5" stroke-linecap="round" stroke-linejoin="round"/>
<path d="M158.483 184.158C158.974 187.514 160.024 190.763 161.588 193.772C164.232 198.965 164.936 200.452 165.658 201.019C166.379 201.586 167.827 202.533 166.352 202.869C164.876 203.205 160.845 203.117 159.386 202.539C157.927 201.96 158.136 200.859 157.624 198.827C157.528 198.282 157.272 197.777 156.888 197.377C156.505 196.977 156.012 196.7 155.471 196.581L155.344 202.638L154.243 202.61L153.984 197.467C153.984 197.467 153.29 195.435 153.499 194.163C153.709 192.891 155.201 191.812 155.201 191.812L153.709 184.252L158.483 184.158Z" fill="white" stroke="#263238" stroke-width="0.5" stroke-linecap="round" stroke-linejoin="round"/>
<path d="M154.243 202.61L153.984 197.467C153.984 197.467 153.29 195.435 153.499 194.163C153.665 193.172 154.601 192.307 155.008 191.96C156.137 193.502 157.431 197.467 159.452 199.24C160.177 199.844 161.035 200.269 161.956 200.48C162.876 200.69 163.833 200.68 164.749 200.451L165.058 200.336C165.222 200.594 165.424 200.826 165.658 201.024C166.379 201.575 167.827 202.538 166.352 202.874C164.876 203.21 160.845 203.122 159.386 202.544C157.927 201.966 158.136 200.864 157.624 198.833C157.528 198.287 157.272 197.782 156.888 197.382C156.505 196.982 156.012 196.705 155.471 196.586L155.344 202.643L154.243 202.61Z" fill="#263238" stroke="#263238" stroke-width="0.5" stroke-linecap="round" stroke-linejoin="round"/>
<path d="M129.073 113.201C129.073 113.201 121.469 130.689 120.411 137.462C119.354 144.235 115.929 184.752 115.929 184.752L123.264 185.094L134.161 138.498L136.177 129.908L153.148 186.993L159.403 186.575C159.403 186.575 152.795 143.476 150.246 133.162C148.474 126.273 146.216 119.518 143.489 112.948L129.073 113.201Z" fill="#263238" stroke="#263238" stroke-width="0.5" stroke-linecap="round" stroke-linejoin="round"/>
<path d="M132.333 75.5693C132.333 75.5693 132.361 83.6639 132.333 84.6495C132.306 85.6352 123.214 88.3059 123.214 88.3059L129.101 113.201C129.101 113.201 136.81 113.856 143.517 112.914L147.922 86.3621L139.662 84.7101L139.993 78.2069C139.993 78.2069 134.778 78.0913 132.333 75.5693Z" fill="white" stroke="#263238" stroke-width="0.5" stroke-linecap="round" stroke-linejoin="round"/>
<path d="M142.487 85.2781C141.887 87.5302 139.927 93.1854 135.417 92.6127C131.518 92.1171 129.139 88.2736 128.302 86.6547C125.846 87.5302 123.176 88.3066 123.176 88.3066L129.062 113.202C129.062 113.202 136.771 113.857 143.478 112.915L147.883 86.3629L142.487 85.2781Z" fill="white" stroke="#263238" stroke-width="0.5" stroke-linecap="round" stroke-linejoin="round"/>
<path d="M129.954 85.3936C129.954 85.3936 132.156 97.3812 132.707 104.116C133.258 110.85 133.258 115.476 133.137 116.362C133.015 117.249 126.997 140.805 126.997 140.805L116.534 136.241L127.09 112.876C127.09 112.876 121.033 90.1512 121.072 89.3582C121.11 88.5653 129.954 85.3936 129.954 85.3936Z" fill="#707070" stroke="#263238" stroke-width="0.5" stroke-linecap="round" stroke-linejoin="round"/>
<path d="M127.966 86.2358L126.986 95.294L129.189 97.0231L127.537 99.947L133.043 114.264C133.043 114.264 132.994 107.254 132.597 102.607C132.201 97.9592 129.899 85.3823 129.899 85.3823L127.966 86.2358Z" stroke="#263238" stroke-width="0.5" stroke-linecap="round" stroke-linejoin="round"/>
<path d="M140.923 84.8315C140.923 84.8315 139.403 115.002 139.392 115.293C139.381 115.585 147.652 140.733 147.652 140.733L155.801 138.14L145.003 111.962C145.003 111.962 150.157 87.3921 150.069 86.902C149.981 86.4119 140.923 84.8315 140.923 84.8315Z" fill="#707070" stroke="#263238" stroke-width="0.5" stroke-linecap="round" stroke-linejoin="round"/>
<path d="M143.285 85.4758L144.375 95.8721L141.633 97.4029L144.205 99.611L139.392 115.293L140.923 84.8315L143.285 85.4758Z" fill="#707070" stroke="#263238" stroke-width="0.5" stroke-linecap="round" stroke-linejoin="round"/>
<path d="M140.934 64.584C140.914 64.4794 140.886 64.3764 140.852 64.2756C140.659 63.6809 140.086 62.486 138.649 63.1743C136.794 64.0553 135.742 66.0542 134.36 66.302C133.782 66.4225 133.197 66.5017 132.609 66.5388C132.609 66.5388 130.489 71.1808 129.459 71.9847C128.741 72.5029 127.921 72.8615 127.053 73.0364C127.053 73.0364 127.35 76.2577 128.259 76.7368C128.553 76.8671 128.875 76.9223 129.196 76.8973C129.517 76.8723 129.827 76.768 130.098 76.5936C130.098 76.5936 132.697 79.7709 134.426 80.6299C136.155 81.4889 138.077 81.7312 139.095 81.1805C140.114 80.6299 143.038 77.326 143.077 75.4758C143.115 73.6256 142.295 69.0277 142.146 67.2161C142.142 66.7166 142.032 66.2237 141.823 65.77C141.614 65.3162 141.311 64.912 140.934 64.584Z" fill="white" stroke="#263238" stroke-width="0.5" stroke-linecap="round" stroke-linejoin="round"/>
<path d="M134.993 63.0592C134.993 63.0592 135.263 63.2464 134.883 63.8852C134.566 64.3553 134.186 64.7796 133.754 65.1462C133.754 65.1462 135.593 65.003 136.358 63.6374C137.124 62.2718 136.116 62.0956 134.993 63.0592Z" fill="white"/>
<path d="M135.489 69.5622C135.571 70.0357 135.417 70.4597 135.142 70.5093C134.866 70.5589 134.591 70.212 134.497 69.7384C134.404 69.2648 134.569 68.8408 134.844 68.7913C135.12 68.7417 135.406 69.1162 135.489 69.5622Z" fill="#263238"/>
<path d="M140.19 68.9288C140.273 69.4024 140.113 69.8264 139.838 69.8759C139.562 69.9255 139.287 69.5731 139.193 69.0995C139.1 68.626 139.265 68.202 139.54 68.1524C139.816 68.1029 140.102 68.4498 140.19 68.9288Z" fill="#263238"/>
<path d="M133.417 68.1031L136.093 67.5139" stroke="#263238" stroke-width="0.5" stroke-linecap="round" stroke-linejoin="round"/>
<path d="M138.406 66.7377C138.406 66.7377 139.266 65.284 140.449 65.6749" stroke="#263238" stroke-width="0.5" stroke-linecap="round" stroke-linejoin="round"/>
<path d="M138.33 74.7276C138.33 74.7276 135.285 75.3058 134.475 73.5437" stroke="#263238" stroke-width="0.5" stroke-linecap="round" stroke-linejoin="round"/>
<path d="M138.798 70.5752C138.798 70.5752 139.288 72.2822 137.741 72.4474" stroke="#263238" stroke-width="0.5" stroke-linecap="round" stroke-linejoin="round"/>
<path d="M151.694 117.133C151.694 117.133 147.08 120.591 147.063 121.477C147.047 122.364 147.906 123.68 148.192 123.966C148.479 124.252 149.354 125.067 149.354 125.067C149.354 125.067 151.733 124.517 151.656 123.537C151.579 122.556 151.298 122.529 151.298 122.529L153.242 119.225L151.694 117.133Z" fill="white" stroke="#263238" stroke-width="0.5" stroke-linecap="round" stroke-linejoin="round"/>
<path d="M151.282 122.551L150.174 123.614" stroke="#263238" stroke-width="0.5" stroke-linecap="round" stroke-linejoin="round"/>
<path d="M147.52 94.9415L158.83 106.329L151.005 116.824L153.511 119.737C153.511 119.737 166.022 106.775 166.044 105.69C166.066 104.605 152.107 88.0309 151.231 87.4197C150.356 86.8084 148.39 86.467 148.39 86.467" fill="#707070"/>
<path d="M147.52 94.9415L158.83 106.329L151.005 116.824L153.511 119.737C153.511 119.737 166.022 106.775 166.044 105.69C166.066 104.605 152.107 88.0309 151.231 87.4197C150.356 86.8084 148.39 86.467 148.39 86.467" stroke="#263238" stroke-width="0.5" stroke-linecap="round" stroke-linejoin="round"/>
<path d="M121.216 116.61C121.216 116.61 126.138 119.605 126.243 120.464C126.348 121.323 125.621 122.727 125.362 123.052C125.103 123.377 124.316 124.291 124.316 124.291C124.316 124.291 121.898 123.983 121.876 122.992C121.854 122 122.152 121.967 122.152 121.967L119.911 118.856L121.216 116.61Z" fill="white" stroke="#263238" stroke-width="0.5" stroke-linecap="round" stroke-linejoin="round"/>
<path d="M122.146 121.968L123.353 122.915" stroke="#263238" stroke-width="0.5" stroke-linecap="round" stroke-linejoin="round"/>
<path d="M124.899 95.944L113.528 106.362L121.865 116.235L119.662 119.38C119.662 119.38 106.414 107.508 106.287 106.428C106.161 105.349 120.604 88.8461 121.513 88.2569C122.421 87.6677 124.393 87.4309 124.393 87.4309" fill="#707070"/>
<path d="M124.899 95.944L113.528 106.362L121.865 116.235L119.662 119.38C119.662 119.38 106.414 107.508 106.287 106.428C106.161 105.349 120.604 88.8461 121.513 88.2569C122.421 87.6677 124.393 87.4309 124.393 87.4309" stroke="#263238" stroke-width="0.5" stroke-linecap="round" stroke-linejoin="round"/>
<path d="M130.797 90.5255C130.797 90.5255 132.405 86.4947 132.18 85.2172C131.954 83.9397 129.784 84.2756 128.501 84.7602C127.218 85.2448 125.401 87.1115 125.401 87.1115C125.401 87.1115 128.837 86.9242 129.349 86.682C129.861 86.4397 130.682 90.0409 130.797 90.5255Z" fill="#5CB0FF" stroke="#263238" stroke-width="0.5" stroke-linecap="round" stroke-linejoin="round"/>
<path d="M139.646 84.7052L140.566 91.2414C140.566 91.2414 141.513 88.4881 142.686 87.0895C143.218 86.3938 143.878 85.8053 144.63 85.3549C144.63 85.3549 141.898 84.2151 139.646 84.7052Z" fill="#5CB0FF" stroke="#263238" stroke-width="0.5" stroke-linecap="round" stroke-linejoin="round"/>
</svg>
