<svg width="240" height="240" viewBox="0 0 240 240" fill="none" xmlns="http://www.w3.org/2000/svg">
<path d="M157.722 36.624C140.442 33.96 122.61 36.864 109.286 47.664C96.3256 58.1712 90.4456 75.7584 76.9288 85.5264C56.0536 100.642 26.404 95.6208 14.2936 122.755C9.97356 132.442 8.85996 143.266 9.01356 153.869C9.19116 167.15 11.356 180.59 17.092 192.566C22.828 204.542 32.38 214.992 44.6008 220.186C62.6392 227.866 83.5432 223.272 101.649 215.779C109.118 212.693 116.615 209.059 124.689 208.646C134.855 208.114 144.479 212.698 154.137 215.918C165.724 219.792 178.559 221.741 190.065 217.622C199.07 214.402 206.471 207.725 212.409 200.227C223.017 186.777 229.54 170.563 231.201 153.514C235.804 105.206 210.878 44.808 157.722 36.624Z" fill="#5CB0FF"/>
<path opacity="0.7" d="M157.722 36.624C140.442 33.96 122.61 36.864 109.286 47.664C96.3256 58.1712 90.4456 75.7584 76.9288 85.5264C56.0536 100.642 26.404 95.6208 14.2936 122.755C9.97356 132.442 8.85996 143.266 9.01356 153.869C9.19116 167.15 11.356 180.59 17.092 192.566C22.828 204.542 32.38 214.992 44.6008 220.186C62.6392 227.866 83.5432 223.272 101.649 215.779C109.118 212.693 116.615 209.059 124.689 208.646C134.855 208.114 144.479 212.698 154.137 215.918C165.724 219.792 178.559 221.741 190.065 217.622C199.07 214.402 206.471 207.725 212.409 200.227C223.017 186.777 229.54 170.563 231.201 153.514C235.804 105.206 210.878 44.808 157.722 36.624Z" fill="white"/>
<path d="M76.9728 178.81C76.9728 178.81 62.4192 178.627 59.016 173.184H21C21 173.184 24.0912 178.762 28.8912 178.81H76.9728Z" fill="white" stroke="#263238" stroke-width="0.5" stroke-miterlimit="10"/>
<path d="M57.912 174.979H26.9424C26.9424 174.979 27.5184 176.237 25.9392 176.928C26.9347 177.848 28.1842 178.447 29.5248 178.646H68.952C68.952 178.646 63.9312 178.166 61.2096 176.582C61.2096 176.582 58.056 177.043 57.912 174.979Z" fill="white" stroke="#263238" stroke-width="0.5" stroke-miterlimit="10"/>
<path d="M71.232 222.322H158.602V211.512H71.232V222.322Z" fill="#263238" stroke="#263238" stroke-width="0.5" stroke-miterlimit="10"/>
<path d="M23.1504 222.322H110.52V211.512H23.1504V222.322Z" fill="white" stroke="#263238" stroke-width="0.5" stroke-miterlimit="10"/>
<path d="M109.915 214.397H88.5792" stroke="#263238" stroke-width="0.5" stroke-miterlimit="10"/>
<path d="M105.706 216.802H74.7551" stroke="#263238" stroke-width="0.5" stroke-miterlimit="10"/>
<path d="M93.3842 218.962H98.7938" stroke="#263238" stroke-width="0.5" stroke-miterlimit="10"/>
<path d="M100.901 218.962H109.613" stroke="#263238" stroke-width="0.5" stroke-miterlimit="10"/>
<path d="M23.6641 218.482H51.0097" stroke="#263238" stroke-width="0.5" stroke-miterlimit="10"/>
<path d="M26.0687 217.042H29.6735" stroke="#263238" stroke-width="0.5" stroke-miterlimit="10"/>
<path d="M46.5025 216.802H34.4833" stroke="#263238" stroke-width="0.5" stroke-miterlimit="10"/>
<path d="M23.6641 213.917H34.1809" stroke="#263238" stroke-width="0.5" stroke-miterlimit="10"/>
<path d="M157.397 216.077H151.987" stroke="#8A8A8A" stroke-width="0.5" stroke-miterlimit="10"/>
<path d="M158.602 218.482H141.773" stroke="#8A8A8A" stroke-width="0.5" stroke-miterlimit="10"/>
<path d="M111.417 219.922H119.534" stroke="#8A8A8A" stroke-width="0.5" stroke-miterlimit="10"/>
<path d="M110.515 216.077H132.456" stroke="#8A8A8A" stroke-width="0.5" stroke-miterlimit="10"/>
<path d="M151.387 212.957H138.768" stroke="#8A8A8A" stroke-width="0.5" stroke-miterlimit="10"/>
<path d="M63.0287 222.082H73.2479V211.512H63.0287V222.082Z" fill="white" stroke="#263238" stroke-width="0.5" stroke-miterlimit="10"/>
<path d="M70.1088 211.426H157.478V200.616H70.1088V211.426Z" fill="#263238" stroke="#263238" stroke-width="0.5" stroke-miterlimit="10"/>
<path d="M22.0271 211.426H109.397V200.616H22.0271V211.426Z" fill="white" stroke="#263238" stroke-width="0.5" stroke-miterlimit="10"/>
<path d="M108.792 203.496H87.4559" stroke="#263238" stroke-width="0.5" stroke-miterlimit="10"/>
<path d="M104.587 205.896H73.6321" stroke="#263238" stroke-width="0.5" stroke-miterlimit="10"/>
<path d="M92.2655 208.061H97.6751" stroke="#263238" stroke-width="0.5" stroke-miterlimit="10"/>
<path d="M99.7776 208.061H108.494" stroke="#263238" stroke-width="0.5" stroke-miterlimit="10"/>
<path d="M22.5408 207.581H49.8912" stroke="#263238" stroke-width="0.5" stroke-miterlimit="10"/>
<path d="M24.9454 206.136H28.5502" stroke="#263238" stroke-width="0.5" stroke-miterlimit="10"/>
<path d="M45.384 205.896H33.36" stroke="#263238" stroke-width="0.5" stroke-miterlimit="10"/>
<path d="M22.5408 203.016H33.0624" stroke="#263238" stroke-width="0.5" stroke-miterlimit="10"/>
<path d="M156.278 205.176H150.869" stroke="#8A8A8A" stroke-width="0.5" stroke-miterlimit="10"/>
<path d="M157.478 207.581H140.65" stroke="#8A8A8A" stroke-width="0.5" stroke-miterlimit="10"/>
<path d="M110.299 209.021H118.411" stroke="#8A8A8A" stroke-width="0.5" stroke-miterlimit="10"/>
<path d="M109.397 205.176H131.333" stroke="#8A8A8A" stroke-width="0.5" stroke-miterlimit="10"/>
<path d="M150.269 202.056H137.645" stroke="#8A8A8A" stroke-width="0.5" stroke-miterlimit="10"/>
<path d="M61.9104 211.186H72.1296V200.616H61.9104V211.186Z" fill="white" stroke="#263238" stroke-width="0.5" stroke-miterlimit="10"/>
<path d="M73.6608 200.525H161.03V189.715H73.6608V200.525Z" fill="#263238" stroke="#263238" stroke-width="0.5" stroke-miterlimit="10"/>
<path d="M25.5791 200.525H112.949V189.715H25.5791V200.525Z" fill="white" stroke="#263238" stroke-width="0.5" stroke-miterlimit="10"/>
<path d="M112.344 192.595H91.0079" stroke="#263238" stroke-width="0.5" stroke-miterlimit="10"/>
<path d="M108.134 194.995H77.1841" stroke="#263238" stroke-width="0.5" stroke-miterlimit="10"/>
<path d="M95.8129 197.16H101.222" stroke="#263238" stroke-width="0.5" stroke-miterlimit="10"/>
<path d="M103.33 197.16H112.042" stroke="#263238" stroke-width="0.5" stroke-miterlimit="10"/>
<path d="M26.0929 196.68H53.4385" stroke="#263238" stroke-width="0.5" stroke-miterlimit="10"/>
<path d="M28.4976 195.235H32.1024" stroke="#263238" stroke-width="0.5" stroke-miterlimit="10"/>
<path d="M48.9313 194.995H36.9121" stroke="#263238" stroke-width="0.5" stroke-miterlimit="10"/>
<path d="M26.0929 192.115H36.6097" stroke="#263238" stroke-width="0.5" stroke-miterlimit="10"/>
<path d="M159.825 194.275H154.416" stroke="#8A8A8A" stroke-width="0.5" stroke-miterlimit="10"/>
<path d="M161.03 196.68H144.202" stroke="#8A8A8A" stroke-width="0.5" stroke-miterlimit="10"/>
<path d="M113.846 198.12H121.963" stroke="#8A8A8A" stroke-width="0.5" stroke-miterlimit="10"/>
<path d="M112.944 194.275H134.885" stroke="#8A8A8A" stroke-width="0.5" stroke-miterlimit="10"/>
<path d="M153.816 191.155H141.197" stroke="#8A8A8A" stroke-width="0.5" stroke-miterlimit="10"/>
<path d="M65.4576 200.285H75.6768V189.715H65.4576V200.285Z" fill="white" stroke="#263238" stroke-width="0.5" stroke-miterlimit="10"/>
<path d="M70.9488 189.619H158.318V178.81H70.9488V189.619Z" fill="#263238" stroke="#263238" stroke-width="0.5" stroke-miterlimit="10"/>
<path d="M22.8671 189.619H110.237V178.81H22.8671V189.619Z" fill="white" stroke="#263238" stroke-width="0.5" stroke-miterlimit="10"/>
<path d="M109.637 181.695H88.2959" stroke="#263238" stroke-width="0.5" stroke-miterlimit="10"/>
<path d="M105.427 184.094H74.472" stroke="#263238" stroke-width="0.5" stroke-miterlimit="10"/>
<path d="M93.1055 186.254H98.5151" stroke="#263238" stroke-width="0.5" stroke-miterlimit="10"/>
<path d="M100.618 186.254H109.334" stroke="#263238" stroke-width="0.5" stroke-miterlimit="10"/>
<path d="M23.3809 185.774H50.7313" stroke="#263238" stroke-width="0.5" stroke-miterlimit="10"/>
<path d="M25.7855 184.334H29.3951" stroke="#263238" stroke-width="0.5" stroke-miterlimit="10"/>
<path d="M46.224 184.094H34.2" stroke="#263238" stroke-width="0.5" stroke-miterlimit="10"/>
<path d="M23.3809 181.215H33.9025" stroke="#263238" stroke-width="0.5" stroke-miterlimit="10"/>
<path d="M157.118 183.375H151.709" stroke="#8A8A8A" stroke-width="0.5" stroke-miterlimit="10"/>
<path d="M158.318 185.774H141.49" stroke="#8A8A8A" stroke-width="0.5" stroke-miterlimit="10"/>
<path d="M111.139 187.219H119.251" stroke="#8A8A8A" stroke-width="0.5" stroke-miterlimit="10"/>
<path d="M110.237 183.375H132.173" stroke="#8A8A8A" stroke-width="0.5" stroke-miterlimit="10"/>
<path d="M151.109 180.25H138.485" stroke="#8A8A8A" stroke-width="0.5" stroke-miterlimit="10"/>
<path d="M62.7504 189.379H72.9696V178.81H62.7504V189.379Z" fill="white" stroke="#263238" stroke-width="0.5" stroke-miterlimit="10"/>
<path d="M216.314 56.9375H132.678V222.326H216.314V56.9375Z" fill="#263238" stroke="#263238" stroke-width="0.5" stroke-miterlimit="10"/>
<path d="M207.27 57.6912V86.3232" stroke="#8A8A8A" stroke-width="0.5" stroke-miterlimit="10"/>
<path d="M212.546 64.8479V76.9055" stroke="#8A8A8A" stroke-width="0.5" stroke-miterlimit="10"/>
<path d="M209.91 62.2126V105.158" stroke="#8A8A8A" stroke-width="0.5" stroke-miterlimit="10"/>
<path d="M214.432 56.9375V113.074" stroke="#8A8A8A" stroke-width="0.5" stroke-miterlimit="10"/>
<path d="M208.024 221.947V192.562" stroke="#8A8A8A" stroke-width="0.5" stroke-miterlimit="10"/>
<path d="M211.038 222.326V215.918" stroke="#8A8A8A" stroke-width="0.5" stroke-miterlimit="10"/>
<path d="M211.792 213.658V187.666" stroke="#8A8A8A" stroke-width="0.5" stroke-miterlimit="10"/>
<path d="M208.403 188.794V146.222" stroke="#8A8A8A" stroke-width="0.5" stroke-miterlimit="10"/>
<path d="M204.635 56.9375H121V222.326H204.635V56.9375Z" fill="#5CB0FF" stroke="#263238" stroke-width="0.5" stroke-miterlimit="10"/>
<path d="M197.478 68.64C195.844 68.6362 194.273 68.007 193.087 66.8815C191.902 65.7559 191.192 64.2194 191.104 62.5872H134.541C134.455 64.2218 133.744 65.7611 132.557 66.8874C131.369 68.0137 129.794 68.641 128.157 68.64C127.778 68.639 127.401 68.6037 127.029 68.5344V207.36C127.401 207.293 127.778 207.258 128.157 207.254C129.263 207.254 130.35 207.541 131.312 208.086C132.274 208.63 133.079 209.415 133.648 210.364C134.217 211.312 134.531 212.391 134.558 213.497C134.586 214.602 134.327 215.696 133.806 216.672H191.829C191.307 215.696 191.047 214.602 191.074 213.496C191.101 212.39 191.414 211.31 191.983 210.361C192.552 209.412 193.358 208.627 194.321 208.083C195.284 207.538 196.372 207.253 197.478 207.254C197.857 207.258 198.234 207.293 198.606 207.36V68.5104C198.235 68.5877 197.858 68.6311 197.478 68.64ZM161.123 164.683C147.909 164.683 137.2 153.048 137.2 138.691C137.2 124.334 147.909 112.694 161.123 112.694C174.338 112.694 185.046 124.334 185.046 138.691C185.046 153.048 174.333 164.683 161.123 164.683Z" fill="white" stroke="#263238" stroke-width="0.5" stroke-miterlimit="10"/>
<path d="M216.16 129.648H121.375V146.602H216.16V129.648Z" fill="white" stroke="#263238" stroke-width="0.5" stroke-miterlimit="10"/>
<path d="M216.16 129.648H204.818V146.602H216.16V129.648Z" fill="#3D3D3D" stroke="#8A8A8A" stroke-width="0.5" stroke-miterlimit="10"/>
<path d="M44.5982 212.018L41.8046 216.209L36.347 220.529V222.31H55.0142L54.3759 216.07V213.276C54.3759 213.276 46.7582 209.983 44.5982 212.018Z" fill="#263238" stroke="#263238" stroke-width="0.5" stroke-miterlimit="10"/>
<path d="M54.8462 220.654H36.347V222.305H55.0142L54.8462 220.654Z" fill="white" stroke="#263238" stroke-width="0.5" stroke-miterlimit="10"/>
<path d="M75.4239 212.018L78.3999 216.209L84.2223 220.529V222.31H64.3263L65.0031 216.07V213.276C65.0031 213.276 73.1247 209.983 75.4239 212.018Z" fill="#263238" stroke="#263238" stroke-width="0.5" stroke-miterlimit="10"/>
<path d="M64.5039 220.654H84.2223V222.305H64.3263L64.5039 220.654Z" fill="white" stroke="#263238" stroke-width="0.5" stroke-miterlimit="10"/>
<path d="M36.2704 125.105C36.2704 125.105 40.6288 174.295 40.9408 183.636C41.2528 192.977 44.2096 205.587 44.2096 205.587L42.832 207.766L44.2336 212.59C44.2336 212.59 47.5024 211.812 49.216 212.436C50.9296 213.06 54.016 213.838 54.016 213.838C54.016 213.838 55.576 209.633 55.7296 207.766C55.8832 205.899 53.872 201.382 53.872 201.382L53.56 145.188H56.3632L63.5152 204.651L63.2032 208.231L64.6048 213.838C64.6048 213.838 72.856 212.124 73.4752 211.966C73.9482 211.895 74.4316 211.949 74.8768 212.124C74.8768 212.124 75.8368 210.099 75.8368 209.475C75.8368 208.851 74.5888 205.275 74.5888 205.275L74.2768 177.411V124.639L36.2944 123.862L36.2704 125.105Z" fill="#5CB0FF" stroke="#263238" stroke-width="0.5" stroke-miterlimit="10"/>
<path d="M72.9376 146.83L73.7872 165.439L70.1632 165.766V168.075L72.7984 168.238" stroke="#263238" stroke-width="0.5" stroke-linecap="round" stroke-linejoin="round"/>
<path d="M72.3041 132.987L72.8561 145.006" stroke="#263238" stroke-width="0.5" stroke-linecap="round" stroke-linejoin="round"/>
<path d="M70.72 179.119C70.84 182.446 71.104 185.331 71.6464 185.532C72.9664 186.012 73.2928 186.521 73.2928 186.521" stroke="#263238" stroke-width="0.5" stroke-linecap="round" stroke-linejoin="round"/>
<path d="M70.6721 168.732C70.6721 168.732 70.5857 172.937 70.6721 177.142" stroke="#263238" stroke-width="0.5" stroke-linecap="round" stroke-linejoin="round"/>
<path d="M49.7391 143.527L56.3247 144.022" stroke="#263238" stroke-width="0.5" stroke-linecap="round" stroke-linejoin="round"/>
<path d="M51.8799 127.716L52.0431 136.937L55.0095 139.083" stroke="#263238" stroke-width="0.5" stroke-linecap="round" stroke-linejoin="round"/>
<path d="M55.0095 131.009L55.5039 142.375" stroke="#263238" stroke-width="0.5" stroke-linecap="round" stroke-linejoin="round"/>
<path d="M52.9745 183.727L53.1953 195.089" stroke="#263238" stroke-width="0.5" stroke-linecap="round" stroke-linejoin="round"/>
<path d="M52.2063 144.185L52.9215 180.919" stroke="#263238" stroke-width="0.5" stroke-linecap="round" stroke-linejoin="round"/>
<path d="M65.5503 132.492C65.5503 132.492 67.8591 137.268 72.1407 135.785" stroke="#263238" stroke-width="0.5" stroke-linecap="round" stroke-linejoin="round"/>
<path d="M42.491 132.492C42.491 132.492 40.8398 136.116 38.2046 136.611" stroke="#263238" stroke-width="0.5" stroke-linecap="round" stroke-linejoin="round"/>
<path d="M52.2735 70.217L47.3247 71.7146L43.1775 124.899L65.0511 125.249L66.2031 70.5626L52.2735 70.217Z" fill="white" stroke="#263238" stroke-width="0.5" stroke-miterlimit="10"/>
<path d="M50.5118 68.1386H49.3502L48.7646 69.6554L48.9998 82.4954L56.2382 77.8298L63.3566 84.5978L64.2926 69.305C64.2926 69.305 64.643 68.6042 63.5918 68.1386C62.5406 67.673 62.1902 67.553 62.1902 67.553L50.5118 68.1386Z" fill="white" stroke="#263238" stroke-width="0.5" stroke-miterlimit="10"/>
<path d="M49.8158 64.3947L50.1662 69.6747C50.1662 69.6747 53.5262 77.0284 55.7678 78.0796C58.0094 79.1308 63.1262 69.3243 63.1262 69.3243L62.7758 63.4875H49.6958L49.8158 64.3947Z" fill="white" stroke="#263238" stroke-width="0.5" stroke-miterlimit="10"/>
<path d="M49.8158 64.3947C49.8158 64.3947 54.0158 73.5147 56.4686 73.8555C58.9214 74.1963 62.891 65.4459 62.891 64.6299C62.891 63.8139 49.8158 64.3947 49.8158 64.3947Z" fill="#263238" stroke="#263238" stroke-width="0.5" stroke-miterlimit="10"/>
<path d="M47.5984 56.5802C47.5984 56.5802 45.5728 54.9194 45.2944 57.2234C45.016 59.5274 47.968 61.649 47.968 61.649L47.5984 56.5802Z" fill="white" stroke="#263238" stroke-width="0.5" stroke-miterlimit="10"/>
<path d="M64.0623 56.5802C64.0623 56.5802 66.0927 54.9194 66.3711 57.2234C66.6495 59.5274 63.6975 61.649 63.6975 61.649L64.0623 56.5802Z" fill="white" stroke="#263238" stroke-width="0.5" stroke-miterlimit="10"/>
<path d="M47.2288 56.854C47.2288 56.854 48.3376 63.31 49.2592 64.5052C50.1808 65.7004 53.0368 69.8524 55.7104 70.5916C58.384 71.3308 62.536 66.166 63.3616 64.414C64.1872 62.662 64.4704 54.9196 64.4704 54.9196L64.3792 50.7724C64.3792 50.7724 64.1008 47.7292 62.9008 46.0684C61.7008 44.4076 56.5408 43.3036 53.1328 44.6188C49.7248 45.934 46.864 51.8764 46.864 53.0764C46.864 54.2764 47.2288 56.854 47.2288 56.854Z" fill="white" stroke="#263238" stroke-width="0.5" stroke-miterlimit="10"/>
<path d="M53.3152 49.6634C53.3152 49.6634 50.4352 52.985 49.168 53.6282C48.5922 53.8936 48.037 54.2016 47.5072 54.5498L47.6896 58.4234L46.216 53.1434C46.216 53.1434 44.3728 47.5418 44.752 45.0554C45.1312 42.569 53.5072 40.169 56.4592 39.2474C59.4112 38.3258 60.5152 40.169 62.4496 41.6474C64.384 43.1258 66.4144 44.2298 66.1408 46.721C65.9024 48.4538 65.4693 50.1542 64.8496 51.7898C64.8496 51.7898 64.3696 58.7018 64.3696 58.9898C64.3696 59.2778 63.5392 52.169 63.5392 52.169C63.0684 52.0453 62.6437 51.7875 62.3165 51.4271C61.9893 51.0667 61.7738 50.6191 61.696 50.1386C61.4509 48.9224 61.2905 47.6907 61.216 46.4522C61.216 46.4522 60.016 48.9434 58.816 50.1386C57.616 51.3338 54.6688 52.4426 54.208 52.3514C53.7472 52.2602 54.688 50.0474 54.688 50.0474L53.0272 51.617L53.3152 49.6634Z" fill="#263238" stroke="#263238" stroke-width="0.5" stroke-miterlimit="10"/>
<path d="M54.0544 62.5706C54.511 62.9768 55.0426 63.2899 55.6192 63.4922C56.3584 63.6746 57.6496 62.5706 58.0192 62.2922" stroke="#263238" stroke-width="0.5" stroke-miterlimit="10"/>
<path d="M53.7759 65.1529C53.7759 65.1529 55.8975 66.8089 58.7535 64.8745L53.7759 65.1529Z" fill="white"/>
<path d="M53.7759 65.1529C53.7759 65.1529 55.8975 66.8089 58.7535 64.8745" stroke="#263238" stroke-width="0.5" stroke-miterlimit="10"/>
<path d="M52.3454 59.249C52.6767 59.249 52.9454 58.7955 52.9454 58.2362C52.9454 57.6768 52.6767 57.2234 52.3454 57.2234C52.014 57.2234 51.7454 57.6768 51.7454 58.2362C51.7454 58.7955 52.014 59.249 52.3454 59.249Z" fill="#263238"/>
<path d="M59.3537 59.249C59.685 59.249 59.9537 58.7955 59.9537 58.2362C59.9537 57.6768 59.685 57.2234 59.3537 57.2234C59.0223 57.2234 58.7537 57.6768 58.7537 58.2362C58.7537 58.7955 59.0223 59.249 59.3537 59.249Z" fill="#263238"/>
<path d="M57.9232 55.0106C58.5175 54.6993 59.1954 54.585 59.8589 54.6842C60.5224 54.7834 61.1372 55.0911 61.6144 55.5626" stroke="#263238" stroke-width="0.5" stroke-miterlimit="10"/>
<path d="M53.0367 54.9195C52.5671 54.6414 52.0147 54.537 51.476 54.6248C50.9373 54.7125 50.4465 54.9867 50.0895 55.3995" stroke="#263238" stroke-width="0.5" stroke-miterlimit="10"/>
<path d="M59.584 59.9884L61.6144 59.5276" stroke="#263238" stroke-width="0.5" stroke-miterlimit="10"/>
<path d="M50.272 59.4363L51.9328 59.9883" stroke="#263238" stroke-width="0.5" stroke-miterlimit="10"/>
<path d="M48.88 81.5785L47.8288 131.979L35.8288 131.398L35.104 130.011C35.104 130.011 33.472 130.011 33.2368 128.724C33.0016 127.438 34.8688 99.1897 34.8688 99.1897L24.592 98.2537L31.48 84.8137C31.48 84.8137 33.5824 75.4729 34.048 74.7721C34.5136 74.0713 49.1104 69.0505 49.1104 69.0505L48.88 81.5785Z" fill="#263238" stroke="#263238" stroke-width="0.5" stroke-miterlimit="10"/>
<path d="M63.8272 68.7529L62.1136 132.113L77.5216 131.955L78.1457 129.622L79.7008 128.532V123.55C79.7008 121.059 76.744 103.001 76.744 103.001C76.744 103.001 84.5296 101.911 84.6832 100.356C84.8368 98.8009 81.4144 75.2953 79.5472 73.5817C77.68 71.8681 63.8272 68.7529 63.8272 68.7529Z" fill="#263238" stroke="#263238" stroke-width="0.5" stroke-miterlimit="10"/>
<path d="M67.6912 104.883L69.7408 110.787C69.7408 110.787 70.9264 107.935 70.7488 106.14C70.5712 104.345 70.5664 103.803 70.0288 103.711C69.4912 103.62 67.792 103.265 67.6912 104.883Z" fill="white" stroke="#263238" stroke-width="0.5" stroke-miterlimit="10"/>
<path d="M47.2095 89.5417L53.7711 102.579L60.6927 99.1609L54.8511 85.4089L47.2095 89.5417Z" fill="#5CB0FF" stroke="#263238" stroke-width="0.5" stroke-miterlimit="10"/>
<path d="M58.5903 98.6379C58.5117 98.4303 58.518 98.2001 58.6079 97.9971C58.6977 97.7941 58.8638 97.6346 59.0703 97.5531C59.1085 97.5485 59.1472 97.5485 59.1855 97.5531L54.8655 87.4299C54.8262 87.5245 54.7661 87.609 54.6896 87.6771C54.6132 87.7453 54.5223 87.7953 54.4239 87.8235C54.2763 87.8579 54.1218 87.847 53.9805 87.7922C53.8392 87.7374 53.7177 87.6412 53.6319 87.5163L49.0719 89.9691C49.1307 90.0573 49.1745 90.1546 49.2015 90.2571C49.2651 90.4408 49.2667 90.6403 49.206 90.825C49.1453 91.0097 49.0257 91.1694 48.8655 91.2795L53.4207 100.299C53.5021 100.208 53.6067 100.142 53.7231 100.107C53.9163 100.07 54.1163 100.104 54.287 100.201C54.4577 100.299 54.588 100.454 54.6543 100.64L58.6047 98.6907L58.5903 98.6379ZM54.6927 96.3051C53.8527 96.5403 52.9455 95.9211 52.6623 94.9179C52.3791 93.9147 52.8255 92.9067 53.6607 92.6715C54.4959 92.4363 55.4079 93.0555 55.6911 94.0587C55.9743 95.0619 55.5279 96.0651 54.6927 96.3051Z" fill="white" stroke="#263238" stroke-width="0.5" stroke-miterlimit="10"/>
<path d="M50.0175 87.9388L53.5215 102.104L61.0287 100.308L58.3839 85.606L50.0175 87.9388Z" fill="#5CB0FF" stroke="#263238" stroke-width="0.5" stroke-miterlimit="10"/>
<path d="M59.0942 99.3385C59.0779 99.2285 59.0835 99.1164 59.1106 99.0085C59.1378 98.9006 59.1859 98.7992 59.2524 98.71C59.3188 98.6208 59.4023 98.5456 59.4978 98.4887C59.5934 98.4319 59.6993 98.3944 59.8094 98.3785C59.8476 98.3739 59.8863 98.3739 59.9246 98.3785L58.0046 87.5545C57.9445 87.6375 57.8669 87.7063 57.7773 87.7561C57.6878 87.8058 57.5884 87.8354 57.4862 87.8425C57.3336 87.8416 57.1847 87.7955 57.0583 87.7101C56.9319 87.6247 56.8336 87.5037 56.7758 87.3625L51.755 88.7785C51.7946 88.8781 51.8173 88.9835 51.8222 89.0905C51.8431 89.2839 51.8 89.4789 51.6994 89.6454C51.5988 89.8119 51.4463 89.9407 51.2654 90.0122L53.6894 99.8186C53.7883 99.7494 53.9048 99.7094 54.0254 99.7033C54.2215 99.7079 54.4093 99.7834 54.554 99.9157C54.6987 100.048 54.7906 100.228 54.8126 100.423L59.099 99.401L59.0942 99.3385ZM55.7918 96.1898C54.923 96.2378 54.1742 95.4314 54.1214 94.3898C54.0686 93.3481 54.7262 92.4697 55.595 92.4217C56.4638 92.3737 57.2078 93.185 57.2654 94.2266C57.323 95.2682 56.6798 96.1466 55.7918 96.1898Z" fill="white" stroke="#263238" stroke-width="0.5" stroke-miterlimit="10"/>
<path d="M54.1696 86.8442L53.3632 101.412L61.0672 101.902L62.8528 87.065L54.1696 86.8442Z" fill="#5CB0FF" stroke="#263238" stroke-width="0.5" stroke-miterlimit="10"/>
<path d="M59.5022 100.4C59.5377 100.18 59.6584 99.9829 59.8382 99.8517C60.0179 99.7205 60.2422 99.6655 60.4622 99.6987C60.5023 99.7081 60.5411 99.7226 60.5774 99.7419L61.8926 88.8171C61.8114 88.8801 61.717 88.924 61.6164 88.9456C61.5159 88.9672 61.4118 88.9659 61.3118 88.9419C61.1661 88.8981 61.0369 88.8116 60.9411 88.6935C60.8452 88.5753 60.7871 88.4311 60.7742 88.2795L55.5854 88.1499C55.5947 88.2548 55.585 88.3605 55.5566 88.4619C55.5204 88.6532 55.4224 88.8273 55.2775 88.9574C55.1327 89.0875 54.9491 89.1664 54.755 89.1819L54.1982 99.2619C54.3159 99.2282 54.4406 99.2282 54.5582 99.2619C54.7445 99.3255 54.9015 99.4543 55.0003 99.6246C55.0991 99.7948 55.133 99.995 55.0958 100.188L59.4974 100.467C59.4933 100.444 59.495 100.421 59.5022 100.4ZM57.2846 96.4299C56.4446 96.2187 55.9646 95.2299 56.219 94.2171C56.4734 93.2043 57.3614 92.5563 58.2062 92.7771C59.051 92.9979 59.5214 93.9819 59.2718 94.9947C59.0222 96.0075 58.1294 96.6411 57.2846 96.4299Z" fill="white" stroke="#263238" stroke-width="0.5" stroke-miterlimit="10"/>
<path d="M70.0287 101.105C69.1801 100.978 68.3401 100.798 67.5135 100.567C67.1535 100.39 64.5471 99.4874 62.4783 98.4122C60.4095 97.337 58.7055 98.4122 55.7583 98.9498C52.8111 99.4874 51.9807 99.6698 51.9807 100.39C51.9807 101.11 53.5119 101.287 53.5119 101.287C53.5119 101.287 52.0719 101.465 52.7919 102.454C53.216 103.041 53.8136 103.481 54.5007 103.711C54.8988 104.371 55.4164 104.951 56.0271 105.42C56.9247 106.049 57.5535 106.591 57.5535 106.591C58.1164 107.292 58.8648 107.821 59.7135 108.118C60.9711 108.478 68.0703 106.318 68.0703 106.318C68.0703 106.318 70.2255 106.947 70.7679 105.78C71.3103 104.614 70.0287 101.105 70.0287 101.105Z" fill="white" stroke="#263238" stroke-width="0.5" stroke-linecap="round" stroke-linejoin="round"/>
<path d="M53.4928 101.287C53.4928 101.287 58.8832 101.105 60.592 100.567" stroke="#263238" stroke-width="0.5" stroke-linecap="round" stroke-linejoin="round"/>
<path d="M54.4816 103.711C55.9674 103.949 57.4696 104.07 58.9744 104.071C59.8604 104.054 60.7268 103.807 61.4896 103.356" stroke="#263238" stroke-width="0.5" stroke-linecap="round" stroke-linejoin="round"/>
<path d="M56.752 105.963C56.752 105.963 59.896 106.923 62.032 106.231" stroke="#263238" stroke-width="0.5" stroke-linecap="round" stroke-linejoin="round"/>
<path d="M72.6976 85.7212L74.4112 99.1084L69.5824 100.51C69.5824 100.51 70.3648 104.556 70.0624 106.428C69.8594 107.872 69.7552 109.329 69.7504 110.787C69.7504 110.787 75.0304 109.073 78.4672 108.761C81.904 108.449 84.8512 106.894 85.7824 104.403C86.7136 101.912 83.7616 93.3628 83.7616 93.3628" fill="#263238"/>
<path d="M72.6976 85.7212L74.4112 99.1084L69.5824 100.51C69.5824 100.51 70.3648 104.556 70.0624 106.428C69.8594 107.872 69.7552 109.329 69.7504 110.787C69.7504 110.787 75.0304 109.073 78.4672 108.761C81.904 108.449 84.8512 106.894 85.7824 104.403C86.7136 101.912 83.7616 93.3628 83.7616 93.3628" stroke="#263238" stroke-width="0.5" stroke-miterlimit="10"/>
<path d="M72.0591 100.116L74.4111 99.1082L80.3631 97.5098" stroke="#6B6B6B" stroke-width="0.5" stroke-miterlimit="10"/>
<path d="M74.4112 99.1083L72.5632 83.2971" stroke="#6B6B6B" stroke-width="0.5" stroke-miterlimit="10"/>
<path d="M43.9743 98.801C43.9743 98.801 42.8991 94.0394 42.4479 93.137C41.9967 92.2346 39.5679 94.7594 39.3903 95.5658C39.2127 96.3722 43.2543 98.8922 43.9743 98.801Z" fill="white" stroke="#263238" stroke-width="0.5" stroke-miterlimit="10"/>
<path d="M41.6273 88.7786L39.3041 91.505C39.3041 91.505 39.9521 95.4986 40.4705 95.657C40.9889 95.8154 44.6945 92.9594 44.6945 92.9594L41.6273 88.7786Z" fill="white" stroke="#263238" stroke-width="0.5" stroke-miterlimit="10"/>
<path d="M45.9424 83.3114C45.9424 83.3114 41.896 87.2666 41.6224 88.793C41.3488 90.3194 44.2288 93.1994 44.5888 93.4682C44.9488 93.737 47.5552 91.6682 47.6416 91.3082C47.728 90.9482 45.9376 88.1642 45.9376 88.1642C46.7624 88.5683 47.5636 89.0186 48.3376 89.513C48.6064 89.7818 50.3152 92.2106 50.944 92.0282C51.5728 91.8458 51.304 90.6794 50.944 89.6042C50.584 88.529 46.72 84.929 46.72 84.929L49.3264 85.5578C49.3264 85.5578 52.384 88.5242 53.104 88.5242C53.824 88.5242 53.464 87.8042 53.0128 87.1754C52.5616 86.5466 50.4064 84.0314 49.8688 83.4026C49.3312 82.7738 47.2624 82.4138 46.9888 82.4138C46.7152 82.4138 45.9424 83.3114 45.9424 83.3114Z" fill="white" stroke="#263238" stroke-width="0.5" stroke-linecap="round" stroke-linejoin="round"/>
<path d="M45.9422 88.1643L44.6846 86.9067" stroke="#263238" stroke-width="0.5" stroke-linecap="round" stroke-linejoin="round"/>
<path d="M43.067 88.4331L46.3022 92.3883" stroke="#263238" stroke-width="0.5" stroke-linecap="round" stroke-linejoin="round"/>
<path d="M39.2127 91.073C39.2127 91.073 39.8415 93.2282 40.2015 94.577C40.5615 95.9258 43.9743 98.801 43.9743 98.801C43.9743 98.801 39.1215 103.923 34.8063 106.169C30.4911 108.415 25.4223 107.287 23.8959 105.492C22.3695 103.697 22.9983 98.4842 24.2559 97.4042C25.5135 96.3242 32.8287 94.937 34.6287 93.9482C36.4287 92.9594 39.2127 91.073 39.2127 91.073Z" fill="#263238" stroke="#263238" stroke-width="0.5" stroke-miterlimit="10"/>
<path d="M39.2126 91.073L27.3854 96.8522" stroke="#6B6B6B" stroke-width="0.5" stroke-miterlimit="10"/>
<path d="M37.6766 91.8315V86.3115" stroke="#6B6B6B" stroke-width="0.5" stroke-miterlimit="10"/>
<path d="M111.262 213.096C111.262 213.096 109.822 213.504 105.982 210.658C102.142 207.811 97.6495 203.746 97.6495 203.746C97.6495 203.746 102.085 203.15 104.134 202.07C106.39 200.875 109.03 198.053 109.03 198.053C109.03 198.053 117.973 210.25 129.157 209.438C128.963 210.478 128.509 211.452 127.838 212.269C127.166 213.087 126.299 213.721 125.317 214.114C121.832 215.534 111.262 213.096 111.262 213.096Z" fill="#5CB0FF" stroke="#263238" stroke-width="0.5" stroke-linejoin="round"/>
<path d="M125.773 210.835C125.773 210.835 116.278 208.344 111.147 202.896C110.9 202.963 110.641 202.975 110.389 202.93C110.136 202.885 109.897 202.784 109.689 202.636C109.48 202.487 109.307 202.293 109.183 202.069C109.058 201.845 108.985 201.597 108.968 201.341C107.174 203.025 104.874 204.07 102.426 204.312C102.426 204.312 102.579 205.402 102.114 205.714C102.114 205.714 109.429 212.098 113.634 212.875C116.552 213.459 119.54 213.621 122.504 213.355C123.784 213.22 124.987 212.675 125.931 211.8C125.931 211.8 124.371 211.459 125.773 210.835ZM116.806 210.485C116.466 211.325 114.771 211.445 113.019 210.715C111.267 209.986 110.139 208.752 110.456 207.917C110.773 207.082 112.491 206.957 114.243 207.686C115.995 208.416 117.142 209.65 116.806 210.485Z" fill="white" stroke="#263238" stroke-width="0.5" stroke-miterlimit="10"/>
<path d="M109.823 212.842C109.823 212.842 114.719 214.858 118.583 214.858C120.844 214.87 123.099 214.621 125.303 214.114C125.303 214.114 123.983 214.834 121.837 213.456C120.613 212.669 119.826 210.917 119.826 210.917C116.597 212.019 113.23 212.666 109.823 212.842Z" fill="#5CB0FF" stroke="#263238" stroke-width="0.5" stroke-linejoin="round"/>
<path d="M164.821 192.341C164.821 192.341 173.734 189.408 178.947 185.928L184.491 195.048C184.491 195.048 171.234 205.373 167.754 202.656L164.821 192.341Z" fill="#5CB0FF" stroke="#263238" stroke-width="0.5" stroke-linejoin="round"/>
<path d="M180.69 194.515C180.701 194.252 180.797 194 180.964 193.797C181.132 193.593 181.36 193.449 181.616 193.387L179.154 189.302C178.948 189.372 178.732 189.408 178.515 189.408C178.251 189.422 177.988 189.372 177.748 189.261C177.508 189.151 177.299 188.984 177.138 188.774C172.534 191.995 165.474 193.646 165.474 193.646L166.885 199.19C166.885 199.19 166.669 202.234 170.47 201.47C173.418 200.88 178.962 197.15 181.318 195.523C181.133 195.427 180.977 195.282 180.867 195.105C180.756 194.928 180.695 194.724 180.69 194.515ZM171.19 198.595C169.525 198.974 167.974 198.408 167.725 197.328C167.475 196.248 168.627 195.058 170.293 194.674C171.958 194.29 173.514 194.861 173.763 195.941C174.013 197.021 172.861 198.211 171.19 198.595Z" fill="white" stroke="#263238" stroke-width="0.5" stroke-miterlimit="10"/>
<path d="M163.515 188.213L169.602 200.275C169.602 200.275 167.538 201.36 167.754 202.675L161.888 191.155C161.888 191.155 161.125 189.298 163.515 188.213Z" fill="#5CB0FF" stroke="#263238" stroke-width="0.5" stroke-linejoin="round"/>
<path d="M162.406 192.168L166.928 201.039C167.12 200.612 167.462 200.271 167.888 200.079L162.862 191.256L162.406 192.168Z" fill="white" stroke="#263238" stroke-width="0.5" stroke-miterlimit="10"/>
<path d="M97.4624 125.011L97.5584 148.133L109.626 148.08L109.664 124.488L97.4624 125.011Z" fill="#5CB0FF" stroke="#263238" stroke-width="0.5" stroke-miterlimit="10"/>
<path d="M106.981 145.863C106.991 145.69 107.036 145.521 107.112 145.366C107.188 145.211 107.295 145.072 107.425 144.959C107.556 144.845 107.708 144.759 107.872 144.705C108.036 144.65 108.21 144.63 108.382 144.643C108.443 144.656 108.502 144.674 108.56 144.696L108.536 127.095C108.429 127.191 108.302 127.262 108.164 127.303C108.026 127.343 107.881 127.353 107.739 127.33C107.528 127.278 107.336 127.165 107.188 127.006C107.039 126.846 106.941 126.647 106.904 126.432L99.6271 126.744C99.6508 126.894 99.6508 127.046 99.6271 127.195C99.6028 127.469 99.4882 127.726 99.3013 127.927C99.1144 128.128 98.8659 128.26 98.5951 128.304V144.624C98.7716 144.553 98.9641 144.532 99.1519 144.562C99.4511 144.649 99.7106 144.837 99.8858 145.095C100.061 145.352 100.141 145.663 100.112 145.973L107.005 145.944C106.981 145.906 106.976 145.882 106.981 145.863ZM102.987 139.786C101.648 139.541 100.765 138.019 101.014 136.383C101.264 134.746 102.565 133.618 103.894 133.867C105.224 134.117 106.121 135.634 105.867 137.271C105.613 138.907 104.312 140.035 102.987 139.786Z" fill="white" stroke="#263238" stroke-width="0.5" stroke-miterlimit="10"/>
<path d="M210.296 27.1775L193.467 44.0063L202.251 52.7903L219.522 35.7215L210.296 27.1775Z" fill="#5CB0FF" stroke="#263238" stroke-width="0.5" stroke-miterlimit="10"/>
<path d="M201.953 49.2721C202.087 49.1524 202.244 49.0608 202.414 49.0028C202.584 48.9449 202.764 48.9217 202.943 48.9347C203.122 48.9477 203.297 48.9966 203.457 49.0784C203.616 49.1603 203.758 49.2735 203.873 49.4113C203.91 49.4656 203.94 49.5235 203.965 49.5841L216.805 36.7921C216.656 36.7844 216.511 36.7433 216.381 36.6718C216.25 36.6003 216.138 36.5003 216.051 36.3793C215.936 36.1866 215.88 35.9645 215.889 35.7402C215.898 35.5159 215.973 35.2993 216.104 35.1169L210.593 30.0049C210.499 30.1303 210.388 30.2418 210.262 30.3361C210.045 30.5171 209.773 30.6198 209.49 30.6276C209.207 30.6354 208.929 30.548 208.702 30.3793L196.765 42.1873C196.944 42.2616 197.098 42.3847 197.211 42.5425C197.369 42.8237 197.423 43.1514 197.363 43.4682C197.303 43.785 197.134 44.0708 196.885 44.2753L201.901 49.2961L201.953 49.2721ZM203.489 41.9377C202.693 40.7809 203.168 39.0289 204.545 38.0257C205.923 37.0225 207.689 37.1569 208.481 38.3137C209.273 39.4705 208.798 41.2273 207.421 42.2257C206.043 43.2241 204.267 43.0753 203.489 41.9137V41.9377Z" fill="white" stroke="#263238" stroke-width="0.5" stroke-miterlimit="10"/>
<path d="M94.3472 97.7232L117.762 88.464L112.928 76.2432L88.9808 85.5504L94.3472 97.7232Z" fill="#5CB0FF" stroke="#263238" stroke-width="0.5" stroke-miterlimit="10"/>
<path d="M111.723 79.8048C110.873 79.992 110.072 79.5744 109.933 78.8448C109.928 78.7761 109.928 78.7071 109.933 78.6384L92.0815 85.6368C92.2225 85.7072 92.3459 85.8085 92.4423 85.9331C92.5387 86.0578 92.6057 86.2026 92.6383 86.3568C92.6684 86.5916 92.6296 86.8302 92.5264 87.0432C92.4233 87.2563 92.2604 87.4348 92.0575 87.5568L95.2495 94.872C95.4 94.7898 95.5617 94.73 95.7295 94.6944C96.0161 94.6099 96.3228 94.6241 96.6005 94.7346C96.8781 94.8451 97.1106 95.0456 97.2607 95.304L113.816 88.8624C113.672 88.7158 113.574 88.5308 113.533 88.3296C113.495 87.9897 113.58 87.6475 113.772 87.3643C113.963 87.0812 114.25 86.8754 114.579 86.784L111.814 79.8L111.723 79.8048ZM107.153 86.28C107.437 87.72 106.241 89.2416 104.48 89.64C102.718 90.0384 101.067 89.16 100.784 87.72C100.501 86.28 101.696 84.7632 103.457 84.36C105.219 83.9568 106.87 84.8208 107.153 86.28Z" fill="white" stroke="#263238" stroke-width="0.5" stroke-miterlimit="10"/>
<path d="M176.989 27.1009C176.989 27.1009 178.429 27.4801 180.281 31.9009C182.134 36.3217 183.91 42.1009 183.91 42.1009C183.91 42.1009 179.792 40.3441 177.478 40.2241C174.925 40.0945 171.214 41.1841 171.214 41.1841C171.214 41.1841 169.774 26.1265 159.747 21.1105C160.445 20.3081 161.335 19.6963 162.334 19.3327C163.334 18.9691 164.409 18.8657 165.459 19.0321C169.155 19.5985 176.989 27.1009 176.989 27.1009Z" fill="#5CB0FF" stroke="#263238" stroke-width="0.5" stroke-linejoin="round"/>
<path d="M163.366 21.6191C163.366 21.6191 170.25 28.6319 171.877 35.9231C172.123 35.9925 172.351 36.1157 172.545 36.2838C172.738 36.4519 172.891 36.6608 172.994 36.8953C173.097 37.1299 173.146 37.3843 173.139 37.6403C173.132 37.8963 173.068 38.1475 172.952 38.3759C175.354 37.8544 177.862 38.1413 180.085 39.1919C180.085 39.1919 180.507 38.1743 181.069 38.1455C181.069 38.1455 178.045 28.9199 174.829 26.1023C172.615 24.1101 170.127 22.4452 167.442 21.1583C166.272 20.6234 164.961 20.4787 163.702 20.7455C163.702 20.7455 164.907 21.8015 163.366 21.6191ZM170.893 26.5055C171.608 25.9631 173.12 26.7407 174.253 28.2479C175.386 29.7551 175.741 31.4159 175.021 31.9631C174.301 32.5103 172.794 31.7279 171.661 30.2207C170.528 28.7135 170.187 27.0527 170.893 26.5055Z" fill="white" stroke="#263238" stroke-width="0.5" stroke-miterlimit="10"/>
<path d="M178.098 28.056C178.098 28.056 174.92 23.832 171.598 21.84C169.667 20.6708 167.607 19.7286 165.459 19.032C165.459 19.032 166.962 19.0896 168.099 21.3696C168.747 22.6752 168.531 24.5808 168.531 24.5808C171.865 25.2915 175.085 26.4611 178.098 28.056Z" fill="#5CB0FF" stroke="#263238" stroke-width="0.5" stroke-linejoin="round"/>
<path d="M52.7744 15L55.0928 23.496C55.0928 23.496 43.5056 32.0784 26 29.6736L26.96 20.4912C26.96 20.4912 33.824 21.864 40.088 20.5776C46.352 19.2912 52.7744 15 52.7744 15Z" fill="#5CB0FF" stroke="#263238" stroke-width="0.5" stroke-miterlimit="10"/>
<path d="M51.4496 23.1215C51.4738 22.9126 51.5613 22.7161 51.7002 22.5582C51.8392 22.4004 52.0231 22.2888 52.2272 22.2383L50.8592 18.4607C50.6596 18.5275 50.4505 18.5616 50.24 18.5615C49.8779 18.5675 49.5232 18.4582 49.2272 18.2495C47.3072 19.2575 43.7024 21.0143 40.1072 21.7583C36.8324 22.3459 33.4925 22.4816 30.1808 22.1615C30.0526 22.2989 29.8948 22.4054 29.7193 22.4727C29.5438 22.5401 29.3553 22.5666 29.168 22.5503L28.712 27.6959C28.8272 27.6959 28.9472 27.6959 29.0672 27.6959C30.0272 27.6959 30.7808 27.9839 30.7808 28.3391C30.7748 28.3961 30.7557 28.4509 30.7249 28.4993C30.694 28.5476 30.6524 28.5881 30.6032 28.6175C41.7248 29.0399 49.5104 25.1951 51.872 23.8511C51.7467 23.774 51.6425 23.667 51.5687 23.5396C51.495 23.4123 51.4541 23.2686 51.4496 23.1215ZM40.4432 25.8047C38.744 26.1455 37.256 25.8575 37.1168 25.1615C36.9776 24.4655 38.24 23.6303 39.9392 23.2895C41.6384 22.9487 43.1264 23.2367 43.2656 23.9327C43.4048 24.6287 42.1424 25.4639 40.4432 25.8047Z" fill="white" stroke="#263238" stroke-width="0.5" stroke-miterlimit="10"/>
<path d="M209.105 204.202L211.419 212.698C211.419 212.698 199.837 221.28 182.326 218.875L183.286 209.693C183.286 209.693 190.15 211.066 196.419 209.779C202.688 208.493 209.105 204.202 209.105 204.202Z" fill="#5CB0FF" stroke="#263238" stroke-width="0.5" stroke-miterlimit="10"/>
<path d="M207.776 212.328C207.799 212.118 207.886 211.921 208.025 211.762C208.164 211.603 208.349 211.491 208.554 211.44L207.186 207.672C206.985 207.735 206.776 207.767 206.566 207.768C206.197 207.778 205.834 207.67 205.53 207.461C203.653 208.464 200.029 210.221 196.438 210.965C193.164 211.553 189.824 211.688 186.512 211.368C186.384 211.506 186.226 211.612 186.05 211.679C185.875 211.747 185.686 211.773 185.499 211.757L185.067 216.903C185.182 216.903 185.302 216.903 185.427 216.903C186.387 216.903 187.136 217.186 187.136 217.541C187.13 217.598 187.111 217.653 187.08 217.701C187.049 217.749 187.008 217.79 186.958 217.819C198.08 218.247 205.866 214.402 208.232 213.053C208.101 212.98 207.991 212.876 207.911 212.749C207.831 212.622 207.785 212.478 207.776 212.328ZM196.77 215.007C195.07 215.347 193.582 215.059 193.443 214.368C193.304 213.677 194.566 212.832 196.266 212.491C197.965 212.151 199.453 212.443 199.592 213.135C199.731 213.826 198.469 214.671 196.77 215.007Z" fill="white" stroke="#263238" stroke-width="0.5" stroke-miterlimit="10"/>
<path d="M87.7424 25.8288C87.7424 25.8288 96.6512 22.896 101.869 19.416L107.413 28.536C107.413 28.536 94.1552 38.8704 90.6752 36.1536L87.7424 25.8288Z" fill="#5CB0FF" stroke="#263238" stroke-width="0.5" stroke-linejoin="round"/>
<path d="M103.606 28.0033C103.619 27.7398 103.716 27.4875 103.884 27.2841C104.052 27.0807 104.281 26.9373 104.537 26.8753L102.07 22.7905C101.866 22.861 101.652 22.8967 101.437 22.8961C101.173 22.9102 100.91 22.8599 100.67 22.7495C100.429 22.6391 100.22 22.472 100.059 22.2625C95.4558 25.4833 88.395 27.1345 88.395 27.1345L89.8062 32.6785C89.8062 32.6785 89.5902 35.7217 93.3918 34.9585C96.3342 34.3681 101.878 30.6385 104.24 29.0113C104.054 28.9152 103.897 28.7711 103.785 28.5938C103.674 28.4165 103.612 28.2126 103.606 28.0033ZM94.1118 32.0833C92.4462 32.4625 90.891 31.8961 90.6462 30.8161C90.4014 29.7361 91.5486 28.5457 93.2142 28.1617C94.8798 27.7777 96.435 28.3489 96.6846 29.4337C96.9342 30.5185 95.787 31.6993 94.1118 32.0833Z" fill="white" stroke="#263238" stroke-width="0.5" stroke-miterlimit="10"/>
<path d="M86.4367 21.7009L92.5231 33.7633C92.5231 33.7633 90.4591 34.8481 90.6751 36.1633L84.8047 24.6433C84.8047 24.6433 84.0463 22.7857 86.4367 21.7009Z" fill="#5CB0FF" stroke="#263238" stroke-width="0.5" stroke-linejoin="round"/>
<path d="M85.328 25.6559L89.8448 34.5263C90.0372 34.1001 90.3786 33.7587 90.8048 33.5663L85.784 24.7439L85.328 25.6559Z" fill="white" stroke="#263238" stroke-width="0.5" stroke-miterlimit="10"/>
<path d="M162.272 79.3296L145.443 96.1584L154.227 104.938L171.503 87.8688L162.272 79.3296Z" fill="#5CB0FF" stroke="#263238" stroke-width="0.5" stroke-miterlimit="10"/>
<path d="M153.934 101.4C154.068 101.28 154.225 101.189 154.395 101.131C154.565 101.073 154.745 101.05 154.924 101.063C155.103 101.076 155.278 101.124 155.438 101.206C155.597 101.288 155.739 101.401 155.854 101.539C155.889 101.594 155.918 101.652 155.941 101.712L168.795 88.9343C168.647 88.9281 168.502 88.8875 168.372 88.8159C168.242 88.7443 168.131 88.6435 168.046 88.5215C167.93 88.3293 167.873 88.1074 167.882 87.8832C167.89 87.6589 167.964 87.442 168.094 87.2591L162.584 82.1567C162.491 82.2818 162.379 82.3919 162.253 82.4831C162.036 82.6657 161.764 82.7697 161.481 82.7784C161.198 82.7871 160.92 82.7 160.693 82.5311L148.755 94.3343C148.934 94.4109 149.089 94.5355 149.202 94.6943C149.359 94.9755 149.413 95.3032 149.353 95.6201C149.294 95.9369 149.124 96.2226 148.875 96.4271L153.867 101.443L153.934 101.4ZM155.466 94.0655C154.674 92.9039 155.149 91.1567 156.526 90.1535C157.904 89.1503 159.666 89.2847 160.458 90.4415C161.25 91.5983 160.779 93.3503 159.397 94.3535C158.014 95.3567 156.267 95.2223 155.466 94.0655Z" fill="white" stroke="#263238" stroke-width="0.5" stroke-miterlimit="10"/>
<path d="M193.035 120.389L216.032 122.789L217.28 110.789L193.832 108.202L193.035 120.389Z" fill="#5CB0FF" stroke="#263238" stroke-width="0.5" stroke-miterlimit="10"/>
<path d="M214.789 113.174C214.619 113.146 214.456 113.083 214.31 112.991C214.164 112.898 214.038 112.778 213.939 112.636C213.841 112.494 213.771 112.334 213.735 112.166C213.699 111.997 213.696 111.823 213.728 111.653C213.749 111.593 213.774 111.535 213.805 111.48L196.299 109.603C196.384 109.72 196.442 109.855 196.467 109.997C196.493 110.139 196.486 110.285 196.448 110.424C196.375 110.625 196.246 110.801 196.076 110.931C195.905 111.06 195.701 111.138 195.488 111.154L195.008 118.435C195.16 118.43 195.312 118.446 195.459 118.483C195.729 118.538 195.973 118.68 196.152 118.889C196.331 119.098 196.435 119.36 196.448 119.635L212.658 121.416C212.605 121.234 212.605 121.041 212.658 120.859C212.773 120.568 212.987 120.326 213.263 120.177C213.538 120.028 213.858 119.981 214.165 120.043L214.875 113.189L214.789 113.174ZM208.318 116.534C207.93 117.84 206.322 118.555 204.723 118.128C203.125 117.701 202.141 116.29 202.53 114.984C202.918 113.678 204.531 112.963 206.13 113.39C207.728 113.818 208.707 115.2 208.318 116.51V116.534Z" fill="white" stroke="#263238" stroke-width="0.5" stroke-miterlimit="10"/>
<path d="M219.234 142.118C219.234 142.118 220.674 142.497 222.526 146.918C224.379 151.339 226.15 157.118 226.15 157.118C226.15 157.118 222.037 155.361 219.718 155.241C217.17 155.112 213.478 156.201 213.478 156.201C213.478 156.201 212.038 141.144 202.011 136.128C202.712 135.332 203.603 134.727 204.601 134.369C205.599 134.011 206.672 133.913 207.718 134.083C211.395 134.616 219.234 142.118 219.234 142.118Z" fill="#5CB0FF" stroke="#263238" stroke-width="0.5" stroke-linejoin="round"/>
<path d="M205.606 136.632C205.606 136.632 212.494 143.631 214.122 150.941C214.368 151.009 214.597 151.131 214.791 151.299C214.984 151.466 215.138 151.675 215.241 151.909C215.344 152.144 215.394 152.398 215.386 152.654C215.378 152.91 215.314 153.161 215.197 153.389C217.597 152.865 220.103 153.148 222.325 154.195C222.325 154.195 222.752 153.178 223.309 153.149C223.309 153.149 220.29 143.923 217.069 141.106C214.859 139.11 212.375 137.442 209.691 136.152C208.521 135.617 207.21 135.473 205.952 135.739C205.952 135.739 207.147 136.819 205.606 136.632ZM213.133 141.519C213.853 140.976 215.36 141.754 216.493 143.261C217.626 144.768 217.981 146.429 217.261 146.976C216.541 147.523 215.034 146.741 213.901 145.234C212.768 143.727 212.427 142.071 213.133 141.523V141.519Z" fill="white" stroke="#263238" stroke-width="0.5" stroke-miterlimit="10"/>
<path d="M220.338 143.074C220.338 143.074 217.16 138.835 213.843 136.858C211.91 135.694 209.848 134.759 207.699 134.069C207.699 134.069 209.206 134.126 210.339 136.406C210.992 137.712 210.771 139.618 210.771 139.618C214.105 140.322 217.324 141.485 220.338 143.074Z" fill="#5CB0FF" stroke="#263238" stroke-width="0.5" stroke-linejoin="round"/>
<path d="M208.107 86.6303C208.107 86.6303 200.336 91.8863 196.266 96.6575L188.427 89.3903C188.427 89.3903 198.358 75.8351 202.448 77.5007L208.107 86.6303Z" fill="#5CB0FF" stroke="#263238" stroke-width="0.5" stroke-linejoin="round"/>
<path d="M192.267 88.8768C192.328 89.1326 192.304 89.4013 192.198 89.6421C192.092 89.8829 191.911 90.0827 191.682 90.2112L195.166 93.4704C195.345 93.3479 195.543 93.2554 195.752 93.1968C196.002 93.1108 196.268 93.0869 196.529 93.1271C196.79 93.1672 197.037 93.2702 197.25 93.4272C200.802 89.0736 207.142 85.5552 207.142 85.5552L204.262 80.6064C204.262 80.6064 203.638 77.6208 200.187 79.392C197.518 80.7648 193.198 85.848 191.379 88.08C191.585 88.1206 191.776 88.216 191.933 88.3563C192.089 88.4965 192.205 88.6764 192.267 88.8768ZM200.288 82.3584C201.786 81.5328 203.437 81.6576 203.97 82.6272C204.502 83.5968 203.72 85.0608 202.222 85.8816C200.725 86.7024 199.074 86.5824 198.536 85.608C197.998 84.6336 198.771 83.1792 200.274 82.3584H200.288Z" fill="white" stroke="#263238" stroke-width="0.5" stroke-miterlimit="10"/>
<path d="M210.507 90.2447L201.358 80.3039C201.358 80.3039 203.048 78.6959 202.482 77.5007L211.275 86.9759C211.275 86.9759 212.494 88.5455 210.507 90.2447Z" fill="#5CB0FF" stroke="#263238" stroke-width="0.5" stroke-linejoin="round"/>
<path d="M210.478 86.1361L203.71 78.8401C203.649 79.3037 203.422 79.7297 203.072 80.0401L210.272 87.1393L210.478 86.1361Z" fill="white" stroke="#263238" stroke-width="0.5" stroke-miterlimit="10"/>
</svg>
