<svg width="240" height="240" viewBox="0 0 240 240" fill="none" xmlns="http://www.w3.org/2000/svg">
<path d="M221.338 54.0959C220.579 52.8159 219.779 51.5519 218.938 50.3039C207.84 33.8159 188.669 22.5599 169.834 17.4431C161.57 15.2445 153.08 14.0059 144.533 13.7519C88.5552 11.8319 66.264 55.9679 47.76 67.3535C29.256 78.7391 0.801645 98.1887 2.69764 138.984C4.59364 179.779 34.008 218.184 90.9312 220.584C147.854 222.984 151.646 197.338 183.432 187.853C204.461 181.574 219.432 160.368 226.723 140.77C236.698 114.053 236.227 79.3583 221.338 54.0959Z" fill="#5CB0FF"/>
<path opacity="0.7" d="M221.338 54.0959C220.579 52.8159 219.779 51.5519 218.938 50.3039C207.84 33.8159 188.669 22.5599 169.834 17.4431C161.57 15.2445 153.08 14.0059 144.533 13.7519C88.5552 11.8319 66.264 55.9679 47.76 67.3535C29.256 78.7391 0.801645 98.1887 2.69764 138.984C4.59364 179.779 34.008 218.184 90.9312 220.584C147.854 222.984 151.646 197.338 183.432 187.853C204.461 181.574 219.432 160.368 226.723 140.77C236.698 114.053 236.227 79.3583 221.338 54.0959Z" fill="white"/>
<path d="M171.178 57.2832H70.3583C68.7466 57.2832 67.4399 58.5898 67.4399 60.2016V212.285C67.4399 213.897 68.7466 215.203 70.3583 215.203H171.178C172.789 215.203 174.096 213.897 174.096 212.285V60.2016C174.096 58.5898 172.789 57.2832 171.178 57.2832Z" fill="#263238" stroke="#263238" stroke-width="0.5" stroke-linecap="round" stroke-linejoin="round"/>
<path d="M168.672 60.845H72.8591V209.122H168.672V60.845Z" fill="white" stroke="#263238" stroke-width="0.5" stroke-linecap="round" stroke-linejoin="round"/>
<path d="M128.832 44.8416C128.617 44.8416 128.41 44.7562 128.258 44.604C128.106 44.4519 128.021 44.2456 128.021 44.0304V39.4464C128.021 39.2185 127.976 38.9928 127.888 38.7822C127.801 38.5717 127.673 38.3804 127.511 38.2195C127.35 38.0585 127.158 37.9309 126.948 37.8442C126.737 37.7574 126.511 37.713 126.283 37.7136H118.896C118.668 37.713 118.442 37.7574 118.232 37.8442C118.021 37.9311 117.83 38.0587 117.669 38.2197C117.508 38.3808 117.38 38.572 117.294 38.7826C117.207 38.9931 117.162 39.2187 117.163 39.4464V44.0304C117.163 44.1374 117.142 44.2432 117.101 44.342C117.06 44.4407 117 44.5303 116.924 44.6057C116.848 44.6811 116.758 44.7408 116.659 44.7813C116.56 44.8217 116.454 44.8423 116.347 44.8416C116.24 44.8416 116.134 44.8628 116.035 44.9038C115.937 44.9449 115.847 45.0051 115.772 45.0809C115.696 45.1568 115.637 45.2467 115.596 45.3457C115.556 45.4447 115.535 45.5507 115.536 45.6576V58.08H129.648V45.6576C129.648 45.5505 129.627 45.4444 129.586 45.3454C129.545 45.2464 129.485 45.1564 129.409 45.0806C129.333 45.0049 129.243 44.9448 129.144 44.9037C129.045 44.8627 128.939 44.8416 128.832 44.8416ZM122.592 44.4144C122.142 44.4144 121.702 44.281 121.328 44.031C120.954 43.781 120.662 43.4257 120.49 43.0099C120.318 42.5942 120.273 42.1367 120.36 41.6954C120.448 41.254 120.665 40.8486 120.983 40.5304C121.301 40.2122 121.707 39.9955 122.148 39.9077C122.589 39.82 123.047 39.865 123.462 40.0372C123.878 40.2094 124.234 40.501 124.484 40.8752C124.734 41.2493 124.867 41.6892 124.867 42.1392C124.866 42.7423 124.626 43.3202 124.199 43.7466C123.773 44.173 123.195 44.4132 122.592 44.4144Z" fill="#263238" stroke="#263238" stroke-width="0.5" stroke-linecap="round" stroke-linejoin="round"/>
<path d="M104.702 54.1296H140.477C141.578 54.1296 142.634 54.5671 143.413 55.3457C144.191 56.1244 144.629 57.1805 144.629 58.2816V61.9488H100.55V58.2816C100.55 57.1805 100.988 56.1244 101.766 55.3457C102.545 54.5671 103.601 54.1296 104.702 54.1296Z" fill="white" stroke="#263238" stroke-width="0.5" stroke-linecap="round" stroke-linejoin="round"/>
<path d="M101.645 55.4832H143.52C143.132 55.0569 142.659 54.7163 142.132 54.4832C141.604 54.2502 141.034 54.1297 140.458 54.1296H104.703C104.127 54.1298 103.557 54.2503 103.031 54.4834C102.504 54.7165 102.032 55.0571 101.645 55.4832Z" fill="#263238" stroke="#263238" stroke-width="0.5" stroke-linecap="round" stroke-linejoin="round"/>
<path d="M144.629 61.9104H100.55V64.4784H144.629V61.9104Z" fill="white" stroke="#263238" stroke-width="0.5" stroke-linecap="round" stroke-linejoin="round"/>
<path d="M134.146 86.3999H141.586" stroke="#263238" stroke-width="0.5" stroke-miterlimit="10"/>
<path d="M82.5457 86.3999H128.386" stroke="#263238" stroke-width="0.5" stroke-miterlimit="10"/>
<path d="M123.106 92.1599H141.586" stroke="#263238" stroke-width="0.5" stroke-miterlimit="10"/>
<path d="M94.7856 92.1599H118.066" stroke="#263238" stroke-width="0.5" stroke-miterlimit="10"/>
<path d="M82.5457 92.1599H90.4657" stroke="#263238" stroke-width="0.5" stroke-miterlimit="10"/>
<path d="M105.586 97.9199H141.586" stroke="#263238" stroke-width="0.5" stroke-miterlimit="10"/>
<path d="M82.5457 97.9199H97.6656" stroke="#263238" stroke-width="0.5" stroke-miterlimit="10"/>
<path d="M158.626 97.9199C162.072 97.9199 164.866 95.1262 164.866 91.6799C164.866 88.2337 162.072 85.4399 158.626 85.4399C155.179 85.4399 152.386 88.2337 152.386 91.6799C152.386 95.1262 155.179 97.9199 158.626 97.9199Z" stroke="#263238" stroke-width="0.5" stroke-miterlimit="10"/>
<path d="M89.9856 112.08H82.5457" stroke="#263238" stroke-width="0.5" stroke-miterlimit="10"/>
<path d="M141.586 112.08H95.7456" stroke="#263238" stroke-width="0.5" stroke-miterlimit="10"/>
<path d="M101.026 117.84H82.5457" stroke="#263238" stroke-width="0.5" stroke-miterlimit="10"/>
<path d="M129.346 117.84H106.066" stroke="#263238" stroke-width="0.5" stroke-miterlimit="10"/>
<path d="M141.586 117.84H133.666" stroke="#263238" stroke-width="0.5" stroke-miterlimit="10"/>
<path d="M118.546 123.6H82.5457" stroke="#263238" stroke-width="0.5" stroke-miterlimit="10"/>
<path d="M141.586 123.6H126.466" stroke="#263238" stroke-width="0.5" stroke-miterlimit="10"/>
<path d="M158.626 123.6C162.072 123.6 164.866 120.806 164.866 117.36C164.866 113.914 162.072 111.12 158.626 111.12C155.179 111.12 152.386 113.914 152.386 117.36C152.386 120.806 155.179 123.6 158.626 123.6Z" stroke="#263238" stroke-width="0.5" stroke-miterlimit="10"/>
<path d="M134.146 137.76H141.586" stroke="#263238" stroke-width="0.5" stroke-miterlimit="10"/>
<path d="M82.5457 137.76H128.386" stroke="#263238" stroke-width="0.5" stroke-miterlimit="10"/>
<path d="M123.106 143.52H141.586" stroke="#263238" stroke-width="0.5" stroke-miterlimit="10"/>
<path d="M94.7856 143.52H118.066" stroke="#263238" stroke-width="0.5" stroke-miterlimit="10"/>
<path d="M82.5457 143.52H90.4657" stroke="#263238" stroke-width="0.5" stroke-miterlimit="10"/>
<path d="M105.586 149.28H141.586" stroke="#263238" stroke-width="0.5" stroke-miterlimit="10"/>
<path d="M82.5457 149.28H97.6656" stroke="#263238" stroke-width="0.5" stroke-miterlimit="10"/>
<path d="M158.626 149.28C162.072 149.28 164.866 146.486 164.866 143.04C164.866 139.594 162.072 136.8 158.626 136.8C155.179 136.8 152.386 139.594 152.386 143.04C152.386 146.486 155.179 149.28 158.626 149.28Z" stroke="#263238" stroke-width="0.5" stroke-miterlimit="10"/>
<path d="M156.25 116.323L157.944 119.338L164.352 113.122" stroke="#5CB0FF" stroke-width="0.5" stroke-miterlimit="10" stroke-linecap="round"/>
<path d="M156.25 90.3696L157.944 93.3888L164.352 87.168" stroke="#5CB0FF" stroke-width="0.5" stroke-miterlimit="10" stroke-linecap="round"/>
<path d="M155.352 140.808L157.046 143.827L163.454 137.606" stroke="#5CB0FF" stroke-width="0.5" stroke-miterlimit="10" stroke-linecap="round"/>
<path d="M92.6306 191.448L87.749 221.05L95.2322 212.592L103.363 221.376L100.435 190.795L92.6306 191.448Z" fill="#5CB0FF" stroke="#263238" stroke-width="0.5" stroke-miterlimit="10"/>
<path d="M96.869 191.697L98.1122 221.673L103.719 211.872L113.467 218.817L104.386 189.47L96.869 191.697Z" fill="#5CB0FF" stroke="#263238" stroke-width="0.5" stroke-miterlimit="10"/>
<path d="M115.094 185.28C115.094 184.416 116.942 183.427 116.822 182.597C116.702 181.766 114.648 181.315 114.422 180.509C114.197 179.702 115.675 178.214 115.32 177.446C114.965 176.678 112.877 176.837 112.44 176.122C112.003 175.406 112.997 173.573 112.44 172.934C111.883 172.296 109.925 173.04 109.282 172.483C108.638 171.926 109.104 169.882 108.389 169.416C107.674 168.95 105.989 170.227 105.23 169.872C104.472 169.517 104.328 167.429 103.507 167.184C102.686 166.939 101.458 168.624 100.627 168.518C99.7969 168.413 99.0817 166.426 98.2273 166.426C97.3729 166.426 96.6481 168.398 95.8273 168.518C95.0065 168.638 93.7393 166.949 92.9473 167.184C92.1553 167.419 91.9873 169.522 91.2241 169.872C90.4609 170.222 88.7809 168.96 88.0657 169.416C87.3505 169.872 87.8161 171.926 87.1729 172.483C86.5297 173.04 84.5713 172.291 84.0097 172.934C83.4481 173.578 84.4897 175.406 84.0097 176.126C83.5297 176.846 81.4561 176.669 81.1009 177.446C80.7457 178.224 82.2433 179.683 82.0033 180.509C81.7633 181.334 79.7137 181.742 79.6033 182.597C79.4929 183.451 81.3313 184.416 81.3313 185.28C81.3313 186.144 79.4833 187.128 79.6033 187.963C79.7233 188.798 81.7777 189.245 82.0033 190.051C82.2289 190.858 80.7505 192.346 81.1009 193.114C81.4513 193.882 83.5489 193.723 84.0097 194.434C84.4705 195.144 83.4481 196.982 84.0097 197.626C84.5713 198.269 86.5249 197.52 87.1681 198.077C87.8113 198.634 87.3457 200.678 88.0609 201.139C88.7761 201.6 90.4609 200.333 91.2193 200.688C91.9777 201.043 92.1217 203.131 92.9425 203.371C93.7633 203.611 94.9921 201.931 95.8225 202.042C96.6529 202.152 97.3729 204.134 98.2225 204.134C99.0721 204.134 99.8017 202.162 100.622 202.042C101.443 201.922 102.715 203.611 103.502 203.371C104.29 203.131 104.462 201.038 105.226 200.688C105.989 200.338 107.669 201.6 108.384 201.139C109.099 200.678 108.634 198.634 109.277 198.077C109.92 197.52 111.878 198.269 112.435 197.626C112.992 196.982 111.955 195.154 112.435 194.434C112.915 193.714 114.984 193.891 115.344 193.114C115.704 192.336 114.197 190.877 114.442 190.051C114.686 189.226 116.731 188.813 116.842 187.963C116.952 187.114 115.094 186.13 115.094 185.28Z" fill="#263238"/>
<path d="M98.1601 198.71C105.585 198.71 111.605 192.691 111.605 185.266C111.605 177.84 105.585 171.821 98.1601 171.821C90.7348 171.821 84.7153 177.84 84.7153 185.266C84.7153 192.691 90.7348 198.71 98.1601 198.71Z" fill="white" stroke="#263238" stroke-width="0.5" stroke-linecap="round" stroke-linejoin="round"/>
<path d="M104.801 191.904C108.468 188.237 108.468 182.293 104.801 178.626C101.135 174.959 95.1902 174.959 91.5237 178.626C87.8571 182.293 87.8571 188.237 91.5237 191.904C95.1902 195.57 101.135 195.57 104.801 191.904Z" fill="white" stroke="#263238" stroke-width="0.5" stroke-linecap="round" stroke-linejoin="round"/>
<path d="M98.1744 192.624C102.252 192.624 105.557 189.319 105.557 185.242C105.557 181.164 102.252 177.859 98.1744 177.859C94.0972 177.859 90.792 181.164 90.792 185.242C90.792 189.319 94.0972 192.624 98.1744 192.624Z" fill="#5CB0FF"/>
<path d="M95.8416 183.859H93.48C93.2706 183.859 93.1008 184.029 93.1008 184.238V188.779C93.1008 188.989 93.2706 189.158 93.48 189.158H95.8416C96.051 189.158 96.2208 188.989 96.2208 188.779V184.238C96.2208 184.029 96.051 183.859 95.8416 183.859Z" fill="white"/>
<path d="M102.639 184.627C103.431 183.461 102.341 183.115 102.341 183.115H99.4945L99.5425 182.866C99.5425 182.866 99.7921 180.946 99.4705 180.341C99.1489 179.736 97.9825 179.501 97.9345 179.722C97.8865 179.942 97.9585 180.936 97.8577 181.478C97.5639 182.373 97.1995 183.243 96.7681 184.08C96.7224 184.15 96.6637 184.21 96.5953 184.258V188.664C96.7878 188.784 97.0117 188.844 97.2385 188.837H101.376C101.499 188.801 101.613 188.74 101.713 188.659C101.812 188.578 101.894 188.478 101.954 188.365C102.014 188.252 102.05 188.128 102.062 188C102.073 187.873 102.058 187.744 102.019 187.622C102.258 187.485 102.443 187.27 102.542 187.013C102.642 186.757 102.65 186.474 102.567 186.211C102.699 186.129 102.81 186.016 102.889 185.881C102.969 185.746 103.014 185.594 103.021 185.438C103.028 185.282 102.997 185.127 102.93 184.985C102.864 184.844 102.763 184.721 102.639 184.627Z" fill="white"/>
<path d="M184.229 144.384C184.229 144.384 183.96 156.648 184.368 160.555C184.776 164.463 187.114 184.363 188.026 191.275C188.938 198.187 189.336 211.435 189.336 211.435C189.336 211.435 188.29 211.699 188.29 212.611C188.288 213.182 188.245 213.751 188.16 214.315C187.577 215.037 186.919 215.695 186.197 216.279C185.41 216.802 181.095 217.848 181.748 218.895C182.4 219.941 192.74 219.418 192.74 219.418C192.74 219.418 189.336 220.987 187.373 221.381C185.41 221.775 186.068 223.474 188.549 223.603C191.031 223.733 194.045 223.997 196.795 223.997C199.546 223.997 200.722 222.951 202.944 222.821C205.167 222.691 205.954 222.687 206.347 222.427C206.741 222.168 207 218.371 207 218.371L206.477 214.575C206.477 214.575 209.059 200.914 208.047 191.679C207.081 182.275 207.302 172.788 208.704 163.44C208.704 163.44 211.234 154.603 210.831 150.701C210.427 146.799 209.76 142.651 209.76 142.651L184.896 143.472L184.229 144.384Z" fill="#263238" stroke="#263238" stroke-width="0.5" stroke-linecap="round" stroke-linejoin="round"/>
<path d="M192.855 106.848C192.855 106.848 188.299 110.294 186.999 112.637C185.698 114.979 185.626 127.954 185.487 131.582C185.347 135.211 184.018 139.997 184.047 142.051C184.075 144.106 183.975 146.65 191.117 146.64C198.259 146.63 208.32 145.147 209.525 144.182C210.73 143.218 211.21 143.088 211.747 140.995C212.285 138.902 216.01 124.949 216.384 120.523C216.759 116.098 216.615 114.086 212.794 108.389C208.973 102.691 204.144 101.856 204.144 101.856L195.293 105.408L192.855 106.848Z" fill="white" stroke="#263238" stroke-width="0.5" stroke-linecap="round" stroke-linejoin="round"/>
<path d="M192.855 106.848L193.061 111.235L187.498 139.363L189.749 144.979L194.607 138.965L194.314 110.952L196.368 108.168L195.293 105.408L192.855 106.848Z" fill="#263238" stroke="#263238" stroke-width="0.5" stroke-linecap="round" stroke-linejoin="round"/>
<path d="M194.674 103.493L192.696 104.611L190.675 109.253L192.854 106.848L193.863 107.265L196.416 104.645L194.674 103.493Z" fill="white" stroke="#263238" stroke-width="0.5" stroke-linecap="round" stroke-linejoin="round"/>
<path d="M188.443 83.592C188.443 83.592 188.415 89.6352 188.602 90.6912C188.789 91.7472 188.659 93.96 189.619 95.5872C190.579 97.2144 191.424 100.426 192.135 100.867C192.732 101.184 193.383 101.387 194.055 101.467L194.607 106.114L203.04 99.504L202.642 94.6224C203.462 93.8253 203.934 92.737 203.957 91.5936C203.991 89.6736 203.799 88.56 202.872 88.2336C202.267 87.9979 201.709 87.6548 201.226 87.2208L201.951 83.8944C201.951 83.8944 203.751 81.3984 198.495 80.472C193.239 79.5456 188.837 81.9312 188.443 83.592Z" fill="white" stroke="#263238" stroke-width="0.5" stroke-linecap="round" stroke-linejoin="round"/>
<path d="M186.528 82.032C186.528 82.032 186.283 83.3472 190.848 84.6672C195.413 85.9872 197.866 85.8144 197.866 85.8144C197.866 85.8144 197.222 86.256 197.755 86.6688C198.088 86.9205 198.466 87.1048 198.869 87.2112C198.869 87.2112 199.07 90.9216 199.474 91.0512C199.877 91.1808 200.64 90.744 200.64 90.744C200.64 90.744 200.534 89.304 201.346 88.776C201.812 88.4788 202.338 88.2886 202.886 88.2192C202.886 88.2192 204.293 82.4592 202.522 80.5152C200.751 78.5712 198.451 78.0336 193.042 78.9168C187.632 79.8 186.034 81.3936 186.528 82.032Z" fill="#263238" stroke="#263238" stroke-width="0.5" stroke-linecap="round" stroke-linejoin="round"/>
<path d="M193.2 95.1696L191.41 95.352L191.232 90.3936L189.888 88.9104L188.904 88.584" stroke="#263238" stroke-width="0.5" stroke-linecap="round" stroke-linejoin="round"/>
<path d="M192.159 97.2145C192.703 97.243 193.249 97.2237 193.791 97.1569C194.316 97.0734 194.837 96.9628 195.351 96.8257C195.351 96.8257 194.127 97.9249 193.239 98.0977C192.351 98.2705 192.159 97.2145 192.159 97.2145Z" stroke="#263238" stroke-width="0.5" stroke-linecap="round" stroke-linejoin="round"/>
<path d="M194.035 101.486C194.035 101.486 194.107 101.649 195.149 101.241C196.022 100.817 196.838 100.285 197.578 99.6575" stroke="#263238" stroke-width="0.5" stroke-linecap="round" stroke-linejoin="round"/>
<path d="M196.392 88.3441C195.35 87.9649 192.691 88.6561 192.691 88.6561" stroke="#263238" stroke-width="0.5" stroke-linecap="round" stroke-linejoin="round"/>
<path d="M195.36 90.6433C195.384 91.0321 195.231 91.3585 195.015 91.3729C194.799 91.3873 194.602 91.0849 194.573 90.6961C194.544 90.3073 194.698 89.9857 194.919 89.9665C195.139 89.9473 195.36 90.2401 195.36 90.6433Z" fill="#263238"/>
<path d="M190.819 90.9313C190.819 91.3201 190.69 91.6465 190.474 91.6609C190.258 91.6753 190.061 91.3777 190.032 90.9889C190.003 90.6001 190.157 90.2737 190.378 90.2593C190.599 90.2449 190.791 90.5473 190.819 90.9313Z" fill="#263238"/>
<path d="M194.4 105.178L196.646 109.325L205.358 101.083L203.654 99.0527L194.4 105.178Z" fill="white" stroke="#263238" stroke-width="0.5" stroke-linecap="round" stroke-linejoin="round"/>
<path d="M170.75 118.066L186.835 120.715L189.307 141.571L174.816 139.272L170.75 118.066Z" fill="#5CB0FF" stroke="#263238" stroke-width="0.5" stroke-miterlimit="10"/>
<path d="M171.437 122.736C171.437 122.736 170.391 122.822 170.127 123.605C170.007 123.936 169.969 124.291 170.015 124.64C170.06 124.989 170.189 125.322 170.391 125.611C170.741 126.048 172.397 126.571 173.271 126.307C174.144 126.043 174.408 125.347 173.794 124.915C173.225 124.587 172.608 124.35 171.965 124.214L171.437 122.736Z" fill="white" stroke="#263238" stroke-width="0.5" stroke-linecap="round" stroke-linejoin="round"/>
<path d="M170.4 125.611C170.4 125.611 170.05 126.744 170.659 127.354C171.269 127.963 172.93 128.141 173.453 127.531C173.976 126.922 173.275 126.307 173.275 126.307C173.275 126.307 171 126.135 170.4 125.611Z" fill="white" stroke="#263238" stroke-width="0.5" stroke-linecap="round" stroke-linejoin="round"/>
<path d="M170.914 128.16C170.914 128.16 170.827 129.989 171.523 130.776C172.219 131.563 173.007 131.126 172.834 130.426C172.721 129.995 172.545 129.584 172.311 129.206L170.914 128.16Z" fill="white" stroke="#263238" stroke-width="0.5" stroke-linecap="round" stroke-linejoin="round"/>
<path d="M170.65 127.354C170.611 127.621 170.648 127.893 170.757 128.14C170.865 128.387 171.041 128.598 171.264 128.75C172.046 129.274 173.184 129.797 173.53 129.014C173.63 128.777 173.674 128.52 173.659 128.263C173.644 128.005 173.57 127.755 173.443 127.531C173.443 127.531 171.696 127.968 170.65 127.354Z" fill="white" stroke="#263238" stroke-width="0.5" stroke-linecap="round" stroke-linejoin="round"/>
<path d="M174.879 119.27L175.013 120.12L182.947 121.512V120.221C182.948 119.988 182.874 119.762 182.737 119.575C182.599 119.387 182.406 119.249 182.184 119.179L181.291 118.896L181.109 118.258C181.059 118.084 180.961 117.927 180.826 117.807C180.691 117.686 180.524 117.606 180.346 117.576L177.437 117.096C177.298 117.073 177.156 117.08 177.021 117.118C176.885 117.156 176.76 117.223 176.653 117.314C176.546 117.406 176.461 117.52 176.403 117.648C176.346 117.776 176.317 117.915 176.319 118.056H176.011C175.854 118.049 175.696 118.076 175.55 118.135C175.403 118.195 175.272 118.286 175.164 118.401C175.056 118.517 174.975 118.654 174.926 118.804C174.876 118.954 174.86 119.113 174.879 119.27Z" fill="#263238" stroke="#263238" stroke-width="0.5" stroke-linecap="round" stroke-linejoin="round"/>
<path d="M192.447 130.315C192.447 130.315 191.362 129.139 190.872 128.746C190.383 128.352 187.723 128.352 187.723 128.352V130.022C187.723 130.022 183.595 130.315 182.415 130.502C181.234 130.69 181.037 131.29 181.335 131.784C181.632 132.278 184.579 131.981 184.579 131.981L186.053 132.178C186.053 132.178 183.792 132.768 183.101 132.864C182.41 132.96 181.037 132.864 181.037 133.344C181.037 133.824 181.234 134.126 182.314 134.227C183.394 134.328 185.17 134.323 186.346 134.621C187.522 134.918 184.383 135.101 183.495 135.101C182.607 135.101 182.535 135.888 183.101 136.085C183.667 136.282 185.563 136.565 185.563 136.565C186.274 136.96 187.034 137.257 187.824 137.448C189.298 137.842 188.304 137.645 191.559 137.448C193.154 137.401 194.739 137.171 196.282 136.762L196.378 132.235L193.33 131.275L192.447 130.315Z" fill="white" stroke="#263238" stroke-width="0.5" stroke-linecap="round" stroke-linejoin="round"/>
<path d="M187.723 130.022L189.494 130.219" stroke="#263238" stroke-width="0.5" stroke-linecap="round" stroke-linejoin="round"/>
<path d="M185.563 136.613L188.51 136.709" stroke="#263238" stroke-width="0.5" stroke-linecap="round" stroke-linejoin="round"/>
<path d="M196.378 132.283L195.984 137.89L198.048 137.99L198.245 132.384L196.378 132.283Z" fill="white" stroke="#263238" stroke-width="0.5" stroke-linecap="round" stroke-linejoin="round"/>
<path d="M208.32 104.16C209.794 104.64 218.117 109.44 218.117 113.645C218.117 117.85 216.941 133.805 216.547 137.52C216.154 141.235 214.973 140.472 210.744 140.472C206.515 140.472 200.126 140.275 198.946 139.781C198.615 139.635 198.345 139.378 198.183 139.055C198.021 138.732 197.977 138.362 198.058 138.01L198.24 132.384C198.24 132.384 198.538 131.006 199.522 130.81C200.506 130.613 206.88 131.52 206.88 131.52C206.88 131.52 208.061 120.802 208.258 118.738C208.454 116.674 207.71 112.978 209.285 112.099" fill="white"/>
<path d="M208.32 104.16C209.794 104.64 218.117 109.44 218.117 113.645C218.117 117.85 216.941 133.805 216.547 137.52C216.154 141.235 214.973 140.472 210.744 140.472C206.515 140.472 200.126 140.275 198.946 139.781C198.615 139.635 198.345 139.378 198.183 139.055C198.021 138.732 197.977 138.362 198.058 138.01L198.24 132.384C198.24 132.384 198.538 131.006 199.522 130.81C200.506 130.613 206.88 131.52 206.88 131.52C206.88 131.52 208.061 120.802 208.258 118.738C208.454 116.674 207.71 112.978 209.285 112.099" stroke="#263238" stroke-width="0.5" stroke-linecap="round" stroke-linejoin="round"/>
<path d="M211.522 134.645C210.048 134.054 206.88 131.52 206.88 131.52C206.88 131.52 210.619 132.504 211.109 132.408" stroke="#263238" stroke-width="0.5" stroke-linecap="round" stroke-linejoin="round"/>
<path d="M38.2274 103.68C38.7719 104.453 39.163 105.323 39.3794 106.243C39.6338 107.587 39.1202 108.422 38.0978 108.355C37.7868 108.318 37.4916 108.198 37.2433 108.007C36.9949 107.816 36.8026 107.561 36.6866 107.27C36.6866 107.27 36.8834 109.445 37.6466 110.472C38.4098 111.499 38.9906 111.365 43.4738 111.878C47.957 112.392 54.6818 111.878 56.5394 111.624C58.397 111.37 59.6114 111.048 60.2498 110.088C60.8174 109.158 61.3318 108.196 61.7906 107.208C61.7906 107.208 59.8706 108.619 58.8434 108.298C57.8162 107.976 57.8162 105.926 58.1378 105.096C58.3792 104.503 58.6582 103.926 58.973 103.368C59.3705 102.188 59.6062 100.959 59.6738 99.7152C59.6738 98.1168 59.0978 96.4512 58.0754 92.736C57.053 89.0208 53.9138 85.7568 51.5426 83.3856C49.1714 81.0144 46.613 82.6176 43.7282 84.0912C40.8434 85.5648 37.5794 93.5664 37.0082 96.8352C36.437 100.104 38.2274 103.68 38.2274 103.68Z" fill="#263238" stroke="#263238" stroke-width="0.5" stroke-miterlimit="10"/>
<path d="M43.4546 109.776L48.8594 105.84L54.533 109.776L49.133 122.87L43.4546 109.776Z" fill="white" stroke="#263238" stroke-width="0.5" stroke-miterlimit="10"/>
<path d="M47.0642 110.712L48.7922 113.53L47.2562 119.933L49.3682 123.715L51.6098 119.357L49.8194 113.53L51.0962 110.904L49.0514 107.765L47.0642 110.712Z" fill="#263238" stroke="#263238" stroke-width="0.5" stroke-miterlimit="10"/>
<path d="M45.4609 100.32C45.4609 100.32 45.5281 105.634 45.6529 106.08C45.7777 106.526 48.3457 109.157 48.8545 109.349C49.3633 109.541 51.6769 106.08 51.8689 105.826C52.0609 105.571 51.9313 100.445 51.9313 100.445L45.4609 100.32Z" fill="white" stroke="#263238" stroke-width="0.5" stroke-miterlimit="10"/>
<path d="M49.8192 83.1744C49.8192 83.1744 47.64 85.7376 45.0768 88.2336C42.5136 90.7296 39.5088 93.9312 38.3568 97.1376C37.2048 100.344 38.232 103.666 38.232 103.666C36.7298 101.744 35.897 99.3843 35.8608 96.9456C35.9232 93.1056 36.6288 86.0544 39.96 82.0224C43.2912 77.9904 48.5424 77.7936 51 78.3696C53.4576 78.9456 56.3808 81.8928 57.72 85.4784C59.0592 89.064 60.3456 95.9184 60.216 98.7984C60.1906 100.392 59.7735 101.955 59.0016 103.349C59.2252 100.301 58.6268 97.2495 57.2688 94.512C55.0272 90.2208 52.7856 88.3632 51.12 86.76C50.6347 86.3081 50.2636 85.7474 50.0375 85.124C49.8113 84.5006 49.7365 83.8324 49.8192 83.1744Z" fill="#263238" stroke="#263238" stroke-width="0.5" stroke-miterlimit="10"/>
<path d="M48.8546 109.368L45.9122 113.53L43.3586 107.53L45.653 105.59L48.8546 109.368Z" fill="white" stroke="#263238" stroke-width="0.5" stroke-miterlimit="10"/>
<path d="M48.8546 109.368L51.869 113.851L54.2354 107.64L51.869 105.845L48.8546 109.368Z" fill="white" stroke="#263238" stroke-width="0.5" stroke-miterlimit="10"/>
<path d="M33.6434 110.462C33.6434 110.462 21.6434 126.6 21.005 127.579C20.3666 128.558 19.829 128.539 20.1554 129.336C20.4818 130.133 22.6994 132.533 24.3314 132.6C25.9634 132.667 26.4146 132.144 27.1346 131.098C27.8546 130.051 36.773 119.04 36.773 119.04C36.773 119.04 34.3634 110.789 33.6434 110.462Z" fill="#5CB0FF" stroke="#263238" stroke-width="0.5" stroke-miterlimit="10"/>
<path d="M47.9043 214.416L47.4627 223.512H46.5747L46.3491 217.915L47.9043 214.416Z" fill="#263238" stroke="#263238" stroke-width="0.5" stroke-miterlimit="10"/>
<path d="M39.1345 170.832C39.1345 170.832 40.1329 177.552 39.9121 181.728C39.6913 185.904 39.3601 188.64 39.8017 192.422C40.2433 196.205 42.5761 209.515 42.5761 212.515C42.5761 215.515 41.5777 218.314 40.9105 219.312C40.2433 220.31 36.4705 222.811 36.2497 223.91C36.0289 225.01 38.9137 224.712 41.5777 224.314C44.2417 223.915 45.7969 223.81 46.1281 223.411C46.4593 223.013 46.0177 220.613 46.7953 217.814C47.5729 215.016 48.3457 215.117 48.0145 213.418C47.6833 211.718 46.3489 209.818 46.3489 207.019C46.3489 204.221 48.1249 187.526 47.6833 183.226C47.2417 178.925 47.0401 170.933 47.0401 170.933L39.1345 170.832Z" fill="white" stroke="#263238" stroke-width="0.5" stroke-miterlimit="10"/>
<path d="M45.0193 220.512C44.0536 220.156 43.0476 219.921 42.0241 219.811C41.5254 219.735 41.0192 219.72 40.5169 219.768C39.3361 220.93 36.4465 222.955 36.2497 223.911C36.0289 225.01 38.9137 224.712 41.5777 224.314C44.2417 223.915 45.7969 223.81 46.1281 223.411C46.4593 223.013 46.0177 220.613 46.7953 217.815C47.5729 215.016 48.3457 215.117 48.0145 213.418C47.2369 215.213 46.6849 215.415 45.9073 216.912C45.3982 218.049 45.0974 219.269 45.0193 220.512Z" fill="#263238" stroke="#263238" stroke-width="0.5" stroke-miterlimit="10"/>
<path d="M62.7025 215.155L63.6337 224.218L64.5121 224.179L64.4257 218.578L62.7025 215.155Z" fill="#263238" stroke="#263238" stroke-width="0.5" stroke-miterlimit="10"/>
<path d="M60.3265 170.731C60.8625 174.587 61.8801 178.361 63.3553 181.963C64.9537 185.909 65.1505 188.27 65.9185 192.043C66.6721 195.72 66.0433 208.517 66.2449 212.237C66.4081 215.232 69.1537 218.784 69.8689 219.754C70.5841 220.723 74.4385 223.046 74.7169 224.136C74.9953 225.226 72.1297 225.053 69.4801 224.774C66.8305 224.496 65.2945 224.462 64.9441 224.078C64.5937 223.694 64.9009 221.275 63.9841 218.515C63.0673 215.755 62.3041 215.89 62.5441 214.195C62.7841 212.501 62.4145 210.149 61.8673 207.552C61.2865 204.802 57.3985 189.662 56.4769 185.429C55.5553 181.195 52.3201 171.034 52.3201 171.034L60.3265 170.731Z" fill="white" stroke="#263238" stroke-width="0.5" stroke-miterlimit="10"/>
<path d="M65.8803 221.112C66.8145 220.714 67.7949 220.435 68.7987 220.282C69.2864 220.182 69.7846 220.143 70.2819 220.166C71.5107 221.28 74.4723 223.166 74.7171 224.117C74.9955 225.206 72.1299 225.034 69.4803 224.755C66.8307 224.477 65.2947 224.443 64.9443 224.059C64.5939 223.675 64.9011 221.256 63.9843 218.496C63.0675 215.736 62.3043 215.87 62.5443 214.176C63.4083 215.938 63.9843 216.096 64.8147 217.574C65.3733 218.683 65.734 219.88 65.8803 221.112Z" fill="#263238" stroke="#263238" stroke-width="0.5" stroke-miterlimit="10"/>
<path d="M35.0401 144.442C34.3382 146.887 33.902 149.401 33.7393 151.939C33.5377 155.837 34.1377 177.734 34.1377 177.734C34.1377 177.734 37.9201 178.934 45.1201 179.131C52.3201 179.328 65.5105 177.83 65.5105 177.83C65.5105 177.83 64.9105 155.64 63.4129 150.043C61.9153 144.446 61.0129 142.843 61.0129 142.843C61.0129 142.843 46.4353 133.147 35.0401 144.442Z" fill="#263238" stroke="#263238" stroke-width="0.5" stroke-miterlimit="10"/>
<path d="M63.2737 110.765C63.2737 110.765 74.7841 127.2 75.4417 128.16C76.0993 129.12 76.6177 129.12 76.2961 129.917C75.9745 130.713 73.7665 133.118 72.1345 133.19C70.5025 133.262 70.0465 132.744 69.3265 131.702C68.6065 130.661 59.6208 119.621 59.6208 119.621C59.6208 119.621 62.5585 111.091 63.2737 110.765Z" fill="#5CB0FF" stroke="#263238" stroke-width="0.5" stroke-miterlimit="10"/>
<path d="M43.3585 107.52L49.1185 120.96L54.2401 107.64L63.2305 110.755L56.0305 131.587L64.0465 148.411C64.0465 148.411 60.4801 150.24 54.2401 151.042C48.0001 151.843 42.5233 151.282 39.8401 150.432C37.1569 149.582 33.3841 147.552 33.6001 147.552C33.8161 147.552 40.3777 130.79 40.3777 130.79L33.6577 110.448L43.3585 107.52Z" fill="#5CB0FF" stroke="#263238" stroke-width="0.5" stroke-miterlimit="10"/>
<path d="M49.1857 124.45L55.6177 116.659L53.8224 114.062L57.5952 112.517L56.328 108.566L54.2352 107.64L49.0993 120.96L43.3585 107.53L41.4049 108.12L40.4113 113.318L44.6737 114.187L42.8833 117.029L49.1857 124.45Z" fill="#5CB0FF" stroke="#263238" stroke-width="0.5" stroke-miterlimit="10"/>
<path d="M35.3377 142.046C36.1871 141.873 37.0229 141.639 37.8385 141.346C39.2353 140.866 39.9361 141.144 40.8385 141.826C41.7409 142.507 44.0353 143.995 43.7185 144.494C43.4017 144.994 43.2385 145.224 42.7201 144.922C42.2017 144.619 39.7249 142.622 39.2209 142.622C38.6031 142.751 38.0045 142.959 37.4401 143.242C38.2811 143.3 39.0997 143.539 39.8401 143.942C40.7425 144.542 42.7201 146.045 42.6385 146.544C42.5569 147.043 42.1585 147.115 41.6449 147.024C41.1313 146.933 39.1441 145.152 38.8417 145.152H36.6385C37.4876 145.549 38.303 146.015 39.0769 146.544C39.4753 146.947 40.0369 147.35 40.0369 147.648C40.0369 147.946 39.8545 148.714 39.2593 148.517C38.6641 148.32 36.9601 146.842 36.9601 146.842C36.9601 146.842 38.5585 148.536 38.4625 148.824C38.3233 149.246 38.0593 149.242 37.7617 149.04C37.4641 148.838 35.2993 147.562 34.5985 146.962C34.0897 146.525 34.1617 146.443 33.5617 146.342C32.9617 146.242 32.3617 144.941 32.3617 144.941L35.3377 142.046Z" fill="white" stroke="#263238" stroke-width="0.5" stroke-miterlimit="10"/>
<path d="M36.9601 146.842C36.9601 146.842 35.9569 145.858 35.3617 145.858" stroke="#263238" stroke-width="0.5" stroke-miterlimit="10"/>
<path d="M62.4002 142.046C61.5508 141.873 60.715 141.639 59.8994 141.346C58.5026 140.866 57.8018 141.144 56.9042 141.826C56.0066 142.507 53.7074 143.995 54.0242 144.494C54.341 144.994 54.5042 145.224 55.0226 144.922C55.541 144.619 58.0226 142.622 58.5218 142.622C59.1452 142.744 59.7502 142.946 60.3218 143.222C59.4809 143.281 58.6624 143.52 57.9218 143.923C57.0242 144.523 55.0418 146.026 55.1234 146.525C55.205 147.024 55.6034 147.096 56.117 147.005C56.6306 146.914 58.6226 145.133 58.9202 145.133C59.3645 145.065 59.8026 144.962 60.2306 144.826L58.6178 146.443C58.2194 146.842 57.6578 147.499 57.6578 147.802C57.6578 148.104 57.9026 148.694 58.5026 148.498C59.1026 148.301 60.8018 146.189 60.8018 146.189C60.8018 146.189 59.1986 148.526 59.2946 148.814C59.4338 149.237 59.6978 149.232 59.9954 149.03C60.293 148.829 61.997 147.432 62.6978 146.832C63.2066 146.395 63.5954 146.434 64.1954 146.352C64.7955 146.27 65.3955 144.95 65.3955 144.95L62.4002 142.046Z" fill="white" stroke="#263238" stroke-width="0.5" stroke-miterlimit="10"/>
<path d="M60.8258 146.198C61.1191 145.668 61.6056 145.271 62.1842 145.09" stroke="#263238" stroke-width="0.5" stroke-miterlimit="10"/>
<path d="M64.3296 139.843L61.92 142.046L65.2176 146.04L67.7904 143.611L64.3296 139.843Z" fill="white" stroke="#263238" stroke-width="0.5" stroke-miterlimit="10"/>
<path d="M70.6129 128.64L63.3601 140.386L67.1521 145.272C67.1521 145.272 70.5697 140.751 72.2593 138.346C73.9489 135.941 76.6129 130.296 76.5121 129.595C76.4113 128.895 73.9969 126.504 73.9969 126.504" fill="#5CB0FF"/>
<path d="M70.6129 128.64L63.3601 140.386L67.1521 145.272C67.1521 145.272 70.5697 140.751 72.2593 138.346C73.9489 135.941 76.6129 130.296 76.5121 129.595C76.4113 128.895 73.9969 126.504 73.9969 126.504" stroke="#263238" stroke-width="0.5" stroke-miterlimit="10"/>
<path d="M32.9282 139.843L35.3378 142.046L32.0402 146.04L29.4674 143.611L32.9282 139.843Z" fill="white" stroke="#263238" stroke-width="0.5" stroke-miterlimit="10"/>
<path d="M25.8338 128.016L33.4418 140.246L29.8418 144.787C29.8418 144.787 24.4802 138.437 22.7906 136.037C21.101 133.637 19.8338 129.715 19.9346 129.014C20.0354 128.314 22.4306 125.914 22.4306 125.914" fill="#5CB0FF"/>
<path d="M25.8338 128.016L33.4418 140.246L29.8418 144.787C29.8418 144.787 24.4802 138.437 22.7906 136.037C21.101 133.637 19.8338 129.715 19.9346 129.014C20.0354 128.314 22.4306 125.914 22.4306 125.914" stroke="#263238" stroke-width="0.5" stroke-miterlimit="10"/>
<path d="M49.6274 85.4399C49.6274 85.4399 46.6754 89.5343 45.341 90.9647L44.0066 92.4047L41.1266 92.9759C41.3196 93.665 41.575 94.3349 41.8898 94.9775C42.269 95.6447 43.3298 95.8319 43.3298 95.8319C43.3298 95.8319 43.6178 98.2319 44.4722 99.4559C45.3266 100.68 47.6498 102.634 51.1394 103.262C52.1906 103.45 54.365 102.014 55.4114 97.2479C56.4578 92.4815 55.4114 91.0703 54.8546 89.4527C54.2978 87.8351 50.8802 85.4399 49.6274 85.4399Z" fill="white" stroke="#263238" stroke-width="0.5" stroke-miterlimit="10"/>
<path d="M55.1187 91.5504C55.1187 91.5504 53.8803 90.3984 53.2611 92.1696C53.0355 92.8032 54.3219 95.8896 53.8803 96.1536C53.4387 96.4176 53.2611 96.0672 52.6371 96.5088" stroke="#263238" stroke-width="0.5" stroke-miterlimit="10"/>
<path d="M53.3474 98.3711C53.3474 98.3711 50.9474 99.0815 49.9874 97.4111" stroke="#263238" stroke-width="0.5" stroke-miterlimit="10"/>
<path d="M51.0433 90.8401C51.0433 90.8401 49.0945 90.1297 47.9425 91.1953" stroke="#263238" stroke-width="0.5" stroke-miterlimit="10"/>
<path d="M50.6882 93.1776C50.6882 93.6576 50.4482 94.0272 50.1458 94.0272C49.8434 94.0272 49.6034 93.648 49.6034 93.1776C49.6034 92.7072 49.8482 92.3232 50.1458 92.3232C50.4434 92.3232 50.6882 92.7072 50.6882 93.1776Z" fill="#263238"/>
<path d="M54.9408 93.3217C54.9408 93.8017 54.7008 94.1713 54.3984 94.1713C54.096 94.1713 53.8608 93.7921 53.8608 93.3217C53.8608 92.8513 54.1008 92.4673 54.3984 92.4673C54.696 92.4673 54.9408 92.8513 54.9408 93.3217Z" fill="#263238"/>
</svg>
