<svg width="130" height="130" viewBox="0 0 130 130" fill="none" xmlns="http://www.w3.org/2000/svg">
<path d="M116.778 76.5427C113.293 85.8773 106.173 95.9898 96.15 98.9725C81.008 103.494 79.1994 115.699 52.0781 114.567C48.1184 114.419 44.1865 113.842 40.3515 112.846C38.4762 112.354 36.6347 111.741 34.8382 111.013C18.9937 104.595 10.7287 90.4717 10.0432 75.6943C9.13651 56.2473 22.6984 46.9929 31.5128 41.5672C40.3272 36.1414 50.9501 15.124 77.6193 16.0283C81.6922 16.153 85.7372 16.7469 89.6741 17.798C98.6465 20.2289 107.77 25.5987 113.071 33.4529C113.47 34.0412 113.849 34.6464 114.211 35.2615C121.307 47.287 121.531 63.8146 116.778 76.5427Z" fill="#5CB0FF"/>
<path opacity="0.7" d="M116.778 76.5427C113.293 85.8773 106.173 95.9898 96.15 98.9725C81.008 103.494 79.1994 115.699 52.0781 114.567C48.1184 114.419 44.1865 113.842 40.3515 112.846C38.4762 112.354 36.6347 111.741 34.8382 111.013C18.9937 104.595 10.7287 90.4717 10.0432 75.6943C9.13651 56.2473 22.6984 46.9929 31.5128 41.5672C40.3272 36.1414 50.9501 15.124 77.6193 16.0283C81.6922 16.153 85.7372 16.7469 89.6741 17.798C98.6465 20.2289 107.77 25.5987 113.071 33.4529C113.47 34.0412 113.849 34.6464 114.211 35.2615C121.307 47.287 121.531 63.8146 116.778 76.5427Z" fill="white"/>
<path d="M80.0513 57.2879C89.4123 54.713 94.9135 45.0369 92.3386 35.6759C89.7636 26.3148 80.0876 20.8136 70.7265 23.3885C61.3655 25.9635 55.8643 35.6395 58.4392 45.0006C61.0142 54.3616 70.6902 59.8629 80.0513 57.2879Z" fill="white" stroke="#263238" stroke-width="0.5" stroke-linecap="round" stroke-linejoin="round"/>
<path d="M92.9422 39.1027C93.545 29.4127 86.1784 21.0686 76.4884 20.4658C66.7984 19.8629 58.4544 27.2295 57.8516 36.9195C57.2487 46.6095 64.6153 54.9536 74.3053 55.5564C83.9953 56.1593 92.3393 48.7927 92.9422 39.1027Z" fill="white" stroke="#263238" stroke-width="0.5" stroke-linecap="round" stroke-linejoin="round"/>
<path d="M89.721 33.7939C89.0147 31.3852 87.7133 29.1931 85.9368 27.4198Z" fill="white"/>
<path d="M89.721 33.7939C89.0147 31.3852 87.7133 29.1931 85.9368 27.4198" stroke="#263238" stroke-width="0.5" stroke-linecap="round" stroke-linejoin="round"/>
<path d="M77.0403 52.8491C77.7765 52.768 78.5054 52.6312 79.2209 52.4398C82.6651 51.5236 85.6687 49.4069 87.69 46.4715C89.7113 43.5361 90.6174 39.9752 90.2448 36.4307" fill="white"/>
<path d="M77.0403 52.8491C77.7765 52.768 78.5054 52.6312 79.2209 52.4398C82.6651 51.5236 85.6687 49.4069 87.69 46.4715C89.7113 43.5361 90.6174 39.9752 90.2448 36.4307" stroke="#263238" stroke-width="0.5" stroke-linecap="round" stroke-linejoin="round"/>
<path d="M83.7705 25.635C81.8338 24.3213 79.6155 23.4808 77.2945 23.1814C74.9735 22.882 72.6146 23.1319 70.4079 23.911C68.2011 24.6902 66.2083 25.9768 64.5898 27.6671C62.9713 29.3575 61.7725 31.4044 61.09 33.6429C60.4074 35.8814 60.2602 38.2489 60.6602 40.5548C61.0601 42.8606 61.9961 45.0402 63.3927 46.9181C64.7893 48.7959 66.6074 50.3195 68.7007 51.366C70.7939 52.4125 73.1036 52.9528 75.4439 52.9432" fill="white"/>
<path d="M83.7705 25.635C81.8338 24.3213 79.6155 23.4808 77.2945 23.1814C74.9735 22.882 72.6146 23.1319 70.4079 23.911C68.2011 24.6902 66.2083 25.9768 64.5898 27.6671C62.9713 29.3575 61.7725 31.4044 61.09 33.6429C60.4074 35.8814 60.2602 38.2489 60.6602 40.5548C61.0601 42.8606 61.9961 45.0402 63.3927 46.9181C64.7893 48.7959 66.6074 50.3195 68.7007 51.366C70.7939 52.4125 73.1036 52.9528 75.4439 52.9432" stroke="#263238" stroke-width="0.5" stroke-linecap="round" stroke-linejoin="round"/>
<path d="M70.8342 45.6563C70.5417 45.5477 70.2938 45.3446 70.1296 45.0793C69.9788 44.8361 69.904 44.5534 69.9149 44.2674C69.9307 43.9804 70.011 43.7006 70.1498 43.4488C70.2922 43.1842 70.5333 42.9865 70.8207 42.8986C71.1523 42.79 71.5072 42.7737 71.8473 42.8517L72.4512 42.9926C72.7799 43.0664 73.0685 43.1335 73.3033 43.1737C73.6345 43.2198 73.9687 43.24 74.303 43.2341C74.734 43.2333 75.1637 43.1861 75.5846 43.0932C75.9102 43.0452 76.2297 42.9619 76.5373 42.845C76.8509 42.7332 77.154 42.594 77.4431 42.429C77.7072 42.2865 77.9258 42.0726 78.0738 41.8117C78.145 41.6828 78.1894 41.5409 78.2043 41.3945C78.2193 41.2481 78.2046 41.1002 78.1611 40.9596C78.1096 40.819 78.0266 40.692 77.9184 40.5885C77.8103 40.485 77.6798 40.4076 77.5371 40.3624C77.0924 40.1926 76.6166 40.1194 76.1415 40.1477H74.0414C73.2496 40.1477 72.6122 40.1141 72.1224 40.0739C71.616 40.0358 71.1134 39.9572 70.6194 39.8391C70.1737 39.7501 69.7497 39.5746 69.3715 39.3224C69.0328 39.0721 68.742 38.7631 68.5126 38.4099C68.2288 37.9712 68.0202 37.4882 67.8953 36.9808C67.7072 36.34 67.6951 35.6604 67.8604 35.0134C68.0257 34.3664 68.3623 33.7759 68.8347 33.3039C70.0707 32.1009 71.6564 31.321 73.3637 31.0763C73.9225 30.9574 74.4904 30.8856 75.0612 30.8616C75.4834 30.8322 75.9071 30.8322 76.3293 30.8616C76.6313 30.8951 77.0003 30.9488 77.5035 31.036C77.8508 31.0861 78.1729 31.246 78.4227 31.4923C78.6463 31.6947 78.7953 31.9665 78.8454 32.2639C78.8914 32.5439 78.873 32.8307 78.7918 33.1026C78.7533 33.2463 78.6851 33.3803 78.5914 33.4959C78.4978 33.6115 78.3809 33.7061 78.2483 33.7736C77.9296 33.9282 77.5741 33.9909 77.2217 33.9547C76.2021 33.86 75.1747 33.8893 74.1621 34.0419C73.7945 34.1139 73.4315 34.208 73.0752 34.3237C72.7126 34.4292 72.3795 34.6176 72.1023 34.8739C71.9821 34.9664 71.8911 35.0915 71.8399 35.2342C71.7888 35.3769 71.7797 35.5313 71.8138 35.6791C71.8519 35.8297 71.9253 35.9692 72.028 36.0858C72.1307 36.2025 72.2596 36.2931 72.4042 36.35C72.8376 36.4866 73.2931 36.539 73.7461 36.5044L75.8194 36.4641C76.5409 36.4578 77.2621 36.4914 77.9799 36.5648C78.5534 36.6331 79.1153 36.7775 79.6506 36.9942C80.1555 37.2012 80.6023 37.5282 80.9523 37.9469C81.4244 38.585 81.7325 39.3293 81.8495 40.1143C81.9665 40.8993 81.8888 41.7011 81.6232 42.4491C81.2477 43.3519 80.6095 44.121 79.7915 44.6566C78.8362 45.2789 77.7702 45.7117 76.6514 45.9314C74.7267 46.4055 72.7056 46.3099 70.8342 45.6563V45.6563ZM71.1294 28.4864C71.0827 28.3498 71.068 28.2043 71.0867 28.0612C71.1053 27.9181 71.1566 27.7811 71.2367 27.6611C71.3727 27.4419 71.5897 27.2851 71.8406 27.225C72.0921 27.1662 72.3563 27.1996 72.5854 27.3189C72.7139 27.3853 72.8255 27.4803 72.9116 27.5967C72.9977 27.713 73.0559 27.8475 73.0819 27.9899L74.0346 31.5661L72.0754 32.0894L71.1294 28.4864ZM75.8798 45.2604L77.8524 44.7371L78.7985 48.2865C78.8571 48.4621 78.863 48.6511 78.8153 48.83C78.7676 49.0089 78.6684 49.1698 78.5301 49.2929C78.403 49.4172 78.2466 49.5076 78.0754 49.5557C77.9043 49.6037 77.7237 49.608 77.5505 49.568C77.3684 49.5272 77.2024 49.4334 77.0735 49.2985C76.9445 49.1636 76.8584 48.9936 76.8258 48.8098L75.8798 45.2604Z" fill="#263238"/>
<path d="M60.8568 47.8441V50.065" stroke="#263238" stroke-width="0.5" stroke-linecap="round" stroke-linejoin="round"/>
<path d="M62.4261 50.0648V52.4266" stroke="#263238" stroke-width="0.5" stroke-linecap="round" stroke-linejoin="round"/>
<path d="M65.5673 52.688V54.9089" stroke="#263238" stroke-width="0.5" stroke-linecap="round" stroke-linejoin="round"/>
<path d="M70.0153 54.9089V56.8749" stroke="#263238" stroke-width="0.5" stroke-linecap="round" stroke-linejoin="round"/>
<path d="M74.8596 55.8282V56.7407" stroke="#263238" stroke-width="0.5" stroke-linecap="round" stroke-linejoin="round"/>
<path d="M84.4143 55.4326V53.9967" stroke="#263238" stroke-width="0.5" stroke-linecap="round" stroke-linejoin="round"/>
<path d="M86.5066 53.9964V51.7688" stroke="#263238" stroke-width="0.5" stroke-linecap="round" stroke-linejoin="round"/>
<path d="M53.3116 72.0998C62.8746 70.4239 69.2684 61.313 67.5925 51.75C65.9166 42.187 56.8057 35.7932 47.2427 37.4691C37.6797 39.145 31.2859 48.2559 32.9618 57.8189C34.6377 67.3819 43.7486 73.7756 53.3116 72.0998Z" fill="white" stroke="#263238" stroke-width="0.5" stroke-linecap="round" stroke-linejoin="round"/>
<path d="M53.3081 69.7464C62.8711 68.0705 69.2649 58.9596 67.589 49.3966C65.9131 39.8336 56.8022 33.4398 47.2392 35.1157C37.6762 36.7916 31.2824 45.9025 32.9583 55.4655C34.6342 65.0285 43.7451 71.4223 53.3081 69.7464Z" fill="white" stroke="#263238" stroke-width="0.5" stroke-linecap="round" stroke-linejoin="round"/>
<path d="M63.0107 60.2499C64.5574 57.7312 65.3225 54.8104 65.209 51.8569C65.0956 48.9033 64.1087 46.0498 62.3733 43.6572C60.638 41.2646 58.232 39.4404 55.4597 38.4154C52.6875 37.3903 49.6735 37.2105 46.799 37.8986C43.9245 38.5867 41.3187 40.1119 39.3111 42.2811C37.3035 44.4504 35.9843 47.1663 35.5205 50.0854C35.0566 53.0045 35.4689 55.9955 36.7052 58.6803C37.9415 61.365 39.9462 63.6228 42.4658 65.168C45.8432 67.2373 49.9037 67.8816 53.7557 66.9594C57.6078 66.0373 60.9364 63.6242 63.0107 60.2499V60.2499Z" fill="white" stroke="#263238" stroke-width="0.5" stroke-linecap="round" stroke-linejoin="round"/>
<path d="M41.6001 54.4194C41.4783 54.1332 41.4547 53.8147 41.533 53.5136C41.603 53.2343 41.7577 52.9836 41.9758 52.7957C42.1916 52.6116 42.4462 52.4786 42.7206 52.4065C43.0024 52.3256 43.3045 52.3544 43.566 52.487C43.8725 52.6574 44.1293 52.9049 44.3108 53.205C44.351 53.2653 44.4584 53.4398 44.6261 53.735C44.7938 54.0302 44.9482 54.2785 45.0824 54.4798C45.2841 54.7532 45.5085 55.0091 45.7533 55.2447C46.0524 55.5554 46.3829 55.8343 46.7396 56.0767C46.9998 56.2786 47.281 56.4518 47.5783 56.5933C47.8757 56.7448 48.1854 56.8706 48.5043 56.9691C48.7917 57.0495 49.0958 57.0495 49.3832 56.9691C49.5236 56.9315 49.6552 56.8665 49.7704 56.7779C49.8856 56.6892 49.982 56.5786 50.0542 56.4524C50.1216 56.3169 50.1566 56.1676 50.1566 56.0163C50.1566 55.865 50.1216 55.7157 50.0542 55.5802C49.8691 55.1417 49.5949 54.7464 49.249 54.4194L47.8065 52.8963C47.2697 52.3193 46.847 51.8362 46.5384 51.4605C46.2193 51.0641 45.93 50.6447 45.6728 50.2058C45.4267 49.823 45.2623 49.3936 45.1897 48.9443C45.1366 48.5255 45.1593 48.1005 45.2568 47.6896C45.3793 47.1847 45.5857 46.7038 45.8674 46.2672C46.1996 45.6872 46.6824 45.2076 47.2646 44.8793C47.8469 44.551 48.507 44.3861 49.1752 44.4019C50.8971 44.4728 52.5526 45.0856 53.9055 46.1531C54.385 46.4714 54.8342 46.833 55.2474 47.2334C55.5534 47.5276 55.8423 47.839 56.113 48.166C56.3009 48.4076 56.5223 48.7296 56.7839 49.1389C56.9897 49.4237 57.0979 49.7673 57.0926 50.1185C57.095 50.4196 57.001 50.7135 56.8242 50.9572C56.645 51.1856 56.4154 51.3693 56.1532 51.494C56.0257 51.56 55.8856 51.5983 55.7423 51.6063C55.5989 51.6144 55.4554 51.5922 55.3213 51.541C54.9914 51.414 54.7018 51.2009 54.4826 50.9237C53.8492 50.1171 53.1191 49.3915 52.3086 48.7632C52.0011 48.5505 51.6831 48.3535 51.3559 48.1727C51.0304 47.9832 50.665 47.8729 50.289 47.8507C50.1384 47.8263 49.984 47.8463 49.8446 47.9082C49.7051 47.9702 49.5868 48.0714 49.504 48.1996C49.4157 48.3302 49.3609 48.4805 49.3445 48.6374C49.3281 48.7942 49.3507 48.9526 49.4101 49.0987C49.6109 49.5175 49.8939 49.8916 50.2421 50.199L51.6981 51.6752C52.2002 52.1939 52.6729 52.7405 53.1138 53.3123C53.4609 53.7725 53.7431 54.2782 53.9525 54.8153C54.1565 55.3236 54.2281 55.8754 54.1605 56.4189C54.0718 57.0144 53.8617 57.5853 53.5432 58.0963C53.0649 58.9708 52.2994 59.6533 51.376 60.0287C50.4639 60.378 49.4676 60.4435 48.5177 60.2165C47.408 59.9562 46.3597 59.4821 45.4313 58.8209C43.751 57.7603 42.4188 56.2299 41.6001 54.4194V54.4194ZM54.241 42.7983C54.3082 42.6704 54.4035 42.5593 54.5197 42.4733C54.6358 42.3873 54.7699 42.3287 54.912 42.3018C55.1648 42.2569 55.4253 42.3071 55.6433 42.4427C55.8603 42.587 56.0195 42.8032 56.0929 43.0533C56.133 43.1885 56.1424 43.331 56.1203 43.4703C56.0982 43.6096 56.0453 43.7422 55.9654 43.8585L54.033 47.012L52.3086 45.9317L54.241 42.7983ZM45.3373 57.8078L47.0751 58.8746L45.1763 62.0348C45.0904 62.1971 44.9588 62.3305 44.7978 62.4188C44.6368 62.507 44.4535 62.5461 44.2705 62.5313C44.0918 62.5286 43.9169 62.4795 43.7629 62.389C43.6088 62.2984 43.4809 62.1695 43.3915 62.0147C43.2936 61.8556 43.2458 61.6708 43.2541 61.4841C43.2625 61.2975 43.3268 61.1177 43.4385 60.968L45.3373 57.8078Z" fill="#263238"/>
<path d="M35.7489 62.2764V64.504" stroke="#263238" stroke-width="0.5" stroke-linecap="round" stroke-linejoin="round"/>
<path d="M37.3191 64.5035V66.8586" stroke="#263238" stroke-width="0.5" stroke-linecap="round" stroke-linejoin="round"/>
<path d="M40.4587 67.1207V69.3416" stroke="#263238" stroke-width="0.5" stroke-linecap="round" stroke-linejoin="round"/>
<path d="M44.9072 69.3418V71.3077" stroke="#263238" stroke-width="0.5" stroke-linecap="round" stroke-linejoin="round"/>
<path d="M49.7521 70.2607V71.18" stroke="#263238" stroke-width="0.5" stroke-linecap="round" stroke-linejoin="round"/>
<path d="M59.3063 69.8648V68.429" stroke="#263238" stroke-width="0.5" stroke-linecap="round" stroke-linejoin="round"/>
<path d="M61.4001 68.4289V66.2013" stroke="#263238" stroke-width="0.5" stroke-linecap="round" stroke-linejoin="round"/>
<path d="M53.8823 68.3767C63.3841 66.383 69.4706 57.064 67.477 47.5622C65.4833 38.0604 56.1643 31.9738 46.6625 33.9675C37.1606 35.9612 31.0741 45.2802 33.0678 54.782C35.0615 64.2838 44.3804 70.3704 53.8823 68.3767Z" fill="white" stroke="#263238" stroke-width="0.5" stroke-linecap="round" stroke-linejoin="round"/>
<path d="M53.8827 66.0246C63.3846 64.0309 69.4711 54.712 67.4774 45.2101C65.4837 35.7083 56.1648 29.6218 46.6629 31.6154C37.1611 33.6091 31.0746 42.9281 33.0683 52.4299C35.062 61.9318 44.3809 68.0183 53.8827 66.0246Z" fill="white" stroke="#263238" stroke-width="0.5" stroke-linecap="round" stroke-linejoin="round"/>
<path d="M53.721 63.3781C61.7498 61.4698 66.7114 53.4143 64.8032 45.3855C62.8949 37.3568 54.8393 32.3951 46.8105 34.3034C38.7818 36.2117 33.8202 44.2673 35.7284 52.296C37.6367 60.3248 45.6923 65.2864 53.721 63.3781Z" fill="white" stroke="#263238" stroke-width="0.5" stroke-linecap="round" stroke-linejoin="round"/>
<path d="M41.6 50.8028C41.4844 50.528 41.4585 50.2238 41.526 49.9334C41.5935 49.6431 41.7508 49.3814 41.9757 49.1858C42.1912 48.9997 42.4457 48.8644 42.7205 48.7899C43.0035 48.7143 43.3043 48.7454 43.5659 48.8771C43.8732 49.0436 44.1303 49.2891 44.3107 49.5884C44.351 49.6555 44.4583 49.8299 44.6261 50.1251C44.7938 50.4203 44.9481 50.6686 45.0823 50.8699C45.284 51.1433 45.5085 51.3992 45.7533 51.6348C46.0525 51.9434 46.383 52.22 46.7396 52.4601C46.9979 52.6665 47.2793 52.8422 47.5783 52.9834C47.8757 53.1329 48.1855 53.2563 48.5042 53.3524C48.788 53.4472 49.093 53.4588 49.3832 53.386C49.524 53.3473 49.6558 53.2812 49.771 53.1914C49.8861 53.1015 49.9823 52.9898 50.0541 52.8626C50.1215 52.7271 50.1566 52.5779 50.1566 52.4265C50.1566 52.2752 50.1215 52.1259 50.0541 51.9904C49.8688 51.554 49.5946 51.161 49.249 50.8363L47.7863 49.2864C47.2495 48.7027 46.8268 48.2263 46.5182 47.8439C46.1976 47.4487 45.9082 47.0292 45.6526 46.5892C45.4057 46.2068 45.2411 45.7772 45.1695 45.3277C45.1165 44.9111 45.1392 44.4883 45.2366 44.0797C45.3602 43.573 45.5665 43.0902 45.8472 42.6506C46.1797 42.0713 46.6627 41.5927 47.2451 41.2656C47.8274 40.9384 48.4873 40.7748 49.155 40.792C50.8776 40.8596 52.534 41.4729 53.8853 42.5433C54.3648 42.8615 54.814 43.2231 55.2273 43.6235C55.529 43.9276 55.8114 44.2503 56.0727 44.5897C56.2605 44.8312 56.482 45.1533 56.7436 45.5559C56.9477 45.8415 57.0557 46.1845 57.0523 46.5355C57.0562 46.8388 56.962 47.1353 56.7839 47.3809C56.6029 47.6074 56.3737 47.7908 56.1129 47.9176C55.9849 47.9825 55.8446 48.0197 55.7012 48.0266C55.5579 48.0335 55.4146 48.0101 55.2809 47.9579C54.9514 47.8337 54.6616 47.6228 54.4422 47.3473C53.8107 46.5391 53.0804 45.8133 52.2683 45.1868C51.9806 44.9736 51.6828 44.7743 51.3759 44.5897C51.0505 44.4002 50.685 44.2899 50.3091 44.2676C50.1587 44.2465 50.0054 44.2681 49.8667 44.3297C49.7279 44.3914 49.6092 44.4908 49.5241 44.6165C49.4357 44.7484 49.381 44.8999 49.3646 45.0577C49.3482 45.2156 49.3707 45.3751 49.4301 45.5223C49.6254 45.9316 49.8989 46.2986 50.2353 46.6026L51.6913 48.0787C52.1967 48.5945 52.6695 49.1413 53.107 49.7158C53.4555 50.1752 53.7378 50.6811 53.9457 51.2188C54.15 51.727 54.2216 52.2789 54.1537 52.8224C54.0639 53.4176 53.8539 53.9883 53.5364 54.4998C53.056 55.3711 52.2909 56.0509 51.3692 56.4255C50.4579 56.777 49.4615 56.8448 48.5109 56.62C47.4023 56.3566 46.3545 55.8829 45.4245 55.2244C43.7429 54.1584 42.4127 52.6205 41.6 50.8028V50.8028ZM54.2409 39.1817C54.3065 39.063 54.3959 38.9591 54.5035 38.8765C54.611 38.7939 54.7345 38.7344 54.8661 38.7017C54.9977 38.6689 55.1346 38.6637 55.2683 38.6862C55.4021 38.7088 55.5297 38.7587 55.6432 38.8328C55.8632 38.974 56.0233 39.1914 56.0928 39.4434C56.1328 39.5775 56.1422 39.7189 56.1201 39.8571C56.098 39.9954 56.0451 40.1268 55.9653 40.2418L54.0329 43.3954L52.3086 42.3353L54.2409 39.1817ZM45.3373 54.1979L47.0751 55.2647L45.1561 58.3914C45.0718 58.5554 44.9407 58.6908 44.7795 58.7804C44.6183 58.8699 44.4341 58.9097 44.2503 58.8946C44.0714 58.8892 43.8968 58.8384 43.743 58.7468C43.5892 58.6552 43.4613 58.526 43.3714 58.3713C43.2735 58.2122 43.2256 58.0273 43.234 57.8407C43.2423 57.6541 43.3066 57.4743 43.4183 57.3246L45.3373 54.1979Z" fill="#263238"/>
<path d="M35.7489 58.6664V60.8873" stroke="#263238" stroke-width="0.5" stroke-linecap="round" stroke-linejoin="round"/>
<path d="M37.3191 60.8873V63.2424" stroke="#263238" stroke-width="0.5" stroke-linecap="round" stroke-linejoin="round"/>
<path d="M40.4587 63.5039V65.7315" stroke="#263238" stroke-width="0.5" stroke-linecap="round" stroke-linejoin="round"/>
<path d="M44.9072 65.7318V67.6977" stroke="#263238" stroke-width="0.5" stroke-linecap="round" stroke-linejoin="round"/>
<path d="M49.7521 66.651V67.5635" stroke="#263238" stroke-width="0.5" stroke-linecap="round" stroke-linejoin="round"/>
<path d="M59.3063 66.2548V64.819" stroke="#263238" stroke-width="0.5" stroke-linecap="round" stroke-linejoin="round"/>
<path d="M61.4001 64.8194V62.5918" stroke="#263238" stroke-width="0.5" stroke-linecap="round" stroke-linejoin="round"/>
<path d="M65.0904 57.0189C70.3211 48.8398 67.931 37.9689 59.7519 32.7381C51.5727 27.5073 40.7018 29.8974 35.471 38.0766C30.2403 46.2557 32.6304 57.1266 40.8095 62.3574C48.9887 67.5882 59.8596 65.1981 65.0904 57.0189Z" fill="white" stroke="#263238" stroke-width="0.5" stroke-linecap="round" stroke-linejoin="round"/>
<path d="M65.0908 54.6666C70.3216 46.4875 67.9315 35.6166 59.7524 30.3858C51.5732 25.155 40.7023 27.5451 35.4715 35.7243C30.2407 43.9034 32.6309 54.7743 40.81 60.0051C48.9892 65.2359 59.8601 62.8458 65.0908 54.6666Z" fill="white" stroke="#263238" stroke-width="0.5" stroke-linecap="round" stroke-linejoin="round"/>
<path d="M64.4143 49.9835C67.0738 42.1713 62.8967 33.6824 55.0846 31.0229C47.2724 28.3634 38.7835 32.5405 36.124 40.3527C33.4645 48.1648 37.6416 56.6537 45.4538 59.3132C53.2659 61.9727 61.7548 57.7956 64.4143 49.9835Z" fill="white" stroke="#263238" stroke-width="0.5" stroke-linecap="round" stroke-linejoin="round"/>
<path d="M41.6001 47.166C41.4783 46.8821 41.4547 46.5657 41.533 46.2669C41.6045 45.9864 41.7588 45.7339 41.9758 45.5422C42.1939 45.3616 42.4477 45.229 42.7206 45.1531C43.003 45.0707 43.3063 45.102 43.566 45.2403C43.8732 45.4067 44.1304 45.6523 44.3108 45.9515C44.351 46.0119 44.4584 46.1931 44.6261 46.4816C44.7938 46.7701 44.9482 47.0251 45.0824 47.2263C45.2807 47.5025 45.5054 47.7587 45.7533 47.9913C46.0524 48.302 46.3829 48.5808 46.7396 48.8232C46.9979 49.0297 47.2794 49.2053 47.5783 49.3466C47.8771 49.4932 48.1866 49.6166 48.5043 49.7156C48.7913 49.7993 49.0962 49.7993 49.3832 49.7156C49.5243 49.6795 49.6565 49.6151 49.7718 49.5263C49.8872 49.4374 49.9832 49.3261 50.0542 49.199C50.1216 49.0635 50.1566 48.9142 50.1566 48.7629C50.1566 48.6115 50.1216 48.4622 50.0542 48.3267C49.8688 47.8903 49.5946 47.4973 49.249 47.1727L47.8065 45.6496C47.2697 45.0658 46.847 44.5828 46.5384 44.207C46.2193 43.8107 45.93 43.3913 45.6728 42.9523C45.4267 42.5696 45.2623 42.1401 45.1897 41.6909C45.1366 41.2743 45.1594 40.8515 45.2568 40.4429C45.3796 39.9359 45.5859 39.4529 45.8674 39.0138C46.1988 38.4335 46.6816 37.9541 47.2642 37.6268C47.8467 37.2995 48.5073 37.1365 49.1752 37.1552C50.8972 37.22 52.5538 37.8309 53.9055 38.8997C54.3834 39.2201 54.8324 39.5815 55.2474 39.98C55.5554 40.2746 55.8445 40.5883 56.113 40.9193C56.3009 41.1609 56.5223 41.4829 56.7839 41.8855C56.9888 42.1707 57.097 42.514 57.0926 42.8651C57.0965 43.1684 57.0023 43.4649 56.8242 43.7105C56.6428 43.9349 56.4136 44.116 56.1532 44.2406C56.0257 44.3065 55.8856 44.3448 55.7423 44.3529C55.5989 44.361 55.4554 44.3387 55.3213 44.2875C54.9901 44.163 54.6999 43.9494 54.4825 43.6703C53.8492 42.8637 53.1191 42.1381 52.3086 41.5098C52.0011 41.2971 51.6831 41.1 51.3559 40.9193C51.0304 40.7298 50.665 40.6195 50.289 40.5972C50.1385 40.5745 49.9847 40.5953 49.8456 40.6571C49.7065 40.7189 49.588 40.8192 49.504 40.9461C49.4156 41.078 49.3609 41.2295 49.3445 41.3874C49.3281 41.5453 49.3507 41.7048 49.4101 41.852C49.6114 42.2685 49.8943 42.6404 50.2421 42.9456L51.6981 44.4217C52.2002 44.9405 52.6729 45.4871 53.1138 46.0589C53.4623 46.5206 53.7446 47.0287 53.9525 47.5685C54.1568 48.0744 54.2284 48.6241 54.1605 49.1654C54.0719 49.7631 53.8619 50.3362 53.5432 50.8495C53.0628 51.7208 52.2977 52.4007 51.376 52.7752C50.4639 53.1235 49.4685 53.1912 48.5177 52.9698C47.409 52.7064 46.3613 52.2326 45.4313 51.5742C43.752 50.5094 42.4204 48.9772 41.6001 47.166V47.166ZM54.241 35.5449C54.3082 35.4176 54.4036 35.3073 54.5198 35.2224C54.6361 35.1375 54.7702 35.0803 54.912 35.0551C55.1639 35.0048 55.4256 35.0528 55.6433 35.1893C55.8603 35.3335 56.0195 35.5498 56.0929 35.7999C56.133 35.9351 56.1424 36.0776 56.1203 36.2169C56.0982 36.3562 56.0453 36.4888 55.9654 36.605L54.0598 39.7585L52.3355 38.6984L54.241 35.5449ZM45.3373 50.561L47.0751 51.6279L45.1562 54.7546C45.0698 54.9169 44.9384 55.0508 44.7777 55.1401C44.6169 55.2294 44.4338 55.2702 44.2504 55.2578C44.0715 55.2524 43.8969 55.2015 43.7431 55.11C43.5893 55.0184 43.4614 54.8891 43.3714 54.7344C43.2735 54.5753 43.2256 54.3905 43.234 54.2039C43.2424 54.0172 43.3066 53.8374 43.4184 53.6877L45.3373 50.561Z" fill="#263238"/>
<path d="M35.7489 55.0232V57.2508" stroke="#263238" stroke-width="0.5" stroke-linecap="round" stroke-linejoin="round"/>
<path d="M37.3191 57.2509V59.6059" stroke="#263238" stroke-width="0.5" stroke-linecap="round" stroke-linejoin="round"/>
<path d="M40.4587 59.8677V62.0953" stroke="#263238" stroke-width="0.5" stroke-linecap="round" stroke-linejoin="round"/>
<path d="M44.9072 62.0948V64.0541" stroke="#263238" stroke-width="0.5" stroke-linecap="round" stroke-linejoin="round"/>
<path d="M49.7521 63.0076V63.9268" stroke="#263238" stroke-width="0.5" stroke-linecap="round" stroke-linejoin="round"/>
<path d="M59.3063 62.6186V61.176" stroke="#263238" stroke-width="0.5" stroke-linecap="round" stroke-linejoin="round"/>
<path d="M61.4001 61.1757V58.9548" stroke="#263238" stroke-width="0.5" stroke-linecap="round" stroke-linejoin="round"/>
<path d="M53.3116 61.5695C62.8746 59.8936 69.2684 50.7827 67.5925 41.2197C65.9166 31.6567 56.8057 25.2629 47.2427 26.9388C37.6797 28.6147 31.2859 37.7256 32.9618 47.2886C34.6377 56.8516 43.7486 63.2454 53.3116 61.5695Z" fill="white" stroke="#263238" stroke-width="0.5" stroke-linecap="round" stroke-linejoin="round"/>
<path d="M53.2054 59.2291C62.779 57.615 69.2315 48.5456 67.6174 38.972C66.0033 29.3983 56.9338 22.9459 47.3602 24.56C37.7866 26.1741 31.3341 35.2435 32.9482 44.8171C34.5623 54.3908 43.6318 60.8432 53.2054 59.2291Z" fill="white" stroke="#263238" stroke-width="0.5" stroke-linecap="round" stroke-linejoin="round"/>
<path d="M64.4086 46.705C67.068 38.8929 62.891 30.4039 55.0788 27.7444C47.2667 25.085 38.7777 29.2621 36.1183 37.0742C33.4588 44.8864 37.6359 53.3753 45.448 56.0348C53.2602 58.6942 61.7491 54.5172 64.4086 46.705Z" fill="white" stroke="#263238" stroke-width="0.5" stroke-linecap="round" stroke-linejoin="round"/>
<path d="M41.6 43.9186C41.4844 43.6439 41.4585 43.3396 41.526 43.0493C41.5935 42.7589 41.7508 42.4973 41.9757 42.3016C42.1912 42.1155 42.4457 41.9802 42.7205 41.9058C43.0032 41.8269 43.3053 41.8581 43.5659 41.993C43.8732 42.1594 44.1303 42.405 44.3107 42.7042C44.351 42.7646 44.4583 42.9457 44.6261 43.241C44.7938 43.5362 44.9481 43.7845 45.0823 43.9857C45.284 44.2591 45.5085 44.515 45.7533 44.7506C46.0525 45.0592 46.383 45.3358 46.7396 45.5759C46.9979 45.7824 47.2793 45.958 47.5783 46.0993C47.8757 46.2487 48.1855 46.3722 48.5042 46.4683C48.7887 46.5594 49.0926 46.5711 49.3832 46.5019C49.524 46.4632 49.6558 46.397 49.771 46.3072C49.8861 46.2174 49.9823 46.1057 50.0541 45.9785C50.1215 45.843 50.1566 45.6937 50.1566 45.5424C50.1566 45.391 50.1215 45.2417 50.0541 45.1062C49.8688 44.6698 49.5946 44.2768 49.249 43.9522L47.8064 42.4291C47.2696 41.8454 46.8469 41.369 46.5383 40.9865C46.2177 40.5913 45.9284 40.1718 45.6728 39.7318C45.4258 39.3495 45.2613 38.9199 45.1897 38.4704C45.1366 38.0538 45.1593 37.631 45.2568 37.2224C45.3803 36.7157 45.5866 36.2329 45.8673 35.7933C46.1999 35.214 46.6829 34.7354 47.2652 34.4082C47.8475 34.0811 48.5075 33.9174 49.1752 33.9347C50.8977 34.0023 52.5542 34.6156 53.9055 35.6859C54.3849 36.0042 54.8341 36.3657 55.2474 36.7662C55.555 37.0588 55.844 37.3703 56.1129 37.6988C56.3008 37.9404 56.5222 38.2624 56.7839 38.665C56.9879 38.9506 57.096 39.2936 57.0925 39.6446C57.0964 39.948 57.0023 40.2445 56.8241 40.49C56.6431 40.7166 56.4139 40.8999 56.1532 41.0268C56.0251 41.0917 55.8849 41.1288 55.7415 41.1357C55.5981 41.1427 55.4549 41.1193 55.3212 41.067C54.9901 40.9425 54.6998 40.7289 54.4825 40.4498C53.8491 39.6453 53.1189 38.9219 52.3086 38.296C52.0012 38.081 51.6832 37.8817 51.3558 37.6988C51.0304 37.5093 50.6649 37.399 50.289 37.3768C50.1386 37.3557 49.9853 37.3772 49.8465 37.4389C49.7078 37.5005 49.5891 37.5999 49.5039 37.7256C49.4156 37.8575 49.3608 38.009 49.3445 38.1669C49.3281 38.3248 49.3506 38.4843 49.41 38.6314C49.6109 39.0502 49.8938 39.4244 50.242 39.7318L51.698 41.2079C52.2034 41.7238 52.6762 42.2705 53.1137 42.8451C53.4622 43.3044 53.7445 43.8103 53.9524 44.3481C54.1567 44.8563 54.2283 45.4081 54.1604 45.9517C54.0706 46.5469 53.8606 47.1176 53.5432 47.6291C53.0628 48.5003 52.2977 49.1801 51.3759 49.5547C50.4646 49.9063 49.4682 49.9741 48.5176 49.7493C47.409 49.4859 46.3612 49.0121 45.4312 48.3537C43.7451 47.2851 42.4123 45.7421 41.6 43.9186V43.9186ZM54.2409 32.2976C54.3065 32.1789 54.3959 32.075 54.5035 31.9924C54.611 31.9098 54.7345 31.8503 54.8661 31.8175C54.9977 31.7848 55.1346 31.7795 55.2683 31.8021C55.4021 31.8246 55.5297 31.8745 55.6432 31.9487C55.8615 32.0886 56.0213 32.3033 56.0928 32.5525C56.1329 32.6878 56.1423 32.8302 56.1202 32.9695C56.0982 33.1089 56.0452 33.2415 55.9653 33.3577L54.0329 36.5112L52.3086 35.4511L54.2409 32.2976ZM45.3373 47.2735L47.0751 48.3403L45.1561 51.467C45.0718 51.631 44.9407 51.7664 44.7795 51.856C44.6183 51.9455 44.4341 51.9853 44.2503 51.9702C44.0714 51.9648 43.8968 51.9139 43.743 51.8224C43.5892 51.7308 43.4613 51.6016 43.3714 51.4468C43.2735 51.2877 43.2256 51.1029 43.234 50.9163C43.2423 50.7296 43.3066 50.5498 43.4183 50.4001L45.3373 47.2735Z" fill="#263238"/>
<path d="M35.7489 51.7484V53.9693" stroke="#263238" stroke-width="0.5" stroke-linecap="round" stroke-linejoin="round"/>
<path d="M37.3191 53.9696V56.3247" stroke="#263238" stroke-width="0.5" stroke-linecap="round" stroke-linejoin="round"/>
<path d="M40.4587 56.5864V58.814" stroke="#263238" stroke-width="0.5" stroke-linecap="round" stroke-linejoin="round"/>
<path d="M44.9072 58.8138V60.7798" stroke="#263238" stroke-width="0.5" stroke-linecap="round" stroke-linejoin="round"/>
<path d="M49.7521 59.7335V60.646" stroke="#263238" stroke-width="0.5" stroke-linecap="round" stroke-linejoin="round"/>
<path d="M59.3063 59.3378V57.902" stroke="#263238" stroke-width="0.5" stroke-linecap="round" stroke-linejoin="round"/>
<path d="M61.4001 57.9017V55.6741" stroke="#263238" stroke-width="0.5" stroke-linecap="round" stroke-linejoin="round"/>
<path d="M53.3107 58.2975C62.8737 56.6216 69.2674 47.5107 67.5915 37.9477C65.9156 28.3847 56.8047 21.9909 47.2417 23.6668C37.6787 25.3427 31.285 34.4536 32.9609 44.0166C34.6367 53.5796 43.7477 59.9734 53.3107 58.2975Z" fill="white" stroke="#263238" stroke-width="0.5" stroke-linecap="round" stroke-linejoin="round"/>
<path d="M53.3127 55.9374C62.8757 54.2615 69.2695 45.1506 67.5936 35.5876C65.9177 26.0246 56.8068 19.6308 47.2438 21.3067C37.6808 22.9826 31.287 32.0935 32.9629 41.6565C34.6388 51.2195 43.7497 57.6133 53.3127 55.9374Z" fill="white" stroke="#263238" stroke-width="0.5" stroke-linecap="round" stroke-linejoin="round"/>
<path d="M64.4092 43.4269C67.0687 35.6148 62.8916 27.1258 55.0794 24.4664C47.2673 21.8069 38.7783 25.984 36.1189 33.7961C33.4594 41.6083 37.6365 50.0972 45.4486 52.7567C53.2608 55.4162 61.7497 51.2391 64.4092 43.4269Z" fill="white" stroke="#263238" stroke-width="0.5" stroke-linecap="round" stroke-linejoin="round"/>
<path d="M41.5997 40.6107C41.4785 40.3243 41.4549 40.006 41.5326 39.7049C41.6026 39.4256 41.7573 39.1748 41.9754 38.9869C42.1913 38.8028 42.4458 38.6698 42.7202 38.5978C43.0021 38.5169 43.3041 38.5456 43.5656 38.6783C43.8722 38.8487 44.1289 39.0961 44.3104 39.3962C44.3507 39.4566 44.458 39.6311 44.6258 39.9263C44.7935 40.2215 44.9478 40.4698 45.082 40.6711C45.2837 40.9445 45.5082 41.2003 45.753 41.436C46.052 41.7467 46.3826 42.0255 46.7393 42.268C46.9994 42.4699 47.2806 42.6431 47.578 42.7846C47.8766 42.9333 48.1861 43.0589 48.5039 43.1603C48.7914 43.2408 49.0954 43.2408 49.3829 43.1603C49.5237 43.1217 49.6555 43.0555 49.7707 42.9657C49.8858 42.8759 49.982 42.7642 50.0538 42.637C50.1211 42.5026 50.1562 42.3545 50.1562 42.2042C50.1562 42.054 50.1211 41.9058 50.0538 41.7714C49.8688 41.3329 49.5946 40.9376 49.2487 40.6107L47.8061 39.0876C47.2693 38.5038 46.8466 38.0275 46.538 37.645C46.216 37.2509 45.9265 36.8313 45.6725 36.3903C45.4255 36.008 45.261 35.5784 45.1894 35.1289C45.1363 34.7123 45.159 34.2895 45.2565 33.8809C45.379 33.376 45.5854 32.8951 45.867 32.4585C46.1993 31.8785 46.682 31.3989 47.2642 31.0706C47.8465 30.7423 48.5066 30.5773 49.1749 30.5932C50.8968 30.664 52.5523 31.2769 53.9052 32.3444C54.3846 32.6626 54.8338 33.0242 55.2471 33.4247C55.553 33.7189 55.842 34.0303 56.1126 34.3573C56.3005 34.5989 56.5219 34.9209 56.7836 35.3302C56.9893 35.615 57.0976 35.9586 57.0922 36.3098C57.0947 36.6109 57.0006 36.9048 56.8239 37.1485C56.6428 37.375 56.4136 37.5584 56.1529 37.6853C56.0253 37.7512 55.8853 37.7895 55.7419 37.7976C55.5985 37.8057 55.4551 37.7834 55.3209 37.7322C54.9911 37.6053 54.7014 37.3921 54.4822 37.115C53.8489 36.3084 53.1188 35.5828 52.3083 34.9545C52.0008 34.7418 51.6828 34.5448 51.3555 34.364C51.0314 34.1714 50.6652 34.0608 50.2887 34.042C50.1381 34.0175 49.9836 34.0375 49.8442 34.0995C49.7048 34.1615 49.5864 34.2627 49.5036 34.3908C49.4153 34.5215 49.3605 34.6718 49.3442 34.8286C49.3278 34.9855 49.3503 35.1439 49.4097 35.29C49.6106 35.7087 49.8935 36.0829 50.2417 36.3903L51.6977 37.8664C52.2015 38.3838 52.6742 38.9304 53.1134 39.5036C53.4605 39.9638 53.7427 40.4695 53.9521 41.0065C54.1564 41.5148 54.228 42.0666 54.1601 42.6101C54.0714 43.2057 53.8613 43.7766 53.5429 44.2875C53.0646 45.1606 52.2988 45.841 51.3756 46.2132C50.4643 46.5648 49.4679 46.6326 48.5173 46.4078C47.4077 46.1474 46.3593 45.6734 45.4309 45.0122C43.7506 43.9516 42.4185 42.4212 41.5997 40.6107ZM54.2406 28.9896C54.3079 28.8617 54.4031 28.7505 54.5193 28.6646C54.6355 28.5786 54.7696 28.52 54.9116 28.4931C55.1644 28.4482 55.4249 28.4984 55.6429 28.634C55.86 28.7783 56.0192 28.9945 56.0925 29.2446C56.1326 29.3798 56.142 29.5223 56.1199 29.6616C56.0979 29.8009 56.0449 29.9335 55.965 30.0497L54.0595 33.1831L52.3351 32.123L54.2406 28.9896ZM45.337 43.999L47.0748 45.0659L45.1558 48.1993C45.0699 48.3615 44.9383 48.495 44.7773 48.5832C44.6163 48.6714 44.433 48.7106 44.25 48.6958C44.0713 48.693 43.8964 48.644 43.7424 48.5534C43.5883 48.4629 43.4604 48.3339 43.3711 48.1791C43.2732 48.02 43.2253 47.8352 43.2337 47.6486C43.242 47.4619 43.3063 47.2821 43.418 47.1324L45.337 43.999Z" fill="#263238"/>
<path d="M35.7489 48.4679V50.6955" stroke="#263238" stroke-width="0.5" stroke-linecap="round" stroke-linejoin="round"/>
<path d="M37.3191 50.6956V53.0506" stroke="#263238" stroke-width="0.5" stroke-linecap="round" stroke-linejoin="round"/>
<path d="M40.4587 53.3124V55.5333" stroke="#263238" stroke-width="0.5" stroke-linecap="round" stroke-linejoin="round"/>
<path d="M44.9072 55.5328V57.4988" stroke="#263238" stroke-width="0.5" stroke-linecap="round" stroke-linejoin="round"/>
<path d="M49.7521 56.4523V57.3648" stroke="#263238" stroke-width="0.5" stroke-linecap="round" stroke-linejoin="round"/>
<path d="M59.3063 56.0563V54.6205" stroke="#263238" stroke-width="0.5" stroke-linecap="round" stroke-linejoin="round"/>
<path d="M61.4001 54.6205V52.3929" stroke="#263238" stroke-width="0.5" stroke-linecap="round" stroke-linejoin="round"/>
<path d="M53.3075 55.012C62.8705 53.3361 69.2643 44.2252 67.5884 34.6622C65.9125 25.0992 56.8015 18.7054 47.2385 20.3813C37.6755 22.0572 31.2818 31.1681 32.9577 40.7311C34.6336 50.2941 43.7445 56.6879 53.3075 55.012Z" fill="white" stroke="#263238" stroke-width="0.5" stroke-linecap="round" stroke-linejoin="round"/>
<path d="M53.3111 52.6652C62.8741 50.9893 69.2679 41.8784 67.592 32.3154C65.9161 22.7524 56.8052 16.3586 47.2422 18.0345C37.6792 19.7104 31.2855 28.8213 32.9614 38.3843C34.6372 47.9473 43.7481 54.3411 53.3111 52.6652Z" fill="white" stroke="#263238" stroke-width="0.5" stroke-linecap="round" stroke-linejoin="round"/>
<path d="M49.4508 50.266C52.7716 50.4491 56.0586 49.5192 58.7912 47.6234C61.5238 45.7276 63.5459 42.9744 64.5371 39.7997C65.5283 36.625 65.4321 33.2103 64.2636 30.0965C63.0951 26.9827 60.9212 24.3477 58.0861 22.6089L57.7305 22.4009" fill="white"/>
<path d="M49.4508 50.266C52.7716 50.4491 56.0586 49.5192 58.7912 47.6234C61.5238 45.7276 63.5459 42.9744 64.5371 39.7997C65.5283 36.625 65.4321 33.2103 64.2636 30.0965C63.0951 26.9827 60.9212 24.3477 58.0861 22.6089L57.7305 22.4009" stroke="#263238" stroke-width="0.5" stroke-linecap="round" stroke-linejoin="round"/>
<path d="M42.4653 48.0853C44.1822 49.1401 46.0948 49.8362 48.088 50.1318Z" fill="white"/>
<path d="M42.4653 48.0853C44.1822 49.1401 46.0948 49.8362 48.088 50.1318" stroke="#263238" stroke-width="0.5" stroke-linecap="round" stroke-linejoin="round"/>
<path d="M56.2867 21.6696C53.0119 20.2307 49.3296 20.0142 45.9088 21.0596C42.4879 22.105 39.5556 24.3428 37.6445 27.3665C35.7335 30.3902 34.9706 33.9992 35.4944 37.5376C36.0181 41.076 37.7939 44.3092 40.499 46.6496" fill="white"/>
<path d="M56.2867 21.6696C53.0119 20.2307 49.3296 20.0142 45.9088 21.0596C42.4879 22.105 39.5556 24.3428 37.6445 27.3665C35.7335 30.3902 34.9706 33.9992 35.4944 37.5376C36.0181 41.076 37.7939 44.3092 40.499 46.6496" stroke="#263238" stroke-width="0.5" stroke-linecap="round" stroke-linejoin="round"/>
<path d="M41.6001 37.3298C41.4783 37.0459 41.4547 36.7295 41.533 36.4307C41.6029 36.1495 41.7575 35.8966 41.9758 35.7061C42.1939 35.5254 42.4477 35.3928 42.7206 35.3169C43.003 35.2345 43.3063 35.2659 43.566 35.4041C43.8746 35.5686 44.1322 35.8146 44.3108 36.1153C44.351 36.1757 44.4584 36.3569 44.6261 36.6454C44.7938 36.9339 44.9482 37.1889 45.0824 37.3902C45.2807 37.6663 45.5054 37.9225 45.7533 38.1551C46.0524 38.4658 46.3829 38.7446 46.7396 38.9871C46.9979 39.1935 47.2794 39.3692 47.5783 39.5104C47.8771 39.657 48.1866 39.7804 48.5043 39.8795C48.7913 39.9631 49.0962 39.9631 49.3832 39.8795C49.5243 39.8433 49.6565 39.7789 49.7718 39.6901C49.8872 39.6013 49.9832 39.4899 50.0542 39.3628C50.1216 39.2273 50.1566 39.078 50.1566 38.9267C50.1566 38.7753 50.1216 38.6261 50.0542 38.4906C49.8704 38.0533 49.596 37.6599 49.249 37.3365L47.7863 35.8671C47.2496 35.2834 46.8269 34.8003 46.5182 34.4245C46.1992 34.0282 45.9099 33.6088 45.6527 33.1698C45.4066 32.7871 45.2421 32.3576 45.1696 31.9084C45.1166 31.4895 45.1393 31.0645 45.2367 30.6537C45.3592 30.1487 45.5656 29.6679 45.8473 29.2313C46.1795 28.6512 46.6622 28.1717 47.2445 27.8434C47.8267 27.5151 48.4869 27.3501 49.1551 27.366C50.877 27.4368 52.5325 28.0497 53.8854 29.1172C54.3648 29.4354 54.814 29.797 55.2273 30.1974C55.5353 30.4921 55.8243 30.8058 56.0929 31.1368C56.2807 31.3716 56.5021 31.7004 56.7638 32.103C56.9687 32.3882 57.0768 32.7315 57.0725 33.0826C57.0749 33.3857 56.9809 33.6818 56.8041 33.928C56.6226 34.1524 56.3934 34.3335 56.1331 34.4581C56.0056 34.524 55.8655 34.5623 55.7221 34.5704C55.5788 34.5785 55.4353 34.5562 55.3011 34.505C54.97 34.3805 54.6797 34.1669 54.4624 33.8877C53.8291 33.0812 53.099 32.3556 52.2885 31.7272C51.981 31.5146 51.663 31.3175 51.3357 31.1368C51.0103 30.9473 50.6448 30.837 50.2689 30.8147C50.1184 30.792 49.9646 30.8128 49.8255 30.8746C49.6864 30.9364 49.5679 31.0367 49.4839 31.1636C49.3955 31.2955 49.3408 31.447 49.3244 31.6049C49.308 31.7628 49.3305 31.9222 49.3899 32.0694C49.5913 32.486 49.8742 32.8579 50.2219 33.1631L51.6779 34.6392C52.1801 35.158 52.6528 35.7046 53.0937 36.2764C53.4422 36.738 53.7245 37.2462 53.9324 37.786C54.1367 38.2919 54.2083 38.8416 54.1404 39.3829C54.0517 39.9784 53.8416 40.5494 53.5231 41.0603C53.0448 41.9348 52.2792 42.6174 51.3559 42.9927C50.4438 43.341 49.4484 43.4088 48.4976 43.1873C47.3899 42.9211 46.3426 42.4475 45.4111 41.7917C43.7313 40.7095 42.4062 39.1581 41.6001 37.3298V37.3298ZM54.241 25.7087C54.3082 25.5814 54.4036 25.4711 54.5198 25.3862C54.6361 25.3013 54.7702 25.2441 54.912 25.2189C55.1639 25.1687 55.4256 25.2166 55.6433 25.3531C55.8603 25.4974 56.0195 25.7136 56.0929 25.9637C56.133 26.0989 56.1424 26.2414 56.1203 26.3807C56.0982 26.52 56.0453 26.6526 55.9654 26.7688L54.033 29.9224L52.3086 28.8622L54.241 25.7087ZM45.3373 40.7249L47.0751 41.7917L45.1562 44.9184C45.0698 45.0807 44.9384 45.2146 44.7777 45.3039C44.6169 45.3932 44.4338 45.4341 44.2504 45.4216C44.0715 45.4162 43.8969 45.3653 43.7431 45.2738C43.5893 45.1822 43.4614 45.053 43.3714 44.8982C43.2735 44.7391 43.2256 44.5543 43.234 44.3677C43.2424 44.1811 43.3066 44.0012 43.4184 43.8515L45.3373 40.7249Z" fill="#263238"/>
<path d="M35.7489 45.1868V47.4143" stroke="#263238" stroke-width="0.5" stroke-linecap="round" stroke-linejoin="round"/>
<path d="M37.3191 47.4141V49.7691" stroke="#263238" stroke-width="0.5" stroke-linecap="round" stroke-linejoin="round"/>
<path d="M40.4587 50.0309V52.2585" stroke="#263238" stroke-width="0.5" stroke-linecap="round" stroke-linejoin="round"/>
<path d="M44.9072 52.2588V54.218" stroke="#263238" stroke-width="0.5" stroke-linecap="round" stroke-linejoin="round"/>
<path d="M49.7521 53.1711V54.0904" stroke="#263238" stroke-width="0.5" stroke-linecap="round" stroke-linejoin="round"/>
<path d="M59.3063 52.7822V51.3396" stroke="#263238" stroke-width="0.5" stroke-linecap="round" stroke-linejoin="round"/>
<path d="M61.4001 51.3397V49.1188" stroke="#263238" stroke-width="0.5" stroke-linecap="round" stroke-linejoin="round"/>
<path d="M97.4841 84.0954C99.145 74.5298 92.7369 65.429 83.1713 63.7681C73.6057 62.1072 64.5048 68.5153 62.8439 78.0809C61.1831 87.6465 67.5911 96.7474 77.1567 98.4083C86.7224 100.069 95.8232 93.6611 97.4841 84.0954Z" fill="white" stroke="#263238" stroke-width="0.5" stroke-linecap="round" stroke-linejoin="round"/>
<path d="M87.3238 94.7987C96.1946 90.8528 100.187 80.463 96.2412 71.5922C92.2954 62.7215 81.9056 58.729 73.0348 62.6748C64.1641 66.6206 60.1716 77.0105 64.1174 85.8813C68.0632 94.752 78.4531 98.7445 87.3238 94.7987Z" fill="white" stroke="#263238" stroke-width="0.5" stroke-linecap="round" stroke-linejoin="round"/>
<path d="M92.8116 83.3933C95.2874 75.5535 90.9389 67.1912 83.0991 64.7154C75.2593 62.2397 66.8969 66.5881 64.4212 74.4279C61.9455 82.2677 66.2939 90.6301 74.1337 93.1059C81.9735 95.5816 90.3359 91.2331 92.8116 83.3933Z" fill="white" stroke="#263238" stroke-width="0.5" stroke-linecap="round" stroke-linejoin="round"/>
<path d="M75.6314 86.4107C75.3514 86.2958 75.116 86.0934 74.9605 85.8337C74.8064 85.5919 74.7314 85.3082 74.7458 85.0218C74.7615 84.7348 74.8418 84.455 74.9806 84.2032C75.1162 83.9461 75.3439 83.7496 75.618 83.653C75.952 83.5436 76.3099 83.5296 76.6513 83.6128C76.7251 83.6128 76.9264 83.6665 77.2552 83.747C77.584 83.8275 77.8725 83.8879 78.1073 83.9281C78.4384 83.9745 78.7727 83.9946 79.107 83.9885C79.538 83.9877 79.9677 83.9405 80.3886 83.8476C80.7148 83.8028 81.0347 83.7194 81.3413 83.5994C81.6544 83.4863 81.9574 83.3471 82.2472 83.1834C82.5112 83.0409 82.7298 82.827 82.8779 82.5661C82.949 82.4372 82.9934 82.2953 83.0084 82.1489C83.0233 82.0025 83.0086 81.8545 82.9651 81.714C82.9129 81.5726 82.8289 81.4452 82.7195 81.3417C82.6101 81.2381 82.4783 81.1611 82.3344 81.1168C81.8922 80.9464 81.4185 80.8731 80.9455 80.9021H78.8454C78.0536 80.9021 77.4095 80.8686 76.9264 80.8283C76.42 80.7902 75.9174 80.7116 75.4235 80.5935C74.9777 80.5045 74.5537 80.329 74.1755 80.0768C73.8369 79.8265 73.546 79.5174 73.3166 79.1643C73.0335 78.7276 72.8249 78.2469 72.6993 77.7419C72.5106 77.1001 72.4983 76.4194 72.6636 75.7712C72.8289 75.123 73.1657 74.5313 73.6387 74.0583C74.8747 72.8554 76.4604 72.0754 78.1677 71.8307C78.7265 71.7118 79.2944 71.64 79.8652 71.616C80.2875 71.5901 80.711 71.5901 81.1334 71.616C81.4353 71.6495 81.8043 71.7032 82.3075 71.7904C82.6539 71.8432 82.9753 72.0027 83.2268 72.2467C83.4504 72.4491 83.5993 72.7209 83.6495 73.0183C83.6954 73.2983 83.677 73.5851 83.5958 73.857C83.5532 73.9955 83.4823 74.1237 83.3876 74.2335C83.2929 74.3432 83.1764 74.432 83.0456 74.4944C82.7295 74.6495 82.376 74.7123 82.0257 74.6756C81.0061 74.5809 79.9787 74.6102 78.9661 74.7628C78.5985 74.8347 78.2355 74.9288 77.8792 75.0446C77.5166 75.1501 77.1835 75.3384 76.9063 75.5948C76.7861 75.6873 76.6951 75.8123 76.644 75.9551C76.5928 76.0978 76.5837 76.2522 76.6178 76.3999C76.6559 76.5506 76.7293 76.69 76.832 76.8067C76.9347 76.9233 77.0636 77.0139 77.2082 77.0709C77.6416 77.2074 78.0971 77.2598 78.5501 77.2252L80.6234 77.185C81.3451 77.1771 82.0666 77.2129 82.7839 77.2923C83.3577 77.3552 83.92 77.4974 84.4546 77.715C84.9595 77.922 85.4063 78.2491 85.7563 78.6678C86.2284 79.3058 86.5365 80.0501 86.6535 80.8352C86.7705 81.6202 86.6928 82.422 86.4272 83.17C86.0535 84.0738 85.4149 84.8434 84.5955 85.3774C83.6402 85.9998 82.5742 86.4326 81.4554 86.6522C79.5318 87.1385 77.5082 87.0545 75.6314 86.4107V86.4107ZM75.9267 69.2408C75.8805 69.1045 75.8655 68.9595 75.883 68.8167C75.9004 68.6738 75.9497 68.5367 76.0273 68.4155C76.1695 68.1992 76.3872 68.0437 76.6379 67.9793C76.8894 67.9206 77.1536 67.954 77.3827 68.0733C77.5112 68.1397 77.6228 68.2347 77.7089 68.351C77.795 68.4674 77.8532 68.6019 77.8792 68.7443L78.832 72.3205L76.8727 72.8438L75.9267 69.2408ZM80.6771 86.0148L82.6497 85.4915L83.5958 89.0409C83.6527 89.2167 83.6577 89.4051 83.61 89.5837C83.5624 89.7622 83.4643 89.9232 83.3274 90.0473C83.201 90.1727 83.0447 90.2638 82.8733 90.3119C82.7019 90.36 82.521 90.3637 82.3478 90.3224C82.1649 90.2833 81.998 90.19 81.8688 90.0548C81.7396 89.9196 81.654 89.7487 81.6231 89.5642L80.6771 86.0148Z" fill="#263238"/>
<path d="M65.6399 88.5983V90.8259" stroke="#263238" stroke-width="0.5" stroke-linecap="round" stroke-linejoin="round"/>
<path d="M67.217 90.8257V93.1808" stroke="#263238" stroke-width="0.5" stroke-linecap="round" stroke-linejoin="round"/>
<path d="M70.3575 93.4425V95.6634" stroke="#263238" stroke-width="0.5" stroke-linecap="round" stroke-linejoin="round"/>
<path d="M74.8062 95.6637V97.6296" stroke="#263238" stroke-width="0.5" stroke-linecap="round" stroke-linejoin="round"/>
<path d="M79.6505 96.5824V97.4949" stroke="#263238" stroke-width="0.5" stroke-linecap="round" stroke-linejoin="round"/>
<path d="M89.2047 96.1865V94.7506" stroke="#263238" stroke-width="0.5" stroke-linecap="round" stroke-linejoin="round"/>
<path d="M91.2986 94.7509V92.5233" stroke="#263238" stroke-width="0.5" stroke-linecap="round" stroke-linejoin="round"/>
<path d="M95.1565 86.9877C96.9774 84.0243 97.8783 80.5873 97.7452 77.1117C97.6121 73.6361 96.451 70.2781 94.4087 67.4626C92.3665 64.6472 89.535 62.5008 86.2725 61.2951C83.01 60.0895 79.4631 59.8787 76.0808 60.6895C72.6985 61.5004 69.6327 63.2963 67.2714 65.8501C64.9102 68.4039 63.3595 71.6008 62.8158 75.0362C62.272 78.4716 62.7596 81.9911 64.2168 85.1492C65.6739 88.3074 68.0352 90.9624 71.0018 92.7781C74.9738 95.2093 79.7482 95.965 84.2769 94.8793C88.8055 93.7937 92.7184 90.9555 95.1565 86.9877V86.9877Z" fill="white" stroke="#263238" stroke-width="0.5" stroke-linecap="round" stroke-linejoin="round"/>
<path d="M97.6993 77.0311C98.5675 67.3613 91.4322 58.8186 81.7624 57.9505C72.0925 57.0824 63.5498 64.2176 62.6817 73.8874C61.8136 83.5573 68.9488 92.1 78.6187 92.9681C88.2885 93.8362 96.8312 86.701 97.6993 77.0311Z" fill="white" stroke="#263238" stroke-width="0.5" stroke-linecap="round" stroke-linejoin="round"/>
<path d="M93.7537 81.674C95.1868 78.5381 95.4914 75.0032 94.6158 71.6684C93.7402 68.3336 91.7384 65.4042 88.9496 63.3768" fill="white"/>
<path d="M93.7537 81.674C95.1868 78.5381 95.4914 75.0032 94.6158 71.6684C93.7402 68.3336 91.7384 65.4042 88.9496 63.3768" stroke="#263238" stroke-width="0.5" stroke-linecap="round" stroke-linejoin="round"/>
<path d="M85.9041 61.6453C83.2815 60.5554 80.4027 60.2355 77.6048 60.723C74.8069 61.2106 72.206 62.4853 70.1066 64.398C68.0072 66.3107 66.4964 68.7821 65.7512 71.5226C65.0059 74.263 65.0571 77.1592 65.8987 79.8716C66.7404 82.5841 68.3376 85.0005 70.5032 86.8378C72.6689 88.6751 75.3133 89.8572 78.1266 90.2455C80.9399 90.6339 83.8057 90.2124 86.3881 89.0306C88.9705 87.8487 91.1627 85.9554 92.7077 83.5724" fill="white"/>
<path d="M85.9041 61.6453C83.2815 60.5554 80.4027 60.2355 77.6048 60.723C74.8069 61.2106 72.206 62.4853 70.1066 64.398C68.0072 66.3107 66.4964 68.7821 65.7512 71.5226C65.0059 74.263 65.0571 77.1592 65.8987 79.8716C66.7404 82.5841 68.3376 85.0005 70.5032 86.8378C72.6689 88.6751 75.3133 89.8572 78.1266 90.2455C80.9399 90.6339 83.8057 90.2124 86.3881 89.0306C88.9705 87.8487 91.1627 85.9554 92.7077 83.5724" stroke="#263238" stroke-width="0.5" stroke-linecap="round" stroke-linejoin="round"/>
<path d="M75.6314 83.0964C75.3519 82.9841 75.1164 82.784 74.9605 82.5261C74.8063 82.2819 74.7313 81.996 74.7458 81.7075C74.7616 81.4226 74.8419 81.145 74.9806 80.8956C75.114 80.6368 75.3425 80.4396 75.618 80.3455C75.9519 80.2369 76.309 80.2206 76.6513 80.2985C76.7251 80.2985 76.9264 80.3522 77.2552 80.4327C77.584 80.5132 77.8725 80.5736 78.1073 80.6139C78.4378 80.6664 78.7724 80.6889 79.107 80.681C79.5381 80.6745 79.9674 80.6251 80.3886 80.5333C80.714 80.4877 81.0335 80.4067 81.3413 80.2918C81.6532 80.1758 81.956 80.0367 82.2472 79.8758C82.5097 79.7314 82.7278 79.5179 82.8779 79.2585C82.949 79.1297 82.9934 78.9878 83.0084 78.8413C83.0233 78.6949 83.0086 78.547 82.9651 78.4064C82.9148 78.264 82.8314 78.1356 82.7217 78.0318C82.6121 77.9279 82.4793 77.8517 82.3344 77.8092C81.8922 77.6388 81.4185 77.5656 80.9455 77.5945H78.8454C78.0536 77.5945 77.4095 77.561 76.9264 77.5207C76.4202 77.4769 75.9179 77.3962 75.4235 77.2792C74.9759 77.1961 74.5508 77.0201 74.1755 76.7625C73.8354 76.5139 73.5442 76.2046 73.3166 75.85C73.0326 75.4138 72.8239 74.933 72.6993 74.4276C72.5106 73.7858 72.4983 73.1051 72.6636 72.4569C72.8289 71.8087 73.1657 71.217 73.6387 70.744C74.8756 69.5435 76.4612 68.766 78.1677 68.5231C78.726 68.4009 79.2941 68.3291 79.8652 68.3084C80.2874 68.2791 80.7112 68.2791 81.1334 68.3084C81.4353 68.3084 81.8043 68.3956 82.3075 68.4828C82.6533 68.5333 82.9746 68.6905 83.2268 68.9324C83.4488 69.1387 83.5973 69.4121 83.6495 69.7107C83.6953 69.9885 83.6769 70.2731 83.5958 70.5427C83.5566 70.687 83.4873 70.8214 83.3925 70.937C83.2977 71.0527 83.1794 71.147 83.0456 71.2137C82.7273 71.362 82.3757 71.4244 82.0257 71.3948C81.0065 71.2945 79.9787 71.3216 78.9661 71.4753C78.6172 71.5514 78.2549 71.6453 77.8792 71.7571C77.5162 71.8651 77.1832 72.0557 76.9063 72.314C76.7861 72.4065 76.6951 72.5316 76.644 72.6743C76.5928 72.817 76.5837 72.9714 76.6178 73.1192C76.6549 73.2703 76.7279 73.4102 76.8307 73.5271C76.9335 73.6439 77.063 73.7341 77.2082 73.7902C77.6409 73.9299 78.097 73.9824 78.5501 73.9445L80.6234 73.9109C81.345 73.8978 82.0667 73.9314 82.7839 74.0116C83.3574 74.0799 83.9193 74.2243 84.4546 74.441C84.9626 74.6425 85.4106 74.9705 85.7563 75.3938C86.2295 76.0313 86.5382 76.7756 86.6553 77.5609C86.7723 78.3461 86.694 79.1481 86.4272 79.8959C86.0535 80.798 85.4147 81.5654 84.5955 82.0967C83.6417 82.7218 82.575 83.1548 81.4554 83.3715C79.5292 83.8536 77.5036 83.758 75.6314 83.0964V83.0964ZM75.9267 65.9265C75.8805 65.7902 75.8655 65.6452 75.883 65.5024C75.9004 65.3595 75.9497 65.2224 76.0273 65.1012C76.1679 64.8869 76.384 64.7334 76.6327 64.6712C76.8814 64.609 77.1443 64.6428 77.3692 64.7657C77.4978 64.8321 77.6094 64.9272 77.6955 65.0435C77.7816 65.1598 77.8398 65.2943 77.8658 65.4367L78.8185 69.0129L76.8593 69.5296L75.9267 65.9265ZM80.6771 82.7005L82.6497 82.1772L83.5958 85.7199C83.6536 85.8956 83.659 86.0843 83.6113 86.263C83.5636 86.4417 83.465 86.6027 83.3274 86.7263C83.201 86.8517 83.0447 86.9428 82.8733 86.9909C82.7019 87.039 82.521 87.0427 82.3478 87.0014C82.1646 86.9653 81.997 86.8739 81.8674 86.7395C81.7378 86.6052 81.6526 86.4343 81.6231 86.2499L80.6771 82.7005Z" fill="#263238"/>
<path d="M65.6399 85.2837V87.5113" stroke="#263238" stroke-width="0.5" stroke-linecap="round" stroke-linejoin="round"/>
<path d="M67.217 87.511V89.8661" stroke="#263238" stroke-width="0.5" stroke-linecap="round" stroke-linejoin="round"/>
<path d="M70.3575 90.1281V92.3557" stroke="#263238" stroke-width="0.5" stroke-linecap="round" stroke-linejoin="round"/>
<path d="M74.8062 92.3553V94.3145" stroke="#263238" stroke-width="0.5" stroke-linecap="round" stroke-linejoin="round"/>
<path d="M79.6505 93.2681V94.1873" stroke="#263238" stroke-width="0.5" stroke-linecap="round" stroke-linejoin="round"/>
<path d="M89.2047 92.8791V91.4365" stroke="#263238" stroke-width="0.5" stroke-linecap="round" stroke-linejoin="round"/>
<path d="M91.2986 91.4365V89.2156" stroke="#263238" stroke-width="0.5" stroke-linecap="round" stroke-linejoin="round"/>
<path d="M61.7134 105.068C69.7242 99.5832 71.7717 88.6425 66.2866 80.6317C60.8015 72.6209 49.8609 70.5734 41.8501 76.0586C33.8392 81.5437 31.7918 92.4843 37.2769 100.495C42.762 108.506 53.7026 110.553 61.7134 105.068Z" fill="white" stroke="#263238" stroke-width="0.5" stroke-linecap="round" stroke-linejoin="round"/>
<path d="M55.9216 105.337C65.3561 103.046 71.147 93.5405 68.8558 84.106C66.5646 74.6715 57.0591 68.8806 47.6246 71.1718C38.19 73.463 32.3992 82.9685 34.6904 92.403C36.9816 101.838 46.4871 107.628 55.9216 105.337Z" fill="white" stroke="#263238" stroke-width="0.5" stroke-linecap="round" stroke-linejoin="round"/>
<path d="M58.6486 101.501C61.0014 100.285 62.9888 98.4663 64.4071 96.23C65.8254 93.9936 66.6236 91.4204 66.7198 88.7739C66.8161 86.1275 66.207 83.503 64.955 81.1695C63.7029 78.836 61.853 76.8774 59.5947 75.4943C59.1314 75.2075 58.652 74.9476 58.1588 74.7159" fill="white"/>
<path d="M58.6486 101.501C61.0014 100.285 62.9888 98.4663 64.4071 96.23C65.8254 93.9936 66.6236 91.4204 66.7198 88.7739C66.8161 86.1275 66.207 83.503 64.955 81.1695C63.7029 78.836 61.853 76.8774 59.5947 75.4943C59.1314 75.2075 58.652 74.9476 58.1588 74.7159" stroke="#263238" stroke-width="0.5" stroke-linecap="round" stroke-linejoin="round"/>
<path d="M51.631 103.171C53.2222 103.197 54.8074 102.971 56.3277 102.5Z" fill="white"/>
<path d="M51.631 103.171C53.2222 103.197 54.8074 102.971 56.3277 102.5" stroke="#263238" stroke-width="0.5" stroke-linecap="round" stroke-linejoin="round"/>
<path d="M43.9956 100.95C45.6801 101.98 47.5527 102.664 49.5042 102.963Z" fill="white"/>
<path d="M43.9956 100.95C45.6801 101.98 47.5527 102.664 49.5042 102.963" stroke="#263238" stroke-width="0.5" stroke-linecap="round" stroke-linejoin="round"/>
<path d="M55.9782 73.8841C52.9057 72.9881 49.6268 73.1019 46.6237 74.2087C43.6207 75.3155 41.0522 77.3569 39.296 80.0325C37.5398 82.7081 36.6887 85.8766 36.8678 89.0721C37.0469 92.2676 38.2469 95.3212 40.2911 97.7837" fill="white"/>
<path d="M55.9782 73.8841C52.9057 72.9881 49.6268 73.1019 46.6237 74.2087C43.6207 75.3155 41.0522 77.3569 39.296 80.0325C37.5398 82.7081 36.6887 85.8766 36.8678 89.0721C37.0469 92.2676 38.2469 95.3212 40.2911 97.7837" stroke="#263238" stroke-width="0.5" stroke-linecap="round" stroke-linejoin="round"/>
<path d="M43.1027 90.215C42.9848 89.9279 42.9613 89.6106 43.0356 89.3092C43.1056 89.03 43.2603 88.7792 43.4784 88.5913C43.6972 88.4063 43.9536 88.2712 44.2299 88.1954C44.5107 88.1203 44.8093 88.1514 45.0686 88.2827C45.3802 88.4461 45.6386 88.6952 45.8134 89.0006C45.8536 89.061 45.961 89.2354 46.1354 89.5307C46.3099 89.8259 46.4575 90.0741 46.585 90.2754C46.7867 90.5488 47.0111 90.8047 47.2559 91.0403C47.5558 91.3528 47.8888 91.6317 48.249 91.8723C48.5067 92.0742 48.7857 92.2474 49.0809 92.3889C49.3784 92.5384 49.6882 92.6619 50.0069 92.758C50.2939 92.8413 50.5988 92.8413 50.8858 92.758C51.0267 92.7193 51.1585 92.6532 51.2736 92.5633C51.3888 92.4735 51.485 92.3618 51.5568 92.2346C51.6241 92.1003 51.6592 91.9521 51.6592 91.8018C51.6592 91.6516 51.6241 91.5034 51.5568 91.3691C51.3614 90.9263 51.0704 90.5321 50.7047 90.215L49.2621 88.6919C48.7253 88.1082 48.3026 87.6318 47.994 87.2494C47.672 86.8553 47.3825 86.4357 47.1285 85.9947C46.8871 85.6095 46.723 85.1811 46.6454 84.7333C46.5957 84.3165 46.6184 83.8943 46.7124 83.4853C46.836 82.9786 47.0423 82.4957 47.323 82.0561C47.6572 81.4768 48.1415 80.9984 48.7249 80.6713C49.3082 80.3442 49.969 80.1805 50.6376 80.1976C52.359 80.2706 54.0139 80.8833 55.3679 81.9488C55.8463 82.2684 56.2953 82.6299 56.7098 83.029C57.021 83.3181 57.3103 83.6298 57.5753 83.9616C57.7632 84.2032 57.9913 84.5253 58.2463 84.9346C58.4462 85.2193 58.5518 85.5595 58.5482 85.9074C58.5572 86.2115 58.4626 86.5096 58.2799 86.7529C58.101 86.9816 57.8713 87.1654 57.6089 87.2896C57.4801 87.3559 57.3386 87.3938 57.1939 87.4007C57.0492 87.4077 56.9047 87.3835 56.7702 87.3299C56.4394 87.2082 56.149 86.9967 55.9315 86.7193C55.2988 85.9144 54.5711 85.189 53.7643 84.5588C53.469 84.3575 53.1537 84.1562 52.8048 83.9616C52.4802 83.7711 52.114 83.6629 51.738 83.6463C51.589 83.6217 51.4361 83.641 51.298 83.7017C51.1598 83.7625 51.0422 83.8621 50.9596 83.9885C50.8691 84.1193 50.8125 84.2706 50.7949 84.4287C50.7773 84.5868 50.7994 84.7468 50.859 84.8943C51.0623 85.3116 51.3449 85.6853 51.691 85.9947L53.147 87.4708C53.6527 87.9863 54.1255 88.5331 54.5627 89.1079C54.9098 89.5682 55.192 90.0739 55.4014 90.6109C55.6057 91.1191 55.6773 91.671 55.6094 92.2145C55.4779 92.997 55.1557 93.7351 54.6712 94.3635C54.1867 94.9919 53.5549 95.4913 52.8316 95.8176C51.9203 96.1691 50.9239 96.237 49.9733 96.0122C48.8626 95.7489 47.8126 95.2752 46.8802 94.6165C45.2215 93.5459 43.9093 92.0169 43.1027 90.215ZM55.7436 78.5873C55.8127 78.4614 55.9087 78.3523 56.0246 78.2677C56.1406 78.1831 56.2737 78.1249 56.4146 78.0974C56.6674 78.0505 56.9286 78.1009 57.1459 78.2383C57.3643 78.3798 57.5222 78.5974 57.5888 78.8489C57.6283 78.9827 57.638 79.1236 57.6171 79.2616C57.5963 79.3995 57.5453 79.5312 57.468 79.6474L55.5356 82.8344L53.8112 81.7743L55.7436 78.5873ZM46.8601 93.6034L48.6046 94.6702L46.6789 97.7969C46.5935 97.9615 46.4612 98.0971 46.2988 98.1867C46.1364 98.2762 45.9512 98.3157 45.7664 98.3001C45.5876 98.2941 45.4133 98.243 45.2596 98.1515C45.1059 98.06 44.9779 97.9311 44.8874 97.7768C44.7913 97.6171 44.7444 97.4326 44.7528 97.2463C44.7611 97.0601 44.8243 96.8805 44.9344 96.7301L46.8601 93.6034Z" fill="#263238"/>
<path d="M37.2522 98.0719V100.293" stroke="#263238" stroke-width="0.5" stroke-linecap="round" stroke-linejoin="round"/>
<path d="M38.8219 100.293V102.655" stroke="#263238" stroke-width="0.5" stroke-linecap="round" stroke-linejoin="round"/>
<path d="M41.9625 102.916V105.137" stroke="#263238" stroke-width="0.5" stroke-linecap="round" stroke-linejoin="round"/>
<path d="M46.411 105.137V107.103" stroke="#263238" stroke-width="0.5" stroke-linecap="round" stroke-linejoin="round"/>
<path d="M51.2549 106.057V106.969" stroke="#263238" stroke-width="0.5" stroke-linecap="round" stroke-linejoin="round"/>
<path d="M60.8101 105.66V104.225" stroke="#263238" stroke-width="0.5" stroke-linecap="round" stroke-linejoin="round"/>
<path d="M62.903 104.225V101.997" stroke="#263238" stroke-width="0.5" stroke-linecap="round" stroke-linejoin="round"/>
</svg>
