<svg width="130" height="130" viewBox="0 0 130 130" fill="none" xmlns="http://www.w3.org/2000/svg">
<path d="M119.823 81.3053C119.823 81.3053 117.931 97.801 103.913 104.848C89.8943 111.894 76.1644 105.04 63.5622 103.389C56.9618 102.523 50.8397 105.77 44.3649 106.448C23.6686 108.621 7.42409 84.2314 10.3395 66.2901C12.8621 50.7565 22.7867 39.795 40.8723 31.9707C58.958 24.1464 71.3972 17.9255 92.4035 25.2901C113.41 32.6548 121.32 59.9489 119.823 81.3053Z" fill="#5CB0FF"/>
<path opacity="0.8" d="M119.823 81.3053C119.823 81.3053 117.931 97.801 103.913 104.848C89.8943 111.894 76.1644 105.04 63.5622 103.389C56.9618 102.523 50.8397 105.77 44.3649 106.448C23.6686 108.621 7.42409 84.2314 10.3395 66.2901C12.8621 50.7565 22.7867 39.795 40.8723 31.9707C58.958 24.1464 71.3972 17.9255 92.4035 25.2901C113.41 32.6548 121.32 59.9489 119.823 81.3053Z" fill="white"/>
<path d="M67.0611 45.8938C67.0611 45.8938 69.1468 42.2897 69.9182 43.8081C70.6896 45.3265 70.4896 48.5469 69.3509 50.0653C68.2121 51.5836 67.8325 52.3387 67.2652 51.1999C66.6978 50.0612 67.0611 45.8938 67.0611 45.8938Z" fill="white" stroke="#263238" stroke-width="0.5" stroke-linecap="round" stroke-linejoin="round"/>
<path d="M42.2242 48.7348C42.2242 48.7348 39.7753 45.7021 39.1875 47.7878C38.5998 49.8735 41.4651 52.5266 42.2242 52.9062C42.8277 53.1354 43.4809 53.2016 44.1181 53.098L42.2242 48.7348Z" fill="white" stroke="#263238" stroke-width="0.5" stroke-linecap="round" stroke-linejoin="round"/>
<path d="M51.3019 61.7552C51.3019 61.7552 24.6529 69.8287 24.6529 71.3429C24.6529 72.8572 23.8896 102.714 24.4978 104.404C25.1059 106.094 30.1345 107.751 32.8774 107.751V108.363H91.3549L88.4692 92.2164C88.4692 92.2164 104.918 91.6042 105.204 90.3878C105.49 89.1715 90.7753 64.8123 89.4039 64.045C88.0325 63.2776 67.1427 60.996 64.706 60.996C62.2692 60.996 57.0896 59.9144 51.3019 61.7552Z" fill="white"/>
<path d="M51.3019 61.7552C51.3019 61.7552 24.6529 69.8287 24.6529 71.3429C24.6529 72.8572 23.8896 102.714 24.4978 104.404C25.1059 106.094 30.1345 107.751 32.8774 107.751V108.363V115L66.0004 122.5L91.3549 108.363L88.4692 92.2164C88.4692 92.2164 104.918 91.6042 105.204 90.3878C105.49 89.1715 90.7753 64.8123 89.4039 64.045C88.0325 63.2776 67.1427 60.996 64.706 60.996C62.2692 60.996 57.0896 59.9144 51.3019 61.7552Z" stroke="#263238" stroke-width="0.5" stroke-linecap="round" stroke-linejoin="round"/>
<path d="M87.9469 84.7143L83.5796 71.6163" stroke="#263238" stroke-width="0.5" stroke-linecap="round" stroke-linejoin="round"/>
<path d="M29.7266 71.9061C29.7266 71.9061 37.0041 75.9878 39.3347 85.5878" stroke="#263238" stroke-width="0.5" stroke-linecap="round" stroke-linejoin="round"/>
<path d="M29.6938 90.0817C29.6938 90.0817 24.8204 93.2817 23.7551 94.0408C22.6898 94.8 22.3836 102.878 23.4489 105.159C24.5142 107.441 29.0857 108.51 32.1306 106.988C35.1755 105.465 36.5469 98.3061 35.4816 94.6531C34.4163 91 29.6938 90.0817 29.6938 90.0817Z" fill="#263238" stroke="#263238" stroke-width="0.5" stroke-linecap="round" stroke-linejoin="round"/>
<path d="M47.4978 63.2775C47.4978 63.2775 47.9549 70.5877 49.3223 75.4612C50.6896 80.3347 53.2815 86.7306 53.2815 86.7306L61.9631 79.8775L73.6896 82.7714C73.6896 82.7714 71.408 70.7428 69.7305 66.7836C68.0529 62.8244 64.706 59.6245 64.706 59.6245C64.706 59.6245 51.9141 57.9469 47.4978 63.2775Z" fill="#263238" stroke="#263238" stroke-width="0.5" stroke-linecap="round" stroke-linejoin="round"/>
<path d="M49.1713 62.0612C49.1713 62.0612 51.3019 67.3918 53.5876 71.9592C55.8733 76.5265 61.3427 82.9265 62.7264 81.5551C64.11 80.1837 65.4651 69.5225 65.4651 67.0857V59.7755C65.4651 59.7755 61.2039 63.2775 57.8529 63.2775C54.5019 63.2775 49.1713 62.0612 49.1713 62.0612Z" fill="white"/>
<path d="M49.1713 62.0612C49.1713 62.0612 51.3019 67.3918 53.5876 71.9592C55.8733 76.5265 61.3427 82.9265 62.7264 81.5551C64.11 80.1837 65.4651 69.5225 65.4651 67.0857V59.7755C65.4651 59.7755 61.2039 63.2775 57.8529 63.2775C54.5019 63.2775 49.1713 62.0612 49.1713 62.0612Z" stroke="#263238" stroke-width="0.5" stroke-linecap="round" stroke-linejoin="round"/>
<path d="M41.6529 47.2205C41.6529 47.2205 44.8774 57.8327 46.959 60.6898C49.0407 63.547 54.7345 66.3796 58.906 66.1878C63.0774 65.996 66.4896 61.8286 67.2488 57.6572C68.008 53.4858 67.4366 44.0041 67.4366 44.0041C67.4366 44.0041 66.6815 39.8327 63.457 34.3347C60.2325 28.8368 43.9264 33.3837 42.2325 37.5551C40.5386 41.7266 41.6529 47.2205 41.6529 47.2205Z" fill="white" stroke="#263238" stroke-width="0.5" stroke-linecap="round" stroke-linejoin="round"/>
<path d="M54.5468 55.5633C54.5468 55.5633 56.4447 58.2164 58.7182 55.3715" stroke="#263238" stroke-width="0.5" stroke-linecap="round" stroke-linejoin="round"/>
<path d="M48.6692 51.3919C48.6692 51.3919 50.3753 49.8735 52.6529 51.3919" stroke="#263238" stroke-width="0.5" stroke-linecap="round" stroke-linejoin="round"/>
<path d="M59.2897 50.2531C59.2897 50.2531 60.0489 48.7347 62.8897 48.7347" stroke="#263238" stroke-width="0.5" stroke-linecap="round" stroke-linejoin="round"/>
<path d="M47.7224 48.3551C47.7224 48.3551 48.8612 46.4613 52.653 46.0817" stroke="#263238" stroke-width="0.5" stroke-linecap="round" stroke-linejoin="round"/>
<path d="M58.3223 47.7755C58.3223 47.7755 60.1672 43.9428 63.461 45.1347" stroke="#263238" stroke-width="0.5" stroke-linecap="round" stroke-linejoin="round"/>
<path d="M58.9102 59.9143C58.9324 60.1249 58.8904 60.3372 58.7896 60.5235C58.6889 60.7097 58.5342 60.8611 58.3457 60.9578C58.1573 61.0544 57.9441 61.0918 57.734 61.065C57.524 61.0381 57.327 60.9484 57.1689 60.8074C57.0109 60.6665 56.8992 60.4811 56.8485 60.2755C56.7978 60.0699 56.8105 59.8538 56.885 59.6556C56.9595 59.4573 57.0922 59.2863 57.2657 59.1649C57.4392 59.0435 57.6454 58.9775 57.8571 58.9755C58.1211 58.961 58.38 59.0516 58.5774 59.2275C58.7747 59.4035 58.8944 59.6504 58.9102 59.9143V59.9143Z" fill="#263238"/>
<path d="M52.7672 51.9591C52.768 52.0731 52.735 52.1848 52.6722 52.28C52.6095 52.3751 52.5199 52.4495 52.4148 52.4937C52.3097 52.5379 52.1939 52.5499 52.082 52.5282C51.97 52.5064 51.8671 52.4519 51.7862 52.3716C51.7053 52.2913 51.6501 52.1887 51.6276 52.077C51.605 51.9652 51.6162 51.8493 51.6596 51.7439C51.7031 51.6385 51.7768 51.5484 51.8715 51.485C51.9663 51.4216 52.0777 51.3877 52.1917 51.3877C52.3436 51.3877 52.4894 51.4478 52.5972 51.5548C52.705 51.6619 52.7661 51.8072 52.7672 51.9591V51.9591Z" fill="#263238"/>
<path d="M62.7549 49.8164C62.7549 49.9304 62.721 50.0418 62.6576 50.1365C62.5942 50.2312 62.5041 50.305 62.3987 50.3484C62.2933 50.3919 62.1774 50.403 62.0656 50.3805C61.9539 50.358 61.8513 50.3027 61.771 50.2218C61.6907 50.1409 61.6362 50.038 61.6144 49.9261C61.5927 49.8142 61.6047 49.6984 61.6489 49.5933C61.6931 49.4882 61.7675 49.3986 61.8626 49.3359C61.9578 49.2731 62.0695 49.2401 62.1835 49.2409C62.2589 49.2409 62.3335 49.2558 62.4031 49.2847C62.4727 49.3137 62.5359 49.3562 62.589 49.4097C62.6421 49.4632 62.6841 49.5266 62.7126 49.5964C62.7411 49.6662 62.7554 49.741 62.7549 49.8164Z" fill="#263238"/>
<path d="M50.5673 24.2776H43.9305C40.1387 24.2776 35.2081 34.3265 35.3958 39.0653C35.5836 43.8041 39.7591 46.8408 40.8979 47.4082C42.0366 47.9755 44.1183 48.9265 44.1183 48.3551C44.1183 47.7837 46.3958 43.2367 46.3958 43.2367C46.3958 43.2367 45.8244 45.8939 47.3428 45.8939C48.8611 45.8939 53.5999 40.9633 53.5999 40.9633C53.5999 40.9633 53.7917 44.9429 55.306 44.9429C56.8203 44.9429 60.0489 39.0653 60.0489 39.0653L63.4611 42.8571L64.5999 40.5837C64.5999 40.5837 65.9264 45.8898 67.0489 45.8898C68.1713 45.8898 69.1346 43.2327 69.706 40.5837C70.2775 37.9347 71.4122 33.5673 69.5142 29.5837C67.6162 25.6 62.1224 22 57.5713 22C53.0203 22 50.5673 24.2776 50.5673 24.2776Z" fill="#263238" stroke="#263238" stroke-width="0.5" stroke-linecap="round" stroke-linejoin="round"/>
<path d="M48.2203 25.7918C48.2203 25.7918 43.5509 26.3306 41.3958 27.7674C40.1615 28.5584 39.1721 29.6778 38.5387 31L43.2081 28.8449C43.2081 28.8449 40.155 31.1796 39.7958 32.2572C39.4907 33.3795 39.2521 34.5189 39.0816 35.6694L41.9387 34.7714C41.9387 34.7714 40.7509 35.7674 40.8611 36.747C40.9714 37.7265 41.3999 39.9796 41.3999 39.9796L44.8122 36.747L45.7101 39.0816L48.5673 36.747L48.7469 38.5429L50.7224 35.849L52.355 37.4816L53.4326 35.5061C53.4326 35.5061 54.3305 36.4041 54.6897 34.249C55.0489 32.0939 55.2285 31.1959 55.2285 31.1959L57.204 33.5306L57.9224 36.5837L58.4611 33.351L60.0938 34.7878L60.6326 32.0939L62.6081 33.1714L63.3265 30.6572L67.6367 32.0939C67.6367 32.0939 66.3795 27.6041 65.302 26.3469C64.2244 25.0898 59.0162 24.551 59.0162 24.551L58.4775 23.6531C58.4775 23.6531 52.355 24.9102 51.653 25.2857C51.0579 25.6341 50.5093 26.0565 50.0203 26.5429" stroke="#6B6B6B" stroke-width="0.5" stroke-linecap="round" stroke-linejoin="round"/>
<path d="M36.9877 58.2531C36.3096 57.4995 35.9306 56.5239 35.9224 55.5102C35.9224 53.8368 37.7509 50.2041 38.2081 50.2041C38.6652 50.2041 39.5754 51.1143 39.5754 51.1143C39.5754 51.1143 38.8162 54.7878 38.5101 56.1429C38.2737 57.0069 37.733 57.7563 36.9877 58.2531V58.2531Z" fill="white" stroke="#263238" stroke-width="0.5" stroke-linecap="round" stroke-linejoin="round"/>
<path d="M38.053 59.7755C38.053 59.7755 36.5305 57.9469 36.5305 57.1877C36.5305 56.4286 38.9795 51.0939 39.5754 51.0939C40.1713 51.0939 42.0244 51.8571 42.4693 52.1633C42.9142 52.4694 42.7754 53.9877 42.7754 55.0571C42.7754 56.1265 40.0326 60.8408 40.0326 60.8408L38.053 59.7755Z" fill="white" stroke="#263238" stroke-width="0.5" stroke-linecap="round" stroke-linejoin="round"/>
<path d="M41.2531 51.8571C41.2531 51.8571 37.4449 58.7101 38.0531 59.7754C38.6613 60.8407 44.7551 67.3917 44.7551 67.3917C44.7551 67.3917 27.3919 93.2815 25.7184 95.8693C24.0449 98.457 23.7388 102.265 24.4939 104.4C25.249 106.535 29.8245 108.51 33.0245 108.359C36.2245 108.208 38.6572 104.245 39.5551 100.604C40.4531 96.9632 48.7143 70.1183 49.4776 67.9999C50.2408 65.8815 51.3021 64.1917 50.2368 63.1264C49.1715 62.0611 45.0612 58.1019 45.0612 58.1019C45.0612 58.1019 46.2857 57.0366 46.1266 55.8162C45.9674 54.5958 43.3837 52.1591 41.2531 51.8571Z" fill="white"/>
<path d="M41.2531 51.8571C41.2531 51.8571 37.4449 58.7101 38.0531 59.7754C38.6613 60.8407 44.7551 67.3917 44.7551 67.3917C44.7551 67.3917 27.3919 93.2815 25.7184 95.8693C24.0449 98.457 23.7388 102.265 24.4939 104.4C25.249 106.535 29.8245 108.51 33.0245 108.359C36.2245 108.208 38.6572 104.245 39.5551 100.604C40.4531 96.9632 48.7143 70.1183 49.4776 67.9999C50.2408 65.8815 51.3021 64.1917 50.2368 63.1264C49.1715 62.0611 45.0612 58.1019 45.0612 58.1019C45.0612 58.1019 46.2857 57.0366 46.1266 55.8162C45.9674 54.5958 43.3837 52.1591 41.2531 51.8571Z" stroke="#263238" stroke-width="0.5" stroke-linecap="round" stroke-linejoin="round"/>
<path d="M43.5346 55.2083L42.7754 57.0572L45.0611 58.1225L45.1591 58.245" stroke="#263238" stroke-width="0.5" stroke-linecap="round" stroke-linejoin="round"/>
<path d="M88.9182 83.3837C88.9182 83.3837 90.2896 81.098 91.9672 80.4898C93.6447 79.8817 100.192 79.2653 102.779 80.1837C105.367 81.1021 106.89 84.449 107.347 86.2735C107.804 88.098 107.653 90.6939 106.122 92.0613C104.592 93.4286 102.62 93.1306 100.486 92.5184C98.3509 91.9061 94.0896 89.4735 91.8039 88.1021C89.5182 86.7306 89.0733 84.2939 88.9182 83.3837Z" fill="#263238" stroke="#263238" stroke-width="0.5" stroke-linecap="round" stroke-linejoin="round"/>
<path d="M67.6 80.7918C67.6 80.7918 55.5674 90.6939 53.8939 91.6041C52.2204 92.5143 52.9796 94.1959 53.5878 94.8041C54.1959 95.4122 58.1551 99.0694 59.9837 100.286C61.8123 101.502 64.4 99.3714 65.0082 99.0612C65.6163 98.751 64.8572 97.3837 64.8572 97.3837C64.8572 97.3837 69.5796 94.7959 70.3388 92.3592C70.8487 90.468 71.1552 88.5277 71.2531 86.5714C71.2531 86.5714 90.4367 94.3265 95.0123 96.0122C99.5878 97.698 102.473 97.8408 104.608 95.7102C106.743 93.5796 106.89 89.1592 105.833 86.8775C104.776 84.5959 98.0776 82.4612 95.0204 82.4612C91.9633 82.4612 70.347 79.8694 68.9796 80.3265L67.6 80.7918Z" fill="white"/>
<path d="M67.6 80.7918C67.6 80.7918 55.5674 90.6939 53.8939 91.6041C52.2204 92.5143 52.9796 94.1959 53.5878 94.8041C54.1959 95.4122 58.1551 99.0694 59.9837 100.286C61.8123 101.502 64.4 99.3714 65.0082 99.0612C65.6163 98.751 64.8572 97.3837 64.8572 97.3837C64.8572 97.3837 69.5796 94.7959 70.3388 92.3592C70.8487 90.468 71.1552 88.5277 71.2531 86.5714C71.2531 86.5714 90.4367 94.3265 95.0123 96.0122C99.5878 97.698 102.473 97.8408 104.608 95.7102C106.743 93.5796 106.89 89.1592 105.833 86.8775C104.776 84.5959 98.0776 82.4612 95.0204 82.4612C91.9633 82.4612 70.347 79.8694 68.9796 80.3265L67.6 80.7918Z" stroke="#263238" stroke-width="0.5" stroke-linecap="round" stroke-linejoin="round"/>
<path d="M64.857 97.3918L62.8774 98.3061" stroke="#263238" stroke-width="0.5" stroke-linecap="round" stroke-linejoin="round"/>
<path d="M70.4938 83.9918L71.253 86.5795L73.3877 87.6449L72.1672 82.6204L70.4938 83.9918Z" fill="#263238" stroke="#263238" stroke-width="0.5" stroke-linecap="round" stroke-linejoin="round"/>
<path d="M70.2653 84.6001C72.2422 84.6001 73.8449 83.3391 73.8449 81.7837C73.8449 80.2283 72.2422 78.9674 70.2653 78.9674C68.2883 78.9674 66.6857 80.2283 66.6857 81.7837C66.6857 83.3391 68.2883 84.6001 70.2653 84.6001Z" fill="white" stroke="#263238" stroke-width="0.5" stroke-linecap="round" stroke-linejoin="round"/>
</svg>
