<svg width="130" height="130" viewBox="0 0 130 130" fill="none" xmlns="http://www.w3.org/2000/svg">
<path d="M12.5683 83.3885C15.4005 77.9425 16.7285 72.6711 15.17 66.6393C13.5187 60.2839 10.3409 53.5272 11.3298 46.8062C12.8211 36.8071 19.932 26.7239 29.1005 20.6694C37.9363 14.8447 48.6858 12.7381 58.168 18.0515C65.9797 22.433 70.8953 31.6425 80.3679 32.9369C91.431 34.4643 95.9113 26.6009 108.168 31.7364C112.988 33.7556 117.129 37.4252 119.049 42.415C121.199 48.065 119.343 52.2879 117.049 57.5527C114.578 63.2657 113.416 69.4692 113.65 75.6999C113.852 81.2205 116.069 86.3786 116.079 91.8797C116.098 101.588 110.245 111.237 100.718 113.884C88.7716 117.204 77.1197 99.0829 63.9764 97.8759C57.1216 97.2449 53.5085 102.827 49.0378 106.959C43.6807 111.913 36.589 115.308 29.219 114.978C13.4707 114.282 5.56302 96.8501 12.5683 83.3885Z" fill="#5CB0FF"/>
<path opacity="0.7" d="M12.5683 83.3885C15.4005 77.9425 16.7285 72.6711 15.17 66.6393C13.5187 60.2839 10.3409 53.5272 11.3298 46.8062C12.8211 36.8071 19.932 26.7239 29.1005 20.6694C37.9363 14.8447 48.6858 12.7381 58.168 18.0515C65.9797 22.433 70.8953 31.6425 80.3679 32.9369C91.431 34.4643 95.9113 26.6009 108.168 31.7364C112.988 33.7556 117.129 37.4252 119.049 42.415C121.199 48.065 119.343 52.2879 117.049 57.5527C114.578 63.2657 113.416 69.4692 113.65 75.6999C113.852 81.2205 116.069 86.3786 116.079 91.8797C116.098 101.588 110.245 111.237 100.718 113.884C88.7716 117.204 77.1197 99.0829 63.9764 97.8759C57.1216 97.2449 53.5085 102.827 49.0378 106.959C43.6807 111.913 36.589 115.308 29.219 114.978C13.4707 114.282 5.56302 96.8501 12.5683 83.3885Z" fill="white"/>
<path d="M39.2014 57.5679C40.5663 50.5848 37.2562 44.0605 31.8079 42.9955C26.3597 41.9306 20.8365 46.7282 19.4715 53.7114C18.1065 60.6945 21.4167 67.2188 26.8649 68.2837C32.3132 69.3487 37.8364 64.5511 39.2014 57.5679Z" fill="white" stroke="#263238" stroke-width="0.5" stroke-miterlimit="10"/>
<path d="M77.089 43.4801C77.089 43.4801 85.0967 31.1155 94.4268 33.1164C100.64 34.4504 96.9894 46.2728 96.9894 46.2728" fill="white"/>
<path d="M77.089 43.4801C77.089 43.4801 85.0967 31.1155 94.4268 33.1164C100.64 34.4504 96.9894 46.2728 96.9894 46.2728" stroke="#263238" stroke-width="0.5" stroke-miterlimit="10"/>
<path d="M94.9067 47.4312H94.934L95.5035 47.283C95.5035 47.283 99.0724 36.4396 93.8731 36.5761C89.485 36.6892 83.5835 46.8189 81.8478 49.9705C85.2295 47.6185 89.9335 46.5653 94.9067 47.4312Z" fill="#263238" stroke="#263238" stroke-width="0.5" stroke-miterlimit="10"/>
<path d="M56.2526 100.225L54.0644 109.882C53.7301 111.336 52.9128 112.634 51.7461 113.563C50.5793 114.492 49.132 114.999 47.6403 115V115C46.1454 115 44.6948 114.493 43.5266 113.56C42.3585 112.627 41.5424 111.325 41.2122 109.867L37.3585 92.8722" fill="#263238"/>
<path d="M56.2526 100.225L54.0644 109.882C53.7301 111.336 52.9128 112.634 51.7461 113.563C50.5793 114.492 49.132 114.999 47.6403 115V115C46.1454 115 44.6948 114.493 43.5266 113.56C42.3585 112.627 41.5424 111.325 41.2122 109.867L37.3585 92.8722" stroke="#263238" stroke-width="0.5" stroke-miterlimit="10"/>
<path d="M89.7034 100.225L87.5074 109.929C87.1738 111.372 86.3606 112.659 85.2009 113.58C84.0411 114.501 82.6032 115.002 81.1222 115V115C79.6223 115 78.1677 114.486 77.0018 113.542C75.836 112.599 75.0296 111.283 74.7176 109.816L72.5255 99.5382" fill="#263238"/>
<path d="M89.7034 100.225L87.5074 109.929C87.1738 111.372 86.3606 112.659 85.2009 113.58C84.0411 114.501 82.6032 115.002 81.1222 115V115C79.6223 115 78.1677 114.486 77.0018 113.542C75.836 112.599 75.0296 111.283 74.7176 109.816L72.5255 99.5382" stroke="#263238" stroke-width="0.5" stroke-miterlimit="10"/>
<path d="M108.995 71.3492C108.995 83.1405 102.754 93.707 92.9057 100.818C84.8706 106.622 74.4367 110.124 63.0316 110.124C37.6471 110.124 17.068 92.763 17.068 71.3492C17.068 49.9354 37.6471 32.5703 63.0316 32.5703C88.4162 32.5703 108.995 49.9315 108.995 71.3492Z" fill="white" stroke="#263238" stroke-width="0.5" stroke-miterlimit="10"/>
<path d="M100.547 90.2081C98.0258 93.7356 94.9392 96.8221 91.4118 99.3431C88.9757 101.097 86.3702 102.602 83.6342 103.837" stroke="#263238" stroke-width="0.5" stroke-miterlimit="10"/>
<path d="M105.528 79.8446C104.942 81.9308 104.151 83.9535 103.164 85.8826Z" fill="white"/>
<path d="M105.528 79.8446C104.942 81.9308 104.151 83.9535 103.164 85.8826" stroke="#263238" stroke-width="0.5" stroke-miterlimit="10"/>
<path d="M26.2186 51.5307C27.686 49.5996 29.3328 47.8116 31.1372 46.1909" stroke="#263238" stroke-width="0.5" stroke-miterlimit="10"/>
<path d="M24.0305 87.9303C20.9784 82.9361 19.3634 77.1965 19.3634 71.3434C19.3634 65.4903 20.9784 59.7508 24.0305 54.7565" stroke="#263238" stroke-width="0.5" stroke-miterlimit="10"/>
<path d="M83.6342 103.837C77.1527 106.731 70.1299 108.213 63.0317 108.186C54.9567 108.23 46.9934 106.299 39.8353 102.561" stroke="#263238" stroke-width="0.5" stroke-miterlimit="10"/>
<path d="M84.0788 50.0328C84.0788 52.299 83.0958 54.1323 81.8828 54.1323C80.7867 54.1323 79.874 52.6345 79.7102 50.6725" stroke="#263238" stroke-width="0.5" stroke-miterlimit="10"/>
<path d="M95.4214 49.0577C95.4214 50.735 94.692 52.0923 93.7949 52.0923C92.9797 52.0923 92.3088 50.9807 92.1879 49.5258" stroke="#263238" stroke-width="0.5" stroke-miterlimit="10"/>
<path d="M72.5021 35.6712C71.748 35.9354 71.0107 36.2454 70.2944 36.5996C69.8537 36.8141 69.5143 37.0169 69.2218 37.1846C68.6406 37.1144 68.0516 37.0559 67.4704 37.0091C66.0156 36.8804 64.5373 36.818 63.0434 36.818C56.6084 36.7995 50.229 38.0082 44.2468 40.3792C43.2483 40.777 42.2718 41.2061 41.3175 41.6663C42.9392 39.9948 44.7943 38.5667 46.825 37.4265C52.054 35.6832 57.5314 34.8006 63.0434 34.8131C66.2159 34.8082 69.3822 35.0955 72.5021 35.6712V35.6712Z" fill="white" stroke="#263238" stroke-width="0.5" stroke-miterlimit="10"/>
<path d="M70.2943 36.5995L67.4586 36.9896C66.0038 36.8608 64.5255 36.7984 63.0316 36.7984C56.5966 36.78 50.2172 37.9886 44.235 40.3596C45.0598 39.7502 45.9208 39.1914 46.8132 38.6863C52.0425 36.9436 57.5196 36.0597 63.0316 36.069C65.4619 36.0766 67.8887 36.2538 70.2943 36.5995Z" fill="#263238" stroke="#263238" stroke-width="0.5" stroke-miterlimit="10"/>
<path d="M94.5439 77.8864C97.228 77.8864 99.4039 72.7662 99.4039 66.4501C99.4039 60.134 97.228 55.0138 94.5439 55.0138C91.8598 55.0138 89.6838 60.134 89.6838 66.4501C89.6838 72.7662 91.8598 77.8864 94.5439 77.8864Z" fill="#263238" stroke="#263238" stroke-width="0.5" stroke-miterlimit="10"/>
<path d="M97.8905 74.2746C104.207 74.2746 109.327 69.1544 109.327 62.8383C109.327 56.5222 104.207 51.402 97.8905 51.402C91.5744 51.402 86.4542 56.5222 86.4542 62.8383C86.4542 69.1544 91.5744 74.2746 97.8905 74.2746Z" fill="white" stroke="#263238" stroke-width="0.5" stroke-miterlimit="10"/>
<path d="M101.019 74.2746C107.335 74.2746 112.455 69.1544 112.455 62.8383C112.455 56.5222 107.335 51.402 101.019 51.402C94.7027 51.402 89.5825 56.5222 89.5825 62.8383C89.5825 69.1544 94.7027 74.2746 101.019 74.2746Z" fill="white" stroke="#263238" stroke-width="0.5" stroke-miterlimit="10"/>
<path d="M97.7189 66.9806C99.048 66.9806 100.125 65.2029 100.125 63.0099C100.125 60.8169 99.048 59.0392 97.7189 59.0392C96.3897 59.0392 95.3123 60.8169 95.3123 63.0099C95.3123 65.2029 96.3897 66.9806 97.7189 66.9806Z" fill="#263238" stroke="#263238" stroke-width="0.5" stroke-miterlimit="10"/>
<path d="M106.335 66.3643C107.664 66.3643 108.742 64.5865 108.742 62.3936C108.742 60.2006 107.664 58.4229 106.335 58.4229C105.006 58.4229 103.928 60.2006 103.928 62.3936C103.928 64.5865 105.006 66.3643 106.335 66.3643Z" fill="#263238" stroke="#263238" stroke-width="0.5" stroke-miterlimit="10"/>
<path d="M45.1673 100.225L42.9908 109.882C42.6563 111.34 41.8364 112.64 40.6655 113.57C39.4946 114.5 38.0424 115.004 36.5471 115V115C35.0546 115.001 33.606 114.495 32.4383 113.565C31.2706 112.635 30.4529 111.337 30.1191 109.882L26.2654 92.8878" fill="white"/>
<path d="M45.1673 100.225L42.9908 109.882C42.6563 111.34 41.8364 112.64 40.6655 113.57C39.4946 114.5 38.0424 115.004 36.5471 115V115C35.0546 115.001 33.606 114.495 32.4383 113.565C31.2706 112.635 30.4529 111.337 30.1191 109.882L26.2654 92.8878" stroke="#263238" stroke-width="0.5" stroke-miterlimit="10"/>
<path d="M77.9315 100.225L75.7316 109.929C75.398 111.372 74.5849 112.659 73.4251 113.58C72.2653 114.501 70.8275 115.002 69.3465 115V115C67.8468 115 66.3925 114.485 65.2268 113.541C64.0611 112.598 63.2545 111.283 62.9418 109.816L60.7498 99.5382" fill="white"/>
<path d="M77.9315 100.225L75.7316 109.929C75.398 111.372 74.5849 112.659 73.4251 113.58C72.2653 114.501 70.8275 115.002 69.3465 115V115C67.8468 115 66.3925 114.485 65.2268 113.541C64.0611 112.598 63.2545 111.283 62.9418 109.816L60.7498 99.5382" stroke="#263238" stroke-width="0.5" stroke-miterlimit="10"/>
<path d="M58.7762 49.8027C58.7762 49.8027 59.9464 35.4567 69.7679 31.4079C76.3168 28.7088 78.9887 40.0281 78.9887 40.0281" fill="white"/>
<path d="M58.7762 49.8027C58.7762 49.8027 59.9464 35.4567 69.7679 31.4079C76.3168 28.7088 78.9887 40.0281 78.9887 40.0281" stroke="#263238" stroke-width="0.5" stroke-miterlimit="10"/>
<path d="M77.6194 42.1694H77.6506L78.1109 41.7131C78.1109 41.7131 75.872 31.2051 71.0393 34.4269C66.9593 37.1573 66.6278 48.5039 66.6239 51.9792C68.5937 48.1177 72.4825 44.4824 77.6194 42.1694Z" fill="#263238" stroke="#263238" stroke-width="0.5" stroke-miterlimit="10"/>
<path d="M57.009 36.3436C62.9028 36.3436 67.6808 31.5657 67.6808 25.6718C67.6808 19.7779 62.9028 15 57.009 15C51.1151 15 46.3372 19.7779 46.3372 25.6718C46.3372 31.5657 51.1151 36.3436 57.009 36.3436Z" fill="white" stroke="#263238" stroke-width="0.5" stroke-linejoin="round"/>
<path d="M55.7532 36.3436C61.6471 36.3436 66.425 31.5657 66.425 25.6718C66.425 19.7779 61.6471 15 55.7532 15C49.8593 15 45.0814 19.7779 45.0814 25.6718C45.0814 31.5657 49.8593 36.3436 55.7532 36.3436Z" fill="white" stroke="#263238" stroke-width="0.5" stroke-linejoin="round"/>
<path d="M55.7531 34.2489C60.4902 34.2489 64.3304 30.4088 64.3304 25.6717C64.3304 20.9346 60.4902 17.0945 55.7531 17.0945C51.0161 17.0945 47.1759 20.9346 47.1759 25.6717C47.1759 30.4088 51.0161 34.2489 55.7531 34.2489Z" fill="white" stroke="#263238" stroke-width="0.5" stroke-linejoin="round"/>
<path d="M47.913 25.6717C47.9109 23.4586 48.7639 21.3303 50.2939 19.7313C51.8239 18.1322 53.9125 17.1861 56.1236 17.0906H55.753C53.4771 17.0906 51.2945 17.9947 49.6852 19.6039C48.076 21.2132 47.1719 23.3958 47.1719 25.6717C47.1719 27.9476 48.076 30.1302 49.6852 31.7395C51.2945 33.3488 53.4771 34.2528 55.753 34.2528C55.8778 34.2528 55.9987 34.2528 56.1236 34.2528C53.9125 34.1573 51.8239 33.2112 50.2939 31.6121C48.7639 30.0131 47.9109 27.8848 47.913 25.6717Z" fill="white" stroke="#263238" stroke-width="0.5" stroke-linejoin="round"/>
<path d="M63.7063 17.4417H62.8911" stroke="#263238" stroke-width="0.5" stroke-linejoin="round"/>
<path d="M64.7439 18.4052H64.151" stroke="#263238" stroke-width="0.5" stroke-linejoin="round"/>
<path d="M66.0738 19.8872H65.4108" stroke="#263238" stroke-width="0.5" stroke-linejoin="round"/>
<path d="M66.815 21.74H65.9257" stroke="#263238" stroke-width="0.5" stroke-linejoin="round"/>
<path d="M67.4818 23.741H66.6666" stroke="#263238" stroke-width="0.5" stroke-linejoin="round"/>
<path d="M67.4818 27.9653H66.5925" stroke="#263238" stroke-width="0.5" stroke-linejoin="round"/>
<path d="M64.0026 33.0048H64.7437" stroke="#263238" stroke-width="0.5" stroke-linejoin="round"/>
<path d="M62.7429 33.9681H63.5581" stroke="#263238" stroke-width="0.5" stroke-linejoin="round"/>
<path d="M61.4088 35.0056H62.224" stroke="#263238" stroke-width="0.5" stroke-linejoin="round"/>
<path d="M62.2982 16.4081H61.0383" stroke="#263238" stroke-width="0.5" stroke-linejoin="round"/>
<path d="M55.3124 22.7502C55.3124 21.9701 55.6205 21.6893 56.1588 21.6893C56.6971 21.6893 57.0052 21.9818 57.0052 22.7502V23.191H58.5927V22.8555C58.5927 21.3929 57.9764 20.4684 56.779 20.2227V19.4231H55.3943V20.2227C54.2241 20.484 53.6118 21.3929 53.6118 22.8555C53.6118 25.9292 56.9155 26.0384 56.9155 28.2539C56.9155 29.034 56.58 29.2992 56.0418 29.2992C55.5035 29.2992 55.1642 29.0223 55.1642 28.2539V27.4074H53.5649V28.1446C53.5649 29.6073 54.1773 30.5435 55.3943 30.7892V31.5693H56.779V30.7892C57.9764 30.5435 58.6083 29.619 58.6083 28.1446C58.62 25.071 55.3124 24.9657 55.3124 22.7502Z" fill="#263238"/>
</svg>
