<svg width="130" height="130" viewBox="0 0 130 130" fill="none" xmlns="http://www.w3.org/2000/svg">
<path d="M119.957 69.5173C119.312 84.2071 111.395 99.6064 100.548 108.42C91.3044 115.938 79.3627 117.017 68.3204 113.667C51.0698 108.42 52.3589 103.599 43.1778 96.9283C33.9967 90.2579 26.5568 95.884 17.7929 86.3606C9.02899 76.8372 8.39943 64.1585 12.2468 55.1523C16.0941 46.146 26.297 42.6609 28.8278 35.4684C31.3585 28.2759 45.5661 8.34973 71.2983 15.5397C78.9855 17.6858 86.5377 21.0584 92.8508 26.0325C98.0797 30.1421 101.272 36.4228 106.674 40.2726C116.674 47.4026 120.454 58.2601 119.957 69.5173Z" fill="#5CB0FF"/>
<path opacity="0.7" d="M119.957 69.5173C119.312 84.2071 111.395 99.6064 100.548 108.42C91.3044 115.938 79.3627 117.017 68.3204 113.667C51.0698 108.42 52.3589 103.599 43.1778 96.9283C33.9967 90.2579 26.5568 95.884 17.7929 86.3606C9.02899 76.8372 8.39943 64.1585 12.2468 55.1523C16.0941 46.146 26.297 42.6609 28.8278 35.4684C31.3585 28.2759 45.5661 8.34973 71.2983 15.5397C78.9855 17.6858 86.5377 21.0584 92.8508 26.0325C98.0797 30.1421 101.272 36.4228 106.674 40.2726C116.674 47.4026 120.454 58.2601 119.957 69.5173Z" fill="white"/>
<path d="M115 70.6498L51.2913 18.0389L23.5301 51.6561L87.2389 104.267L115 70.6498Z" fill="white" stroke="#263238" stroke-width="0.5" stroke-linecap="round" stroke-linejoin="round"/>
<path d="M49.0331 26.5338L31.6143 47.63C32.2846 48.4475 32.6509 49.472 32.6509 50.5291C32.6509 51.5862 32.2846 52.6107 31.6143 53.4282L31.4343 53.6276L83.0974 96.3016C83.1509 96.2335 83.1995 96.1556 83.2579 96.0875C84.0326 95.1608 85.1423 94.5778 86.3451 94.4657C87.5478 94.3537 88.7461 94.7216 89.6787 95.4892L106.991 74.5292C106.529 74.1454 106.147 73.6743 105.867 73.1429C105.587 72.6115 105.415 72.0301 105.36 71.4321C105.305 70.834 105.368 70.2309 105.546 69.6573C105.724 69.0837 106.013 68.5508 106.397 68.089L54.7292 25.415C54.0549 26.2305 53.1192 26.7875 52.0809 26.9914C51.0426 27.1954 49.9657 27.0337 49.0331 26.5338V26.5338Z" fill="white" stroke="#263238" stroke-width="0.5" stroke-linecap="round" stroke-linejoin="round"/>
<path d="M56.3451 55.0675C55.1171 58.1045 54.954 61.468 55.8824 64.6095C56.8109 67.7511 58.7761 70.4856 61.4577 72.3672C64.1393 74.2488 67.3792 75.1665 70.6493 74.9709C73.9193 74.7752 77.0267 73.4777 79.4648 71.2897" stroke="#263238" stroke-width="0.5" stroke-linecap="round" stroke-linejoin="round"/>
<path d="M63.0673 47.6593C61.3499 48.5561 59.8298 49.7884 58.5971 51.2832C58.456 51.4534 58.3198 51.6237 58.1934 51.7988" stroke="#263238" stroke-width="0.5" stroke-linecap="round" stroke-linejoin="round"/>
<path d="M82.9274 66.6296C84.1197 64.0465 84.5255 61.1696 84.0942 58.3575C83.6629 55.5454 82.4136 52.9224 80.5021 50.8153C78.5905 48.7082 76.1011 47.2102 73.3441 46.5079C70.5871 45.8057 67.6845 45.9303 64.9978 46.8662" stroke="#263238" stroke-width="0.5" stroke-linecap="round" stroke-linejoin="round"/>
<path d="M79.1531 69.9126C84.3371 64.7286 84.3371 56.3237 79.1531 51.1396C73.9691 45.9556 65.5642 45.9556 60.3801 51.1396C55.1961 56.3236 55.1961 64.7286 60.3801 69.9126C65.5642 75.0966 73.9691 75.0966 79.1531 69.9126Z" fill="#263238"/>
<path d="M61.5546 61.279C61.4803 60.9966 61.5008 60.6975 61.613 60.4278C61.7063 60.1772 61.8766 59.9626 62.0994 59.8149C62.3261 59.671 62.582 59.5796 62.8485 59.5474C63.1209 59.5131 63.3963 59.5807 63.6219 59.7371C63.886 59.9336 64.0926 60.1973 64.2202 60.5008C64.2494 60.564 64.3273 60.744 64.4489 61.0407C64.5705 61.3374 64.6775 61.5855 64.7748 61.7946C64.9136 62.0726 65.0763 62.3378 65.2612 62.5875C65.4989 62.9172 65.7712 63.2205 66.0735 63.4923C66.2864 63.717 66.5247 63.9161 66.7837 64.0857C67.0397 64.2713 67.3115 64.4341 67.596 64.5721C67.8495 64.696 68.1325 64.7466 68.4132 64.7181C68.5509 64.7026 68.684 64.6592 68.8044 64.5906C68.9249 64.5221 69.0301 64.4297 69.1137 64.3192C69.193 64.2022 69.2447 64.0687 69.2649 63.9289C69.2851 63.789 69.2733 63.6464 69.2304 63.5117C69.1153 63.078 68.9098 62.6735 68.6272 62.3248L67.4841 60.7197C67.061 60.1068 66.7302 59.6009 66.5113 59.2069C66.2635 58.7982 66.0488 58.3704 65.8692 57.9276C65.6936 57.537 65.5977 57.1153 65.5871 56.6872C65.5919 56.2926 65.6677 55.9021 65.8108 55.5344C65.9919 55.0781 66.2484 54.6555 66.5697 54.2843C66.9564 53.7888 67.4695 53.4067 68.055 53.1782C68.6404 52.9496 69.2767 52.8831 69.8968 52.9855C71.2588 53.1574 72.6516 53.9065 74.0752 55.2328C74.4753 55.5925 74.8417 55.9882 75.1696 56.4148C75.4165 56.7247 75.644 57.0496 75.8506 57.3876C75.9901 57.6341 76.1522 57.9584 76.3371 58.3605C76.4857 58.653 76.5385 58.9849 76.4879 59.309C76.4542 59.5931 76.3276 59.8582 76.1279 60.063C75.9378 60.248 75.7083 60.3877 75.4566 60.4716C75.3278 60.516 75.1911 60.533 75.0554 60.5212C74.9197 60.5095 74.7879 60.4694 74.6686 60.4035C74.3782 60.2453 74.1373 60.0095 73.973 59.7225C73.4889 58.8887 72.9041 58.1176 72.2316 57.4266C71.9884 57.1979 71.7452 56.9742 71.4242 56.7456C71.1378 56.5268 70.8049 56.377 70.4513 56.3078C70.3148 56.2688 70.1701 56.2686 70.0335 56.3073C69.8969 56.3459 69.7737 56.4219 69.6779 56.5267C69.5791 56.6385 69.5086 56.7724 69.4722 56.9171C69.4358 57.0619 69.4346 57.2132 69.4688 57.3585C69.6041 57.7736 69.8189 58.1586 70.1011 58.4918L71.2637 60.0581C71.6648 60.6052 72.0335 61.1753 72.3678 61.7655C72.63 62.2427 72.8263 62.7532 72.9516 63.2831C73.0782 63.7811 73.0782 64.3028 72.9516 64.8007C72.7866 65.3359 72.5153 65.8323 72.1538 66.26C71.5945 67.0087 70.7938 67.5414 69.8871 67.7679C68.9914 67.9768 68.0534 67.909 67.1972 67.5734C66.1978 67.1845 65.2828 66.6064 64.5024 65.8709C63.0966 64.6573 62.0727 63.0624 61.5546 61.279V61.279ZM74.8583 52.1099C74.9379 52 75.0414 51.9096 75.1611 51.8455C75.2808 51.7815 75.4134 51.7455 75.5491 51.7403C75.7913 51.7292 76.029 51.809 76.2155 51.964C76.4008 52.1241 76.5189 52.3482 76.5462 52.5915C76.5675 52.7225 76.5588 52.8566 76.5209 52.9838C76.483 53.111 76.4168 53.228 76.3273 53.326L74.1141 55.9867L72.6548 54.7756L74.8583 52.1099ZM64.6094 64.9321L66.0687 66.153L63.8992 68.7943C63.7977 68.9357 63.657 69.0442 63.4945 69.1064C63.3319 69.1687 63.1547 69.1819 62.9847 69.1445C62.8183 69.1175 62.6618 69.0477 62.5304 68.942C62.3991 68.8362 62.2975 68.6982 62.2356 68.5413C62.1654 68.3797 62.145 68.2008 62.177 68.0274C62.2091 67.8541 62.2922 67.6943 62.4156 67.5685L64.6094 64.9321Z" fill="white" stroke="#263238" stroke-width="0.5" stroke-miterlimit="10"/>
<path d="M107.381 79.2469L51.9231 18L19.6049 47.2632L75.0624 108.51L107.381 79.2469Z" fill="white" stroke="#263238" stroke-width="0.5" stroke-linecap="round" stroke-linejoin="round"/>
<path d="M48.4841 26.0959L28.2003 44.4585C28.7429 45.3667 28.9542 46.4349 28.7981 47.4814C28.642 48.5278 28.1283 49.4879 27.3442 50.1982L27.135 50.3685L72.1389 100.057C72.2022 99.9934 72.2605 99.9302 72.3286 99.867C73.2283 99.0539 74.4138 98.6311 75.6249 98.6912C76.836 98.7514 77.9738 99.2897 78.7884 100.188L98.9214 81.9423C98.1081 81.0418 97.6851 79.8555 97.7453 78.6436C97.8055 77.4317 98.3439 76.2931 99.2425 75.4777L54.2775 25.809C53.4936 26.5186 52.4882 26.9349 51.4321 26.9872C50.376 27.0396 49.3343 26.7246 48.4841 26.0959V26.0959Z" fill="white" stroke="#263238" stroke-width="0.5" stroke-linecap="round" stroke-linejoin="round"/>
<path d="M51.6019 55.3837C49.934 58.2142 49.2775 61.5274 49.74 64.78C50.2026 68.0326 51.7567 71.0316 54.1474 73.2849C56.5382 75.5383 59.6237 76.9123 62.898 77.1818C66.1723 77.4512 69.4409 76.5999 72.1679 74.7677" stroke="#263238" stroke-width="0.5" stroke-linecap="round" stroke-linejoin="round"/>
<path d="M59.3215 49.0359C57.4922 49.6758 55.81 50.6765 54.3746 51.9788C54.2141 52.1247 54.0536 52.2755 53.8882 52.4311" stroke="#263238" stroke-width="0.5" stroke-linecap="round" stroke-linejoin="round"/>
<path d="M76.2442 70.6282C77.7969 68.2447 78.6138 65.4568 78.5928 62.6122C78.5719 59.7675 77.7142 56.9919 76.1265 54.6315C74.5389 52.271 72.2916 50.4301 69.6648 49.3382C67.0379 48.2462 64.1478 47.9516 61.3547 48.4911" stroke="#263238" stroke-width="0.5" stroke-linecap="round" stroke-linejoin="round"/>
<path d="M73.4866 72.1049C78.6706 66.9209 78.6706 58.5159 73.4866 53.3319C68.3026 48.1479 59.8977 48.1479 54.7136 53.3319C49.5296 58.5159 49.5296 66.9209 54.7136 72.1049C59.8976 77.2889 68.3026 77.2889 73.4866 72.1049Z" fill="#263238"/>
<path d="M55.868 62.2523C55.8332 61.9627 55.8966 61.6698 56.0479 61.4205C56.182 61.1839 56.3883 60.9964 56.6365 60.8854C56.8814 60.777 57.1471 60.7239 57.4148 60.7298C57.6907 60.7321 57.9553 60.84 58.1542 61.0313C58.3898 61.2604 58.5581 61.5498 58.6406 61.868C58.6406 61.9361 58.7136 62.1258 58.7865 62.4322C58.8595 62.7387 58.9373 63.0111 59.0054 63.2251C59.1033 63.5231 59.2287 63.8113 59.38 64.0861C59.5682 64.4467 59.7949 64.7859 60.0561 65.0979C60.2329 65.3511 60.4386 65.5829 60.669 65.7886C60.9006 65.9997 61.1478 66.1932 61.4083 66.3674C61.6398 66.5256 61.9113 66.615 62.1915 66.6252C62.3301 66.6316 62.4686 66.6095 62.5983 66.5601C62.728 66.5107 62.8462 66.4352 62.9454 66.3382C63.042 66.2336 63.1129 66.1079 63.1525 65.9712C63.1922 65.8344 63.1996 65.6903 63.1741 65.5502C63.1254 65.1069 62.9828 64.6791 62.7557 64.2953L61.8558 62.5393C61.5202 61.868 61.2673 61.3232 61.0873 60.9C60.9048 60.4576 60.7553 60.0024 60.6398 59.538C60.5199 59.1279 60.4835 58.6978 60.5328 58.2733C60.5976 57.8817 60.731 57.5047 60.9268 57.1594C61.1706 56.7364 61.4829 56.3567 61.851 56.0358C62.3052 55.6003 62.8685 55.2955 63.4814 55.1534C64.0944 55.0113 64.7343 55.0372 65.3338 55.2283C66.6601 55.5947 67.9313 56.5384 69.1473 58.0593C69.7441 58.7861 70.2353 59.5934 70.6066 60.4574C70.7088 60.7249 70.8304 61.0751 70.9666 61.5129C71.0705 61.8289 71.0705 62.1698 70.9666 62.4858C70.8853 62.7634 70.7142 63.0063 70.4801 63.1765C70.2664 63.3326 70.0204 63.439 69.7602 63.4878C69.6267 63.5132 69.4893 63.5102 69.3569 63.4792C69.2245 63.4482 69.1001 63.3899 68.9917 63.3078C68.726 63.108 68.5206 62.8387 68.3982 62.5295C68.0387 61.6347 67.5716 60.7869 67.0071 60.005C66.7979 59.7472 66.5644 59.4845 66.3018 59.217C66.0581 58.9595 65.7562 58.7643 65.4213 58.6479C65.2922 58.5867 65.1482 58.5643 65.0066 58.5833C64.8651 58.6023 64.732 58.6619 64.6236 58.7549C64.5084 58.849 64.4183 58.9703 64.3614 59.1078C64.3045 59.2454 64.2826 59.3948 64.2977 59.5429C64.3755 59.9756 64.541 60.3878 64.7841 60.7541L65.7035 62.476C66.0233 63.0749 66.3075 63.6921 66.5547 64.3244C66.7463 64.8325 66.8674 65.3644 66.9147 65.9053C66.962 66.4184 66.8801 66.9351 66.6763 67.4084C66.3521 68.0818 65.8661 68.6643 65.2617 69.104C64.6574 69.5437 63.9535 69.8268 63.213 69.928C62.2974 70.0059 61.3798 69.8041 60.5814 69.3492C59.644 68.8206 58.8181 68.1152 58.1493 67.2722C56.912 65.8595 56.1185 64.1134 55.868 62.2523ZM70.3537 55.097C70.4488 54.9996 70.5648 54.925 70.6928 54.8787C70.8208 54.8324 70.9576 54.8155 71.093 54.8294C71.3332 54.8554 71.5552 54.9699 71.7157 55.1505C71.876 55.3348 71.961 55.5727 71.954 55.8169C71.956 55.9488 71.9281 56.0794 71.8725 56.199C71.8169 56.3186 71.735 56.4241 71.633 56.5076L69.0549 58.8473L67.7902 57.4415L70.3537 55.097ZM58.3682 66.2847L59.6572 67.7099L57.0889 70.0594C56.9664 70.1877 56.8081 70.2763 56.6346 70.3136C56.4612 70.3509 56.2805 70.3352 56.116 70.2685C55.9563 70.2178 55.8123 70.1267 55.6981 70.004C55.5839 69.8813 55.5033 69.7311 55.4642 69.5681C55.417 69.3987 55.422 69.219 55.4784 69.0524C55.5348 68.8858 55.64 68.7401 55.7804 68.6341L58.3682 66.2847Z" fill="white" stroke="#263238" stroke-width="0.5" stroke-miterlimit="10"/>
<path d="M93.7549 89.9524L52.8933 18.1398L15 39.7012L55.8615 111.514L93.7549 89.9524Z" fill="white" stroke="#263238" stroke-width="0.5" stroke-linecap="round" stroke-linejoin="round"/>
<path d="M47.7785 25.2837L24.0118 38.8257C24.3465 39.8328 24.3209 40.9248 23.9394 41.915C23.5578 42.9052 22.8441 43.7321 21.9202 44.2542L21.677 44.3758L54.8365 102.625C54.9095 102.576 54.9824 102.528 55.0603 102.484C55.5823 102.186 56.158 101.994 56.7544 101.919C57.3507 101.844 57.956 101.887 58.5357 102.046C59.1153 102.205 59.6579 102.477 60.1324 102.846C60.607 103.215 61.0041 103.674 61.3011 104.196L84.9267 90.7515C84.3265 89.6967 84.1697 88.4469 84.4908 87.2766C84.8118 86.1063 85.5845 85.1114 86.6389 84.5106L53.494 26.2565C52.5754 26.7791 51.5044 26.9677 50.4626 26.7904C49.4208 26.6131 48.4724 26.0807 47.7785 25.2837V25.2837Z" fill="white" stroke="#263238" stroke-width="0.5" stroke-linecap="round" stroke-linejoin="round"/>
<path d="M44.4757 54.5615C42.2411 56.963 40.8874 60.0517 40.6361 63.3224C40.3848 66.5931 41.2506 69.8523 43.0921 72.567C44.9335 75.2817 47.6416 77.2913 50.7734 78.2671C53.9053 79.243 57.2755 79.1273 60.3331 77.939" stroke="#263238" stroke-width="0.5" stroke-linecap="round" stroke-linejoin="round"/>
<path d="M53.3825 50.0378C51.4599 50.2677 49.6026 50.8796 47.92 51.8376C47.7303 51.9495 47.5406 52.0614 47.3557 52.1781" stroke="#263238" stroke-width="0.5" stroke-linecap="round" stroke-linejoin="round"/>
<path d="M65.227 74.7875C67.2579 72.7969 68.6585 70.253 69.2543 67.4724C69.8502 64.6918 69.615 61.7973 68.578 59.1494C67.541 56.5015 65.7481 54.217 63.4224 52.5805C61.0967 50.9441 58.3411 50.0278 55.4985 49.9458" stroke="#263238" stroke-width="0.5" stroke-linecap="round" stroke-linejoin="round"/>
<path d="M65.0538 73.1947C69.8935 67.6878 69.3525 59.3003 63.8456 54.4607C58.3387 49.6211 49.9512 50.162 45.1116 55.6689C40.2719 61.1758 40.8129 69.5633 46.3198 74.403C51.8267 79.2426 60.2142 78.7017 65.0538 73.1947Z" fill="#263238"/>
<path d="M47.1463 62.1986C47.1766 61.9088 47.3014 61.637 47.5014 61.4252C47.6848 61.2248 47.9264 61.087 48.1921 61.0312C48.4549 60.9729 48.7272 60.9729 48.9899 61.0312C49.2569 61.0933 49.49 61.2552 49.6417 61.4835C49.824 61.758 49.9251 62.0784 49.9335 62.4077C49.9335 62.4758 49.9335 62.6704 49.9335 62.9914C49.9335 63.3125 49.9335 63.5849 49.9725 63.8135C50.0067 64.1244 50.0669 64.432 50.1524 64.7328C50.2604 65.1249 50.4087 65.5047 50.5951 65.8662C50.7131 66.1515 50.8633 66.4224 51.0426 66.6737C51.2233 66.9301 51.4233 67.1724 51.6409 67.3984C51.8319 67.605 52.0785 67.752 52.3511 67.8216C52.4851 67.8562 52.6247 67.8637 52.7617 67.8436C52.8987 67.8236 53.0303 67.7764 53.1488 67.7049C53.2652 67.6231 53.3613 67.5156 53.4296 67.3908C53.4979 67.266 53.5366 67.1271 53.5428 66.985C53.5898 66.5406 53.5417 66.0912 53.4017 65.6668L52.9153 63.7551C52.7353 63.0304 52.604 62.4418 52.5213 61.9943C52.4366 61.522 52.3878 61.0439 52.3754 60.5642C52.3501 60.1368 52.4096 59.7086 52.5505 59.3044C52.7 58.939 52.9105 58.6018 53.1731 58.3072C53.5047 57.9453 53.8943 57.6411 54.3259 57.4073C54.863 57.0807 55.4785 56.9055 56.1071 56.9004C56.7357 56.8952 57.3539 57.0603 57.8963 57.3781C59.1124 58.0267 60.1484 59.2217 61.0045 60.9631C61.2475 61.4429 61.4493 61.9424 61.6077 62.4564C61.727 62.8377 61.8229 63.2259 61.8947 63.6189C61.9385 63.9011 61.9823 64.2707 62.0163 64.728C62.0536 65.0552 61.9854 65.3858 61.8217 65.6716C61.6883 65.9233 61.4766 66.1248 61.2186 66.2456C60.9755 66.3535 60.7108 66.4035 60.4452 66.3916C60.3096 66.3874 60.1764 66.355 60.0541 66.2964C59.9318 66.2377 59.8231 66.1542 59.735 66.0511C59.5193 65.7977 59.3779 65.4896 59.3264 65.1609C59.1687 64.2104 58.8959 63.2826 58.5141 62.398C58.3681 62.1013 58.193 61.7948 57.9984 61.4738C57.8128 61.1707 57.5598 60.9143 57.2591 60.7247C57.1464 60.6385 57.0115 60.5863 56.8702 60.5743C56.7288 60.5622 56.587 60.5908 56.4613 60.6566C56.3292 60.7247 56.2158 60.8242 56.131 60.9463C56.0462 61.0684 55.9926 61.2095 55.9749 61.3571C55.9531 61.7934 56.0176 62.2298 56.1646 62.6412L56.69 64.5188C56.8731 65.1726 57.016 65.837 57.118 66.5083C57.1909 67.0474 57.1909 67.5938 57.118 68.1329C57.0644 68.6398 56.8874 69.1258 56.6024 69.5484C56.2588 70.0022 55.8248 70.3798 55.328 70.6575C54.5382 71.1575 53.6004 71.3704 52.6721 71.2606C51.7664 71.1343 50.9193 70.7396 50.24 70.1273C49.4425 69.4075 48.7917 68.5404 48.3235 67.5736C47.4141 65.9355 47.0048 64.0668 47.1463 62.1986V62.1986ZM62.8384 58.3558C62.9522 58.2818 63.0812 58.2342 63.2159 58.2165C63.3506 58.1988 63.4875 58.2115 63.6166 58.2537C63.8477 58.3275 64.0412 58.4879 64.1566 58.7012C64.2753 58.9162 64.3083 59.1682 64.249 59.4065C64.2189 59.5379 64.1596 59.6609 64.0754 59.7662C63.9911 59.8715 63.8842 59.9564 63.7626 60.0145L60.737 61.7316L59.7933 60.0778L62.8384 58.3558ZM48.7321 66.698L49.7049 68.3713L46.7037 70.0786C46.559 70.173 46.39 70.2233 46.2173 70.2233C46.0445 70.2233 45.8755 70.173 45.7308 70.0786C45.5871 69.9925 45.4672 69.8716 45.3822 69.7272C45.2973 69.5827 45.2499 69.4192 45.2444 69.2517C45.2371 69.0761 45.2823 68.9023 45.3741 68.7525C45.4659 68.6026 45.6003 68.4835 45.76 68.4102L48.7321 66.698Z" fill="white" stroke="#263238" stroke-width="0.5" stroke-miterlimit="10"/>
</svg>
