<svg width="493" height="421" viewBox="0 0 493 421" fill="none" xmlns="http://www.w3.org/2000/svg">
<path fill-rule="evenodd" clip-rule="evenodd" d="M92.7175 416.694C93.0329 417.46 92.6684 418.34 91.8851 418.61C91.5067 418.74 91.1197 418.864 90.7251 418.982C89.9314 419.22 89.1144 418.729 88.9112 417.926C88.7081 417.123 89.1961 416.312 89.9887 416.071C90.2446 415.993 90.4954 415.913 90.7408 415.83C91.526 415.566 92.4021 415.928 92.7175 416.694ZM65.0514 418.333C64.8739 419.143 64.0726 419.659 63.2725 419.444C62.8613 419.334 62.4607 419.216 62.0725 419.092C61.2834 418.84 60.9098 417.963 61.2175 417.194C61.5252 416.425 62.3979 416.054 63.1894 416.298C63.4249 416.371 63.6673 416.442 63.9164 416.51C64.7152 416.73 65.229 417.524 65.0514 418.333ZM81.0036 419.181C81.0708 420.006 80.456 420.732 79.6289 420.779C77.8946 420.879 76.1448 420.908 74.4247 420.868C73.5965 420.849 72.9571 420.145 72.9959 419.318C73.0348 418.49 73.737 417.853 74.5653 417.871C76.1589 417.906 77.7794 417.879 79.3855 417.788C80.2126 417.742 80.9364 418.355 81.0036 419.181Z" fill="#0085FF"/>
<path fill-rule="evenodd" clip-rule="evenodd" d="M492.718 297.694C493.012 296.92 492.625 296.051 491.842 295.779C491.483 295.654 491.122 295.533 490.759 295.415C489.971 295.16 489.137 295.618 488.905 296.413C488.672 297.208 489.129 298.039 489.917 298.296C490.203 298.389 490.489 298.485 490.774 298.584C491.557 298.855 492.423 298.468 492.718 297.694ZM465.051 295.485C464.851 294.681 464.036 294.188 463.242 294.422C462.852 294.537 462.466 294.659 462.084 294.786C461.299 295.05 460.917 295.922 461.218 296.694C461.518 297.466 462.386 297.845 463.173 297.586C463.435 297.5 463.699 297.417 463.966 297.337C464.76 297.099 465.251 296.289 465.051 295.485ZM481.037 294.763C481.144 293.941 480.564 293.187 479.74 293.104C477.964 292.926 476.195 292.843 474.449 292.855C473.621 292.861 472.976 293.561 473.009 294.388C473.041 295.216 473.739 295.858 474.567 295.854C476.143 295.847 477.744 295.922 479.355 296.081C480.179 296.162 480.931 295.584 481.037 294.763Z" fill="#0085FF"/>
<path fill-rule="evenodd" clip-rule="evenodd" d="M272.424 49.138C273.177 49.4846 273.507 50.3761 273.147 51.1222C272.119 53.2521 270.982 55.3741 269.729 57.4693C269.303 58.1802 268.377 58.3932 267.674 57.9543C266.972 57.5153 266.759 56.5907 267.184 55.8794C268.368 53.8964 269.445 51.8865 270.422 49.8669C270.782 49.121 271.672 48.7914 272.424 49.138ZM261.803 66.0738C262.439 66.6045 262.526 67.5515 261.982 68.1764C260.422 69.9685 258.751 71.7093 256.962 73.3838C256.357 73.9498 255.407 73.8968 254.854 73.2799C254.302 72.663 254.355 71.7159 254.959 71.1492C256.638 69.575 258.209 67.9389 259.678 66.2541C260.222 65.6297 261.167 65.5431 261.803 66.0738ZM87.9653 75.5106C87.9366 76.3385 87.2422 76.9857 86.414 76.9645C84.0437 76.9037 81.6531 76.8935 79.2385 76.9399C78.4102 76.9558 77.7195 76.3047 77.6956 75.4766C77.6716 74.6485 78.3236 73.9571 79.1518 73.941C81.632 73.8929 84.0862 73.9034 86.518 73.9662C87.3461 73.9875 87.994 74.6827 87.9653 75.5106ZM67.4416 76.1159C67.5209 76.9405 66.9167 77.6725 66.093 77.7601C63.7488 78.0095 61.3777 78.3175 58.9767 78.6892C58.1581 78.8159 57.3862 78.2634 57.2514 77.446C57.1166 76.6286 57.6699 75.8559 58.4885 75.729C60.9571 75.3464 63.3952 75.0297 65.8055 74.7738C66.6293 74.6863 67.3622 75.2913 67.4416 76.1159ZM108.418 77.3551C108.303 78.1755 107.545 78.7471 106.724 78.6375C104.351 78.3208 101.967 78.0399 99.569 77.8014C98.7446 77.7194 98.1371 76.9898 98.2128 76.1649C98.2885 75.3399 99.0187 74.732 99.8431 74.8138C102.291 75.057 104.722 75.3436 107.139 75.6664C107.961 75.776 108.533 76.5346 108.418 77.3551ZM128.654 80.888C128.491 81.7002 127.7 82.226 126.888 82.0649C124.518 81.595 122.149 81.1417 119.777 80.7122C118.962 80.5646 118.418 79.7866 118.562 78.9709C118.706 78.1551 119.484 77.6103 120.3 77.758C122.697 78.1922 125.089 78.6498 127.479 79.1237C128.292 79.2848 128.818 80.0758 128.654 80.888ZM47.176 79.4506C47.3639 80.2574 46.8619 81.0631 46.0569 81.2585C44.9043 81.5382 43.7442 81.8332 42.5765 82.1438C41.331 82.4752 40.1044 82.8305 38.8964 83.2083C38.1058 83.4557 37.2574 83.0308 36.9967 82.2445C36.736 81.4581 37.1617 80.6081 37.9522 80.3604C39.2168 79.964 40.501 79.5917 41.8052 79.2447C43.0032 78.926 44.1935 78.6234 45.3765 78.3365C46.1816 78.1412 46.9881 78.6437 47.176 79.4506ZM246.929 79.3927C247.385 80.0841 247.196 81.0159 246.494 81.4573C244.496 82.7155 242.394 83.8979 240.184 84.994C239.442 85.3621 238.548 85.039 238.195 84.2895C237.842 83.54 238.164 82.6478 238.906 82.2791C240.985 81.2459 242.962 80.1339 244.842 78.9528C245.543 78.5121 246.473 78.7012 246.929 79.3927ZM141.652 85.1337C141.057 85.0072 140.463 84.8809 139.869 84.7547C139.059 84.5826 138.541 83.7864 138.713 82.976C138.884 82.1655 139.681 81.6478 140.491 81.8199C141.088 81.9469 141.686 82.0739 142.284 82.2011C144.053 82.5773 145.826 82.9542 147.605 83.3292C148.415 83.5001 148.935 84.2952 148.765 85.106C148.595 85.9168 147.8 86.4363 146.989 86.2654C145.204 85.8891 143.425 85.5108 141.652 85.1337ZM26.9346 86.2684C27.2879 87.0177 26.9662 87.9104 26.2228 88.2762C23.8979 89.4202 21.6565 90.6482 19.4965 91.9473C18.7866 92.3743 17.8621 92.1609 17.4237 91.458C16.9854 90.755 17.1992 89.8288 17.9089 89.4014C20.1656 88.0426 22.5097 86.7582 24.9434 85.5622C25.687 85.1969 26.5814 85.5191 26.9346 86.2684ZM168.934 89.0036C168.795 89.8204 168.021 90.3705 167.205 90.2286C164.787 89.8082 162.392 89.3665 160.015 88.9101C159.201 88.7539 158.671 87.9659 158.829 87.1528C158.988 86.3397 159.776 85.8094 160.589 85.9656C162.945 86.4179 165.316 86.855 167.706 87.2708C168.522 87.4127 169.072 88.1868 168.934 89.0036ZM228.869 87.9325C229.119 88.7221 228.683 89.5666 227.888 89.8024C225.65 90.4671 223.326 91.0533 220.914 91.5543C220.103 91.7228 219.317 91.1875 219.162 90.3737C219.007 89.56 219.541 88.7759 220.352 88.6069C222.647 88.1288 224.856 87.5717 226.982 86.9422C227.776 86.7069 228.619 87.1428 228.869 87.9325ZM184.02 92.6845C182.799 92.5443 181.585 92.3959 180.378 92.2398C179.556 92.1336 178.98 91.3778 179.091 90.5568C179.202 89.7358 179.957 89.1606 180.779 89.2667C181.967 89.4202 183.161 89.5662 184.362 89.7041C185.537 89.8389 186.697 89.9583 187.844 90.0626C188.669 90.1377 189.285 90.8601 189.218 91.6858C189.152 92.5116 188.429 93.128 187.604 93.0532C186.423 92.946 185.228 92.8232 184.02 92.6845ZM209.231 91.7254C209.301 92.5509 208.689 93.2779 207.863 93.3365C205.545 93.5009 203.16 93.595 200.707 93.6148C199.878 93.6215 199.209 92.9461 199.213 92.1177C199.216 91.2893 199.891 90.6216 200.719 90.6146C203.084 90.5948 205.38 90.5041 207.609 90.347C208.435 90.2887 209.161 90.9 209.231 91.7254ZM8.56862 97.6925C9.08175 98.3428 8.96971 99.2852 8.32703 99.8079C6.31196 101.447 4.38736 103.141 2.55065 104.873C1.94798 105.441 0.999121 105.427 0.42249 104.833C-0.15414 104.238 -0.140174 103.287 0.462293 102.719C2.36934 100.919 4.3705 99.1575 6.46862 97.4525C7.11152 96.93 8.05548 97.0421 8.56862 97.6925Z" fill="#0085FF"/>
<rect x="170" width="214" height="51" rx="25.5" fill="url(#paint0_radial_238_7012)"/>
<path d="M211.518 31.388C211.554 31.436 211.572 31.502 211.572 31.586C211.572 31.694 211.53 31.79 211.446 31.874C211.374 31.958 211.278 32 211.158 32H209.304C209.16 32 209.052 31.976 208.98 31.928C208.908 31.868 208.836 31.79 208.764 31.694L205.668 26.744H203.958V31.568C203.958 31.688 203.916 31.79 203.832 31.874C203.76 31.958 203.658 32 203.526 32H201.888C201.768 32 201.666 31.958 201.582 31.874C201.498 31.79 201.456 31.688 201.456 31.568V19.85C201.456 19.718 201.492 19.61 201.564 19.526C201.648 19.442 201.756 19.4 201.888 19.4H203.526C203.658 19.4 203.76 19.442 203.832 19.526C203.916 19.61 203.958 19.718 203.958 19.85V24.494L205.542 24.512L208.458 19.724C208.578 19.508 208.794 19.4 209.106 19.4H210.888C211.008 19.4 211.098 19.436 211.158 19.508C211.23 19.58 211.266 19.67 211.266 19.778C211.266 19.826 211.242 19.898 211.194 19.994L207.792 25.484L211.518 31.388ZM216.016 32.18C215.404 32.18 214.84 32.06 214.324 31.82C213.82 31.568 213.418 31.232 213.118 30.812C212.83 30.392 212.686 29.93 212.686 29.426C212.686 28.61 213.016 27.95 213.676 27.446C214.336 26.942 215.242 26.6 216.394 26.42L218.86 26.06V25.682C218.86 25.154 218.728 24.758 218.464 24.494C218.2 24.23 217.774 24.098 217.186 24.098C216.79 24.098 216.466 24.176 216.214 24.332C215.974 24.476 215.782 24.62 215.638 24.764C215.494 24.92 215.398 25.022 215.35 25.07C215.302 25.214 215.212 25.286 215.08 25.286H213.694C213.586 25.286 213.49 25.25 213.406 25.178C213.334 25.106 213.298 25.01 213.298 24.89C213.31 24.59 213.454 24.248 213.73 23.864C214.018 23.48 214.456 23.15 215.044 22.874C215.632 22.598 216.352 22.46 217.204 22.46C218.62 22.46 219.652 22.778 220.3 23.414C220.948 24.05 221.272 24.884 221.272 25.916V31.568C221.272 31.688 221.23 31.79 221.146 31.874C221.074 31.958 220.972 32 220.84 32H219.382C219.262 32 219.16 31.958 219.076 31.874C218.992 31.79 218.95 31.688 218.95 31.568V30.866C218.686 31.25 218.308 31.568 217.816 31.82C217.336 32.06 216.736 32.18 216.016 32.18ZM216.628 30.47C217.288 30.47 217.828 30.254 218.248 29.822C218.668 29.39 218.878 28.76 218.878 27.932V27.554L217.078 27.842C216.382 27.95 215.854 28.124 215.494 28.364C215.146 28.604 214.972 28.898 214.972 29.246C214.972 29.63 215.134 29.93 215.458 30.146C215.782 30.362 216.172 30.47 216.628 30.47ZM232.204 31.442C232.264 31.502 232.294 31.58 232.294 31.676C232.294 31.772 232.258 31.85 232.186 31.91C232.114 31.97 232.024 32 231.916 32H230.098C229.906 32 229.738 31.91 229.594 31.73L227.254 28.202H225.922V31.568C225.922 31.688 225.88 31.79 225.796 31.874C225.712 31.958 225.61 32 225.49 32H224.014C223.894 32 223.792 31.958 223.708 31.874C223.624 31.79 223.582 31.688 223.582 31.568V23.072C223.582 22.952 223.624 22.85 223.708 22.766C223.792 22.682 223.894 22.64 224.014 22.64H225.49C225.61 22.64 225.712 22.682 225.796 22.766C225.88 22.85 225.922 22.952 225.922 23.072V26.294H227.254L229.414 22.928C229.486 22.832 229.558 22.76 229.63 22.712C229.702 22.664 229.798 22.64 229.918 22.64H231.52C231.64 22.64 231.736 22.67 231.808 22.73C231.88 22.79 231.916 22.868 231.916 22.964C231.916 23.036 231.886 23.114 231.826 23.198L229.252 27.158L232.204 31.442ZM241.758 32.18C240.822 32.18 240.048 32.036 239.436 31.748C238.836 31.448 238.392 31.082 238.104 30.65C237.816 30.218 237.654 29.774 237.618 29.318V29.264C237.618 29.18 237.654 29.108 237.726 29.048C237.798 28.988 237.876 28.958 237.96 28.958H239.4C239.52 28.958 239.61 28.982 239.67 29.03C239.73 29.078 239.79 29.156 239.85 29.264C240.03 29.684 240.27 29.99 240.57 30.182C240.882 30.362 241.278 30.452 241.758 30.452C242.394 30.452 242.886 30.266 243.234 29.894C243.594 29.522 243.78 28.952 243.792 28.184V28.094H240.75C240.63 28.094 240.534 28.058 240.462 27.986C240.39 27.902 240.354 27.806 240.354 27.698V26.942C240.354 26.834 240.39 26.744 240.462 26.672C240.534 26.588 240.63 26.546 240.75 26.546H243.792V26.438C243.78 25.694 243.594 25.136 243.234 24.764C242.874 24.392 242.382 24.206 241.758 24.206C241.278 24.206 240.882 24.296 240.57 24.476C240.27 24.656 240.03 24.962 239.85 25.394C239.778 25.514 239.712 25.598 239.652 25.646C239.592 25.682 239.502 25.7 239.382 25.7H237.996C237.888 25.7 237.798 25.67 237.726 25.61C237.654 25.538 237.624 25.448 237.636 25.34C237.672 24.884 237.834 24.44 238.122 24.008C238.41 23.564 238.854 23.198 239.454 22.91C240.066 22.61 240.834 22.46 241.758 22.46C243.138 22.46 244.212 22.82 244.98 23.54C245.76 24.248 246.18 25.25 246.24 26.546C246.264 26.834 246.276 27.092 246.276 27.32C246.276 27.548 246.264 27.806 246.24 28.094C246.18 29.402 245.772 30.41 245.016 31.118C244.26 31.826 243.174 32.18 241.758 32.18ZM251.194 32C251.074 32 250.972 31.958 250.888 31.874C250.804 31.79 250.762 31.688 250.762 31.568V24.548H247.828C247.708 24.548 247.606 24.506 247.522 24.422C247.438 24.338 247.396 24.23 247.396 24.098V23.072C247.396 22.94 247.438 22.838 247.522 22.766C247.606 22.682 247.708 22.64 247.828 22.64H256C256.132 22.64 256.24 22.682 256.324 22.766C256.408 22.85 256.45 22.952 256.45 23.072V24.098C256.45 24.218 256.408 24.326 256.324 24.422C256.24 24.506 256.132 24.548 256 24.548H253.084V31.568C253.084 31.688 253.042 31.79 252.958 31.874C252.886 31.958 252.784 32 252.652 32H251.194ZM262.016 32.18C260.612 32.18 259.526 31.82 258.758 31.1C257.99 30.368 257.576 29.372 257.516 28.112L257.498 27.32L257.516 26.528C257.576 25.28 257.996 24.29 258.776 23.558C259.556 22.826 260.636 22.46 262.016 22.46C263.396 22.46 264.476 22.826 265.256 23.558C266.036 24.29 266.456 25.28 266.516 26.528C266.528 26.672 266.534 26.936 266.534 27.32C266.534 27.704 266.528 27.968 266.516 28.112C266.456 29.372 266.042 30.368 265.274 31.1C264.506 31.82 263.42 32.18 262.016 32.18ZM262.016 30.398C262.652 30.398 263.144 30.2 263.492 29.804C263.84 29.396 264.032 28.802 264.068 28.022C264.08 27.902 264.086 27.668 264.086 27.32C264.086 26.972 264.08 26.738 264.068 26.618C264.032 25.838 263.84 25.25 263.492 24.854C263.144 24.446 262.652 24.242 262.016 24.242C261.38 24.242 260.888 24.446 260.54 24.854C260.192 25.25 260 25.838 259.964 26.618L259.946 27.32L259.964 28.022C260 28.802 260.192 29.396 260.54 29.804C260.888 30.2 261.38 30.398 262.016 30.398ZM273.092 35.42C272.972 35.42 272.87 35.378 272.786 35.294C272.702 35.222 272.66 35.12 272.66 34.988V23.072C272.66 22.94 272.702 22.838 272.786 22.766C272.87 22.682 272.972 22.64 273.092 22.64H274.514C274.646 22.64 274.748 22.682 274.82 22.766C274.904 22.838 274.946 22.94 274.946 23.072V23.792C275.618 22.904 276.578 22.46 277.826 22.46C279.038 22.46 279.968 22.844 280.616 23.612C281.264 24.368 281.612 25.394 281.66 26.69C281.672 26.834 281.678 27.044 281.678 27.32C281.678 27.608 281.672 27.824 281.66 27.968C281.612 29.228 281.264 30.248 280.616 31.028C279.968 31.796 279.038 32.18 277.826 32.18C276.614 32.18 275.69 31.754 275.054 30.902V34.988C275.054 35.12 275.012 35.222 274.928 35.294C274.856 35.378 274.754 35.42 274.622 35.42H273.092ZM277.16 30.254C278.456 30.254 279.146 29.456 279.23 27.86C279.242 27.74 279.248 27.56 279.248 27.32C279.248 27.08 279.242 26.9 279.23 26.78C279.146 25.184 278.456 24.386 277.16 24.386C276.464 24.386 275.948 24.608 275.612 25.052C275.276 25.496 275.09 26.042 275.054 26.69L275.036 27.374L275.054 28.076C275.078 28.676 275.264 29.192 275.612 29.624C275.972 30.044 276.488 30.254 277.16 30.254ZM286.417 32.18C285.805 32.18 285.241 32.06 284.725 31.82C284.221 31.568 283.819 31.232 283.519 30.812C283.231 30.392 283.087 29.93 283.087 29.426C283.087 28.61 283.417 27.95 284.077 27.446C284.737 26.942 285.643 26.6 286.795 26.42L289.261 26.06V25.682C289.261 25.154 289.129 24.758 288.865 24.494C288.601 24.23 288.175 24.098 287.587 24.098C287.191 24.098 286.867 24.176 286.615 24.332C286.375 24.476 286.183 24.62 286.039 24.764C285.895 24.92 285.799 25.022 285.751 25.07C285.703 25.214 285.613 25.286 285.481 25.286H284.095C283.987 25.286 283.891 25.25 283.807 25.178C283.735 25.106 283.699 25.01 283.699 24.89C283.711 24.59 283.855 24.248 284.131 23.864C284.419 23.48 284.857 23.15 285.445 22.874C286.033 22.598 286.753 22.46 287.605 22.46C289.021 22.46 290.053 22.778 290.701 23.414C291.349 24.05 291.673 24.884 291.673 25.916V31.568C291.673 31.688 291.631 31.79 291.547 31.874C291.475 31.958 291.373 32 291.241 32H289.783C289.663 32 289.561 31.958 289.477 31.874C289.393 31.79 289.351 31.688 289.351 31.568V30.866C289.087 31.25 288.709 31.568 288.217 31.82C287.737 32.06 287.137 32.18 286.417 32.18ZM287.029 30.47C287.689 30.47 288.229 30.254 288.649 29.822C289.069 29.39 289.279 28.76 289.279 27.932V27.554L287.479 27.842C286.783 27.95 286.255 28.124 285.895 28.364C285.547 28.604 285.373 28.898 285.373 29.246C285.373 29.63 285.535 29.93 285.859 30.146C286.183 30.362 286.573 30.47 287.029 30.47ZM302.712 27.104C302.724 27.236 302.73 27.44 302.73 27.716C302.73 27.98 302.724 28.172 302.712 28.292C302.652 29.492 302.238 30.44 301.47 31.136C300.714 31.832 299.628 32.18 298.212 32.18C296.724 32.18 295.614 31.796 294.882 31.028C294.162 30.248 293.772 29.102 293.712 27.59L293.694 26.51L293.712 25.43C293.748 23.726 294.012 22.448 294.504 21.596C294.996 20.732 295.71 20.108 296.646 19.724C297.582 19.328 299.094 18.878 301.182 18.374L301.272 18.356C301.368 18.356 301.458 18.392 301.542 18.464C301.626 18.524 301.674 18.608 301.686 18.716L301.92 19.904L301.938 20.012C301.938 20.108 301.908 20.192 301.848 20.264C301.788 20.324 301.71 20.366 301.614 20.39L301.038 20.516C299.61 20.84 298.584 21.116 297.96 21.344C297.348 21.56 296.88 21.896 296.556 22.352C296.232 22.808 296.046 23.492 295.998 24.404C296.286 24.044 296.664 23.756 297.132 23.54C297.612 23.324 298.116 23.216 298.644 23.216C299.904 23.216 300.882 23.564 301.578 24.26C302.274 24.956 302.652 25.904 302.712 27.104ZM300.264 28.202C300.276 28.118 300.282 27.962 300.282 27.734C300.282 27.482 300.276 27.302 300.264 27.194C300.24 26.45 300.06 25.88 299.724 25.484C299.388 25.076 298.932 24.872 298.356 24.872C297.696 24.872 297.174 25.076 296.79 25.484C296.406 25.88 296.202 26.45 296.178 27.194L296.16 27.734L296.178 28.202C296.202 28.958 296.388 29.534 296.736 29.93C297.084 30.326 297.576 30.524 298.212 30.524C298.848 30.524 299.34 30.332 299.688 29.948C300.048 29.552 300.24 28.97 300.264 28.202ZM308.862 32.18C307.458 32.18 306.372 31.82 305.604 31.1C304.836 30.368 304.422 29.372 304.362 28.112L304.344 27.32L304.362 26.528C304.422 25.28 304.842 24.29 305.622 23.558C306.402 22.826 307.482 22.46 308.862 22.46C310.242 22.46 311.322 22.826 312.102 23.558C312.882 24.29 313.302 25.28 313.362 26.528C313.374 26.672 313.38 26.936 313.38 27.32C313.38 27.704 313.374 27.968 313.362 28.112C313.302 29.372 312.888 30.368 312.12 31.1C311.352 31.82 310.266 32.18 308.862 32.18ZM308.862 30.398C309.498 30.398 309.99 30.2 310.338 29.804C310.686 29.396 310.878 28.802 310.914 28.022C310.926 27.902 310.932 27.668 310.932 27.32C310.932 26.972 310.926 26.738 310.914 26.618C310.878 25.838 310.686 25.25 310.338 24.854C309.99 24.446 309.498 24.242 308.862 24.242C308.226 24.242 307.734 24.446 307.386 24.854C307.038 25.25 306.846 25.838 306.81 26.618L306.792 27.32L306.81 28.022C306.846 28.802 307.038 29.396 307.386 29.804C307.734 30.2 308.226 30.398 308.862 30.398ZM318.237 32C318.117 32 318.015 31.958 317.931 31.874C317.847 31.79 317.805 31.688 317.805 31.568V24.548H314.871C314.751 24.548 314.649 24.506 314.565 24.422C314.481 24.338 314.439 24.23 314.439 24.098V23.072C314.439 22.94 314.481 22.838 314.565 22.766C314.649 22.682 314.751 22.64 314.871 22.64H323.043C323.175 22.64 323.283 22.682 323.367 22.766C323.451 22.85 323.493 22.952 323.493 23.072V24.098C323.493 24.218 323.451 24.326 323.367 24.422C323.283 24.506 323.175 24.548 323.043 24.548H320.127V31.568C320.127 31.688 320.085 31.79 320.001 31.874C319.929 31.958 319.827 32 319.695 32H318.237ZM327.637 32.18C327.025 32.18 326.461 32.06 325.945 31.82C325.441 31.568 325.039 31.232 324.739 30.812C324.451 30.392 324.307 29.93 324.307 29.426C324.307 28.61 324.637 27.95 325.297 27.446C325.957 26.942 326.863 26.6 328.015 26.42L330.481 26.06V25.682C330.481 25.154 330.349 24.758 330.085 24.494C329.821 24.23 329.395 24.098 328.807 24.098C328.411 24.098 328.087 24.176 327.835 24.332C327.595 24.476 327.403 24.62 327.259 24.764C327.115 24.92 327.019 25.022 326.971 25.07C326.923 25.214 326.833 25.286 326.701 25.286H325.315C325.207 25.286 325.111 25.25 325.027 25.178C324.955 25.106 324.919 25.01 324.919 24.89C324.931 24.59 325.075 24.248 325.351 23.864C325.639 23.48 326.077 23.15 326.665 22.874C327.253 22.598 327.973 22.46 328.825 22.46C330.241 22.46 331.273 22.778 331.921 23.414C332.569 24.05 332.893 24.884 332.893 25.916V31.568C332.893 31.688 332.851 31.79 332.767 31.874C332.695 31.958 332.593 32 332.461 32H331.003C330.883 32 330.781 31.958 330.697 31.874C330.613 31.79 330.571 31.688 330.571 31.568V30.866C330.307 31.25 329.929 31.568 329.437 31.82C328.957 32.06 328.357 32.18 327.637 32.18ZM328.249 30.47C328.909 30.47 329.449 30.254 329.869 29.822C330.289 29.39 330.499 28.76 330.499 27.932V27.554L328.699 27.842C328.003 27.95 327.475 28.124 327.115 28.364C326.767 28.604 326.593 28.898 326.593 29.246C326.593 29.63 326.755 29.93 327.079 30.146C327.403 30.362 327.793 30.47 328.249 30.47ZM339.235 32.18C337.903 32.18 336.841 31.796 336.049 31.028C335.269 30.248 334.855 29.156 334.807 27.752L334.789 27.302L334.807 26.852C334.867 25.484 335.287 24.41 336.067 23.63C336.859 22.85 337.915 22.46 339.235 22.46C340.651 22.46 341.743 22.892 342.511 23.756C343.291 24.62 343.681 25.772 343.681 27.212V27.59C343.681 27.71 343.639 27.812 343.555 27.896C343.471 27.98 343.363 28.022 343.231 28.022H337.255V28.166C337.279 28.826 337.459 29.384 337.795 29.84C338.143 30.284 338.617 30.506 339.217 30.506C339.925 30.506 340.495 30.23 340.927 29.678C341.035 29.546 341.119 29.462 341.179 29.426C341.251 29.39 341.353 29.372 341.485 29.372H343.033C343.141 29.372 343.231 29.408 343.303 29.48C343.387 29.54 343.429 29.618 343.429 29.714C343.429 30.002 343.255 30.344 342.907 30.74C342.571 31.124 342.085 31.46 341.449 31.748C340.813 32.036 340.075 32.18 339.235 32.18ZM341.233 26.51V26.456C341.233 25.748 341.053 25.178 340.693 24.746C340.345 24.314 339.859 24.098 339.235 24.098C338.611 24.098 338.125 24.314 337.777 24.746C337.429 25.178 337.255 25.748 337.255 26.456V26.51H341.233ZM348.453 32C348.333 32 348.231 31.958 348.147 31.874C348.063 31.79 348.021 31.688 348.021 31.568V24.548H345.087C344.967 24.548 344.865 24.506 344.781 24.422C344.697 24.338 344.655 24.23 344.655 24.098V23.072C344.655 22.94 344.697 22.838 344.781 22.766C344.865 22.682 344.967 22.64 345.087 22.64H353.259C353.391 22.64 353.499 22.682 353.583 22.766C353.667 22.85 353.709 22.952 353.709 23.072V24.098C353.709 24.218 353.667 24.326 353.583 24.422C353.499 24.506 353.391 24.548 353.259 24.548H350.343V31.568C350.343 31.688 350.301 31.79 350.217 31.874C350.145 31.958 350.043 32 349.911 32H348.453Z" fill="white"/>
<defs>
<radialGradient id="paint0_radial_238_7012" cx="0" cy="0" r="1" gradientUnits="userSpaceOnUse" gradientTransform="translate(277.398 51) rotate(-90) scale(51 187.641)">
<stop offset="4.59912e-10" stop-color="#0084FF"/>
<stop offset="1" stop-color="#5CB0FF"/>
</radialGradient>
</defs>
</svg>
