<svg width="470" height="470" viewBox="0 0 470 470" fill="none" xmlns="http://www.w3.org/2000/svg">
<path d="M430.934 185.216C430.078 201.769 432.89 218.306 439.17 233.646C447.695 254.802 454.807 290.617 431.708 331.638C394.825 397.218 345.779 409.266 281.829 401.504C217.878 393.743 117.431 448.154 67.8307 392.264C18.2307 336.375 4.69783 260.056 56.0802 165.109C107.463 70.1618 150.278 70.058 212.752 74.5919C275.225 79.1257 307.027 48.1432 368.467 67.4475C412.686 81.3357 433.362 141.798 430.934 185.216Z" fill="#5CB0FF"/>
<path opacity="0.7" d="M430.934 185.216C430.077 201.769 432.89 218.306 439.169 233.646C447.695 254.802 454.807 290.617 431.708 331.638C394.825 397.218 345.779 409.266 281.828 401.504C217.878 393.743 117.43 448.154 67.8304 392.265C18.2305 336.375 4.69759 260.056 56.0799 165.109C107.462 70.1618 150.278 70.058 212.752 74.5919C275.225 79.1257 307.027 48.1432 368.467 67.4475C412.686 81.3357 433.362 141.798 430.934 185.216Z" fill="white"/>
<path d="M360.533 236.601L374.723 372.569" stroke="#263238" stroke-linecap="round" stroke-linejoin="round"/>
<path d="M371.933 345.979L366.003 339.75" stroke="#263238" stroke-linecap="round" stroke-linejoin="round"/>
<path d="M367.963 341.789C367.949 340.75 367.714 339.725 367.272 338.783C366.831 337.842 366.193 337.005 365.403 336.33C363.753 334.86 355.063 331.2 354.233 334.26C353.343 337.59 362.233 344.129 367.963 341.789Z" fill="#5CB0FF" stroke="#263238" stroke-linecap="round" stroke-linejoin="round"/>
<path d="M367.963 341.789L359.693 336.629" stroke="#263238" stroke-linecap="round" stroke-linejoin="round"/>
<path d="M373.403 360.019L367.623 355.219" stroke="#263238" stroke-linecap="round" stroke-linejoin="round"/>
<path d="M369.573 357.249C369.562 356.209 369.328 355.183 368.886 354.241C368.444 353.299 367.806 352.463 367.013 351.789C365.363 350.319 356.673 346.659 355.853 349.719C354.953 353.049 363.843 359.589 369.573 357.249Z" fill="#5CB0FF" stroke="#263238" stroke-linecap="round" stroke-linejoin="round"/>
<path d="M369.573 357.249L361.303 352.099" stroke="#263238" stroke-linecap="round" stroke-linejoin="round"/>
<path d="M367.913 307.27L362.073 302.02" stroke="#263238" stroke-linecap="round" stroke-linejoin="round"/>
<path d="M364.023 304.05C364.009 303.012 363.773 301.988 363.332 301.048C362.89 300.109 362.253 299.274 361.463 298.6C359.813 297.12 351.123 293.47 350.293 296.53C349.403 299.86 358.293 306.38 364.023 304.05Z" fill="#5CB0FF" stroke="#263238" stroke-linecap="round" stroke-linejoin="round"/>
<path d="M364.023 304.05L355.753 298.9" stroke="#263238" stroke-linecap="round" stroke-linejoin="round"/>
<path d="M369.543 323.72L363.683 317.48" stroke="#263238" stroke-linecap="round" stroke-linejoin="round"/>
<path d="M365.633 319.52C365.623 318.479 365.389 317.453 364.947 316.511C364.505 315.569 363.866 314.733 363.073 314.06C361.423 312.59 352.733 308.93 351.913 311.99C351.013 315.32 359.913 321.86 365.633 319.52Z" fill="#5CB0FF" stroke="#263238" stroke-linecap="round" stroke-linejoin="round"/>
<path d="M365.633 319.52L357.363 314.36" stroke="#263238" stroke-linecap="round" stroke-linejoin="round"/>
<path d="M365.303 282.87L359.443 276.9" stroke="#263238" stroke-linecap="round" stroke-linejoin="round"/>
<path d="M361.403 278.941C361.389 277.901 361.154 276.876 360.712 275.934C360.271 274.993 359.634 274.156 358.843 273.481C357.193 272.001 348.503 268.351 347.673 271.411C346.783 274.741 355.673 281.281 361.403 278.941Z" fill="#5CB0FF" stroke="#263238" stroke-linecap="round" stroke-linejoin="round"/>
<path d="M361.403 278.94L353.133 273.781" stroke="#263238" stroke-linecap="round" stroke-linejoin="round"/>
<path d="M362.483 256.011L356.813 251.671" stroke="#263238" stroke-linecap="round" stroke-linejoin="round"/>
<path d="M358.773 253.711C358.759 252.671 358.524 251.646 358.082 250.705C357.641 249.763 357.004 248.927 356.213 248.251C354.553 246.781 345.863 243.121 345.043 246.181C344.143 249.511 353.043 256.051 358.773 253.711Z" fill="#5CB0FF" stroke="#263238" stroke-linecap="round" stroke-linejoin="round"/>
<path d="M358.773 253.711L350.493 248.551" stroke="#263238" stroke-linecap="round" stroke-linejoin="round"/>
<path d="M371.363 337.399L376.253 329.419" stroke="#263238" stroke-linecap="round" stroke-linejoin="round"/>
<path d="M374.753 331.82C374.551 330.799 374.569 329.748 374.807 328.735C375.046 327.723 375.497 326.773 376.133 325.95C377.443 324.17 385.193 318.79 386.633 321.62C388.203 324.69 380.843 332.92 374.753 331.82Z" stroke="#263238" stroke-linecap="round" stroke-linejoin="round"/>
<path d="M374.753 331.82L380.573 326.35" stroke="#263238" stroke-linecap="round" stroke-linejoin="round"/>
<path d="M367.113 296.71L372.003 288.73" stroke="#263238" stroke-linecap="round" stroke-linejoin="round"/>
<path d="M370.513 291.12C370.311 290.102 370.33 289.052 370.568 288.041C370.806 287.03 371.258 286.082 371.893 285.26C373.203 283.47 379.263 279.01 380.703 281.83C382.293 284.9 376.603 292.23 370.513 291.12Z" fill="#5CB0FF" stroke="#263238" stroke-linecap="round" stroke-linejoin="round"/>
<path d="M370.513 291.12L377.963 284" stroke="#263238" stroke-linecap="round" stroke-linejoin="round"/>
<path d="M365.243 278.82L370.133 270.851" stroke="#263238" stroke-linecap="round" stroke-linejoin="round"/>
<path d="M368.643 273.241C368.441 272.221 368.459 271.169 368.697 270.157C368.936 269.144 369.387 268.194 370.023 267.371C371.333 265.591 379.083 260.221 380.523 263.041C382.083 266.121 374.733 274.381 368.643 273.241Z" fill="#5CB0FF" stroke="#263238" stroke-linecap="round" stroke-linejoin="round"/>
<path d="M368.642 273.24L376.092 266.121" stroke="#263238" stroke-linecap="round" stroke-linejoin="round"/>
<path d="M362.513 252.611L367.403 244.631" stroke="#263238" stroke-linecap="round" stroke-linejoin="round"/>
<path d="M365.913 247.031C365.707 246.012 365.723 244.96 365.96 243.947C366.196 242.934 366.647 241.984 367.283 241.161C368.602 239.381 376.342 234.001 377.782 236.831C379.352 239.901 371.992 248.131 365.913 247.031Z" fill="#5CB0FF" stroke="#263238" stroke-linecap="round" stroke-linejoin="round"/>
<path d="M365.913 247.031L373.353 239.911" stroke="#263238" stroke-linecap="round" stroke-linejoin="round"/>
<path d="M360.413 235.851C360.211 234.831 360.229 233.779 360.468 232.767C360.706 231.754 361.157 230.804 361.793 229.981C363.103 228.191 370.853 222.821 372.293 225.651C373.863 228.721 366.503 236.951 360.413 235.851Z" fill="#5CB0FF" stroke="#263238" stroke-linecap="round" stroke-linejoin="round"/>
<path d="M360.413 235.851L367.863 228.731" stroke="#263238" stroke-linecap="round" stroke-linejoin="round"/>
<path d="M360.853 236.151C359.817 236.243 358.773 236.111 357.792 235.766C356.811 235.421 355.915 234.871 355.163 234.151C353.523 232.661 348.993 224.391 351.953 223.251C355.173 222.042 362.583 230.211 360.853 236.151Z" fill="#5CB0FF" stroke="#263238" stroke-linecap="round" stroke-linejoin="round"/>
<path d="M360.853 236.151L354.553 228.001" stroke="#263238" stroke-linecap="round" stroke-linejoin="round"/>
<path d="M381.793 199.962V371.899" stroke="#263238" stroke-linecap="round" stroke-linejoin="round"/>
<path d="M397.962 255.331L383.852 391.299" stroke="#263238" stroke-linecap="round" stroke-linejoin="round"/>
<path d="M386.832 363.519L383.572 359.789" stroke="#263238" stroke-linecap="round" stroke-linejoin="round"/>
<path d="M383.572 359.789C383.774 358.768 383.755 357.716 383.515 356.703C383.275 355.691 382.821 354.741 382.183 353.919C380.873 352.139 373.123 346.769 371.683 349.599C370.123 352.669 377.483 360.899 383.572 359.789Z" fill="#5CB0FF" stroke="#263238" stroke-linecap="round" stroke-linejoin="round"/>
<path d="M383.573 359.789L376.533 353.039" stroke="#263238" stroke-linecap="round" stroke-linejoin="round"/>
<path d="M390.822 324.7L385.972 320.65" stroke="#263238" stroke-linecap="round" stroke-linejoin="round"/>
<path d="M387.483 322.05C387.685 321.031 387.666 319.981 387.428 318.97C387.19 317.959 386.738 317.011 386.103 316.19C384.793 314.4 377.043 309.04 375.603 311.86C374.043 314.93 381.393 323.16 387.483 322.05Z" fill="#5CB0FF" stroke="#263238" stroke-linecap="round" stroke-linejoin="round"/>
<path d="M387.483 322.05L380.453 315.3" stroke="#263238" stroke-linecap="round" stroke-linejoin="round"/>
<path d="M389.283 343.089L384.383 335.119" stroke="#263238" stroke-linecap="round" stroke-linejoin="round"/>
<path d="M385.883 337.52C386.085 336.499 386.066 335.448 385.828 334.435C385.59 333.423 385.138 332.473 384.503 331.65C383.183 329.87 375.433 324.5 374.003 327.32C372.433 330.38 379.793 338.63 385.883 337.52Z" fill="#5CB0FF" stroke="#263238" stroke-linecap="round" stroke-linejoin="round"/>
<path d="M385.883 337.519L378.843 330.77" stroke="#263238" stroke-linecap="round" stroke-linejoin="round"/>
<path d="M393.272 299.92L388.602 294.54" stroke="#263238" stroke-linecap="round" stroke-linejoin="round"/>
<path d="M390.092 296.93C390.294 295.91 390.276 294.858 390.038 293.846C389.8 292.833 389.348 291.884 388.712 291.06C387.392 289.28 379.643 283.92 378.213 286.74C376.643 289.81 384.002 298.04 390.092 296.93Z" fill="#5CB0FF" stroke="#263238" stroke-linecap="round" stroke-linejoin="round"/>
<path d="M390.092 296.93L383.053 290.18" stroke="#263238" stroke-linecap="round" stroke-linejoin="round"/>
<path d="M395.723 276.311L391.213 269.311" stroke="#263238" stroke-linecap="round" stroke-linejoin="round"/>
<path d="M392.712 271.7C392.914 270.679 392.895 269.627 392.655 268.614C392.415 267.602 391.961 266.652 391.323 265.83C390.013 264.051 382.263 258.691 380.823 261.511C379.293 264.581 386.623 272.81 392.712 271.7Z" fill="#5CB0FF" stroke="#263238" stroke-linecap="round" stroke-linejoin="round"/>
<path d="M392.712 271.701L385.673 264.951" stroke="#263238" stroke-linecap="round" stroke-linejoin="round"/>
<path d="M387.793 356.189L394.223 349.389" stroke="#263238" stroke-linecap="round" stroke-linejoin="round"/>
<path d="M392.293 351.429C392.303 350.389 392.537 349.363 392.979 348.421C393.421 347.479 394.06 346.643 394.853 345.969C396.503 344.499 405.193 340.829 406.013 343.889C406.893 347.219 398.003 353.769 392.293 351.429Z" fill="#5CB0FF" stroke="#263238" stroke-linecap="round" stroke-linejoin="round"/>
<path d="M392.273 351.429L401.033 346" stroke="#263238" stroke-linecap="round" stroke-linejoin="round"/>
<path d="M392.022 315.5L398.452 308.7" stroke="#263238" stroke-linecap="round" stroke-linejoin="round"/>
<path d="M396.492 310.73C396.506 309.691 396.742 308.668 397.183 307.728C397.625 306.788 398.262 305.953 399.052 305.28C400.702 303.8 409.392 300.14 410.212 303.2C411.112 306.53 402.222 313.07 396.492 310.73Z" fill="#5CB0FF" stroke="#263238" stroke-linecap="round" stroke-linejoin="round"/>
<path d="M396.492 310.73L405.252 305.3" stroke="#263238" stroke-linecap="round" stroke-linejoin="round"/>
<path d="M393.872 297.61L400.302 290.811" stroke="#263238" stroke-linecap="round" stroke-linejoin="round"/>
<path d="M398.352 292.85C398.363 291.81 398.598 290.784 399.039 289.842C399.481 288.9 400.119 288.064 400.912 287.39C402.562 285.92 411.242 282.26 412.072 285.32C412.972 288.65 404.082 295.19 398.352 292.85Z" fill="#5CB0FF" stroke="#263238" stroke-linecap="round" stroke-linejoin="round"/>
<path d="M398.352 292.85L407.102 287.42" stroke="#263238" stroke-linecap="round" stroke-linejoin="round"/>
<path d="M396.523 270.051L403.022 264.601" stroke="#263238" stroke-linecap="round" stroke-linejoin="round"/>
<path d="M401.072 266.631C401.083 265.592 401.318 264.568 401.759 263.628C402.201 262.687 402.84 261.853 403.632 261.181C405.282 259.701 413.962 256.041 414.792 259.101C415.692 262.431 406.802 268.971 401.072 266.631Z" fill="#5CB0FF" stroke="#263238" stroke-linecap="round" stroke-linejoin="round"/>
<path d="M401.072 266.631L409.822 261.201" stroke="#263238" stroke-linecap="round" stroke-linejoin="round"/>
<path d="M398.003 254.561C398.014 253.522 398.247 252.497 398.687 251.555C399.127 250.613 399.763 249.777 400.553 249.101C402.203 247.631 410.892 243.971 411.722 247.031C412.622 250.381 403.733 256.901 398.003 254.561Z" fill="#5CB0FF" stroke="#263238" stroke-linecap="round" stroke-linejoin="round"/>
<path d="M398.003 254.561L406.753 249.131" stroke="#263238" stroke-linecap="round" stroke-linejoin="round"/>
<path d="M398.362 254.951C397.33 254.831 396.335 254.491 395.445 253.955C394.555 253.418 393.79 252.697 393.202 251.841C391.902 250.041 389.202 241.021 392.302 240.521C395.712 239.971 401.292 249.501 398.362 254.951Z" fill="#5CB0FF" stroke="#263238" stroke-linecap="round" stroke-linejoin="round"/>
<path d="M398.362 254.951L393.872 245.671" stroke="#263238" stroke-linecap="round" stroke-linejoin="round"/>
<path d="M381.563 345.73L376.233 338.63" stroke="#263238" stroke-linecap="round" stroke-linejoin="round"/>
<path d="M377.973 340.849C378.064 339.813 377.933 338.769 377.588 337.788C377.243 336.807 376.692 335.911 375.973 335.159C374.483 333.519 366.213 328.979 365.083 331.939C363.863 335.159 372.033 342.589 377.973 340.849Z" fill="#5CB0FF" stroke="#263238" stroke-linecap="round" stroke-linejoin="round"/>
<path d="M377.973 340.849L370.273 334.869" stroke="#263238" stroke-linecap="round" stroke-linejoin="round"/>
<path d="M381.743 311.44L376.233 306.31" stroke="#263238" stroke-linecap="round" stroke-linejoin="round"/>
<path d="M377.973 308.54C378.064 307.504 377.933 306.46 377.588 305.479C377.243 304.497 376.692 303.601 375.973 302.85C374.483 301.21 366.213 296.67 365.083 299.63C363.863 302.85 372.033 310.27 377.973 308.54Z" fill="#5CB0FF" stroke="#263238" stroke-linecap="round" stroke-linejoin="round"/>
<path d="M377.973 308.54L370.273 302.55" stroke="#263238" stroke-linecap="round" stroke-linejoin="round"/>
<path d="M381.933 275.801L376.233 268.371" stroke="#263238" stroke-linecap="round" stroke-linejoin="round"/>
<path d="M377.973 270.6C378.064 269.564 377.933 268.521 377.588 267.539C377.243 266.558 376.692 265.662 375.973 264.911C374.483 263.271 366.213 258.731 365.083 261.691C363.863 264.911 372.033 272.38 377.973 270.6Z" fill="#5CB0FF" stroke="#263238" stroke-linecap="round" stroke-linejoin="round"/>
<path d="M377.973 270.601L370.273 264.621" stroke="#263238" stroke-linecap="round" stroke-linejoin="round"/>
<path d="M381.563 247.921L376.233 243.121" stroke="#263238" stroke-linecap="round" stroke-linejoin="round"/>
<path d="M377.973 245.381C378.064 244.343 377.932 243.298 377.587 242.316C377.242 241.333 376.692 240.435 375.973 239.681C374.483 238.051 366.213 233.511 365.083 236.471C363.863 239.651 372.033 247.081 377.973 245.381Z" fill="#5CB0FF" stroke="#263238" stroke-linecap="round" stroke-linejoin="round"/>
<path d="M377.973 245.351L370.273 239.361" stroke="#263238" stroke-linecap="round" stroke-linejoin="round"/>
<path d="M381.863 222.651L376.343 218.601" stroke="#263238" stroke-linecap="round" stroke-linejoin="round"/>
<path d="M377.973 219.982C378.064 218.945 377.933 217.902 377.588 216.92C377.243 215.939 376.692 215.043 375.973 214.292C374.483 212.652 366.213 208.112 365.083 211.072C363.863 214.292 372.033 221.712 377.973 219.982Z" fill="#5CB0FF" stroke="#263238" stroke-linecap="round" stroke-linejoin="round"/>
<path d="M377.973 219.982L370.273 213.992" stroke="#263238" stroke-linecap="round" stroke-linejoin="round"/>
<path d="M382.913 354.319L387.493 348.49" stroke="#263238" stroke-linecap="round" stroke-linejoin="round"/>
<path d="M385.762 350.719C385.671 349.683 385.802 348.64 386.147 347.658C386.492 346.677 387.043 345.781 387.762 345.029C389.252 343.389 397.512 338.85 398.652 341.81C399.872 345.029 391.702 352.449 385.762 350.719Z" fill="#5CB0FF" stroke="#263238" stroke-linecap="round" stroke-linejoin="round"/>
<path d="M385.762 350.719L393.912 344.409" stroke="#263238" stroke-linecap="round" stroke-linejoin="round"/>
<path d="M381.802 304.53L387.492 297.1" stroke="#263238" stroke-linecap="round" stroke-linejoin="round"/>
<path d="M385.763 299.38C385.672 298.343 385.803 297.297 386.148 296.315C386.493 295.332 387.043 294.434 387.762 293.68C389.252 292.05 397.512 287.51 398.652 290.47C399.872 293.63 391.702 301.06 385.763 299.38Z" fill="#5CB0FF" stroke="#263238" stroke-linecap="round" stroke-linejoin="round"/>
<path d="M385.762 299.33L393.912 293.02" stroke="#263238" stroke-linecap="round" stroke-linejoin="round"/>
<path d="M381.802 279.16L387.492 271.73" stroke="#263238" stroke-linecap="round" stroke-linejoin="round"/>
<path d="M385.762 273.961C385.671 272.924 385.802 271.881 386.147 270.899C386.492 269.918 387.043 269.022 387.762 268.271C389.252 266.631 397.512 262.091 398.652 265.051C399.872 268.271 391.702 275.691 385.762 273.961Z" fill="#5CB0FF" stroke="#263238" stroke-linecap="round" stroke-linejoin="round"/>
<path d="M385.762 273.961L393.912 267.651" stroke="#263238" stroke-linecap="round" stroke-linejoin="round"/>
<path d="M381.802 245.631L387.492 238.211" stroke="#263238" stroke-linecap="round" stroke-linejoin="round"/>
<path d="M385.763 240.441C385.672 239.403 385.803 238.358 386.148 237.375C386.493 236.393 387.043 235.495 387.762 234.741C389.252 233.101 397.512 228.571 398.652 231.531C399.872 234.741 391.702 242.171 385.763 240.441Z" fill="#5CB0FF" stroke="#263238" stroke-linecap="round" stroke-linejoin="round"/>
<path d="M385.762 240.441L393.912 234.131" stroke="#263238" stroke-linecap="round" stroke-linejoin="round"/>
<path d="M382.052 216.702L387.632 212.342" stroke="#263238" stroke-linecap="round" stroke-linejoin="round"/>
<path d="M385.763 214.082C385.672 213.044 385.803 211.999 386.148 211.016C386.493 210.033 387.043 209.135 387.762 208.382C389.252 206.752 397.512 202.212 398.652 205.172C399.872 208.382 391.702 215.812 385.763 214.082Z" fill="#5CB0FF" stroke="#263238" stroke-linecap="round" stroke-linejoin="round"/>
<path d="M385.762 214.082L393.912 207.772" stroke="#263238" stroke-linecap="round" stroke-linejoin="round"/>
<path d="M381.463 202.382C381.372 201.344 381.504 200.299 381.848 199.316C382.193 198.333 382.744 197.435 383.463 196.682C384.953 195.052 393.213 190.512 394.353 193.472C395.573 196.692 387.403 204.122 381.463 202.382Z" fill="#5CB0FF" stroke="#263238" stroke-linecap="round" stroke-linejoin="round"/>
<path d="M381.463 202.392L389.613 196.082" stroke="#263238" stroke-linecap="round" stroke-linejoin="round"/>
<path d="M381.863 202.742C380.822 202.728 379.796 202.491 378.854 202.048C377.912 201.605 377.076 200.965 376.403 200.172C374.933 198.522 371.283 189.822 374.353 189.002C377.683 188.112 384.202 197.012 381.863 202.742Z" fill="#5CB0FF" stroke="#263238" stroke-linecap="round" stroke-linejoin="round"/>
<path d="M381.863 202.742L376.443 193.972" stroke="#263238" stroke-linecap="round" stroke-linejoin="round"/>
<path d="M388.863 416.498H370.653L368.383 370.509H391.143L388.863 416.498Z" fill="#263238" stroke="#263238" stroke-linecap="round" stroke-linejoin="round"/>
<g opacity="0.3">
<path opacity="0.3" d="M373.285 313.519V221.431C373.285 217.927 371.895 214.567 369.421 212.087C366.946 209.606 363.589 208.209 360.085 208.201H239.087V314.439" stroke="black" stroke-linejoin="round"/>
<path opacity="0.3" d="M240.087 208.201H116.859C115.122 208.201 113.402 208.543 111.798 209.208C110.193 209.873 108.735 210.848 107.507 212.077C106.28 213.305 105.306 214.764 104.642 216.369C103.979 217.974 103.638 219.694 103.639 221.431V313.519" stroke="black" stroke-linejoin="round"/>
<path opacity="0.3" d="M385.235 322.319V353.319H239.087V313.52H376.435C378.769 313.52 381.007 314.447 382.657 316.097C384.308 317.747 385.235 319.986 385.235 322.319V322.319Z" stroke="black" stroke-linejoin="round"/>
<path opacity="0.3" d="M240.247 313.52H100.479C98.1451 313.52 95.9068 314.447 94.2565 316.097C92.6062 317.747 91.6791 319.986 91.6791 322.319V353.319H240.247" stroke="black" stroke-linejoin="round"/>
<path opacity="0.3" d="M385.474 353.289H91.6791V403.178H385.474V353.289Z" stroke="black" stroke-linejoin="round"/>
<path opacity="0.3" d="M103.639 260.68C102.81 259.817 101.814 259.13 100.713 258.661C99.6114 258.192 98.4265 257.95 97.2293 257.95H58.6899C57.5256 257.949 56.3724 258.177 55.2963 258.622C54.2203 259.066 53.2424 259.719 52.4186 260.542C51.5948 261.364 50.9413 262.342 50.4954 263.417C50.0496 264.493 49.8201 265.646 49.8201 266.81V394.318C49.8227 396.669 50.7584 398.922 52.4215 400.583C54.0847 402.245 56.3392 403.178 58.6899 403.178H97.2293" stroke="black" stroke-linejoin="round"/>
<path opacity="0.3" d="M376.615 403.178H415.144C417.495 403.178 419.75 402.245 421.413 400.584C423.076 398.922 424.012 396.669 424.014 394.318V266.81C424.012 264.459 423.076 262.206 421.413 260.545C419.75 258.883 417.495 257.95 415.144 257.95H376.615C375.473 257.947 374.342 258.168 373.285 258.6" stroke="black" stroke-linejoin="round"/>
</g>
<path d="M232.451 397.358C232.451 397.358 252.201 403.848 254.771 404.298C257.341 404.748 256.581 407.468 253.561 409.428C250.541 411.388 246.021 411.988 235.311 410.478C224.601 408.968 222.651 407.008 221.891 407.318C221.131 407.628 219.331 409.118 216.761 407.918C214.191 406.718 212.991 401.918 215.561 399.618C218.131 397.318 232.451 397.358 232.451 397.358Z" fill="#5CB0FF" stroke="#263238" stroke-linecap="round" stroke-linejoin="round"/>
<path d="M256.261 405.818C250.451 410.458 235.171 408.878 227.541 406.818C223.371 405.665 219.019 405.325 214.721 405.818C215.126 406.74 215.831 407.497 216.721 407.968C219.291 409.168 221.101 407.668 221.851 407.368C222.601 407.068 224.571 409.018 235.271 410.528C245.971 412.038 250.511 411.438 253.521 409.478C255.281 408.278 256.261 406.878 256.261 405.818Z" fill="#263238" stroke="#263238" stroke-linecap="round" stroke-linejoin="round"/>
<path d="M218.681 402.058C218.681 402.058 225.611 408.388 231.191 411.558C236.771 414.728 238.731 416.838 236.021 419.997C233.311 423.157 231.191 422.417 220.021 419.997C208.851 417.578 202.231 412.908 202.231 412.908C202.231 412.908 201.771 414.418 198.161 413.368C194.552 412.318 194.852 409.428 195.752 407.058C196.652 404.688 208.271 397.058 218.681 402.058Z" fill="#5CB0FF" stroke="#263238" stroke-linecap="round" stroke-linejoin="round"/>
<path d="M236.021 419.977C236.389 419.56 236.695 419.092 236.931 418.587C235.294 419.493 233.462 419.99 231.591 420.037C227.171 420.097 213.191 415.707 207.512 412.458C202.842 409.788 197.082 409.868 195.172 409.978C195.242 411.428 195.992 412.708 198.172 413.348C201.782 414.347 202.242 412.887 202.242 412.887C202.242 412.887 208.872 417.567 220.031 419.977C231.191 422.387 233.301 423.147 236.021 419.977Z" fill="#263238" stroke="#263238" stroke-linecap="round" stroke-linejoin="round"/>
<path d="M251.341 119.823C256.301 122.859 260.1 127.472 262.131 132.922C265.27 141.832 267.19 182.632 267.19 182.632L281.74 173.342C281.74 173.342 290.97 170.852 291.27 174.542C291.57 178.232 290.35 184.931 290.35 184.931C290.35 184.931 270.86 201.481 268.23 204.381C265.6 207.281 262.581 210.531 258.171 210.071C253.761 209.611 256.451 183.891 256.451 183.891L251.341 119.823Z" fill="#5CB0FF" stroke="#263238" stroke-linecap="round" stroke-linejoin="round"/>
<path d="M281.74 173.342C281.74 173.342 284.89 181.511 290.35 184.931C290.391 181.45 290.698 177.976 291.27 174.542C292.11 170.602 285.54 167.522 281.74 173.342Z" fill="#263238" stroke="#263238" stroke-linecap="round" stroke-linejoin="round"/>
<path d="M254.31 233.13C253.599 251.895 251.722 270.598 248.691 289.13C243.921 316.489 232.691 336.769 231.841 347.129C230.991 357.488 230.841 377.738 230.841 381.958C230.841 386.178 232.201 384.828 232.351 388.598C232.501 392.368 232.351 397.338 232.351 397.338C229.869 398.534 227.298 399.537 224.661 400.338C223.172 400.734 221.659 401.035 220.131 401.238C220.131 401.238 220.741 402.448 217.571 394.758C214.401 387.068 213.171 373.578 213.431 360.458C213.691 347.339 219.891 324.089 222.261 310.869C224.631 297.649 231.351 263.87 232.091 256.76C232.831 249.65 234.521 232.24 234.521 232.24C238.311 232.856 242.169 232.933 245.981 232.47C252.07 231.73 254.31 233.13 254.31 233.13Z" fill="white" stroke="#263238" stroke-linecap="round" stroke-linejoin="round"/>
<path d="M237.211 233.991C229.267 235.888 220.965 235.671 213.131 233.361C200.381 229.491 192.431 227.361 192.131 228.421C192.072 228.547 192.039 228.685 192.036 228.825C192.032 228.964 192.058 229.103 192.112 229.232C192.166 229.362 192.246 229.478 192.348 229.574C192.449 229.67 192.57 229.744 192.701 229.791C192.701 229.791 195.591 305.39 193.121 315.899C190.651 326.409 189.231 328.189 189.211 337.059C189.191 345.929 190.021 381.348 191.831 391.598C193.641 401.848 193.341 400.378 193.031 403.088C192.721 405.798 193.641 407.768 194.241 408.218C194.841 408.668 196.811 412.408 205.101 409.398C210.39 407.449 215.577 405.233 220.641 402.758C221.034 399.608 221.184 396.432 221.091 393.258C221.091 386.168 217.441 380.918 217.551 375.489C217.661 370.059 216.941 345.609 221.811 328.659C225.531 315.66 231.201 282.01 234.431 262.15L240.771 258.31" fill="white"/>
<path d="M237.211 233.991C229.267 235.888 220.965 235.671 213.131 233.361C200.381 229.491 192.431 227.361 192.131 228.421C192.072 228.547 192.039 228.685 192.036 228.825C192.032 228.964 192.058 229.103 192.112 229.232C192.166 229.362 192.246 229.478 192.348 229.574C192.449 229.67 192.57 229.744 192.701 229.791C192.701 229.791 195.591 305.39 193.121 315.899C190.651 326.409 189.231 328.189 189.211 337.059C189.191 345.929 190.021 381.348 191.831 391.598C193.641 401.848 193.341 400.378 193.031 403.088C192.721 405.798 193.641 407.768 194.241 408.218C194.841 408.668 196.811 412.408 205.101 409.398C210.39 407.449 215.577 405.233 220.641 402.758C221.034 399.608 221.184 396.432 221.091 393.258C221.091 386.168 217.441 380.918 217.551 375.489C217.661 370.059 216.941 345.609 221.811 328.659C225.531 315.66 231.201 282.01 234.431 262.15L240.771 258.31" stroke="#263238" stroke-linecap="round" stroke-linejoin="round"/>
<path d="M196.651 347.149C196.134 350.554 195.894 353.995 195.931 357.439C196.271 368.758 199.601 392.728 199.931 394.058C200.261 395.388 198.261 399.058 198.931 401.388C199.601 403.718 201.261 408.388 201.261 408.388" stroke="#263238" stroke-linecap="round" stroke-linejoin="round"/>
<path d="M203.892 263.66C203.342 284.37 202.302 320.419 201.592 323.489C201.002 326.059 198.992 333.569 197.592 341.619" stroke="#263238" stroke-linecap="round" stroke-linejoin="round"/>
<path d="M204.261 249.25C204.261 249.25 204.181 252.34 204.061 257.25" stroke="#263238" stroke-linecap="round" stroke-linejoin="round"/>
<path d="M223.021 396.288C222.911 398.058 222.911 399.288 222.911 399.288" stroke="white" stroke-width="0.75" stroke-linecap="round" stroke-linejoin="round"/>
<path d="M221.131 109.163L201.131 116.592L203.451 235.921C203.451 235.921 235.001 243.68 254.361 233.131L255.061 211.131C255.061 211.131 253.801 159.062 251.761 145.672C249.721 132.282 241.761 117.372 241.761 117.372C241.761 117.372 232.671 111.673 229.921 110.693C227.041 109.927 224.1 109.415 221.131 109.163Z" fill="#263238" stroke="#263238" stroke-linecap="round" stroke-linejoin="round"/>
<path d="M258.451 133.272C258.451 133.272 261.331 163.442 261.051 177.841C260.771 192.241 259.801 240.22 259.801 240.22L253.621 243.59C253.621 243.59 252.791 197.751 251.901 176.781C251.011 155.812 238.731 114.982 238.731 114.982L236.671 109.262C236.671 109.262 242.891 113.832 248.931 117.442C254.971 121.052 258.281 130.292 258.281 130.292" fill="#5CB0FF"/>
<path d="M258.451 133.272C258.451 133.272 261.331 163.442 261.051 177.841C260.771 192.241 259.801 240.22 259.801 240.22L253.621 243.59C253.621 243.59 252.791 197.751 251.901 176.781C251.011 155.812 238.731 114.982 238.731 114.982L236.671 109.262C236.671 109.262 242.891 113.832 248.931 117.442C254.971 121.052 258.281 130.292 258.281 130.292" stroke="#263238" stroke-linecap="round" stroke-linejoin="round"/>
<path d="M243.08 122.762C243.08 122.762 249.97 146.682 252.14 158.292C254.31 169.901 256.49 189.461 256.14 199.291C255.79 209.121 253.67 243.63 253.67 243.63" stroke="#263238" stroke-linecap="round" stroke-linejoin="round"/>
<path d="M233.261 116.012L243.351 130.212L237.911 112.722L235.301 106.032L233.261 116.012Z" fill="white" stroke="#263238" stroke-linecap="round" stroke-linejoin="round"/>
<path d="M221.511 84.833C221.511 84.833 215.731 107.953 215.511 108.973C215.291 109.993 232.221 126.332 232.221 126.332L238.751 106.333C238.751 106.333 228.291 99.7527 226.281 94.2528C224.271 88.7529 222.501 84.003 221.511 84.833Z" fill="white" stroke="#263238" stroke-linecap="round" stroke-linejoin="round"/>
<path d="M216.691 106.243C220.315 119.241 222.534 132.59 223.311 146.062C224.211 166.592 223.471 247.32 223.471 247.32L186.911 242.26C186.911 242.26 189.661 192.121 189.691 190.381C189.721 188.641 179.882 122.062 179.922 119.842C179.962 117.622 213.001 105.523 216.691 106.243Z" fill="#5CB0FF" stroke="#263238" stroke-linecap="round" stroke-linejoin="round"/>
<path d="M218.961 207.581L219.511 244.21" stroke="#263238" stroke-linecap="round" stroke-linejoin="round"/>
<path d="M217.701 123.842L218.901 203.601" stroke="#263238" stroke-linecap="round" stroke-linejoin="round"/>
<path d="M215.961 100.363L229.811 116.783L221.351 132.452L210.401 106.593L215.961 100.363Z" fill="white" stroke="#263238" stroke-linecap="round" stroke-linejoin="round"/>
<path d="M229.811 116.782L232.181 126.332L226.671 122.752L229.811 116.782Z" fill="white" stroke="#263238" stroke-linecap="round" stroke-linejoin="round"/>
<path d="M262.09 67.863C262.09 67.863 260.28 75.2429 255.541 89.8027C250.801 104.362 246.381 112.062 240.991 110.462C235.601 108.862 223.881 101.792 221.711 97.5425C219.541 93.2926 220.231 88.0527 220.231 88.0527C220.231 88.0527 215.601 87.7327 215.521 82.0528C215.441 76.3729 218.521 73.7329 220.831 73.4429C223.141 73.1529 227.161 76.2429 228.831 71.613C230.501 66.983 226.761 62.0831 230.431 59.4332C234.101 56.7832 242.491 56.8632 249.791 59.4332C254.352 61.0845 258.484 63.7399 261.88 67.203L262.09 67.863Z" fill="white" stroke="#263238" stroke-linecap="round" stroke-linejoin="round"/>
<path d="M252.33 81.9626C252.33 81.9626 252.62 90.6225 251.96 91.7325C251.3 92.8425 243.87 90.2825 243.87 90.2825" stroke="#263238" stroke-linecap="round" stroke-linejoin="round"/>
<path d="M248.45 96.7828C245.629 96.5402 242.945 95.4608 240.741 93.6829C236.991 90.6829 236.661 88.5129 236.661 88.5129" stroke="#263238" stroke-linecap="round" stroke-linejoin="round"/>
<path d="M237.981 87.4827L235.151 88.9226" stroke="#263238" stroke-linecap="round" stroke-linejoin="round"/>
<path d="M236.941 89.7029C236.941 89.7029 236.571 95.0028 237.791 97.1628C239.011 99.3227 242.791 95.3928 242.791 95.3928C242.791 95.3928 237.841 91.4729 236.941 89.7029Z" fill="#263238" stroke="#263238" stroke-linecap="round" stroke-linejoin="round"/>
<path d="M247.321 80.773C246.941 81.953 246.181 82.773 245.631 82.583C245.081 82.393 244.941 81.303 245.321 80.123C245.701 78.943 246.461 78.123 247.021 78.313C247.581 78.503 247.711 79.593 247.321 80.773Z" fill="#263238"/>
<path d="M256.18 83.5127C255.8 84.6927 255.04 85.5127 254.49 85.3227C253.94 85.1327 253.8 84.0427 254.18 82.8627C254.56 81.6828 255.32 80.8628 255.88 81.0528C256.44 81.2428 256.57 82.3327 256.18 83.5127Z" fill="#263238"/>
<path d="M240.591 72.6731C240.591 72.6731 243.851 69.4531 248.59 72.6231" stroke="#263238" stroke-linecap="round" stroke-linejoin="round"/>
<path d="M254.241 75.2033C254.241 75.2033 257.731 73.5334 258.781 77.1233" stroke="#263238" stroke-linecap="round" stroke-linejoin="round"/>
<path d="M265.3 62.8533C263.445 58.9862 260.361 55.8425 256.53 53.9134C243.96 47.2335 224.471 41.5936 219.341 63.5533C218.529 67.3339 218.17 71.1976 218.271 75.0631C218.909 74.7402 219.634 74.632 220.339 74.7545C221.043 74.877 221.689 75.2238 222.181 75.7431C223.791 77.603 222.301 79.923 225.101 79.943C227.901 79.963 228.491 76.7631 229.011 75.1631C229.531 73.5631 234.75 76.593 235.71 73.6531C236.82 70.2331 231.711 65.7932 235.47 63.0233C238.37 60.8833 242.25 63.8832 244.57 65.5232C248.38 68.2032 252.08 70.8731 256.57 72.3331C260.49 73.6031 266.2 75.3331 266.57 69.6332C266.706 67.3034 266.27 64.9757 265.3 62.8533Z" fill="#263238" stroke="#263238" stroke-linecap="round" stroke-linejoin="round"/>
<path d="M283.59 167.971C283.115 165.7 282.804 163.398 282.66 161.082C282.76 159.392 288.33 153.482 288.33 153.482L291.99 157.552L283.59 167.971Z" fill="white" stroke="#263238" stroke-linecap="round" stroke-linejoin="round"/>
<path d="M298.68 131.032L282.76 159.392L292.51 160.112L307.059 134.462L298.68 131.032Z" fill="#263238" stroke="#263238" stroke-linecap="round" stroke-linejoin="round"/>
<path d="M300.71 154.672C300.71 154.672 304.059 150.222 304.129 148.802C303.969 146.32 303.426 143.878 302.52 141.562C301.79 140.052 300.29 137.472 299.4 139.072C298.51 140.672 299.87 143.682 299.9 144.222C299.93 144.762 300.18 148.222 300.18 148.222L299.31 150.452L300.71 154.672Z" fill="white" stroke="#263238" stroke-linecap="round" stroke-linejoin="round"/>
<path d="M282.28 170.062C282.493 169.125 282.757 168.2 283.07 167.292C283.49 166.162 286.91 161.842 286.91 161.842C286.91 161.842 279.07 150.392 280.03 149.612C280.99 148.832 285.49 153.452 285.49 153.452L289.21 155.952L290.54 156.902C290.54 156.902 288.86 155.112 287.91 154.022C286.96 152.932 283.24 150.202 282.1 149.182C280.96 148.162 279.87 147.502 280.9 146.272C281.93 145.042 282.36 145.182 283.36 145.832C284.36 146.482 284.36 147.282 288.19 149.052C292.02 150.822 293.19 151.482 293.96 152.632C294.73 153.782 295.77 155.702 295.77 155.702L295.67 150.142C295.67 150.142 290.05 144.342 289.47 143.142C288.89 141.942 288.94 140.672 290.2 140.632C291.46 140.592 296.81 144.632 297.88 145.502C298.95 146.372 300.74 148.772 300.81 149.762C300.768 152.55 300.548 155.332 300.15 158.092C299.88 158.952 291.27 174.532 291.27 174.532L288.27 180.461C288.27 180.461 286.11 182.991 283.63 177.892C281.15 172.792 282.28 170.062 282.28 170.062Z" fill="white" stroke="#263238" stroke-linecap="round" stroke-linejoin="round"/>
<path d="M263.35 160.701C264.919 160.473 266.45 160.032 267.9 159.391C270.28 158.332 273.12 159.691 271.11 161.951C269.1 164.211 270.04 164.101 266.57 165.101C263.1 166.101 263.35 160.701 263.35 160.701Z" fill="white" stroke="#263238" stroke-linecap="round" stroke-linejoin="round"/>
<path d="M242.31 176.542C242.31 176.542 246.87 177.901 250.5 177.272C254.13 176.642 255.91 172.472 255.91 172.472C255.91 172.472 256.97 176.472 259 176.362C261.03 176.252 266.39 170.622 266.39 170.622L266.57 165.102C266.599 164.115 266.298 163.146 265.715 162.349C265.132 161.552 264.3 160.973 263.35 160.702L258.35 159.292C260.224 157.841 262.185 156.506 264.22 155.292C265.41 154.812 270.74 155.292 273.12 154.352C275.5 153.412 274.53 150.602 269.63 150.492C264.73 150.382 259.46 150.692 255.95 153.342C253.149 155.689 250.578 158.298 248.27 161.132L240.52 167.702L236.081 168.372L237.421 177.252L242.31 176.542Z" fill="white" stroke="#263238" stroke-linecap="round" stroke-linejoin="round"/>
<path d="M254.51 166.001C254.51 166.001 255.98 165.001 257.94 167.001C259.9 169.001 261.47 174.751 261.47 174.751" stroke="#263238" stroke-linecap="round" stroke-linejoin="round"/>
<path d="M257.35 162.162C257.35 162.162 261.98 162.802 263 164.582C264.02 166.362 264.33 171.582 264.33 171.582" stroke="#263238" stroke-linecap="round" stroke-linejoin="round"/>
<path d="M184.342 116.842C184.342 116.842 173.712 119.892 173.232 123.542C172.752 127.192 170.002 193.261 169.502 197.731C169.002 202.201 168.502 205.841 170.922 208.331C173.342 210.821 241.481 182.331 241.481 182.331L240.561 167.671L196.241 176.061L198.581 151.062" fill="#5CB0FF"/>
<path d="M184.342 116.842C184.342 116.842 173.712 119.892 173.232 123.542C172.752 127.192 170.002 193.261 169.502 197.731C169.002 202.201 168.502 205.841 170.922 208.331C173.342 210.821 241.481 182.331 241.481 182.331L240.561 167.671L196.241 176.061L198.581 151.062" stroke="#263238" stroke-linecap="round" stroke-linejoin="round"/>
<path d="M196.241 176.062C196.241 176.062 186.881 178.221 181.451 186.561" stroke="#263238" stroke-linecap="round" stroke-linejoin="round"/>
</svg>
