<svg width="230" height="230" viewBox="0 0 230 230" fill="none" xmlns="http://www.w3.org/2000/svg">
<path d="M216.623 128.828C209.852 146.965 196.015 166.598 176.544 172.408C147.103 181.194 143.607 204.912 90.9099 202.713C83.2151 202.426 75.5742 201.305 68.1215 199.369C64.4774 198.412 60.8988 197.221 57.4081 195.804C26.6203 183.338 10.5801 155.894 9.22766 127.176C7.46586 89.4102 33.8193 71.4104 50.9451 60.8672C68.0709 50.324 88.7111 9.4852 140.535 11.2424C148.448 11.4763 156.308 12.6232 163.958 14.6602C181.396 19.3798 199.12 29.8402 209.42 45.08C210.193 46.2239 210.932 47.3953 211.637 48.5944C225.423 71.9808 225.86 104.098 216.623 128.828Z" fill="#5CB0FF"/>
<path opacity="0.7" d="M216.623 128.828C209.852 146.965 196.015 166.598 176.544 172.408C147.103 181.194 143.607 204.912 90.9099 202.713C83.2151 202.426 75.5742 201.305 68.1215 199.369C64.4774 198.412 60.8988 197.221 57.4081 195.804C26.6203 183.338 10.5801 155.894 9.22766 127.176C7.46586 89.4102 33.8193 71.4104 50.9451 60.8672C68.0709 50.324 88.7111 9.4852 140.535 11.2424C148.448 11.4763 156.308 12.6232 163.958 14.6602C181.396 19.3798 199.12 29.8402 209.42 45.08C210.193 46.2239 210.932 47.3953 211.637 48.5944C225.423 71.9808 225.86 104.098 216.623 128.828Z" fill="white"/>
<path d="M115.23 145.231C109.88 133.087 110.671 113.197 113.151 111.541C115.879 109.724 120.198 119.048 124.522 116.32C128.846 113.592 131.799 107.677 128.161 98.3526C124.522 89.0284 119.747 95.1694 116.334 97.4326C112.921 99.6958 110.193 97.6626 110.878 89.4746C111.38 83.4348 113.735 72.335 114.94 66.9346C115.483 67.1692 116.026 67.3946 116.559 67.6568C105.874 62.652 94.047 61.0604 89.0468 62.652C84.0466 64.2436 84.9528 64.699 87.4506 70.61C92.6716 82.9426 72.9054 87.17 67.2106 77.671C63.802 71.9854 68.816 68.793 67.4498 64.699C66.0836 60.605 40.8434 65.3798 37.6602 67.2014C37.6602 67.2014 43.7966 85.6014 42.8904 92.2162C41.9842 98.831 38.7964 101.77 34.0216 96.991C29.2468 92.2116 23.1058 96.531 22.8758 104.498C22.6458 112.465 24.012 118.823 29.4722 117.006C34.9324 115.189 39.2518 108.592 41.0688 117.006C42.8858 125.419 39.6888 136.326 37.8856 144.067C37.8856 144.067 52.2146 150.208 58.8064 149.753C65.3982 149.298 69.4968 149.072 67.4498 144.978C65.4028 140.884 61.9896 138.156 64.492 133.607C66.9944 129.058 76.9994 129.513 82.2296 130.649C87.4598 131.785 89.7368 135.654 88.1452 139.973C86.5536 144.293 83.8212 148.617 88.826 149.523C93.541 150.383 105.533 148.41 117.346 144.564C116.647 144.79 115.92 145.01 115.23 145.231Z" stroke="#263238" stroke-width="0.5" stroke-miterlimit="10"/>
<path d="M119.517 143.837C118.818 144.077 118.114 144.297 117.415 144.541C118.114 144.311 118.818 144.077 119.517 143.837Z" stroke="#263238" stroke-width="0.5" stroke-miterlimit="10"/>
<path d="M202.524 94.9394C198.205 94.9394 197.975 98.3526 193.425 97.6718C188.876 96.991 188.425 86.526 193.2 68.1076C193.2 68.1076 187.97 71.9716 176.143 72.2016C164.316 72.4316 159.542 71.0608 162.499 66.7414C165.457 62.422 167.73 59.0088 165.227 55.6002C162.725 52.1916 150.673 52.6424 146.827 55.6002C142.982 58.558 145.691 61.9666 148.419 65.8306C151.147 69.6946 147.959 71.9716 143.414 72.2016C138.869 72.4316 127.268 72.6616 116.578 67.6522C116.044 67.3992 115.501 67.1646 114.958 66.93C113.753 72.3442 111.398 83.444 110.897 89.47C110.211 97.658 112.939 99.705 116.352 97.428C119.765 95.151 124.54 89.0146 128.179 98.348C131.817 107.681 128.86 113.583 124.54 116.316C120.221 119.048 115.878 109.724 113.16 111.541C110.68 113.197 109.889 133.087 115.239 145.231C116.67 144.771 118.1 144.311 119.526 143.851C132.034 139.527 144.541 137.48 146.818 140.438C149.095 143.396 148.198 142.94 145.226 147.49C142.255 152.039 142.494 155.903 147.499 158.176C152.504 160.448 164.781 160.016 165.899 154.767C167.017 149.518 160.669 146.579 163.626 141.574C166.584 136.569 192.74 143.837 192.74 143.837C192.74 143.837 186.829 123.823 189.101 117.226C191.374 110.63 193.2 112.24 196.838 114.724C200.477 117.208 205.252 117.001 207.073 109.724C208.895 102.447 206.843 94.9394 202.524 94.9394Z" stroke="#263238" stroke-width="0.5" stroke-miterlimit="10"/>
<path d="M10.2257 178.351C11.2239 178.788 13.6665 178.733 13.6665 178.733C13.6665 178.733 13.1421 177.137 13.0961 177.04C12.5579 175.918 10.8651 174.069 9.48514 174.253C9.25695 174.29 9.0392 174.375 8.84607 174.502C8.65294 174.629 8.48876 174.796 8.36422 174.991C8.23968 175.186 8.15757 175.404 8.12324 175.633C8.0889 175.862 8.10311 176.095 8.16494 176.318C8.39494 177.27 9.37474 177.983 10.2257 178.351Z" fill="#5CB0FF"/>
<path d="M11.0676 185.431C12.1026 185.578 14.2876 184.948 14.4578 184.897C14.8152 186.144 15.2563 187.366 15.778 188.554C16.077 189.249 16.4036 189.934 16.7348 190.629C16.537 190.334 16.3576 190.077 16.3254 190.044C15.5158 189.101 13.3906 187.744 12.1118 188.31C11.9013 188.406 11.7134 188.545 11.5603 188.718C11.4072 188.891 11.2924 189.094 11.2234 189.315C11.1543 189.536 11.1326 189.768 11.1597 189.998C11.1867 190.227 11.2619 190.449 11.3804 190.647C11.8404 191.507 12.9858 191.935 13.9058 192.068C14.8258 192.202 16.7072 191.705 17.1994 191.562C17.3282 191.825 17.457 192.091 17.5904 192.354C18.2206 193.609 18.8554 194.861 19.4304 196.107C19.6374 196.544 19.826 196.986 20.0146 197.427C19.8352 197.165 19.688 196.967 19.6604 196.921C18.8462 196.001 16.721 194.644 15.4422 195.187C15.2329 195.285 15.0463 195.425 14.8946 195.599C14.7428 195.773 14.6292 195.977 14.5612 196.198C14.4931 196.418 14.4721 196.651 14.4994 196.88C14.5268 197.109 14.6019 197.33 14.72 197.529C15.18 198.389 16.33 198.812 17.2454 198.945C18.1608 199.079 19.8674 198.628 20.4654 198.485C20.6448 198.945 20.8242 199.405 20.9806 199.865C21.0772 200.174 21.1968 200.468 21.275 200.785C21.3532 201.103 21.4498 201.402 21.5326 201.705C21.6752 202.299 21.827 202.911 21.9512 203.495C22.0432 203.9 22.1214 204.291 22.1996 204.677C21.9972 204.24 21.5878 203.389 21.5464 203.32C20.884 202.267 18.9888 200.624 17.641 200.965C17.4223 201.029 17.2192 201.137 17.0445 201.283C16.8697 201.429 16.7271 201.61 16.6256 201.814C16.5241 202.018 16.4658 202.241 16.4545 202.468C16.4432 202.696 16.4791 202.923 16.56 203.136C16.8958 204.056 17.94 204.654 18.86 204.925C19.8352 205.22 21.9972 204.948 22.2686 204.925C22.3974 205.574 22.517 206.204 22.6228 206.798C22.8528 208.118 23.0276 209.295 23.161 210.294H24.081C23.92 209.259 23.713 208.03 23.437 206.65C23.3082 205.993 23.1564 205.293 22.977 204.576C23.6291 204.315 24.265 204.015 24.8814 203.679C25.5944 204.452 27.416 205.353 27.6414 205.468C27.393 206.08 27.1446 206.673 26.9008 207.225C26.3948 208.389 25.9164 209.42 25.4932 210.294H26.4822C26.8456 209.484 27.2458 208.564 27.6598 207.534C27.9174 206.913 28.175 206.246 28.4372 205.56C28.6994 205.615 30.8384 206.048 31.8366 205.822C32.7566 205.62 33.8376 205.109 34.247 204.212C34.3486 204.004 34.4054 203.777 34.4135 203.546C34.4217 203.314 34.3811 203.084 34.2943 202.869C34.2075 202.654 34.0766 202.46 33.9099 202.299C33.7433 202.138 33.5447 202.014 33.327 201.935C32.0068 201.475 29.9966 202.993 29.256 203.992C29.2146 204.051 28.796 204.741 28.566 205.183C28.6718 204.902 28.7776 204.631 28.8788 204.341C29.0904 203.766 29.2836 203.187 29.4952 202.566L29.7712 201.646C29.8678 201.337 29.9322 201.006 30.0196 200.68C30.199 199.93 30.3416 199.157 30.4796 198.38C30.9856 198.564 32.7796 199.189 33.6996 199.12C34.6196 199.051 35.788 198.715 36.3216 197.892C36.455 197.703 36.5471 197.488 36.5916 197.261C36.6362 197.034 36.6323 196.8 36.5802 196.575C36.5281 196.349 36.4289 196.137 36.2892 195.953C36.1495 195.769 35.9724 195.616 35.7696 195.505C34.5322 194.87 32.315 196.043 31.4364 196.921C31.3812 196.977 30.82 197.676 30.5164 198.067C30.59 197.607 30.6682 197.147 30.728 196.65C30.8982 195.27 31.027 193.867 31.188 192.469C31.2294 192.041 31.2754 191.613 31.3214 191.185C31.5008 191.254 33.6214 192.041 34.661 191.972C35.581 191.903 36.7448 191.567 37.283 190.744C37.4157 190.554 37.5072 190.339 37.5513 190.112C37.5955 189.886 37.5914 189.652 37.5393 189.427C37.4873 189.202 37.3884 188.99 37.2491 188.805C37.1098 188.621 36.9333 188.468 36.731 188.356C35.4936 187.717 33.2764 188.89 32.3932 189.768C32.3288 189.833 31.5238 190.845 31.3306 191.112C31.4272 190.169 31.5376 189.235 31.6802 188.315C31.8694 187.073 32.1367 185.843 32.4806 184.635C32.5634 184.667 34.7806 185.5 35.8386 185.426C36.7586 185.362 37.927 185.021 38.4606 184.198C38.5933 184.009 38.6847 183.794 38.7289 183.567C38.7731 183.34 38.769 183.106 38.7169 182.881C38.6649 182.656 38.566 182.444 38.4267 182.26C38.2874 182.075 38.1109 181.922 37.9086 181.81C36.6712 181.171 34.454 182.349 33.5754 183.223C33.5064 183.292 32.6554 184.377 32.4944 184.603C32.4944 184.534 32.5312 184.46 32.5496 184.391C32.9306 183.19 33.4186 182.027 34.0078 180.913C34.3206 180.292 34.661 179.717 35.0014 179.17C35.397 179.368 37.2094 180.246 38.18 180.288C39.1506 180.329 40.296 180.113 40.94 179.368C41.0932 179.194 41.208 178.991 41.277 178.77C41.3459 178.549 41.3674 178.316 41.34 178.086C41.3127 177.856 41.2371 177.635 41.1182 177.437C40.9993 177.238 40.8398 177.067 40.6502 176.934C39.491 176.162 37.1588 177.091 36.1882 177.854C36.133 177.896 35.6454 178.383 35.2958 178.742C35.4522 178.498 35.6086 178.241 35.7558 178.006C36.3354 177.132 36.9242 176.364 37.4486 175.706C37.7522 175.324 38.0328 174.989 38.2996 174.671C38.7872 174.671 40.756 174.602 41.6162 174.211C42.4764 173.82 43.4194 173.084 43.6218 172.123C43.6775 171.898 43.6852 171.664 43.6444 171.436C43.6036 171.208 43.5152 170.992 43.385 170.8C43.2548 170.609 43.0856 170.447 42.8887 170.325C42.6917 170.204 42.4712 170.125 42.2418 170.094C40.8618 169.947 39.215 171.842 38.709 172.978C38.6676 173.075 38.1616 174.69 38.1846 174.69H38.18C37.9178 174.989 37.6372 175.311 37.3428 175.669C36.8 176.332 36.1974 177.091 35.5948 177.969C34.9236 178.896 34.3091 179.862 33.7548 180.863C33.1351 181.976 32.6163 183.143 32.2046 184.35V184.396C32.2046 183.986 32.2046 182.845 32.2046 182.758C32.0436 181.525 31.0086 179.239 29.6424 178.986C29.4138 178.95 29.1803 178.963 28.957 179.023C28.7337 179.084 28.5257 179.191 28.3465 179.337C28.1672 179.483 28.0208 179.666 27.9168 179.872C27.8127 180.079 27.7534 180.305 27.7426 180.536C27.6644 181.516 28.3728 182.496 29.0628 183.112C29.8448 183.811 32.0114 184.492 32.1862 184.538C31.7954 185.777 31.4881 187.04 31.2662 188.319C31.1328 189.065 31.0224 189.819 30.9212 190.573C30.9212 190.224 30.9212 189.906 30.9212 189.865C30.7602 188.632 29.7252 186.346 28.359 186.093C28.1308 186.057 27.8976 186.07 27.6747 186.13C27.4517 186.19 27.2439 186.297 27.0647 186.442C26.8855 186.588 26.739 186.77 26.6347 186.976C26.5304 187.182 26.4706 187.408 26.4592 187.639C26.381 188.618 27.0894 189.598 27.7794 190.219C28.4694 190.84 30.3186 191.457 30.8062 191.599L30.6958 192.473C30.5302 193.853 30.3692 195.261 30.1714 196.613C30.1024 197.073 30.015 197.561 29.9276 198.035C29.9276 197.722 29.9276 197.455 29.9276 197.418C29.7666 196.185 28.7362 193.895 27.3654 193.642C27.1369 193.607 26.9037 193.62 26.6807 193.681C26.4577 193.741 26.25 193.848 26.0709 193.994C25.8918 194.14 25.7454 194.323 25.6411 194.529C25.5369 194.735 25.4771 194.961 25.4656 195.192C25.3874 196.172 26.0958 197.151 26.7904 197.768C27.485 198.384 29.1456 198.95 29.7252 199.148C29.624 199.608 29.5228 200.105 29.4032 200.569C29.3158 200.877 29.2514 201.186 29.1456 201.489C29.0398 201.793 28.9478 202.106 28.8512 202.409C28.6396 202.984 28.428 203.578 28.2118 204.134L27.7518 205.257C27.8254 204.797 27.9542 203.844 27.9542 203.762C27.9373 202.669 27.6429 201.599 27.0986 200.652C27.1077 200.531 27.1077 200.41 27.0986 200.289C27.0669 200.061 26.9881 199.842 26.8671 199.647C26.7462 199.451 26.5857 199.283 26.3961 199.153C26.2064 199.024 25.9917 198.935 25.7658 198.892C25.5398 198.85 25.3075 198.856 25.0838 198.909C23.7406 199.267 22.885 201.627 22.8206 202.869C22.8206 202.943 22.8666 203.743 22.9034 204.249C22.839 203.955 22.7746 203.674 22.701 203.371C22.5584 202.777 22.402 202.188 22.241 201.554C22.149 201.25 22.0524 200.942 21.9604 200.634C21.8684 200.325 21.7442 200.008 21.6338 199.691C21.3716 198.964 21.0634 198.242 20.7414 197.519C21.2612 197.395 23.1058 196.926 23.8418 196.356C24.5778 195.785 25.3598 194.865 25.3552 193.885C25.361 193.654 25.3183 193.424 25.2296 193.211C25.141 192.997 25.0085 192.804 24.8406 192.645C24.6728 192.486 24.4734 192.364 24.2554 192.287C24.0374 192.21 23.8056 192.179 23.575 192.197C22.195 192.349 20.9898 194.552 20.7414 195.771C20.7414 195.845 20.6448 196.737 20.608 197.23C20.4102 196.797 20.2124 196.365 20.0008 195.932C19.3798 194.69 18.7174 193.448 18.0596 192.206L17.4616 191.066C17.6502 191.02 19.849 190.509 20.6816 189.874C21.4222 189.308 22.1996 188.384 22.195 187.404C22.2008 187.173 22.1581 186.943 22.0694 186.729C21.9808 186.516 21.8483 186.323 21.6804 186.164C21.5126 186.005 21.3132 185.883 21.0952 185.805C20.8772 185.728 20.6454 185.698 20.4148 185.716C19.0348 185.868 17.8296 188.071 17.5812 189.29C17.5812 189.382 17.4432 190.67 17.434 190.997C16.974 190.155 16.5692 189.318 16.1828 188.471C15.6455 187.333 15.1845 186.161 14.8028 184.961C14.8902 184.961 17.1902 184.419 18.0228 183.77C18.7588 183.204 19.5408 182.28 19.5316 181.3C19.5381 181.069 19.4959 180.839 19.4078 180.625C19.3197 180.412 19.1876 180.219 19.0202 180.06C18.8527 179.901 18.6536 179.778 18.4358 179.701C18.218 179.624 17.9863 179.593 17.756 179.612C16.376 179.763 15.1708 181.967 14.9178 183.181C14.9178 183.278 14.7752 184.662 14.7706 184.915L14.697 184.704C14.355 183.492 14.1195 182.253 13.9932 181.001C13.915 180.311 13.8828 179.644 13.8598 179C14.3198 178.945 16.3024 178.678 17.1304 178.176C17.9584 177.675 18.8002 176.861 18.9014 175.876C18.9331 175.647 18.9163 175.414 18.8519 175.192C18.7876 174.97 18.6772 174.764 18.5279 174.587C18.3786 174.411 18.1938 174.267 17.9855 174.167C17.7772 174.066 17.5501 174.011 17.319 174.004C15.939 174.004 14.4946 176.06 14.099 177.224C14.099 177.289 13.938 177.965 13.846 178.462C13.846 178.167 13.846 177.868 13.846 177.588C13.846 176.534 13.915 175.568 13.9794 174.717C14.0208 174.257 14.0668 173.797 14.1174 173.388C14.5176 173.112 16.1276 171.976 16.6244 171.161C17.1212 170.347 17.503 169.225 17.1396 168.314C17.0615 168.097 16.9386 167.899 16.779 167.733C16.6193 167.567 16.4265 167.436 16.2131 167.349C15.9996 167.263 15.7703 167.222 15.54 167.229C15.3097 167.237 15.0836 167.293 14.8764 167.394C13.639 168.033 13.3124 170.522 13.4964 171.746C13.4964 171.851 13.984 173.48 14.0024 173.466H14.03C13.9748 173.857 13.9196 174.28 13.8736 174.74C13.7862 175.596 13.6988 176.557 13.6758 177.615C13.6368 178.753 13.6629 179.893 13.754 181.028C13.8548 182.299 14.0673 183.558 14.3888 184.791V184.837C14.168 184.492 13.524 183.554 13.4688 183.485C12.6546 182.565 10.5294 181.208 9.25058 181.751C9.05439 181.85 8.88002 181.987 8.73773 182.154C8.59545 182.322 8.48814 182.516 8.42212 182.726C8.3561 182.936 8.33271 183.156 8.35333 183.375C8.37395 183.594 8.43816 183.806 8.54218 184C9.01598 184.869 10.1476 185.293 11.0676 185.431Z" fill="#5CB0FF"/>
<path d="M34.9324 178.889C34.9324 178.889 35.3924 177.266 35.3924 177.16C35.5672 175.932 35.1716 173.452 33.9204 172.845C33.7095 172.75 33.481 172.7 33.2496 172.699C33.0182 172.698 32.7892 172.746 32.5777 172.84C32.3662 172.934 32.1769 173.071 32.0222 173.243C31.8676 173.415 31.751 173.618 31.6802 173.839C31.3444 174.759 31.7676 175.895 32.2736 176.672C32.8624 177.588 34.9278 178.889 34.9324 178.889Z" fill="#5CB0FF"/>
<path d="M180.016 178.351C181.014 178.788 183.457 178.733 183.457 178.733C183.457 178.733 182.933 177.137 182.887 177.04C182.348 175.918 180.656 174.069 179.276 174.253C179.047 174.29 178.83 174.375 178.637 174.502C178.443 174.629 178.279 174.796 178.155 174.991C178.03 175.186 177.948 175.404 177.914 175.633C177.879 175.862 177.894 176.095 177.955 176.318C178.185 177.27 179.165 177.983 180.016 178.351Z" fill="#5CB0FF"/>
<path d="M180.858 185.431C181.893 185.578 184.078 184.948 184.248 184.897C184.608 186.144 185.049 187.365 185.568 188.554C185.867 189.249 186.194 189.934 186.525 190.629C186.327 190.334 186.148 190.077 186.116 190.044C185.306 189.101 183.181 187.744 181.902 188.31C181.692 188.406 181.504 188.545 181.351 188.718C181.198 188.891 181.083 189.094 181.014 189.315C180.945 189.536 180.923 189.768 180.95 189.998C180.977 190.227 181.052 190.449 181.171 190.647C181.631 191.507 182.776 191.935 183.696 192.068C184.616 192.202 186.498 191.705 186.99 191.562C187.119 191.825 187.247 192.091 187.381 192.354C188.011 193.609 188.646 194.861 189.221 196.107C189.428 196.544 189.616 196.986 189.805 197.427C189.626 197.165 189.478 196.967 189.451 196.921C188.637 196.001 186.516 194.644 185.233 195.187C185.023 195.284 184.835 195.423 184.682 195.597C184.53 195.771 184.415 195.975 184.346 196.195C184.277 196.416 184.255 196.649 184.282 196.878C184.309 197.108 184.384 197.33 184.501 197.529C184.961 198.389 186.111 198.812 187.027 198.945C187.942 199.079 189.649 198.628 190.247 198.485C190.426 198.945 190.61 199.405 190.762 199.865C190.858 200.174 190.978 200.468 191.056 200.785C191.134 201.103 191.231 201.402 191.314 201.705C191.456 202.299 191.608 202.911 191.732 203.495C191.824 203.9 191.903 204.291 191.981 204.677C191.778 204.24 191.369 203.389 191.328 203.32C190.665 202.267 188.77 200.624 187.422 200.965C187.2 201.029 186.994 201.138 186.817 201.287C186.64 201.435 186.496 201.62 186.394 201.827C186.293 202.035 186.236 202.262 186.228 202.493C186.219 202.724 186.26 202.954 186.346 203.168C186.682 204.088 187.726 204.686 188.646 204.958C189.621 205.252 191.783 204.981 192.054 204.958C192.183 205.606 192.303 206.236 192.409 206.83C192.639 208.15 192.813 209.328 192.947 210.326H193.867C193.706 209.291 193.499 208.063 193.223 206.683C193.094 206.025 192.942 205.326 192.763 204.608C193.415 204.347 194.051 204.048 194.667 203.711C195.38 204.484 197.202 205.385 197.427 205.5C197.179 206.112 196.93 206.706 196.687 207.258C196.181 208.421 195.702 209.452 195.279 210.326H196.268C196.631 209.516 197.032 208.596 197.446 207.566C197.703 206.945 197.961 206.278 198.223 205.592C198.485 205.648 200.624 206.08 201.622 205.855C202.542 205.652 203.623 205.142 204.033 204.245C204.135 204.037 204.191 203.809 204.199 203.578C204.208 203.346 204.167 203.116 204.08 202.901C203.993 202.686 203.862 202.492 203.696 202.331C203.529 202.171 203.331 202.047 203.113 201.968C201.793 201.508 199.782 203.026 199.042 204.024C199 204.084 198.582 204.774 198.352 205.215C198.458 204.935 198.563 204.663 198.669 204.373C198.876 203.798 199.069 203.219 199.281 202.598L199.557 201.678C199.654 201.37 199.718 201.038 199.805 200.712C199.985 199.962 200.127 199.189 200.265 198.412C200.771 198.596 202.565 199.221 203.485 199.152C204.405 199.083 205.574 198.748 206.107 197.924C206.241 197.735 206.333 197.52 206.378 197.293C206.422 197.066 206.418 196.832 206.366 196.607C206.314 196.382 206.215 196.17 206.075 195.985C205.935 195.801 205.758 195.648 205.555 195.537C204.318 194.902 202.101 196.075 201.222 196.954C201.167 197.009 200.606 197.708 200.302 198.099C200.376 197.639 200.454 197.179 200.514 196.682C200.684 195.302 200.813 193.899 200.951 192.501C200.992 192.073 201.038 191.645 201.084 191.217C201.264 191.286 203.384 192.073 204.424 192.004C205.344 191.935 206.508 191.599 207.046 190.776C207.179 190.587 207.27 190.372 207.314 190.145C207.358 189.918 207.354 189.684 207.302 189.459C207.25 189.234 207.151 189.022 207.012 188.838C206.873 188.653 206.696 188.5 206.494 188.388C205.256 187.749 203.039 188.922 202.156 189.801C202.092 189.865 201.287 190.877 201.093 191.144C201.19 190.201 201.3 189.267 201.443 188.347C201.632 187.105 201.9 185.876 202.243 184.667C202.326 184.699 204.543 185.532 205.601 185.458C206.521 185.394 207.69 185.053 208.223 184.23C208.356 184.041 208.448 183.826 208.492 183.599C208.536 183.372 208.532 183.138 208.48 182.913C208.428 182.688 208.329 182.476 208.19 182.292C208.05 182.107 207.874 181.954 207.671 181.843C206.434 181.203 204.217 182.381 203.338 183.255C203.269 183.324 202.418 184.409 202.257 184.635C202.257 184.566 202.294 184.492 202.312 184.423C202.693 183.223 203.182 182.059 203.771 180.946C204.083 180.325 204.424 179.75 204.764 179.202C205.16 179.4 206.972 180.279 207.943 180.32C208.913 180.361 210.059 180.145 210.703 179.4C210.856 179.227 210.971 179.023 211.04 178.802C211.109 178.581 211.13 178.348 211.103 178.118C211.076 177.889 211 177.667 210.881 177.469C210.762 177.27 210.603 177.099 210.413 176.967C209.254 176.194 206.922 177.123 205.951 177.887C205.9 177.928 205.408 178.416 205.059 178.774C205.215 178.531 205.371 178.273 205.519 178.038C206.103 177.164 206.687 176.396 207.211 175.738C207.515 175.357 207.796 175.021 208.062 174.703C208.55 174.703 210.519 174.634 211.379 174.243C212.239 173.852 213.182 173.116 213.385 172.155C213.44 171.93 213.448 171.696 213.407 171.468C213.367 171.241 213.278 171.024 213.148 170.832C213.018 170.641 212.849 170.479 212.652 170.358C212.455 170.236 212.234 170.157 212.005 170.126C210.625 169.979 208.973 171.874 208.467 173.011C208.426 173.107 207.92 174.722 207.943 174.722H207.975C207.713 175.021 207.432 175.343 207.138 175.702C206.595 176.364 205.992 177.123 205.39 178.002C204.727 178.929 204.12 179.895 203.573 180.895C202.953 182.009 202.434 183.176 202.023 184.382C202.025 184.397 202.025 184.413 202.023 184.428C202.023 184.018 202.023 182.878 202.023 182.79C201.862 181.557 200.827 179.271 199.46 179.018C199.232 178.982 198.998 178.995 198.775 179.056C198.552 179.116 198.344 179.223 198.165 179.369C197.985 179.516 197.839 179.698 197.735 179.904C197.631 180.111 197.571 180.337 197.561 180.568C197.482 181.548 198.191 182.528 198.881 183.144C199.663 183.844 201.83 184.524 202.004 184.57C201.614 185.809 201.306 187.072 201.084 188.352C200.951 189.097 200.84 189.851 200.739 190.606C200.739 190.256 200.739 189.939 200.739 189.897C200.578 188.664 199.543 186.378 198.177 186.125C197.949 186.089 197.716 186.102 197.493 186.162C197.27 186.222 197.062 186.329 196.883 186.475C196.704 186.62 196.557 186.802 196.453 187.008C196.349 187.214 196.289 187.44 196.277 187.671C196.199 188.651 196.907 189.63 197.597 190.251C198.287 190.872 200.137 191.489 200.624 191.631C200.592 191.921 200.551 192.211 200.514 192.505C200.348 193.885 200.187 195.293 199.989 196.645C199.92 197.105 199.833 197.593 199.746 198.067C199.746 197.754 199.746 197.487 199.746 197.45C199.585 196.218 198.554 193.927 197.183 193.674C196.955 193.639 196.722 193.652 196.499 193.713C196.276 193.774 196.068 193.881 195.889 194.027C195.71 194.173 195.564 194.355 195.459 194.561C195.355 194.767 195.295 194.993 195.284 195.224C195.205 196.204 195.914 197.184 196.608 197.8C197.303 198.416 198.968 198.982 199.543 199.18C199.442 199.64 199.341 200.137 199.221 200.601C199.134 200.91 199.069 201.218 198.964 201.521C198.858 201.825 198.766 202.138 198.669 202.441C198.458 203.016 198.246 203.61 198.03 204.166L197.57 205.289C197.643 204.829 197.772 203.877 197.772 203.794C197.758 202.701 197.463 201.631 196.917 200.684C196.918 200.563 196.911 200.441 196.894 200.321C196.862 200.093 196.783 199.875 196.662 199.679C196.541 199.484 196.381 199.316 196.191 199.186C196.002 199.056 195.787 198.967 195.561 198.925C195.335 198.883 195.103 198.888 194.879 198.941C193.536 199.3 192.68 201.659 192.616 202.901C192.616 202.975 192.662 203.775 192.698 204.281C192.634 203.987 192.57 203.706 192.496 203.403C192.353 202.809 192.197 202.221 192.036 201.586C191.944 201.282 191.847 200.974 191.755 200.666C191.663 200.358 191.539 200.04 191.429 199.723C191.167 198.996 190.858 198.274 190.536 197.552C191.056 197.427 192.901 196.958 193.637 196.388C194.373 195.817 195.155 194.897 195.15 193.918C195.156 193.686 195.113 193.457 195.025 193.243C194.936 193.029 194.804 192.837 194.636 192.677C194.468 192.518 194.269 192.396 194.051 192.319C193.832 192.242 193.601 192.211 193.37 192.229C191.99 192.381 190.785 194.585 190.536 195.804C190.536 195.877 190.44 196.77 190.403 197.262C190.205 196.829 190.007 196.397 189.796 195.965C189.175 194.723 188.512 193.481 187.855 192.239L187.257 191.098C187.445 191.052 189.644 190.541 190.477 189.906C191.217 189.341 191.995 188.416 191.99 187.436C191.996 187.205 191.953 186.975 191.865 186.761C191.776 186.548 191.643 186.355 191.476 186.196C191.308 186.037 191.108 185.915 190.89 185.838C190.672 185.76 190.44 185.73 190.21 185.748C188.83 185.9 187.625 188.103 187.376 189.322C187.376 189.414 187.238 190.702 187.229 191.029C186.792 190.187 186.364 189.35 185.978 188.503C185.448 187.365 184.995 186.192 184.621 184.994C184.708 184.994 187.008 184.451 187.841 183.802C188.577 183.236 189.359 182.312 189.35 181.332C189.356 181.101 189.314 180.871 189.226 180.658C189.138 180.444 189.006 180.251 188.838 180.092C188.671 179.933 188.472 179.811 188.254 179.733C188.036 179.656 187.804 179.626 187.574 179.644C186.194 179.796 184.989 181.999 184.736 183.213C184.736 183.31 184.593 184.695 184.589 184.948L184.515 184.736C184.173 183.525 183.938 182.285 183.811 181.033C183.738 180.343 183.701 179.676 183.678 179.032C184.138 178.977 186.12 178.71 186.948 178.209C187.776 177.707 188.618 176.893 188.719 175.909C188.751 175.68 188.734 175.446 188.67 175.224C188.606 175.002 188.495 174.796 188.346 174.619C188.197 174.443 188.012 174.3 187.804 174.199C187.595 174.099 187.368 174.043 187.137 174.036C185.757 174.036 184.313 176.093 183.917 177.256C183.917 177.321 183.756 177.997 183.664 178.494C183.664 178.199 183.664 177.9 183.664 177.62C183.664 176.566 183.733 175.6 183.797 174.749C183.839 174.289 183.885 173.829 183.935 173.42C184.336 173.144 185.946 172.008 186.442 171.194C186.939 170.379 187.321 169.257 186.958 168.346C186.88 168.129 186.757 167.932 186.597 167.765C186.437 167.599 186.245 167.468 186.031 167.382C185.818 167.295 185.588 167.254 185.358 167.262C185.128 167.269 184.902 167.325 184.694 167.426C183.457 168.066 183.13 170.554 183.337 171.778C183.337 171.884 183.797 173.512 183.843 173.498H183.866C183.811 173.889 183.756 174.312 183.71 174.772C183.623 175.628 183.535 176.589 183.512 177.647C183.473 178.786 183.499 179.925 183.59 181.061C183.691 182.331 183.904 183.59 184.225 184.823V184.869C184.004 184.524 183.36 183.586 183.305 183.517C182.491 182.597 180.366 181.24 179.087 181.783C178.876 181.879 178.689 182.018 178.535 182.192C178.382 182.365 178.267 182.569 178.198 182.79C178.129 183.011 178.108 183.244 178.135 183.474C178.162 183.704 178.237 183.925 178.356 184.124C178.806 184.869 179.938 185.293 180.858 185.431Z" fill="#5CB0FF"/>
<path d="M204.723 178.889C204.723 178.889 205.183 177.266 205.183 177.16C205.358 175.932 204.962 173.452 203.711 172.845C203.5 172.75 203.271 172.7 203.04 172.699C202.809 172.698 202.58 172.746 202.368 172.84C202.157 172.934 201.967 173.071 201.813 173.243C201.658 173.415 201.542 173.618 201.471 173.839C201.135 174.759 201.558 175.895 202.064 176.672C202.653 177.588 204.7 178.889 204.723 178.889Z" fill="#5CB0FF"/>
<path d="M160.692 82.6022C160.692 82.6022 160.834 77.4088 163.829 75.9368C166.823 74.4648 166.994 79.327 166.994 79.327C166.994 79.327 173.843 74.9754 175.329 78.2736C176.815 81.5718 174.74 83.168 174.74 83.168C174.74 83.168 180.821 82.9564 181.244 86.2914C181.668 89.6264 178.526 91.2594 178.526 91.2594C178.526 91.2594 182.284 94.3276 180.964 95.7444C179.644 97.1612 176.755 97.2624 176.755 97.2624C176.755 97.2624 178.392 100.551 175.536 101.72C172.679 102.888 169.413 100.712 169.413 100.712C169.413 100.712 169.919 102.221 167.776 101.839C165.632 101.458 163.465 100.459 162.136 97.313C160.807 94.1666 159.091 85.2564 160.692 82.6022Z" fill="#263238" stroke="#263238" stroke-width="0.5" stroke-linecap="round" stroke-linejoin="round"/>
<path d="M129.071 182.905C129.071 182.905 127.365 189.419 127.392 190.141C127.42 190.863 126.827 192.501 127.328 192.965C128.266 193.731 129.261 194.424 130.304 195.04C130.729 195.034 131.144 194.908 131.5 194.677C131.615 194.573 131.708 194.447 131.772 194.306C131.836 194.165 131.87 194.013 131.873 193.858C131.873 193.614 131.187 192.593 131.095 192.354C131.003 192.114 132.351 189 132.862 187.45C133.244 186.066 133.518 184.654 133.681 183.227L129.071 182.905Z" fill="white" stroke="#263238" stroke-width="0.5" stroke-miterlimit="10"/>
<path d="M130.925 187.441C130.925 187.441 129.955 189.741 129.89 190.136C129.826 190.532 128.51 191.636 128.685 192.519C128.86 193.402 130.801 193.168 131.758 190.555" fill="white"/>
<path d="M130.925 187.441C130.925 187.441 129.955 189.741 129.89 190.136C129.826 190.532 128.51 191.636 128.685 192.519C128.86 193.402 130.801 193.168 131.758 190.555" stroke="#263238" stroke-width="0.5" stroke-miterlimit="10"/>
<path d="M135.272 147.522C135.272 147.522 134.458 160.807 134.15 161.98C133.842 163.153 130.143 173.866 129.329 177.16C128.83 179.199 128.474 181.271 128.266 183.361L133.23 184.405L136.017 172.16C136.017 172.16 139.661 161 138.92 155.77C138.54 152.722 137.272 149.853 135.272 147.522Z" fill="#5CB0FF" stroke="#263238" stroke-width="0.5" stroke-miterlimit="10"/>
<path d="M161.129 210.28C161.188 207.391 161.308 203.495 161.589 201.264C162.049 197.409 163.695 195.026 165.388 190.224C167.081 185.421 167.228 179.11 167.228 179.11L136.914 180.168C136.914 180.168 133.4 193.2 131.27 202.786C130.692 205.246 130.354 207.755 130.263 210.28" fill="#5CB0FF"/>
<path d="M161.129 210.28C161.188 207.391 161.308 203.495 161.589 201.264C162.049 197.409 163.695 195.026 165.388 190.224C167.081 185.421 167.228 179.11 167.228 179.11L136.914 180.168C136.914 180.168 133.4 193.2 131.27 202.786C130.692 205.246 130.354 207.755 130.263 210.28" stroke="#263238" stroke-width="0.5" stroke-miterlimit="10"/>
<path d="M140.884 185.053L166.106 185.762L166.639 183.811L140.884 185.053Z" fill="#263238" stroke="#263238" stroke-width="0.5" stroke-linecap="round" stroke-linejoin="round"/>
<path d="M139.61 209.82C139.61 209.82 139.113 194.046 139.099 185.486L139.61 209.82Z" fill="white"/>
<path d="M139.61 209.82C139.61 209.82 139.113 194.046 139.099 185.486" stroke="#263238" stroke-width="0.5" stroke-miterlimit="10"/>
<path d="M158.944 114.154L162.624 116.628C162.624 116.628 166.98 120.52 168.052 123.74C169.124 126.96 168.346 146.082 167.265 152.26C166.184 158.438 168.884 166.134 169.846 170.476C170.807 174.818 171.226 182.896 171.226 182.896C171.226 182.896 171.907 183.844 160.094 184.253C148.281 184.662 140.042 185.279 139.076 185.472C138.493 185.592 137.901 185.667 137.305 185.697L136.845 181.502L135.7 184.957L133.248 184.396C133.248 184.396 134.771 176.888 135.153 173.963C135.534 171.037 137.945 161.083 137.977 157.338C138.009 153.594 134.881 147.568 134.269 143.86C133.658 140.153 134.89 133.796 137.949 128.993C141.008 124.191 143.06 122.332 149.04 117.429C155.02 112.525 158.944 114.154 158.944 114.154Z" fill="#5CB0FF" stroke="#263238" stroke-width="0.5" stroke-miterlimit="10"/>
<path d="M149.357 170.205L161.699 171.603L161.005 168.374L153.304 167.711" stroke="#263238" stroke-width="0.5" stroke-miterlimit="10"/>
<path d="M145.043 167.532L144.417 169.648L147.513 169.998" stroke="#263238" stroke-width="0.5" stroke-miterlimit="10"/>
<path d="M149.675 146.386C149.095 145.849 148.562 145.262 148.083 144.633" stroke="#263238" stroke-width="0.5" stroke-miterlimit="10"/>
<path d="M153.967 150.011C153.967 150.011 152.665 149.026 151.239 147.803" stroke="#263238" stroke-width="0.5" stroke-miterlimit="10"/>
<path d="M158.944 114.154C158.944 114.154 155.02 112.521 149.04 117.429C143.06 122.337 141.013 124.2 137.94 128.993C136.104 131.956 134.884 135.259 134.352 138.704C134.426 139.063 134.504 139.426 134.591 139.799C136.302 147.03 138.207 150.526 138.207 150.526C138.207 150.526 141.519 134.049 147.283 127.369C153.046 120.69 162.619 116.628 162.619 116.628L158.944 114.154Z" fill="#5CB0FF" stroke="#263238" stroke-width="0.5" stroke-miterlimit="10"/>
<path d="M144.56 82.0134C144.56 82.0134 140.24 86.0476 139.918 89.2262C139.596 92.4048 139.26 95.1464 138.722 96.1722C138.184 97.198 135.47 97.8696 136.39 99.4198C137.31 100.97 138.17 100.938 138.17 100.938C138.17 100.938 139.55 107.796 140.599 108.758C141.648 109.719 145.36 109.167 145.36 109.167L146.51 117.484C146.51 117.484 138.787 124.333 137.282 133.878C135.778 143.423 137.499 148.87 137.499 148.87C137.499 148.87 138.506 133.832 141.984 128.202C145.461 122.572 153.539 117.24 154.73 116.279C155.922 115.317 158.944 114.144 158.944 114.144C158.944 114.144 157.508 110.924 157.315 109.471C157.122 108.017 157.186 105.878 157.458 105.294C157.729 104.71 162.555 102.957 164.358 97.428C166.161 91.8988 163.507 85.3714 160.678 82.593C157.849 79.8146 148.175 78.4346 144.56 82.0134Z" fill="white" stroke="#263238" stroke-width="0.5" stroke-miterlimit="10"/>
<path d="M164.376 97.4372C166.216 91.9172 163.525 85.3806 160.696 82.6022C157.867 79.8238 148.18 78.4346 144.564 82.0134C144.564 82.0134 144.334 82.2296 143.975 82.6022C145.35 82.2586 146.781 82.2115 148.175 82.4642C151.069 82.9242 151.004 85.2242 150.218 87.4276C149.431 89.631 150.024 90.022 151.501 91.1076C152.978 92.1932 151.464 94.277 152.504 95.105C153.543 95.933 154.39 91.425 156.644 94.6726C158.898 97.9202 157.384 99.3922 155.977 100.303C155.188 100.829 154.333 101.247 153.433 101.545C153.433 101.545 155.563 104.043 157.665 105.073C158.672 104.323 162.739 102.405 164.376 97.4372Z" fill="#263238" stroke="#263238" stroke-width="0.5" stroke-linecap="round" stroke-linejoin="round"/>
<path d="M140.511 102.152C140.511 102.152 143.524 101.904 144.918 100.561" stroke="#263238" stroke-width="0.5" stroke-miterlimit="10"/>
<path d="M142.425 95.036C142.448 95.749 142.177 96.3378 141.822 96.3516C141.468 96.3654 141.155 95.795 141.128 95.082C141.1 94.369 141.376 93.7802 141.73 93.7664C142.085 93.7526 142.397 94.323 142.425 95.036Z" fill="#263238"/>
<path d="M141.128 92.1242C141.128 92.1242 142.099 90.8178 143.488 92.3588" stroke="#263238" stroke-width="0.5" stroke-miterlimit="10"/>
<path d="M145.36 109.176L148.952 107.824L146.45 112.318L145.36 109.176Z" fill="#263238" stroke="#263238" stroke-width="0.5" stroke-miterlimit="10"/>
<path d="M135.015 175.2L130.304 195.04L134.532 196.024L136.859 181.516L135.015 175.2Z" fill="white" stroke="#263238" stroke-width="0.5" stroke-miterlimit="10"/>
<path d="M139.178 127.701C138.273 129.669 137.636 131.75 137.283 133.888C135.778 143.428 137.499 148.879 137.499 148.879C137.499 148.879 138.497 134.044 141.915 128.331C140.981 128.225 140.063 128.014 139.178 127.701Z" fill="white" stroke="#263238" stroke-width="0.5" stroke-miterlimit="10"/>
<path d="M153.732 133.892L153.41 150.728L123.947 155.586L124.591 163.521C124.591 163.521 140.944 163.843 148.552 163.194C156.161 162.546 162.812 162.063 163.769 161.253C164.726 160.443 167.5 144.794 168.631 133.786C169.763 122.779 167.5 119.066 162.969 119.701" fill="#5CB0FF"/>
<path d="M153.732 133.892L153.41 150.728L123.947 155.586L124.591 163.521C124.591 163.521 140.944 163.843 148.552 163.194C156.161 162.546 162.812 162.063 163.769 161.253C164.726 160.443 167.5 144.794 168.631 133.786C169.763 122.779 167.5 119.066 162.969 119.701" stroke="#263238" stroke-width="0.5" stroke-miterlimit="10"/>
<path d="M106.32 154.873L103.96 162.03L106.26 163.282C106.26 163.282 109.181 165.545 110.782 166.768C112.383 167.992 113.611 167.992 114.462 167.615C115.313 167.238 119.172 161.773 119.641 160.738C120.111 159.703 117.852 156.598 115.593 155.273C113.335 153.948 111.453 153.957 110.129 154.353C108.875 154.626 107.601 154.8 106.32 154.873Z" fill="white" stroke="#263238" stroke-width="0.5" stroke-miterlimit="10"/>
<path d="M123.947 155.586L120.221 155.264C119.052 154.959 117.862 154.742 116.661 154.615C115.69 154.615 114.393 155.586 113.744 156.073C113.096 156.561 105.975 164.33 105.975 164.33C105.975 164.33 106.623 165.623 107.594 165.301C108.565 164.979 110.354 164.165 110.354 164.165C110.354 164.165 108.413 166.111 109.383 167.081C110.354 168.052 111.973 168.052 111.973 168.052L113.109 167.403C113.587 167.78 114.136 168.055 114.724 168.213C115.534 168.374 116.831 168.052 117.944 167.403C119.057 166.755 121.951 163.378 121.951 163.378L124.435 162.417L123.947 155.586Z" fill="white" stroke="#263238" stroke-width="0.5" stroke-miterlimit="10"/>
<path d="M107.603 155.181C107.603 155.181 112.313 152.449 114.383 153.203C116.453 153.957 119.19 158.571 118.436 159.234C117.682 159.896 116.458 159.606 115.8 158.948C115.25 158.449 114.65 158.006 114.011 157.628C112.77 158.325 111.38 158.713 109.958 158.76" fill="white"/>
<path d="M107.603 155.181C107.603 155.181 112.313 152.449 114.383 153.203C116.453 153.957 119.19 158.571 118.436 159.234C117.682 159.896 116.458 159.606 115.8 158.948C115.25 158.449 114.65 158.006 114.011 157.628C112.77 158.325 111.38 158.713 109.958 158.76" stroke="#263238" stroke-width="0.5" stroke-miterlimit="10"/>
<path d="M121.652 165.876L120.157 165.076C120.036 165.012 119.929 164.925 119.843 164.82C119.756 164.715 119.691 164.593 119.651 164.463C119.611 164.333 119.598 164.196 119.611 164.06C119.624 163.924 119.664 163.793 119.729 163.673C119.793 163.553 119.88 163.446 119.986 163.36C120.091 163.274 120.212 163.209 120.342 163.17C120.473 163.131 120.61 163.117 120.745 163.131C120.88 163.145 121.012 163.185 121.132 163.249L122.627 164.045C122.869 164.175 123.05 164.395 123.13 164.658C123.21 164.921 123.183 165.205 123.055 165.448C122.925 165.691 122.704 165.872 122.441 165.952C122.178 166.032 121.894 166.005 121.652 165.876Z" fill="white" stroke="#263238" stroke-width="0.5" stroke-miterlimit="10"/>
<path d="M120.332 167.477L118.837 166.676C118.6 166.547 118.424 166.33 118.344 166.073C118.264 165.815 118.287 165.537 118.409 165.296C118.539 165.061 118.756 164.885 119.013 164.806C119.271 164.727 119.549 164.751 119.789 164.873L121.284 165.669C121.521 165.798 121.698 166.014 121.778 166.272C121.858 166.53 121.834 166.809 121.712 167.049C121.583 167.286 121.366 167.464 121.109 167.544C120.851 167.623 120.572 167.599 120.332 167.477Z" fill="white" stroke="#263238" stroke-width="0.5" stroke-miterlimit="10"/>
<path d="M118.822 168.889L117.327 168.089C117.207 168.025 117.1 167.938 117.014 167.833C116.927 167.727 116.862 167.606 116.823 167.475C116.784 167.345 116.771 167.208 116.784 167.072C116.798 166.937 116.839 166.805 116.904 166.686C116.968 166.566 117.056 166.459 117.161 166.373C117.266 166.287 117.388 166.222 117.518 166.183C117.648 166.144 117.785 166.13 117.921 166.144C118.056 166.158 118.187 166.198 118.307 166.262L119.802 167.063C119.922 167.127 120.028 167.214 120.115 167.32C120.201 167.425 120.266 167.546 120.305 167.676C120.344 167.807 120.357 167.944 120.344 168.079C120.33 168.214 120.29 168.346 120.225 168.466C120.161 168.586 120.074 168.692 119.969 168.778C119.863 168.864 119.742 168.929 119.612 168.968C119.481 169.008 119.345 169.021 119.209 169.007C119.074 168.994 118.942 168.953 118.822 168.889Z" fill="white" stroke="#263238" stroke-width="0.5" stroke-miterlimit="10"/>
<path d="M115.649 168.958L115.258 168.751C115.137 168.687 115.031 168.6 114.944 168.495C114.857 168.39 114.792 168.269 114.752 168.138C114.713 168.008 114.699 167.871 114.712 167.735C114.726 167.6 114.765 167.468 114.83 167.348C114.96 167.106 115.18 166.925 115.443 166.844C115.706 166.764 115.99 166.792 116.233 166.92L116.624 167.132C116.744 167.196 116.851 167.283 116.938 167.388C117.024 167.493 117.089 167.614 117.129 167.744C117.169 167.875 117.183 168.012 117.169 168.147C117.156 168.283 117.116 168.415 117.052 168.535C116.987 168.655 116.9 168.761 116.795 168.847C116.69 168.933 116.568 168.998 116.438 169.037C116.308 169.077 116.171 169.09 116.035 169.076C115.9 169.063 115.768 169.022 115.649 168.958Z" fill="white" stroke="#263238" stroke-width="0.5" stroke-miterlimit="10"/>
<path d="M106.32 154.873L86.5488 146.515L87.2802 159.611L103.606 163.351L106.32 154.873Z" fill="#263238" stroke="#263238" stroke-width="0.5" stroke-linecap="round" stroke-linejoin="round"/>
<path d="M103.606 163.351L106.32 154.873L103.555 153.649L103.5 153.93L100.97 162.711L103.606 163.351Z" fill="white" stroke="#263238" stroke-width="0.5" stroke-miterlimit="10"/>
<path d="M75.4399 102.488L80.4999 104.839C80.4999 104.839 82.6251 110.86 81.9167 111.035C81.2083 111.21 75.8953 106.964 75.8953 106.964L75.4399 102.488Z" fill="white" stroke="#263238" stroke-width="0.5" stroke-linecap="round" stroke-linejoin="round"/>
<path d="M78.3793 101.283L78.7335 99.2542C78.7335 99.2542 83.4255 99.5762 85.3023 99.5624C87.1791 99.5486 88.8167 99.3094 88.8029 97.3176C88.7891 95.3258 87.6943 88.5316 87.6943 88.5316C87.6943 88.5316 89.8011 88.0486 90.6153 87.1056C91.4295 86.1626 90.2519 84.9988 89.1893 83.5958C88.1267 82.1928 87.1745 80.6794 87.0503 79.0372C86.9261 77.395 84.0741 72.0222 84.0741 72.0222C84.0741 72.0222 84.5341 71.1988 83.0023 69.4508C81.4705 67.7028 73.6137 67.3992 68.5859 69.9108C63.5581 72.4224 62.4127 76.0472 62.4357 80.0308C62.4587 84.0144 64.7357 89.631 64.7357 89.631C64.7357 89.631 63.2499 95.7352 63.1349 96.071C63.0199 96.4068 61.6859 99.0242 61.6859 99.0242C61.6859 99.0242 67.9741 103.408 70.2695 105.377C72.5649 107.346 77.7491 110.713 77.7813 108.891C77.8135 107.07 78.0205 102.957 78.0205 102.957L78.3793 101.283Z" fill="white" stroke="#263238" stroke-width="0.5" stroke-linecap="round" stroke-linejoin="round"/>
<path d="M85.3117 82.2572C85.3393 82.938 85.1829 83.4946 84.9575 83.5038C84.7321 83.513 84.5205 82.9748 84.4975 82.294C84.4745 81.6132 84.6217 81.0566 84.8517 81.0474C85.0817 81.0382 85.2795 81.5764 85.3117 82.2572Z" fill="#263238"/>
<path d="M82.0134 80.0078C82.0134 80.0078 83.0576 78.2414 85.7624 79.281" stroke="#263238" stroke-width="0.5" stroke-linecap="round" stroke-linejoin="round"/>
<path d="M88.803 97.3176C88.803 95.3212 87.6944 88.5316 87.6944 88.5316C87.6944 88.5316 86.4018 87.837 83.9408 88.435C81.4798 89.033 80.8082 93.035 80.339 93.495C79.8698 93.955 76.8108 91.195 75.624 89.3044C74.4372 87.4138 73.6 84.18 73.4712 82.2894C73.3424 80.3988 77.7906 79.4466 78.4852 77.6894C79.1798 75.9322 75.9 74.06 77.0454 72.887C78.1908 71.714 80.5598 72.1648 81.7328 72.3902C82.5324 72.4983 83.3462 72.3704 84.0742 72.0222C84.0742 72.0222 84.5342 71.1988 83.0024 69.4508C81.4706 67.7028 73.6138 67.3992 68.586 69.9108C63.5582 72.4224 62.4128 76.0472 62.4358 80.0308C62.4588 83.2508 63.9492 87.5564 64.5104 89.0744C64.9853 89.2797 65.4971 89.3862 66.0146 89.3872C66.4746 89.2676 66.8242 87.86 67.0496 86.4478C67.275 85.0356 70.6652 83.3796 70.6652 83.3796C70.6652 83.3796 71.277 87.5978 71.2816 88.4166C71.2862 89.2354 70.8216 93.3432 73.0848 95.3166C74.8568 96.7855 76.746 98.1071 78.7336 99.268C78.7336 99.268 83.4256 99.59 85.3024 99.5762C87.1792 99.5624 88.8168 99.3094 88.803 97.3176Z" fill="#263238" stroke="#263238" stroke-width="0.5" stroke-linecap="round" stroke-linejoin="round"/>
<path d="M71.3874 86.2868C71.3874 86.2868 70.4122 80.6656 68.7746 80.9094C67.137 81.1532 66.2078 83.2692 67.045 85.9694C67.8822 88.6696 69.5244 88.4166 70.4582 88.1774" fill="white"/>
<path d="M71.3874 86.2868C71.3874 86.2868 70.4122 80.6656 68.7746 80.9094C67.137 81.1532 66.2078 83.2692 67.045 85.9694C67.8822 88.6696 69.5244 88.4166 70.4582 88.1774" stroke="#263238" stroke-width="0.5" stroke-linecap="round" stroke-linejoin="round"/>
<path d="M82.9011 90.551C82.9011 90.551 83.8441 91.7194 86.3051 91.7056" stroke="white" stroke-width="0.5" stroke-linecap="round" stroke-linejoin="round"/>
<path d="M56.58 210.28H81.42C81.5028 208.973 82.4688 203.95 82.4688 200.657C82.4688 196.852 85.0862 172.311 85.0862 172.311L52.7804 171.888L53.8384 186.907L56.58 210.28Z" fill="#263238" stroke="#263238" stroke-width="0.5" stroke-linecap="round" stroke-linejoin="round"/>
<path d="M59.8 99.8798C59.8 99.8798 54.1374 107.143 52.5412 111.214C50.945 115.285 49.7076 115.994 50.0618 121.127C50.416 126.261 52.9 146.8 52.9 146.8L47.9412 173.54C53.7939 175.636 59.9631 176.713 66.1802 176.723C76.4474 176.723 80.9002 175.84 81.5856 175.485C82.271 175.131 88.4856 173.54 88.4856 173.54C88.4856 173.54 88.4856 143.262 86.5352 132.816C84.5848 122.369 82.11 114.416 81.2268 112.452C80.3436 110.487 77.5054 104.13 77.5054 104.13L59.8 99.8798Z" fill="#263238" stroke="#263238" stroke-width="0.5" stroke-linecap="round" stroke-linejoin="round"/>
<path d="M81.2406 112.452C80.3528 110.506 77.5192 104.13 77.5192 104.13L59.8 99.8798C59.8 99.8798 58.604 101.416 57.155 103.472C61.0144 105.713 70.5686 111.251 71.1344 111.389C71.8428 111.568 75.3848 111.214 75.3848 111.214L73.8024 113.16C73.8024 113.16 78.0528 116.527 79.4696 117.939C80.2148 118.685 82.3768 120.653 84.2628 122.355C82.9794 117.268 81.7926 113.675 81.2406 112.452Z" fill="#263238" stroke="#263238" stroke-width="0.5" stroke-linecap="round" stroke-linejoin="round"/>
<path d="M73.094 108.026L79.1154 112.806L84.0696 121.661L80.8864 108.735L74.336 105.018L73.094 108.026Z" fill="white" stroke="#263238" stroke-width="0.5" stroke-linecap="round" stroke-linejoin="round"/>
<path d="M61.0558 96.5172L79.5938 104.871V111.421L58.397 100.588L61.0558 96.5172Z" fill="white" stroke="#263238" stroke-width="0.5" stroke-linecap="round" stroke-linejoin="round"/>
<path d="M85.5692 163.525H53.5348V189.446H85.5692V163.525Z" fill="#5CB0FF" stroke="#263238" stroke-width="0.5" stroke-miterlimit="10"/>
<path d="M71.5162 175.881C71.5162 175.881 73.899 178.986 74.8328 179.299C75.6189 179.622 76.2691 180.207 76.6728 180.955C77.0868 181.576 77.5928 186.236 77.9148 186.548C78.2368 186.861 78.2276 187.583 77.0868 187.064C75.946 186.544 75.2468 184.764 75.2468 184.764L75.6608 188.904C75.6608 188.904 76.5808 189.111 75.8678 189.63C75.1548 190.15 74.52 190.872 73.899 190.55C73.3464 190.221 72.8272 189.839 72.3488 189.41C71.6089 189.658 70.8211 189.729 70.0488 189.617C68.9126 189.41 69.1288 189.824 68.0846 189.097C67.0404 188.37 67.045 189.203 66.5298 187.855C65.7272 185.443 65.0698 182.985 64.561 180.495C64.354 179.147 64.147 177.275 64.147 177.275L71.5162 175.881Z" fill="white" stroke="#263238" stroke-width="0.5" stroke-linecap="round" stroke-linejoin="round"/>
<path d="M71.9348 173.912L72.657 177.123L63.7514 178.365L63.3374 175.154L71.9348 173.912Z" fill="white" stroke="#263238" stroke-width="0.5" stroke-linecap="round" stroke-linejoin="round"/>
<path d="M60.5222 106.26C60.5222 106.26 54.326 108.206 54.1512 111.039C53.9764 113.873 51.9202 148.24 52.808 150.54C53.6958 152.84 62.4036 176.148 62.4036 176.148L72.496 174.91C72.496 174.91 67.3256 147.881 67.16 147.347C66.9944 146.814 70.6284 116.702 70.6284 116.702" fill="#263238"/>
<path d="M60.5222 106.26C60.5222 106.26 54.326 108.206 54.1512 111.039C53.9764 113.873 51.9202 148.24 52.808 150.54C53.6958 152.84 62.4036 176.148 62.4036 176.148L72.496 174.91C72.496 174.91 67.3256 147.881 67.16 147.347C66.9944 146.814 70.6284 116.702 70.6284 116.702" stroke="#263238" stroke-width="0.5" stroke-linecap="round" stroke-linejoin="round"/>
<path d="M69.4277 125.35L67.1461 147.347L69.3219 161.014" stroke="#878787" stroke-width="0.5" stroke-linecap="round" stroke-linejoin="round"/>
<path d="M69.7774 121.983L69.6578 123.151" stroke="#878787" stroke-width="0.5" stroke-linecap="round" stroke-linejoin="round"/>
<path d="M53.4381 118.579L52.7573 139.233" stroke="#878787" stroke-width="0.5" stroke-linecap="round" stroke-linejoin="round"/>
<path d="M76.5854 157.407L83.3933 157.159L84.0051 159.611L72.726 160.333" stroke="#878787" stroke-width="0.5" stroke-linecap="round" stroke-linejoin="round"/>
<path d="M70.9136 157.61L74.5384 157.481" stroke="#878787" stroke-width="0.5" stroke-linecap="round" stroke-linejoin="round"/>
<path d="M58.6592 104.057L71.1482 111.389L75.3986 111.214L73.8024 113.16L82.0318 119.715" stroke="#878787" stroke-width="0.5" stroke-linecap="round" stroke-linejoin="round"/>
<path d="M5.28076 210.28H215.266" stroke="#263238" stroke-width="0.5" stroke-miterlimit="10"/>
</svg>
