<svg width="230" height="230" viewBox="0 0 230 230" fill="none" xmlns="http://www.w3.org/2000/svg">
<path d="M183.968 52.4768C171.644 42.2924 155.986 37.2968 137.968 42.964C120.161 48.5484 109.595 65.044 93.7848 73.8208C76.9626 83.1634 56.4144 82.2066 38.5388 88.9364C25.9026 93.6928 16.6382 103.96 13.501 117.134C7.36002 142.908 18.9658 170.853 42.1912 183.894C56.672 192.027 74.244 193.499 90.0312 188.457C102.138 184.584 113.004 177.477 125.083 173.397C146.064 166.308 169.459 169.188 189.759 159.5C211.246 149.252 215.814 127.457 212.939 106.6C210.303 87.653 199.939 65.6834 183.968 52.4768Z" fill="#5CB0FF"/>
<path opacity="0.7" d="M183.968 52.4768C171.644 42.2924 155.986 37.2968 137.968 42.964C120.161 48.5484 109.595 65.044 93.7848 73.8208C76.9626 83.1634 56.4144 82.2066 38.5388 88.9364C25.9026 93.6928 16.6382 103.96 13.501 117.134C7.36002 142.908 18.9658 170.853 42.1912 183.894C56.672 192.027 74.244 193.499 90.0312 188.457C102.138 184.584 113.004 177.477 125.083 173.397C146.064 166.308 169.459 169.188 189.759 159.5C211.246 149.252 215.814 127.457 212.939 106.6C210.303 87.653 199.939 65.6834 183.968 52.4768Z" fill="white"/>
<path d="M200.566 115.895L200.592 66.1778L132.944 66.1424L132.918 115.859L200.566 115.895Z" fill="white"/>
<path d="M140.3 91.08L166.98 91.54" stroke="#263238" stroke-width="0.5" stroke-linecap="round" stroke-linejoin="round"/>
<path d="M139.84 99.36H170.2" stroke="#263238" stroke-width="0.5" stroke-linecap="round" stroke-linejoin="round"/>
<path d="M143.52 109.02H179.86" stroke="#263238" stroke-width="0.5" stroke-linecap="round" stroke-linejoin="round"/>
<path d="M175.105 76.0196C175.105 76.0196 169.801 77.096 170.224 80.9278C170.647 84.7596 174.709 85.9878 176.908 85.2794C179.107 84.571 179.774 81.5074 178.748 79.189C177.722 76.8706 174.148 76.6958 172.257 79.2764" stroke="#263238" stroke-width="0.5" stroke-linecap="round" stroke-linejoin="round"/>
<path d="M183.389 73.14L180.878 80.017" stroke="#263238" stroke-width="0.5" stroke-linecap="round" stroke-linejoin="round"/>
<path d="M179.479 75.1088L186.54 78.039" stroke="#263238" stroke-width="0.5" stroke-linecap="round" stroke-linejoin="round"/>
<path d="M196.836 119.376L196.33 123.116L194.531 119.758L189.453 89.1912L191.757 88.8094L196.836 119.376Z" fill="white" stroke="#263238" stroke-width="0.5" stroke-linecap="round" stroke-linejoin="round"/>
<path d="M191.236 88.8915L189.979 89.1003L195.056 119.667L196.313 119.458L191.236 88.8915Z" fill="#5CB0FF" stroke="#263238" stroke-width="0.5" stroke-linecap="round" stroke-linejoin="round"/>
<path d="M196.831 119.381L194.536 119.763L196.33 123.116L196.831 119.381Z" stroke="#263238" stroke-width="0.5" stroke-linecap="round" stroke-linejoin="round"/>
<path d="M195.433 121.437L196.33 123.116L196.583 121.249L195.433 121.437Z" fill="#263238" stroke="#263238" stroke-width="0.5" stroke-linecap="round" stroke-linejoin="round"/>
<path d="M190.037 85.5765C189.732 85.6272 189.459 85.7972 189.278 86.0491C189.098 86.301 189.025 86.6141 189.076 86.9197L189.453 89.1921L191.753 88.8103L191.376 86.5379C191.325 86.2333 191.156 85.9611 190.905 85.781C190.654 85.6008 190.342 85.5273 190.037 85.5765Z" fill="white" stroke="#263238" stroke-width="0.5" stroke-linecap="round" stroke-linejoin="round"/>
<path d="M190.037 85.5756C189.732 85.6264 189.459 85.7964 189.278 86.0482C189.098 86.3001 189.025 86.6133 189.076 86.9188L189.26 88.0044L191.56 87.6226L191.38 86.537C191.33 86.2315 191.16 85.9586 190.908 85.7783C190.656 85.598 190.343 85.5251 190.037 85.5756Z" fill="#263238" stroke="#263238" stroke-width="0.5" stroke-linecap="round" stroke-linejoin="round"/>
<path d="M40.3603 120.787H112.346C113.647 120.787 114.896 121.304 115.816 122.224C116.737 123.145 117.254 124.393 117.254 125.695V171.272C117.254 171.977 117.115 172.676 116.845 173.327C116.575 173.979 116.179 174.571 115.68 175.069C115.181 175.568 114.589 175.963 113.937 176.233C113.285 176.502 112.586 176.641 111.881 176.64H40.8203C39.3966 176.64 38.0312 176.074 37.0245 175.068C36.0177 174.061 35.4521 172.695 35.4521 171.272V125.69C35.4534 124.389 35.971 123.142 36.8914 122.223C37.8117 121.303 39.0594 120.787 40.3603 120.787Z" fill="white" stroke="#263238" stroke-width="0.5" stroke-linecap="round" stroke-linejoin="round"/>
<path d="M66.3319 126.284H61.7273V129.311H66.3319V126.284Z" fill="#263238"/>
<path d="M51.4141 144.941H47.1407V149.183H51.4141V144.941Z" fill="#263238"/>
<path d="M70.2971 130.033H65.9915V134.274H70.2971V130.033Z" fill="#263238"/>
<path d="M61.0005 126.284H56.3959V129.311H61.0005V126.284Z" fill="#263238"/>
<path d="M75.334 130.033H71.0284V134.274H75.334V130.033Z" fill="#263238"/>
<path d="M71.6633 126.284H67.0587V129.311H71.6633V126.284Z" fill="#263238"/>
<path d="M48.8335 139.969H40.7329V144.21H48.8335V139.969Z" fill="#263238"/>
<path d="M60.2277 130.033H55.9221V134.274H60.2277V130.033Z" fill="#263238"/>
<path d="M46.4139 144.941H40.7329V149.183H46.4139V144.941Z" fill="#263238"/>
<path d="M76.9992 126.284H72.3947V129.311H76.9992V126.284Z" fill="#263238"/>
<path d="M50.1583 130.033H45.8527V134.274H50.1583V130.033Z" fill="#263238"/>
<path d="M50.3376 126.284H45.733V129.311H50.3376V126.284Z" fill="#263238"/>
<path d="M55.6692 126.284H51.0646V129.311H55.6692V126.284Z" fill="#263238"/>
<path d="M55.1954 130.033H50.8898V134.274H55.1954V130.033Z" fill="#263238"/>
<path d="M65.2647 130.033H60.9591V134.274H65.2647V130.033Z" fill="#263238"/>
<path d="M98.3249 126.284H93.7203V129.311H98.3249V126.284Z" fill="#263238"/>
<path d="M103.656 126.284H99.0518V129.311H103.656V126.284Z" fill="#263238"/>
<path d="M100.51 130.033H96.2043V134.274H100.51V130.033Z" fill="#263238"/>
<path d="M105.542 130.033H101.237V134.274H105.542V130.033Z" fill="#263238"/>
<path d="M113.514 144.941H107.171V149.183H113.514V144.941Z" fill="#263238"/>
<path d="M108.988 126.284H104.383V129.311H108.988V126.284Z" fill="#263238"/>
<path d="M45.1305 130.033H40.7329V134.274H45.1305V130.033Z" fill="#263238"/>
<path d="M82.3307 126.284H77.7261V129.311H82.3307V126.284Z" fill="#263238"/>
<path d="M87.6622 126.284H83.0576V129.311H87.6622V126.284Z" fill="#263238"/>
<path d="M85.4035 130.033H81.0979V134.274H85.4035V130.033Z" fill="#263238"/>
<path d="M95.4728 130.033H91.1672V134.274H95.4728V130.033Z" fill="#263238"/>
<path d="M80.3711 130.033H76.0656V134.274H80.3711V130.033Z" fill="#263238"/>
<path d="M90.4406 130.033H86.135V134.274H90.4406V130.033Z" fill="#263238"/>
<path d="M92.9935 126.284H88.3889V129.311H92.9935V126.284Z" fill="#263238"/>
<path d="M86.4293 144.941H82.1559V149.183H86.4293V144.941Z" fill="#263238"/>
<path d="M108.859 139.969H104.586V144.21H108.859V139.969Z" fill="#263238"/>
<path d="M103.859 139.969H99.5853V144.21H103.859V139.969Z" fill="#263238"/>
<path d="M106.439 144.941H102.166V149.183H106.439V144.941Z" fill="#263238"/>
<path d="M101.439 144.941H97.1658V149.183H101.439V144.941Z" fill="#263238"/>
<path d="M91.4342 144.941H87.1608V149.183H91.4342V144.941Z" fill="#263238"/>
<path d="M96.4343 144.941H92.1609V149.183H96.4343V144.941Z" fill="#263238"/>
<path d="M98.854 139.969H94.5806V144.21H98.854V139.969Z" fill="#263238"/>
<path d="M93.8537 139.969H89.5803V144.21H93.8537V139.969Z" fill="#263238"/>
<path d="M113.514 126.284H109.719V129.311H113.514V126.284Z" fill="#263238"/>
<path d="M45.0063 126.284H40.7329V129.311H45.0063V126.284Z" fill="#263238"/>
<path d="M113.514 149.909H40.7329V154.321H113.514V149.909Z" fill="#263238"/>
<path d="M113.514 130.033H106.274V134.274H113.514V130.033Z" fill="#263238"/>
<path d="M113.51 139.969H109.586V144.21H113.51V139.969Z" fill="#263238"/>
<path d="M108.381 139.214H107.654V135.001H103.376V139.214H102.649V135.001H98.3755V139.214H97.6487V135.001H93.3707V139.214H92.6439V135.001H88.3705V139.214H87.6437V135.001H83.3657V139.214H82.6389V135.001H78.3655V139.214H77.6387V135.001H73.3607V139.214H72.6339V135.001H68.3605V139.214H67.6337V135.001H63.3557V139.214H62.6289V135.001H58.3555V139.214H57.6287V135.001H53.3507V139.214H52.6239V135.001H48.3505V139.214H47.6237V135.001H40.7329V139.242H113.51V135.001H108.381V139.214Z" fill="#263238"/>
<path d="M73.8437 139.969H69.5703V144.21H73.8437V139.969Z" fill="#263238"/>
<path d="M88.8488 139.969H84.5754V144.21H88.8488V139.969Z" fill="#263238"/>
<path d="M63.8387 139.969H59.5653V144.21H63.8387V139.969Z" fill="#263238"/>
<path d="M66.4239 144.941H62.1505V149.183H66.4239V144.941Z" fill="#263238"/>
<path d="M68.839 139.969H64.5656V144.21H68.839V139.969Z" fill="#263238"/>
<path d="M58.834 139.969H54.5605V144.21H58.834V139.969Z" fill="#263238"/>
<path d="M56.4189 144.941H52.1455V149.183H56.4189V144.941Z" fill="#263238"/>
<path d="M61.4192 144.941H57.1458V149.183H61.4192V144.941Z" fill="#263238"/>
<path d="M78.844 139.969H74.5706V144.21H78.844V139.969Z" fill="#263238"/>
<path d="M81.4292 144.941H77.1558V149.183H81.4292V144.941Z" fill="#263238"/>
<path d="M83.8487 139.969H79.5753V144.21H83.8487V139.969Z" fill="#263238"/>
<path d="M71.4242 144.941H67.1508V149.183H71.4242V144.941Z" fill="#263238"/>
<path d="M76.4243 144.941H72.1509V149.183H76.4243V144.941Z" fill="#263238"/>
<path d="M53.8337 139.969H49.5603V144.21H53.8337V139.969Z" fill="#263238"/>
<path d="M121.923 78.338H30.3599C28.4371 78.338 27.0341 80.8404 27.5355 83.398L34.2285 117.617C34.5735 119.37 35.7327 120.589 37.0575 120.589H46.4047V122.944H106.32V120.589H115.225C116.55 120.589 117.709 119.37 118.054 117.617L124.747 83.398C125.249 80.8404 123.846 78.338 121.923 78.338Z" fill="#263238" stroke="#263238" stroke-width="0.5" stroke-linecap="round" stroke-linejoin="round"/>
<path d="M111.564 117.567H40.7008L33.6122 82.5609H118.652L111.564 117.567Z" fill="#5CB0FF" stroke="#263238" stroke-width="0.5" stroke-linecap="round" stroke-linejoin="round"/>
<path d="M37.0345 85.1322L42.7431 115.018H109.848L115.552 85.1322H37.0345Z" fill="white"/>
<path d="M89.699 97.52H45.0808C44.9613 97.5185 44.8427 97.5413 44.7317 97.587C44.6208 97.6327 44.5197 97.7005 44.4341 97.7864C44.3486 97.8723 44.2804 97.9748 44.2333 98.0879C44.1863 98.201 44.1613 98.3225 44.1599 98.4455C44.1657 98.692 44.2656 98.9262 44.438 99.0973C44.6103 99.2685 44.8413 99.3627 45.0808 99.3597H89.699C89.818 99.3627 89.9364 99.3413 90.0472 99.2969C90.1581 99.2524 90.2594 99.1857 90.345 99.1007C90.4307 99.0156 90.4991 98.9139 90.5463 98.8015C90.5935 98.689 90.6185 98.568 90.6199 98.4455C90.6185 98.3225 90.5935 98.201 90.5465 98.0879C90.4994 97.9748 90.4312 97.8723 90.3457 97.7864C90.2602 97.7005 90.159 97.6327 90.0481 97.587C89.9371 97.5413 89.8185 97.5185 89.699 97.52Z" fill="#263238"/>
<path d="M89.6929 102.12H46.0067C45.7657 102.117 45.5332 102.234 45.3597 102.448C45.1862 102.662 45.0856 102.955 45.0798 103.263C45.0813 103.417 45.1064 103.569 45.1538 103.71C45.2011 103.851 45.2698 103.98 45.3559 104.087C45.4419 104.194 45.5437 104.279 45.6554 104.336C45.7671 104.393 45.8865 104.422 46.0067 104.42H89.6929C89.8132 104.422 89.9326 104.393 90.0443 104.336C90.1559 104.279 90.2577 104.194 90.3438 104.087C90.4299 103.98 90.4986 103.851 90.5459 103.71C90.5933 103.569 90.6184 103.417 90.6198 103.263C90.6184 103.11 90.5932 102.959 90.5457 102.818C90.4982 102.678 90.4294 102.55 90.3431 102.444C90.2569 102.338 90.155 102.254 90.0434 102.199C89.9318 102.143 89.8127 102.117 89.6929 102.12Z" fill="#263238"/>
<path d="M89.6989 106.727H47.4579C47.3323 106.709 47.2051 106.725 47.0847 106.775C46.9643 106.824 46.8534 106.905 46.7592 107.013C46.665 107.121 46.5897 107.253 46.5381 107.401C46.4865 107.548 46.4598 107.708 46.4598 107.87C46.4598 108.032 46.4865 108.192 46.5381 108.339C46.5897 108.487 46.665 108.619 46.7592 108.727C46.8534 108.835 46.9643 108.916 47.0847 108.965C47.2051 109.015 47.3323 109.031 47.4579 109.013H89.6989C89.8184 109.015 89.937 108.987 90.048 108.93C90.1589 108.873 90.2601 108.789 90.3456 108.682C90.4311 108.575 90.4993 108.448 90.5464 108.307C90.5934 108.167 90.6184 108.016 90.6198 107.863C90.6184 107.711 90.5934 107.56 90.5462 107.421C90.499 107.281 90.4306 107.155 90.3449 107.049C90.2593 106.943 90.158 106.86 90.0471 106.805C89.9363 106.75 89.8179 106.723 89.6989 106.727Z" fill="#263238"/>
<path d="M89.6938 111.32H48.306C48.0652 111.317 47.8329 111.412 47.6595 111.583C47.4861 111.754 47.3857 111.988 47.3799 112.234C47.3813 112.357 47.4064 112.479 47.4537 112.592C47.5011 112.705 47.5697 112.808 47.6557 112.894C47.7417 112.98 47.8434 113.047 47.955 113.093C48.0665 113.139 48.1858 113.161 48.306 113.16H89.6938C89.814 113.161 89.9332 113.139 90.0448 113.093C90.1564 113.047 90.2581 112.98 90.3441 112.894C90.4301 112.808 90.4987 112.705 90.546 112.592C90.5934 112.479 90.6184 112.357 90.6199 112.234C90.6185 112.112 90.5933 111.991 90.5458 111.878C90.4984 111.766 90.4296 111.664 90.3434 111.579C90.2573 111.494 90.1555 111.428 90.044 111.383C89.9325 111.339 89.8134 111.317 89.6938 111.32Z" fill="#263238"/>
<path d="M100.616 92.7912L97.7545 113.767H106.38L110.363 92.7912H100.616ZM101.458 112.87H99.0057L99.3507 110.487H101.835L101.458 112.87ZM102.226 108.036H99.7003L100.064 105.51H102.626L102.226 108.036ZM103.04 102.907H100.436L100.823 100.225H103.463L103.04 102.907ZM103.9 97.4556H101.2L101.609 94.599H104.337L103.9 97.4556ZM105.418 112.87H102.966L103.367 110.487H105.855L105.418 112.87ZM106.301 108.036H103.781L104.204 105.51H106.766L106.301 108.036ZM107.221 102.907H104.622L105.082 100.225H107.723L107.221 102.907ZM108.22 97.4556H105.538L105.998 94.599H108.726L108.22 97.4556Z" fill="#5CB0FF"/>
<path d="M55.9036 93.0718H98.7572L99.2908 88.78H55.4436L55.9036 93.0718Z" fill="#5CB0FF"/>
<path d="M157.196 173.664L187.33 191.273L210.91 145.516L182.822 129.554L157.196 173.664Z" fill="#263238" stroke="#263238" stroke-width="0.5" stroke-linecap="round" stroke-linejoin="round"/>
<path d="M158.369 170.715L157.196 173.664L187.326 190.707C187.618 189.587 188.212 188.569 189.042 187.763L158.369 170.715Z" fill="white" stroke="#263238" stroke-width="0.5" stroke-linecap="round" stroke-linejoin="round"/>
<path d="M182.707 127.696L158.369 170.715L189.497 188.195L212.617 144.592L182.707 127.696Z" fill="#263238" stroke="#263238" stroke-width="0.5" stroke-linecap="round" stroke-linejoin="round"/>
<path d="M158.217 172.261L166.658 176.461" stroke="#263238" stroke-width="0.5" stroke-linecap="round" stroke-linejoin="round"/>
<path d="M157.66 173.047L167.532 178.094" stroke="#263238" stroke-width="0.5" stroke-linecap="round" stroke-linejoin="round"/>
<path d="M188.103 188.752L181.792 184.911" stroke="#263238" stroke-width="0.5" stroke-linecap="round" stroke-linejoin="round"/>
<path d="M187.712 189.732L177.482 183.779" stroke="#263238" stroke-width="0.5" stroke-linecap="round" stroke-linejoin="round"/>
<path d="M186.884 138.083L202.658 146.722" stroke="#5CB0FF" stroke-width="0.5" stroke-miterlimit="10"/>
<path d="M181.921 139.964L204.189 152.159" stroke="#5CB0FF" stroke-width="0.5" stroke-miterlimit="10"/>
<path d="M210.721 148.166L212.617 144.592L208.605 142.329L210.721 148.166Z" fill="#5CB0FF" stroke="#5CB0FF" stroke-width="0.5" stroke-miterlimit="10"/>
<path d="M189.497 188.195L190.845 185.656L185.518 185.96L189.497 188.195Z" fill="#5CB0FF" stroke="#5CB0FF" stroke-width="0.5" stroke-miterlimit="10"/>
<path d="M130.019 139.219C129.647 138.914 129.2 138.715 128.725 138.643C128.25 138.571 127.764 138.629 127.319 138.81C124.697 139.868 119.499 142.149 119.218 143.69C118.85 145.751 122.493 158.005 123.358 162.132C124.223 166.258 126.27 169.032 131.367 170.14C136.464 171.249 143.138 168.443 145.687 163.834C148.235 159.224 144.767 155.025 142.108 150.875C139.992 147.591 132.885 141.579 130.019 139.219Z" fill="#263238"/>
<path d="M153.428 195.146C153.428 195.146 148.58 177.951 148.58 167.831C148.58 157.711 146.892 150.314 144.817 147.071C142.743 143.828 140.797 142.526 139.886 142.526C138.975 142.526 139.628 143.695 140.926 145.383C142.223 147.071 143.391 147.977 143.911 150.057C144.431 152.136 144.426 154.726 143.778 154.468C143.129 154.21 142.094 149.017 141.183 147.071C140.272 145.125 138.069 142.66 136.772 141.491C135.475 140.323 132.632 136.818 131.325 137.729C130.019 138.639 130.806 139.932 131.583 140.452C132.36 140.972 135.475 144.086 136.901 146.032C138.327 147.977 139.237 152.932 138.46 153.037C137.683 153.143 135.346 145.903 134.049 144.343C132.751 142.784 127.563 138.506 126.394 138.363C125.226 138.221 125.097 140.052 126.132 140.958C127.167 141.864 130.64 145.774 131.827 148.12C133.014 150.466 133.515 154.739 132.475 153.7C131.436 152.66 129.752 148.382 128.335 146.956C126.919 145.53 122.627 140.976 121.587 141.505C120.548 142.034 120.81 143.345 121.716 144.228C122.622 145.112 126.127 150.07 127.038 152.665C127.949 155.259 128.984 162.523 128.464 161.488C127.944 160.453 126.256 155.13 125.35 152.922C124.444 150.714 122.627 149.679 122.365 150.719C122.102 151.759 122.627 152.274 123.285 154.611C123.942 156.947 123.933 163.171 125.879 166.676C127.825 170.182 135.35 179.653 136.39 182.247C137.43 184.842 140.259 196.691 140.259 196.691" fill="white"/>
<path d="M153.428 195.146C153.428 195.146 148.58 177.951 148.58 167.831C148.58 157.711 146.892 150.314 144.817 147.071C142.743 143.828 140.797 142.526 139.886 142.526C138.975 142.526 139.628 143.695 140.926 145.383C142.223 147.071 143.391 147.977 143.911 150.057C144.431 152.136 144.426 154.726 143.778 154.468C143.129 154.21 142.094 149.017 141.183 147.071C140.272 145.125 138.069 142.66 136.772 141.491C135.475 140.323 132.632 136.818 131.325 137.729C130.019 138.639 130.806 139.932 131.583 140.452C132.36 140.972 135.475 144.086 136.901 146.032C138.327 147.977 139.237 152.932 138.46 153.037C137.683 153.143 135.346 145.903 134.049 144.343C132.751 142.784 127.563 138.506 126.394 138.363C125.226 138.221 125.097 140.052 126.132 140.958C127.167 141.864 130.64 145.774 131.827 148.12C133.014 150.466 133.515 154.739 132.475 153.7C131.436 152.66 129.752 148.382 128.335 146.956C126.919 145.53 122.627 140.976 121.587 141.505C120.548 142.034 120.81 143.345 121.716 144.228C122.622 145.112 126.127 150.07 127.038 152.665C127.949 155.259 128.984 162.523 128.464 161.488C127.944 160.453 126.256 155.13 125.35 152.922C124.444 150.714 122.627 149.679 122.365 150.719C122.102 151.759 122.627 152.274 123.285 154.611C123.942 156.947 123.933 163.171 125.879 166.676C127.825 170.182 135.35 179.653 136.39 182.247C137.43 184.842 140.259 196.691 140.259 196.691" stroke="#263238" stroke-width="0.5" stroke-linecap="round" stroke-linejoin="round"/>
<path d="M45.8389 142.572C45.6273 142.871 45.4157 143.18 45.2087 143.492" stroke="white" stroke-width="0.5" stroke-linecap="round" stroke-linejoin="round"/>
<path d="M49.2889 138.603C48.369 139.454 47.5184 140.377 46.7451 141.363" stroke="white" stroke-width="0.5" stroke-linecap="round" stroke-linejoin="round"/>
<path d="M45.54 140.351C44.6391 141.621 43.8217 142.949 43.0928 144.325" stroke="white" stroke-width="0.5" stroke-linecap="round" stroke-linejoin="round"/>
<path d="M68.8067 147.605C68.5997 147.904 68.3882 148.212 68.1812 148.525" stroke="white" stroke-width="0.5" stroke-linecap="round" stroke-linejoin="round"/>
<path d="M72.2567 143.635C71.3391 144.487 70.4901 145.41 69.7175 146.395" stroke="white" stroke-width="0.5" stroke-linecap="round" stroke-linejoin="round"/>
<path d="M68.54 145.383C67.6374 146.652 66.8198 147.98 66.0928 149.357" stroke="white" stroke-width="0.5" stroke-linecap="round" stroke-linejoin="round"/>
<path d="M36.5884 192.998C36.5884 192.998 41.7956 177.951 41.7956 167.831C41.7956 157.711 43.4838 150.314 45.5584 147.071C47.633 143.828 49.5834 142.526 50.4896 142.526C51.3958 142.526 50.7518 143.695 49.4546 145.383C48.1574 147.071 46.989 147.977 46.4692 150.057C45.9494 152.136 45.9494 154.726 46.598 154.468C47.2466 154.21 48.3 149.04 49.1924 147.071C50.0848 145.102 52.3066 142.66 53.6038 141.491C54.901 140.323 57.7438 136.818 59.0548 137.729C60.3658 138.639 59.5746 139.932 58.7972 140.452C58.0198 140.972 54.901 144.086 53.475 146.032C52.049 147.977 51.1382 152.932 51.9202 153.037C52.7022 153.143 55.0344 145.903 56.3316 144.343C57.6288 142.784 62.8176 138.506 63.986 138.363C65.1544 138.221 65.2832 140.052 64.2436 140.958C63.204 141.864 59.7034 145.774 58.535 148.12C57.3666 150.466 56.8514 154.739 57.8864 153.7C58.9214 152.66 60.6142 148.382 62.0264 146.956C63.4386 145.53 67.735 140.976 68.7746 141.505C69.8142 142.034 69.552 143.345 68.6412 144.228C67.7304 145.112 64.2298 150.07 63.3236 152.665C62.4174 155.259 61.3778 162.523 61.8976 161.488C62.4174 160.453 64.101 155.13 65.0118 152.922C65.9226 150.714 67.735 149.679 67.9926 150.719C68.2502 151.759 67.735 152.274 67.0726 154.611C66.4102 156.947 66.424 163.171 64.4782 166.676C62.5324 170.182 55.0068 179.653 53.9672 182.247C52.9276 184.842 49.749 194.548 49.749 194.548" fill="white"/>
<path d="M36.5884 192.998C36.5884 192.998 41.7956 177.951 41.7956 167.831C41.7956 157.711 43.4838 150.314 45.5584 147.071C47.633 143.828 49.5834 142.526 50.4896 142.526C51.3958 142.526 50.7518 143.695 49.4546 145.383C48.1574 147.071 46.989 147.977 46.4692 150.057C45.9494 152.136 45.9494 154.726 46.598 154.468C47.2466 154.21 48.3 149.04 49.1924 147.071C50.0848 145.102 52.3066 142.66 53.6038 141.491C54.901 140.323 57.7438 136.818 59.0548 137.729C60.3658 138.639 59.5746 139.932 58.7972 140.452C58.0198 140.972 54.901 144.086 53.475 146.032C52.049 147.977 51.1382 152.932 51.9202 153.037C52.7022 153.143 55.0344 145.903 56.3316 144.343C57.6288 142.784 62.8176 138.506 63.986 138.363C65.1544 138.221 65.2832 140.052 64.2436 140.958C63.204 141.864 59.7034 145.774 58.535 148.12C57.3666 150.466 56.8514 154.739 57.8864 153.7C58.9214 152.66 60.6142 148.382 62.0264 146.956C63.4386 145.53 67.735 140.976 68.7746 141.505C69.8142 142.034 69.552 143.345 68.6412 144.228C67.7304 145.112 64.2298 150.07 63.3236 152.665C62.4174 155.259 61.3778 162.523 61.8976 161.488C62.4174 160.453 64.101 155.13 65.0118 152.922C65.9226 150.714 67.735 149.679 67.9926 150.719C68.2502 151.759 67.735 152.274 67.0726 154.611C66.4102 156.947 66.424 163.171 64.4782 166.676C62.5324 170.182 55.0068 179.653 53.9672 182.247C52.9276 184.842 49.749 194.548 49.749 194.548" stroke="#263238" stroke-width="0.5" stroke-linecap="round" stroke-linejoin="round"/>
</svg>
