<svg width="230" height="230" viewBox="0 0 230 230" fill="none" xmlns="http://www.w3.org/2000/svg">
<path d="M205.05 97.3599C203.602 89.6711 201.741 82.0658 199.475 74.577C192.676 52.9015 179.167 30.9657 155.952 23.591C138.822 18.1486 120.319 21.9301 105.836 33.0032C83.1357 50.3824 66.5981 74.0954 41.7446 89.1547C20.9936 101.723 10.1309 122.036 17.1125 150.743C24.0941 179.45 47.3863 196.187 72.8765 194.128C94.0759 192.417 116.233 194.244 134.559 204.536C150.931 213.727 179.87 205.749 203.805 180.618C217.746 165.98 216.4 147.371 211.855 129.965C209.053 119.246 207.226 108.256 205.05 97.3599Z" fill="#5CB0FF"/>
<path opacity="0.7" d="M205.05 97.3599C203.602 89.6711 201.741 82.0658 199.475 74.577C192.676 52.9015 179.167 30.9657 155.952 23.591C138.822 18.1486 120.319 21.9301 105.836 33.0032C83.1357 50.3824 66.5981 74.0954 41.7446 89.1547C20.9936 101.723 10.1309 122.036 17.1125 150.743C24.0941 179.45 47.3863 196.187 72.8765 194.128C94.0759 192.417 116.233 194.244 134.559 204.536C150.931 213.727 179.87 205.749 203.805 180.618C217.746 165.98 216.4 147.371 211.855 129.965C209.053 119.246 207.226 108.256 205.05 97.3599Z" fill="white"/>
<path d="M55.8128 29.5761C55.8128 29.5761 58.4039 27.5331 59.0628 26.2209C59.6164 25.1136 60.0372 23.5246 59.4559 22.3453C59.3296 22.0594 59.1442 21.8034 58.9119 21.5943C58.6796 21.3851 58.4057 21.2275 58.1081 21.1318C57.8105 21.0361 57.4961 21.0045 57.1854 21.039C56.8747 21.0735 56.5749 21.1734 56.3056 21.3322C54.7111 22.3232 54.5394 25.706 54.9491 27.3338C54.9824 27.4611 55.7852 29.5982 55.8128 29.5761Z" fill="#5CB0FF"/>
<path d="M31.8674 46.6175C31.9726 46.7171 33.8218 48.0515 33.8329 48.0238C33.844 47.9961 34.8627 44.8901 34.6911 43.4284C34.5471 42.1827 34.0156 40.6602 32.8751 39.9681C32.6119 39.7999 32.316 39.6894 32.007 39.6436C31.6981 39.5979 31.3829 39.618 31.0822 39.7027C30.7816 39.7874 30.5022 39.9348 30.2626 40.1351C30.0229 40.3354 29.8283 40.5842 29.6916 40.865C28.9054 42.5703 30.6328 45.4825 31.8674 46.6175Z" fill="#5CB0FF"/>
<path d="M86.1311 32.6765C86.1311 32.6765 76.6525 42.4651 76.719 54.4849C76.7854 66.5047 86.3359 76.2103 86.3359 76.2103C86.3359 76.2103 95.82 66.4272 95.7481 54.4018C95.6761 42.3765 86.1311 32.6765 86.1311 32.6765Z" fill="#5CB0FF"/>
<path d="M72.6163 61.6824C72.741 61.5489 72.8557 61.4064 72.9596 61.2561C73.6461 60.2097 74.2385 58.6871 73.7956 57.4359C73.7029 57.1375 73.5481 56.8622 73.3414 56.6279C73.1347 56.3937 72.8808 56.2058 72.5963 56.0767C72.3119 55.9475 72.0033 55.88 71.6909 55.8786C71.3785 55.8771 71.0693 55.9418 70.7837 56.0683C69.4937 56.6774 68.8625 58.7425 68.7297 60.4311C68.2148 60.3149 67.7497 60.2263 67.3511 60.1543C67.185 59.7723 67.0133 59.3903 66.8362 59.0027C66.659 58.6152 66.5206 58.1999 66.3545 57.7902C66.1275 57.1923 65.9282 56.5611 65.7233 55.9299C66.4707 55.5977 68.6521 54.5735 69.466 53.6766C70.2799 52.7796 71.127 51.3291 70.8723 50.028C70.8254 49.7195 70.7139 49.4244 70.545 49.1621C70.3761 48.8997 70.1537 48.676 69.8924 48.5056C69.631 48.3352 69.3366 48.2219 69.0284 48.1732C68.7202 48.1245 68.4052 48.1415 68.104 48.2231C66.2991 48.7767 65.2416 51.9768 65.2084 53.6544C65.2084 53.7042 65.2084 54.0586 65.2693 54.4849C65.0922 53.8648 64.9039 53.2447 64.7433 52.608C64.2783 50.8086 63.863 48.9594 63.4423 47.1102C63.3537 46.7282 63.2596 46.3406 63.171 45.9586C63.8021 45.6763 66.1773 44.5911 67.0465 43.6499C67.9158 42.7087 68.7075 41.3024 68.4528 40.0013C68.406 39.6928 68.2944 39.3978 68.1255 39.1354C67.9567 38.873 67.7343 38.6493 67.4729 38.4789C67.2115 38.3085 66.9171 38.1952 66.6089 38.1466C66.3007 38.0979 65.9857 38.1149 65.6846 38.1964C63.8852 38.75 62.8277 41.9502 62.7889 43.6277C62.7889 43.6831 62.8222 44.1094 62.8665 44.5856C62.6228 43.5835 62.3682 42.5869 62.0803 41.6069C61.6025 39.9206 61.0105 38.2688 60.3086 36.6628C60.5356 36.5687 63.3481 35.3506 64.2949 34.3042C65.1309 33.3741 65.9558 31.9567 65.6956 30.6556C65.6488 30.3472 65.5372 30.0521 65.3683 29.7897C65.1995 29.5274 64.9771 29.3036 64.7157 29.1332C64.4543 28.9628 64.1599 28.8496 63.8517 28.8009C63.5435 28.7522 63.2285 28.7692 62.9274 28.8507C61.128 29.4044 60.0705 32.6045 60.0317 34.2821C60.0317 34.3983 60.1702 35.943 60.2366 36.4967C60.2344 36.4783 60.2344 36.4597 60.2366 36.4413C59.51 34.8823 58.6467 33.3908 57.6566 31.9844C56.776 30.724 55.824 29.5151 54.8053 28.3635C53.8696 27.2562 52.9505 26.3593 52.1311 25.5454C51.6826 25.108 51.2619 24.7149 50.8688 24.355H50.9075C50.9408 24.355 50.0328 22.2622 49.9608 22.1404C49.1192 20.6899 46.6389 18.3811 44.8063 18.7797C44.5013 18.847 44.2141 18.978 43.9633 19.1641C43.7126 19.3502 43.504 19.5872 43.3514 19.8596C43.1987 20.132 43.1054 20.4336 43.0775 20.7447C43.0496 21.0557 43.0878 21.3691 43.1896 21.6643C43.5993 22.9266 44.9945 23.7737 46.1738 24.1834C47.3531 24.5931 50.0494 24.3993 50.6971 24.3384C51.0958 24.726 51.5221 25.1412 51.9816 25.6063C52.7844 26.4368 53.6813 27.3835 54.5893 28.4742C54.8329 28.7677 55.0821 29.0888 55.3257 29.3988C54.8053 28.9614 54.0744 28.3801 53.9969 28.3303C52.5851 27.4334 49.3185 26.5254 47.879 27.7213C47.6409 27.9263 47.4492 28.1797 47.3166 28.4646C47.184 28.7494 47.1135 29.0593 47.1098 29.3735C47.1061 29.6877 47.1694 29.9991 47.2953 30.287C47.4213 30.5748 47.607 30.8326 47.8403 31.0432C48.7815 31.9733 50.4148 32.0841 51.655 31.9013C52.8951 31.7186 55.2537 30.2404 55.7575 29.947C56.3112 30.6335 56.8261 31.3588 57.341 32.1616C58.2872 33.563 59.108 35.0451 59.7937 36.5908C59.8324 36.6794 59.8601 36.779 59.8989 36.8676C59.6774 36.6074 58.3597 35.2786 58.2379 35.2067C56.9313 34.1547 53.8087 32.8979 52.2197 33.9277C51.9631 34.1059 51.7472 34.3362 51.5859 34.6038C51.4247 34.8713 51.3219 35.1699 51.2843 35.4799C51.2466 35.79 51.275 36.1045 51.3675 36.4028C51.46 36.7012 51.6146 36.9765 51.8211 37.2109C52.6571 38.2407 54.2627 38.5286 55.5139 38.4843C56.959 38.4345 59.7992 37.0005 59.9044 36.9451C60.5429 38.5145 61.0792 40.1234 61.51 41.7619C61.8311 42.9744 62.1135 44.2146 62.3792 45.4603C62.0858 45.1281 60.8567 43.8935 60.757 43.7994C59.4504 42.753 56.3278 41.4906 54.7388 42.526C54.4823 42.7041 54.2663 42.9345 54.1051 43.202C53.9438 43.4695 53.841 43.7681 53.8034 44.0782C53.7657 44.3882 53.7941 44.7028 53.8866 45.0011C53.9791 45.2994 54.1337 45.5748 54.3402 45.8091C55.1762 46.8334 56.7818 47.1268 58.0331 47.0825C59.4449 47.0272 62.1744 45.6652 62.4014 45.5489L62.7668 47.2542C63.1488 49.1089 63.5253 50.9692 63.9516 52.7907C64.1011 53.4219 64.2672 54.042 64.4333 54.6621C63.9738 54.1804 63.1211 53.3222 63.0381 53.2558C61.7315 52.2094 58.6089 50.947 57.0199 51.9824C56.7633 52.1605 56.5473 52.3909 56.3861 52.6584C56.2249 52.9259 56.1221 53.2245 56.0844 53.5346C56.0468 53.8447 56.0752 54.1592 56.1677 54.4575C56.2602 54.7558 56.4148 55.0312 56.6212 55.2655C57.4573 56.2898 59.0629 56.5832 60.3141 56.5334C61.5654 56.4836 63.8907 55.3929 64.544 55.0773C64.8264 56.1071 65.1309 57.1203 65.4797 58.1058C65.6403 58.5266 65.7731 58.9695 65.9503 59.3626L66.2161 59.9938L65.8894 59.9439C65.8894 59.9439 65.8617 60.5308 65.9171 61.4831C64.5385 60.5031 62.5509 59.656 61.2553 60.2484C60.9749 60.3857 60.7267 60.5806 60.527 60.8205C60.3272 61.0604 60.1805 61.3398 60.0963 61.6405C60.0121 61.9411 59.9925 62.2561 60.0386 62.5648C60.0847 62.8736 60.1956 63.1691 60.3639 63.4319C60.4453 63.5748 60.5418 63.7085 60.6518 63.8306C60.8962 65.2864 61.51 66.6551 62.4346 67.8058C62.5066 67.8833 63.4423 68.7526 63.9295 69.1844C63.4589 68.9242 62.9883 68.675 62.501 68.3982C61.7979 68.0107 61.0671 67.5733 60.3529 67.1525L59.2456 66.4549C58.8691 66.2279 58.5369 65.9621 58.177 65.713C57.6566 65.342 57.1361 64.9268 56.6212 64.5171C57.0586 63.8195 58.3154 61.7488 58.4981 60.564C58.6808 59.3792 58.5812 57.6961 57.6566 56.7493C57.4488 56.5137 57.1932 56.325 56.9068 56.1957C56.6204 56.0664 56.3098 55.9996 55.9956 55.9996C55.6814 55.9996 55.3708 56.0664 55.0844 56.1957C54.7981 56.325 54.5425 56.5137 54.3347 56.7493C53.1277 58.1888 54.0191 61.4554 54.916 62.8727C54.916 62.9226 55.1651 63.1994 55.4254 63.5316C54.9326 63.1164 54.4398 62.7011 53.9526 62.2582C52.574 61.0125 51.1844 59.7003 49.8334 58.3826L48.9697 57.5688C49.3462 56.9874 50.7248 54.7728 50.9186 53.516C51.1124 52.2592 51.0017 50.6481 50.0771 49.6958C49.8692 49.4601 49.6136 49.2714 49.3273 49.1421C49.0409 49.0129 48.7303 48.946 48.4161 48.946C48.1019 48.946 47.7913 49.0129 47.5049 49.1421C47.2185 49.2714 46.9629 49.4601 46.7551 49.6958C45.5482 51.1353 46.4395 54.4018 47.3088 55.8247C47.342 55.8746 47.6078 56.2068 47.9067 56.5777C47.1482 55.8801 46.3842 55.188 45.6035 54.5292C44.2751 53.3877 42.8711 52.337 41.4013 51.3844C41.5397 51.1796 43.2117 48.6162 43.4221 47.221C43.6104 45.9808 43.5052 44.353 42.5806 43.4007C42.3728 43.1651 42.1172 42.9764 41.8308 42.8471C41.5444 42.7178 41.2338 42.651 40.9196 42.651C40.6054 42.651 40.2948 42.7178 40.0084 42.8471C39.7221 42.9764 39.4665 43.1651 39.2586 43.4007C38.0517 44.8402 38.9431 48.1068 39.8123 49.5297C39.8732 49.6294 40.8366 50.8308 41.1909 51.246L41.1411 51.2128C39.676 50.3098 38.1324 49.5408 36.5291 48.9151C35.1 48.3504 33.6396 47.8679 32.1553 47.4701C30.7822 47.0881 29.5033 46.8223 28.3683 46.5953C27.7537 46.4791 27.189 46.3794 26.663 46.2964C26.663 46.2964 24.7751 45.0285 24.6477 44.9676C23.1473 44.2201 19.8032 43.661 18.4966 45.0063C18.2789 45.2354 18.1127 45.5085 18.0093 45.8071C17.9059 46.1057 17.8675 46.4231 17.8969 46.7377C17.9263 47.0524 18.0227 47.3572 18.1796 47.6315C18.3365 47.9058 18.5503 48.1434 18.8067 48.3283C19.842 49.1532 21.4753 49.0923 22.6822 48.7767C23.8892 48.4611 26.0042 46.8279 26.5578 46.4182C27.1115 46.5178 27.6651 46.6285 28.3295 46.7614C29.4368 47.0161 30.7268 47.3151 32.0833 47.7192C32.4487 47.8244 32.8307 47.9573 33.1906 48.0791C32.5151 48.0071 31.585 47.9241 31.4964 47.9241C29.8355 47.9518 26.5966 48.9982 26.054 50.792C25.9724 51.0924 25.9551 51.4066 26.0031 51.7141C26.0511 52.0216 26.1634 52.3156 26.3327 52.5768C26.5019 52.838 26.7243 53.0606 26.9854 53.23C27.2465 53.3995 27.5404 53.512 27.8478 53.5603C29.1489 53.815 30.5663 53.0066 31.502 52.1762C32.4376 51.3457 33.6058 48.821 33.8439 48.3006C34.6744 48.5829 35.5049 48.8875 36.3796 49.2584C37.9497 49.9121 39.458 50.7051 40.8864 51.628C40.9639 51.6779 41.0469 51.7443 41.1245 51.7997C40.7978 51.7056 38.9652 51.3235 38.8323 51.3125C37.1714 51.1574 33.8494 51.8661 33.1076 53.5658C32.9912 53.8561 32.9376 54.1678 32.9504 54.4802C32.9632 54.7927 33.042 55.0989 33.1816 55.3788C33.3213 55.6586 33.5186 55.9057 33.7606 56.1037C34.0027 56.3018 34.2839 56.4463 34.5858 56.5279C35.8537 56.921 37.3541 56.2787 38.3728 55.5479C39.5466 54.7064 41.1411 51.9436 41.1798 51.8384C42.5771 52.7976 43.9122 53.8442 45.1772 54.9721C46.1129 55.8026 47.0319 56.6884 47.9455 57.5798C47.5136 57.4691 45.8084 57.1092 45.681 57.0981C44.0201 56.9431 40.6982 57.6518 39.9563 59.3571C39.8408 59.647 39.788 59.9581 39.8012 60.27C39.8145 60.5818 39.8935 60.8873 40.033 61.1665C40.1726 61.4456 40.3696 61.6921 40.6112 61.8898C40.8527 62.0875 41.1333 62.2319 41.4345 62.3136C42.7024 62.7067 44.2028 62.0644 45.2215 61.3336C46.3676 60.5142 47.8901 57.8733 48.0175 57.6518C48.4327 58.056 48.8479 58.4601 49.2576 58.8698C50.603 60.2097 51.9429 61.5551 53.3104 62.8395C53.781 63.288 54.2627 63.7088 54.7444 64.1351C54.0966 63.9856 52.9118 63.742 52.8066 63.7309C51.1456 63.5759 47.8237 64.2846 47.0818 65.9898C46.9664 66.2798 46.9135 66.5909 46.9268 66.9028C46.94 67.2146 47.019 67.5201 47.1586 67.7993C47.2982 68.0784 47.4952 68.3249 47.7367 68.5226C47.9782 68.7203 48.2588 68.8647 48.56 68.9463C49.8224 69.345 51.3283 68.6972 52.3415 67.9719C53.3547 67.2466 54.6945 65.0431 55.0599 64.423C55.8683 65.1206 56.6821 65.8016 57.5182 66.4328C57.8836 66.693 58.2379 66.9864 58.6255 67.2189L59.7051 67.9387C60.4581 68.4093 61.1557 68.8411 61.8699 69.2564C62.2242 69.4723 62.5675 69.6661 62.9218 69.8654C62.2851 69.6163 61.2609 69.2453 61.1778 69.2176C59.5501 68.8135 56.1672 68.9851 55.1762 70.5796C55.0175 70.8489 54.9176 71.1488 54.8831 71.4594C54.8485 71.7701 54.8801 72.0846 54.9759 72.3821C55.0716 72.6797 55.2292 72.9536 55.4383 73.1859C55.6475 73.4182 55.9035 73.6036 56.1894 73.7299C57.3797 74.3112 58.9577 73.9015 60.065 73.3368C61.2996 72.7112 63.1544 70.4191 63.3869 70.1367C64.2506 70.6294 65.0921 71.0945 65.8894 71.5208C68.0154 72.6614 69.8757 73.5694 71.3152 74.2448C75.9991 78.2976 82.5876 78.7405 82.5876 78.7405C82.5876 78.7405 82.9364 70.8454 78.2913 65.6521C76.7039 63.9398 74.7691 62.5864 72.6163 61.6824ZM64.2561 69.3837C64.4001 69.0571 65.524 66.549 65.6015 65.1372L66.3766 64.9766C66.8524 67.4695 67.8424 69.8359 69.2833 71.925C68.4307 71.5227 67.5079 71.0724 66.515 70.5741C65.8008 70.2031 65.0368 69.8045 64.2561 69.3837Z" fill="#5CB0FF"/>
<path d="M107.153 60.1765C107.153 60.1765 99.2524 60.4146 94.419 65.4418C89.5856 70.4689 89.6465 78.364 89.6465 78.364C89.6465 78.364 97.5416 78.1204 102.381 73.0988C107.219 68.0772 107.153 60.1765 107.153 60.1765Z" fill="#5CB0FF"/>
<g opacity="0.5">
<path opacity="0.5" d="M55.8128 29.5761C55.8128 29.5761 58.4039 27.5331 59.0628 26.2209C59.6164 25.1136 60.0372 23.5246 59.4559 22.3453C59.3296 22.0594 59.1442 21.8034 58.9119 21.5943C58.6796 21.3851 58.4057 21.2275 58.1081 21.1318C57.8105 21.0361 57.4961 21.0045 57.1854 21.039C56.8747 21.0735 56.5749 21.1734 56.3056 21.3322C54.7111 22.3232 54.5394 25.706 54.9491 27.3338C54.9824 27.4611 55.7852 29.5982 55.8128 29.5761Z" fill="white"/>
<path opacity="0.5" d="M31.8674 46.6175C31.9726 46.7171 33.8218 48.0515 33.8329 48.0238C33.844 47.9961 34.8627 44.8901 34.6911 43.4284C34.5471 42.1827 34.0156 40.6602 32.8751 39.9681C32.6119 39.7999 32.316 39.6894 32.007 39.6436C31.6981 39.5979 31.3829 39.618 31.0822 39.7027C30.7816 39.7874 30.5022 39.9348 30.2626 40.1351C30.0229 40.3354 29.8283 40.5842 29.6916 40.865C28.9054 42.5703 30.6328 45.4825 31.8674 46.6175Z" fill="white"/>
<path opacity="0.5" d="M86.1311 32.6765C86.1311 32.6765 76.6525 42.4651 76.719 54.4849C76.7854 66.5047 86.3359 76.2103 86.3359 76.2103C86.3359 76.2103 95.82 66.4272 95.7481 54.4018C95.6761 42.3765 86.1311 32.6765 86.1311 32.6765Z" fill="white"/>
<path opacity="0.5" d="M72.6163 61.6824C72.741 61.5489 72.8557 61.4064 72.9596 61.2561C73.6461 60.2097 74.2385 58.6871 73.7956 57.4359C73.7029 57.1375 73.5481 56.8622 73.3414 56.6279C73.1347 56.3937 72.8808 56.2058 72.5963 56.0767C72.3119 55.9475 72.0033 55.88 71.6909 55.8786C71.3785 55.8771 71.0693 55.9418 70.7837 56.0683C69.4937 56.6774 68.8625 58.7425 68.7297 60.4311C68.2148 60.3149 67.7497 60.2263 67.3511 60.1543C67.185 59.7723 67.0133 59.3903 66.8362 59.0027C66.659 58.6152 66.5206 58.1999 66.3545 57.7902C66.1275 57.1923 65.9282 56.5611 65.7233 55.9299C66.4707 55.5977 68.6521 54.5735 69.466 53.6766C70.2799 52.7796 71.127 51.3291 70.8723 50.028C70.8254 49.7195 70.7139 49.4244 70.545 49.1621C70.3761 48.8997 70.1537 48.676 69.8924 48.5056C69.631 48.3352 69.3366 48.2219 69.0284 48.1732C68.7202 48.1245 68.4052 48.1415 68.104 48.2231C66.2991 48.7767 65.2416 51.9768 65.2084 53.6544C65.2084 53.7042 65.2084 54.0586 65.2693 54.4849C65.0922 53.8648 64.9039 53.2447 64.7433 52.608C64.2783 50.8086 63.863 48.9594 63.4423 47.1102C63.3537 46.7282 63.2596 46.3406 63.171 45.9586C63.8021 45.6763 66.1773 44.5911 67.0465 43.6499C67.9158 42.7087 68.7075 41.3024 68.4528 40.0013C68.406 39.6928 68.2944 39.3978 68.1255 39.1354C67.9567 38.873 67.7343 38.6493 67.4729 38.4789C67.2115 38.3085 66.9171 38.1952 66.6089 38.1466C66.3007 38.0979 65.9857 38.1149 65.6846 38.1964C63.8852 38.75 62.8277 41.9502 62.7889 43.6277C62.7889 43.6831 62.8222 44.1094 62.8665 44.5856C62.6228 43.5835 62.3682 42.5869 62.0803 41.6069C61.6025 39.9206 61.0105 38.2688 60.3086 36.6628C60.5356 36.5687 63.3481 35.3506 64.2949 34.3042C65.1309 33.3741 65.9558 31.9567 65.6956 30.6556C65.6488 30.3472 65.5372 30.0521 65.3683 29.7897C65.1995 29.5274 64.9771 29.3036 64.7157 29.1332C64.4543 28.9628 64.1599 28.8496 63.8517 28.8009C63.5435 28.7522 63.2285 28.7692 62.9274 28.8507C61.128 29.4044 60.0705 32.6045 60.0317 34.2821C60.0317 34.3983 60.1702 35.943 60.2366 36.4967C60.2344 36.4783 60.2344 36.4597 60.2366 36.4413C59.51 34.8823 58.6467 33.3908 57.6566 31.9844C56.776 30.724 55.824 29.5151 54.8053 28.3635C53.8696 27.2562 52.9505 26.3593 52.1311 25.5454C51.6826 25.108 51.2619 24.7149 50.8688 24.355H50.9075C50.9408 24.355 50.0328 22.2622 49.9608 22.1404C49.1192 20.6899 46.6389 18.3811 44.8063 18.7797C44.5013 18.847 44.2141 18.978 43.9633 19.1641C43.7126 19.3502 43.504 19.5872 43.3514 19.8596C43.1987 20.132 43.1054 20.4336 43.0775 20.7447C43.0496 21.0557 43.0878 21.3691 43.1896 21.6643C43.5993 22.9266 44.9945 23.7737 46.1738 24.1834C47.3531 24.5931 50.0494 24.3993 50.6971 24.3384C51.0958 24.726 51.5221 25.1412 51.9816 25.6063C52.7844 26.4368 53.6813 27.3835 54.5893 28.4742C54.8329 28.7677 55.0821 29.0888 55.3257 29.3988C54.8053 28.9614 54.0744 28.3801 53.9969 28.3303C52.5851 27.4334 49.3185 26.5254 47.879 27.7213C47.6409 27.9263 47.4492 28.1797 47.3166 28.4646C47.184 28.7494 47.1135 29.0593 47.1098 29.3735C47.1061 29.6877 47.1694 29.9991 47.2953 30.287C47.4213 30.5748 47.607 30.8326 47.8403 31.0432C48.7815 31.9733 50.4148 32.0841 51.655 31.9013C52.8951 31.7186 55.2537 30.2404 55.7575 29.947C56.3112 30.6335 56.8261 31.3588 57.341 32.1616C58.2872 33.563 59.108 35.0451 59.7937 36.5908C59.8324 36.6794 59.8601 36.779 59.8989 36.8676C59.6774 36.6074 58.3597 35.2786 58.2379 35.2067C56.9313 34.1547 53.8087 32.8979 52.2197 33.9277C51.9631 34.1059 51.7472 34.3362 51.5859 34.6038C51.4247 34.8713 51.3219 35.1699 51.2843 35.4799C51.2466 35.79 51.275 36.1045 51.3675 36.4028C51.46 36.7012 51.6146 36.9765 51.8211 37.2109C52.6571 38.2407 54.2627 38.5286 55.5139 38.4843C56.959 38.4345 59.7992 37.0005 59.9044 36.9451C60.5429 38.5145 61.0792 40.1234 61.51 41.7619C61.8311 42.9744 62.1135 44.2146 62.3792 45.4603C62.0858 45.1281 60.8567 43.8935 60.757 43.7994C59.4504 42.753 56.3278 41.4906 54.7388 42.526C54.4823 42.7041 54.2663 42.9345 54.1051 43.202C53.9438 43.4695 53.841 43.7681 53.8034 44.0782C53.7657 44.3882 53.7941 44.7028 53.8866 45.0011C53.9791 45.2994 54.1337 45.5748 54.3402 45.8091C55.1762 46.8334 56.7818 47.1268 58.0331 47.0825C59.4449 47.0272 62.1744 45.6652 62.4014 45.5489L62.7668 47.2542C63.1488 49.1089 63.5253 50.9692 63.9516 52.7907C64.1011 53.4219 64.2672 54.042 64.4333 54.6621C63.9738 54.1804 63.1211 53.3222 63.0381 53.2558C61.7315 52.2094 58.6089 50.947 57.0199 51.9824C56.7633 52.1605 56.5473 52.3909 56.3861 52.6584C56.2249 52.9259 56.1221 53.2245 56.0844 53.5346C56.0468 53.8447 56.0752 54.1592 56.1677 54.4575C56.2602 54.7558 56.4148 55.0312 56.6212 55.2655C57.4573 56.2898 59.0629 56.5832 60.3141 56.5334C61.5654 56.4836 63.8907 55.3929 64.544 55.0773C64.8264 56.1071 65.1309 57.1203 65.4797 58.1058C65.6403 58.5266 65.7731 58.9695 65.9503 59.3626L66.2161 59.9938L65.8894 59.9439C65.8894 59.9439 65.8617 60.5308 65.9171 61.4831C64.5385 60.5031 62.5509 59.656 61.2553 60.2484C60.9749 60.3857 60.7267 60.5806 60.527 60.8205C60.3272 61.0604 60.1805 61.3398 60.0963 61.6405C60.0121 61.9411 59.9925 62.2561 60.0386 62.5648C60.0847 62.8736 60.1956 63.1691 60.3639 63.4319C60.4453 63.5748 60.5418 63.7085 60.6518 63.8306C60.8962 65.2864 61.51 66.6551 62.4346 67.8058C62.5066 67.8833 63.4423 68.7526 63.9295 69.1844C63.4589 68.9242 62.9883 68.675 62.501 68.3982C61.7979 68.0107 61.0671 67.5733 60.3529 67.1525L59.2456 66.4549C58.8691 66.2279 58.5369 65.9621 58.177 65.713C57.6566 65.342 57.1361 64.9268 56.6212 64.5171C57.0586 63.8195 58.3154 61.7488 58.4981 60.564C58.6808 59.3792 58.5812 57.6961 57.6566 56.7493C57.4488 56.5137 57.1932 56.325 56.9068 56.1957C56.6204 56.0664 56.3098 55.9996 55.9956 55.9996C55.6814 55.9996 55.3708 56.0664 55.0844 56.1957C54.7981 56.325 54.5425 56.5137 54.3347 56.7493C53.1277 58.1888 54.0191 61.4554 54.916 62.8727C54.916 62.9226 55.1651 63.1994 55.4254 63.5316C54.9326 63.1164 54.4398 62.7011 53.9526 62.2582C52.574 61.0125 51.1844 59.7003 49.8334 58.3826L48.9697 57.5688C49.3462 56.9874 50.7248 54.7728 50.9186 53.516C51.1124 52.2592 51.0017 50.6481 50.0771 49.6958C49.8692 49.4601 49.6136 49.2714 49.3273 49.1421C49.0409 49.0129 48.7303 48.946 48.4161 48.946C48.1019 48.946 47.7913 49.0129 47.5049 49.1421C47.2185 49.2714 46.9629 49.4601 46.7551 49.6958C45.5482 51.1353 46.4395 54.4018 47.3088 55.8247C47.342 55.8746 47.6078 56.2068 47.9067 56.5777C47.1482 55.8801 46.3842 55.188 45.6035 54.5292C44.2751 53.3877 42.8711 52.337 41.4013 51.3844C41.5397 51.1796 43.2117 48.6162 43.4221 47.221C43.6104 45.9808 43.5052 44.353 42.5806 43.4007C42.3728 43.1651 42.1172 42.9764 41.8308 42.8471C41.5444 42.7178 41.2338 42.651 40.9196 42.651C40.6054 42.651 40.2948 42.7178 40.0084 42.8471C39.7221 42.9764 39.4665 43.1651 39.2586 43.4007C38.0517 44.8402 38.9431 48.1068 39.8123 49.5297C39.8732 49.6294 40.8366 50.8308 41.1909 51.246L41.1411 51.2128C39.676 50.3098 38.1324 49.5408 36.5291 48.9151C35.1 48.3504 33.6396 47.8679 32.1553 47.4701C30.7822 47.0881 29.5033 46.8223 28.3683 46.5953C27.7537 46.4791 27.189 46.3794 26.663 46.2964C26.663 46.2964 24.7751 45.0285 24.6477 44.9676C23.1473 44.2201 19.8032 43.661 18.4966 45.0063C18.2789 45.2354 18.1127 45.5085 18.0093 45.8071C17.9059 46.1057 17.8675 46.4231 17.8969 46.7377C17.9263 47.0524 18.0227 47.3572 18.1796 47.6315C18.3365 47.9058 18.5503 48.1434 18.8067 48.3283C19.842 49.1532 21.4753 49.0923 22.6822 48.7767C23.8892 48.4611 26.0042 46.8279 26.5578 46.4182C27.1115 46.5178 27.6651 46.6285 28.3295 46.7614C29.4368 47.0161 30.7268 47.3151 32.0833 47.7192C32.4487 47.8244 32.8307 47.9573 33.1906 48.0791C32.5151 48.0071 31.585 47.9241 31.4964 47.9241C29.8355 47.9518 26.5966 48.9982 26.054 50.792C25.9724 51.0924 25.9551 51.4066 26.0031 51.7141C26.0511 52.0216 26.1634 52.3156 26.3327 52.5768C26.5019 52.838 26.7243 53.0606 26.9854 53.23C27.2465 53.3995 27.5404 53.512 27.8478 53.5603C29.1489 53.815 30.5663 53.0066 31.502 52.1762C32.4376 51.3457 33.6058 48.821 33.8439 48.3006C34.6744 48.5829 35.5049 48.8875 36.3796 49.2584C37.9497 49.9121 39.458 50.7051 40.8864 51.628C40.9639 51.6779 41.0469 51.7443 41.1245 51.7997C40.7978 51.7056 38.9652 51.3235 38.8323 51.3125C37.1714 51.1574 33.8494 51.8661 33.1076 53.5658C32.9912 53.8561 32.9376 54.1678 32.9504 54.4802C32.9632 54.7927 33.042 55.0989 33.1816 55.3788C33.3213 55.6586 33.5186 55.9057 33.7606 56.1037C34.0027 56.3018 34.2839 56.4463 34.5858 56.5279C35.8537 56.921 37.3541 56.2787 38.3728 55.5479C39.5466 54.7064 41.1411 51.9436 41.1798 51.8384C42.5771 52.7976 43.9122 53.8442 45.1772 54.9721C46.1129 55.8026 47.0319 56.6884 47.9455 57.5798C47.5136 57.4691 45.8084 57.1092 45.681 57.0981C44.0201 56.9431 40.6982 57.6518 39.9563 59.3571C39.8408 59.647 39.788 59.9581 39.8012 60.27C39.8145 60.5818 39.8935 60.8873 40.033 61.1665C40.1726 61.4456 40.3696 61.6921 40.6112 61.8898C40.8527 62.0875 41.1333 62.2319 41.4345 62.3136C42.7024 62.7067 44.2028 62.0644 45.2215 61.3336C46.3676 60.5142 47.8901 57.8733 48.0175 57.6518C48.4327 58.056 48.8479 58.4601 49.2576 58.8698C50.603 60.2097 51.9429 61.5551 53.3104 62.8395C53.781 63.288 54.2627 63.7088 54.7444 64.1351C54.0966 63.9856 52.9118 63.742 52.8066 63.7309C51.1456 63.5759 47.8237 64.2846 47.0818 65.9898C46.9664 66.2798 46.9135 66.5909 46.9268 66.9028C46.94 67.2146 47.019 67.5201 47.1586 67.7993C47.2982 68.0784 47.4952 68.3249 47.7367 68.5226C47.9782 68.7203 48.2588 68.8647 48.56 68.9463C49.8224 69.345 51.3283 68.6972 52.3415 67.9719C53.3547 67.2466 54.6945 65.0431 55.0599 64.423C55.8683 65.1206 56.6821 65.8016 57.5182 66.4328C57.8836 66.693 58.2379 66.9864 58.6255 67.2189L59.7051 67.9387C60.4581 68.4093 61.1557 68.8411 61.8699 69.2564C62.2242 69.4723 62.5675 69.6661 62.9218 69.8654C62.2851 69.6163 61.2609 69.2453 61.1778 69.2176C59.5501 68.8135 56.1672 68.9851 55.1762 70.5796C55.0175 70.8489 54.9176 71.1488 54.8831 71.4594C54.8485 71.7701 54.8801 72.0846 54.9759 72.3821C55.0716 72.6797 55.2292 72.9536 55.4383 73.1859C55.6475 73.4182 55.9035 73.6036 56.1894 73.7299C57.3797 74.3112 58.9577 73.9015 60.065 73.3368C61.2996 72.7112 63.1544 70.4191 63.3869 70.1367C64.2506 70.6294 65.0921 71.0945 65.8894 71.5208C68.0154 72.6614 69.8757 73.5694 71.3152 74.2448C75.9991 78.2976 82.5876 78.7405 82.5876 78.7405C82.5876 78.7405 82.9364 70.8454 78.2913 65.6521C76.7039 63.9398 74.7691 62.5864 72.6163 61.6824ZM64.2561 69.3837C64.4001 69.0571 65.524 66.549 65.6015 65.1372L66.3766 64.9766C66.8524 67.4695 67.8424 69.8359 69.2833 71.925C68.4307 71.5227 67.5079 71.0724 66.515 70.5741C65.8008 70.2031 65.0368 69.8045 64.2561 69.3837Z" fill="white"/>
<path opacity="0.5" d="M107.153 60.1765C107.153 60.1765 99.2524 60.4146 94.419 65.4418C89.5856 70.4689 89.6465 78.364 89.6465 78.364C89.6465 78.364 97.5416 78.1204 102.381 73.0988C107.219 68.0772 107.153 60.1765 107.153 60.1765Z" fill="white"/>
</g>
<path d="M86.5239 65.2645L94.2805 58.2885L93.9483 57.9175L86.5183 64.5946L86.4796 55.4593L86.5183 55.487L93.0847 45.8922L92.6694 45.6098L86.4796 54.6676L86.3799 32.6765H85.8872L85.9481 47.603L81.0095 43.3288L80.6828 43.7052L85.9536 48.2674L85.9979 58.9363L78.5125 52.3146L78.1803 52.6855L85.9979 59.6062L86.0422 69.3228L80.4171 64.9102L80.1126 65.2977L86.0477 69.9595L86.0699 76.2103H86.5682L86.5239 65.259V65.2645Z" fill="white"/>
<path d="M79.3763 67.9554L78.8835 67.9L78.2579 73.4199L74.9249 69.6994H74.936L74.0889 63.0112L73.5961 63.0777L74.3491 69.0571L66.072 59.8L65.701 60.1322L71.3206 66.4107L67.7606 66.455L67.7717 66.9533L71.758 66.9034L75.7 71.305L70.1358 71.3105V71.8088L76.143 71.8033L79.7251 75.8062L75.7997 76.0443L75.8329 76.537L80.1459 76.2768L82.5321 78.9454L82.9031 78.6132L78.7008 73.9182L79.3763 67.9554Z" fill="white"/>
<path d="M98.1229 69.9263L104.722 68.5809L104.623 68.0937L98.7208 69.2951L107.33 60.3481L106.97 60.0048L101.129 66.0729L100.819 62.5295L100.326 62.5738L100.67 66.549L96.5727 70.8066L96.1519 65.259L95.6536 65.2978L96.1131 71.2883L92.387 75.1528L91.8611 71.2606L91.3628 71.327L91.9441 75.6123L89.4637 78.1924L89.8236 78.5356L94.1919 73.9957L100.194 74.2226L100.21 73.7299L94.657 73.514L98.1174 69.9152L98.1229 69.9263Z" fill="white"/>
<path d="M101.495 50.6703C104.085 50.6703 106.185 48.5485 106.185 45.9311C106.185 43.3136 104.085 41.1918 101.495 41.1918C98.9054 41.1918 96.8059 43.3136 96.8059 45.9311C96.8059 48.5485 98.9054 50.6703 101.495 50.6703Z" fill="#263238" stroke="#263238" stroke-width="0.5" stroke-linecap="round" stroke-linejoin="round"/>
<path d="M114.512 58.8975C114.512 58.8975 116.727 58.8034 117.28 62.7288C117.834 66.6542 120.148 76.8913 120.342 78.3253C120.536 79.7592 119.672 81.4866 117.574 82.1565C115.475 82.8265 114.318 80.8167 114.124 79.8589C113.931 78.9011 112.081 67.2411 112.081 67.2411L114.512 58.8975Z" fill="#263238" stroke="#263238" stroke-width="0.5" stroke-linecap="round" stroke-linejoin="round"/>
<path d="M92.9581 68.4425C92.9581 68.4425 83.2581 72.5451 83.2581 74.0344C83.2581 75.5238 89.232 90.0904 89.232 90.0904L114.971 83.3746L112.087 67.2522C112.087 67.2522 108.256 62.4741 92.9581 68.4425Z" fill="#5CB0FF" stroke="#263238" stroke-width="0.5" stroke-linecap="round" stroke-linejoin="round"/>
<path d="M101.805 59.6394C101.805 59.6394 99.037 61.3613 96.8224 62.6015C94.6078 63.8417 91.2859 65.5691 91.2859 69.0183C91.2859 72.4676 93.7773 86.1484 93.7773 87.5823C93.7317 88.2223 93.7633 88.8655 93.8715 89.498C93.8715 89.2101 110.714 83.6569 110.714 83.6569C111.232 81.4548 111.871 79.283 112.629 77.1515C113.493 75.0476 112.629 73.2261 113.587 69.7824C114.545 66.3386 116.355 64.041 115.597 61.4776C114.838 58.9141 114.639 58.9916 111.865 58.892C109.091 58.7923 104.485 58.7757 101.805 59.6394Z" fill="#263238" stroke="#263238" stroke-width="0.5" stroke-linecap="round" stroke-linejoin="round"/>
<path d="M100.543 58.1335C100.543 58.1335 99.2973 58.8034 98.8156 61.8652C98.5034 64.3092 98.3444 66.7704 98.3395 69.2343C98.3395 69.2343 103.505 66.3664 104.275 66.2667C105.044 66.167 110.592 68.4813 110.592 68.4813C110.142 65.9472 109.501 63.4505 108.676 61.0125C107.53 57.9397 101.689 56.7937 100.543 58.1335Z" fill="white" stroke="#263238" stroke-width="0.5" stroke-linecap="round" stroke-linejoin="round"/>
<path d="M99.5852 57.3694L99.6793 57.6961C100.05 58.9916 101.44 63.7863 102.265 66.1725C103.223 68.9408 104.657 70.0979 104.657 70.0979L106.091 64.3732C106.091 64.3732 100.443 58.8975 99.5852 57.3694Z" fill="white" stroke="#263238" stroke-width="0.5" stroke-linecap="round" stroke-linejoin="round"/>
<path d="M104.646 45.1171C104.646 45.1171 99.9563 44.3531 98.3285 50.4765C96.7008 56.5999 101.966 61.8652 103.494 63.8749C105.022 65.8847 107.237 66.5269 108.477 64.5449C110.393 61.4832 110.968 59.9495 111.245 55.93C111.522 51.9105 111.051 49.2308 109.236 47.1269C108.648 46.4961 107.938 45.9923 107.149 45.6466C106.359 45.3009 105.507 45.1207 104.646 45.1171Z" fill="white" stroke="#263238" stroke-width="0.5" stroke-linecap="round" stroke-linejoin="round"/>
<path d="M109.252 47.1269C108.664 46.4954 107.953 45.9912 107.163 45.6455C106.372 45.2998 105.519 45.12 104.657 45.1171C104.657 45.1171 99.9672 44.3531 98.3395 50.4765C97.8937 52.2133 97.9378 54.0396 98.4668 55.7528C98.6385 55.3154 98.8987 54.9722 99.2973 54.9722C100.443 54.9722 100.543 56.5999 100.925 56.5058C101.307 56.4117 102.835 55.0718 102.553 53.8261C102.27 52.5804 102.647 52.0101 104.657 52.0101C106.666 52.0101 107.143 52.8683 107.813 52.6801C108.482 52.4918 108.964 51.1464 109.634 51.1464C109.933 51.1569 110.227 51.227 110.499 51.3524C110.771 51.4779 111.015 51.6563 111.217 51.8773C111.07 50.1285 110.383 48.4687 109.252 47.1269Z" fill="#263238" stroke="#263238" stroke-width="0.5" stroke-linecap="round" stroke-linejoin="round"/>
<path d="M100.925 57.0816C100.925 57.0816 100.156 55.1659 99.2976 54.9722C98.4394 54.7784 97.9577 55.3597 98.4339 56.9819C98.91 58.6041 99.5855 59.2796 99.9675 59.2796C100.35 59.2796 100.521 58.7259 100.521 58.7259" fill="white"/>
<path d="M100.925 57.0816C100.925 57.0816 100.156 55.1659 99.2976 54.9722C98.4394 54.7784 97.9577 55.3597 98.4339 56.9819C98.91 58.6041 99.5855 59.2796 99.9675 59.2796C100.35 59.2796 100.521 58.7259 100.521 58.7259" stroke="#263238" stroke-width="0.5" stroke-linecap="round" stroke-linejoin="round"/>
<path d="M93.938 76.6975C93.938 76.6975 94.4141 79.7648 96.5236 81.1268C98.633 82.4887 101.506 81.7967 101.506 81.7967" stroke="#263238" stroke-width="0.5" stroke-linecap="round" stroke-linejoin="round"/>
<path d="M104.646 70.098C104.646 70.098 105.985 75.1694 105.697 77.3675" stroke="#263238" stroke-width="0.5" stroke-linecap="round" stroke-linejoin="round"/>
<path d="M76.055 68.8024C76.055 68.8024 77.2176 69.2841 78.0924 72.2905C78.9672 75.2968 81.287 80.8167 81.8683 82.9483C82.4497 85.0798 82.2559 87.7928 79.7367 88.4848C77.2176 89.1769 74.5047 82.2839 74.1172 81.7026C73.7296 81.1212 72.7607 75.6954 73.2479 72.7887C73.7351 69.8821 74.9919 68.4204 76.055 68.8024Z" fill="white" stroke="#263238" stroke-width="0.5" stroke-linecap="round" stroke-linejoin="round"/>
<path d="M62.2576 78.8678C62.2576 78.8678 47.1207 93.6338 47.1207 95.8484C47.1207 98.063 56.029 116.378 58.5205 115.963C61.0119 115.547 72.2234 103.6 72.2234 103.6L62.2576 78.8678Z" fill="#5CB0FF" stroke="#263238" stroke-width="0.5" stroke-linecap="round" stroke-linejoin="round"/>
<path d="M62.684 71.1332C59.8078 73.6778 57.0899 76.3958 54.5453 79.2719C51.1514 83.2416 51.4448 89.9298 52.5078 94.4808C53.5709 99.0319 55.5142 111.921 57.9337 112.408C60.3531 112.895 62.2964 107.757 66.5596 104.103C70.8227 100.449 74.2166 97.3211 74.5045 94.8961C74.7924 92.4711 74.4104 84.7254 74.6042 84.1441C75.0651 81.2906 75.3241 78.4081 75.3793 75.5182C75.3793 72.7111 73.2477 69.6107 71.1161 68.9297C68.9846 68.2487 63.5532 70.4633 62.684 71.1332Z" fill="white" stroke="#263238" stroke-width="0.5" stroke-linecap="round" stroke-linejoin="round"/>
<path d="M82.3111 162.276C82.3111 162.276 79.1774 168.72 74.6928 172.823C70.2082 176.925 63.1713 182.002 63.1713 182.002C63.1713 182.002 70.5902 184.35 72.1571 184.544C73.7239 184.737 73.3253 185.518 71.5702 186.304C69.8151 187.091 67.6614 187.672 62.7782 187.672C57.8949 187.672 54.7723 187.672 54.573 186.498C54.3737 185.324 57.5074 182.396 59.8493 180.054C62.1913 177.712 71.1771 163.056 71.9578 162.276C72.7384 161.495 78.2085 158.954 82.3111 162.276Z" fill="white" stroke="#263238" stroke-width="0.5" stroke-linecap="round" stroke-linejoin="round"/>
<path d="M72.157 184.544C70.867 184.383 65.6128 182.767 63.7969 182.202L62.3906 185.324C61.3291 185.496 60.2422 185.418 59.216 185.097C58.1897 184.776 57.2522 184.221 56.4776 183.475C55.3094 184.743 54.4678 185.872 54.5675 186.498C54.7668 187.672 57.8894 187.672 62.7726 187.672C67.6558 187.672 69.804 187.085 71.5646 186.304C73.3252 185.524 73.7183 184.738 72.157 184.544Z" fill="#263238" stroke="#263238" stroke-width="0.5" stroke-linecap="round" stroke-linejoin="round"/>
<path d="M138.352 162.276C138.352 162.276 141.48 168.72 145.97 172.823C150.46 176.925 157.497 182.002 157.497 182.002C157.497 182.002 150.073 184.35 148.512 184.544C146.95 184.738 147.338 185.518 149.098 186.304C150.859 187.091 152.974 187.672 157.885 187.672C162.796 187.672 165.896 187.672 166.09 186.498C166.284 185.324 163.161 182.396 160.814 180.054C158.466 177.712 149.486 163.056 148.705 162.276C147.925 161.495 142.455 158.954 138.352 162.276Z" fill="white" stroke="#263238" stroke-width="0.5" stroke-linecap="round" stroke-linejoin="round"/>
<path d="M148.512 184.544C149.796 184.383 155.056 182.767 156.872 182.202L158.278 185.324C159.339 185.495 160.424 185.416 161.449 185.095C162.475 184.774 163.411 184.22 164.186 183.475C165.348 184.743 166.195 185.872 166.09 186.498C165.896 187.672 162.768 187.672 157.885 187.672C153.002 187.672 150.854 187.085 149.098 186.304C147.343 185.524 146.95 184.738 148.512 184.544Z" fill="#263238" stroke="#263238" stroke-width="0.5" stroke-linecap="round" stroke-linejoin="round"/>
<path d="M37.1882 165.011C37.1882 165.011 39.9232 170.088 39.7295 171.848C39.5689 173.282 36.1529 184.234 34.9071 188.198C34.8582 188.354 34.8486 188.52 34.8792 188.681C34.9099 188.843 34.9797 188.994 35.0827 189.121C35.1856 189.249 35.3185 189.349 35.4694 189.413C35.6203 189.477 35.7847 189.503 35.948 189.488C36.1426 189.47 36.3277 189.396 36.4803 189.274C36.6328 189.151 36.7462 188.987 36.8062 188.801L42.2707 172.042C42.2707 172.042 43.2452 170.868 46.3733 170.287C48.7651 169.833 60.6797 169.274 66.1166 169.036C67.1198 168.979 68.1061 169.313 68.8674 169.969C69.6286 170.625 70.1054 171.551 70.197 172.552C70.197 172.579 70.197 172.601 70.197 172.629C70.3687 174.882 74.0726 186.537 74.9142 189.117C74.9599 189.258 75.055 189.379 75.182 189.456C75.3091 189.533 75.4596 189.562 75.6062 189.538C75.6889 189.524 75.7679 189.493 75.8385 189.448C75.9091 189.403 75.9697 189.344 76.0168 189.274C76.0639 189.205 76.0964 189.127 76.1125 189.045C76.1285 188.962 76.1277 188.878 76.1101 188.796C75.4457 185.773 72.5944 172.74 71.5646 166.185C71.5646 166.185 50.8579 167.159 46.1685 165.985C43.3499 165.281 40.6517 164.162 38.1626 162.663C38.1626 162.663 36.9944 162.669 37.1882 165.011Z" fill="#263238" stroke="#263238" stroke-width="0.5" stroke-linecap="round" stroke-linejoin="round"/>
<path d="M35.4388 130.635C35.4388 130.635 28.4019 152.703 29.5701 156.612C30.7383 160.521 36.4077 165.985 38.5559 165.985C40.7041 165.985 42.4647 144.504 42.4647 142.549C42.4647 140.595 38.7607 133.58 37.5815 130.635C36.4022 127.689 35.4388 130.635 35.4388 130.635Z" fill="#5CB0FF" stroke="#263238" stroke-width="0.5" stroke-linecap="round" stroke-linejoin="round"/>
<path d="M73.8846 163.643C73.8126 165.858 73.4694 167.552 72.5448 167.552C70.7897 167.552 51.6444 169.501 47.1542 169.307C42.6641 169.113 39.3422 166.799 39.3422 163.477C39.3422 160.155 39.5359 145.506 42.8579 143.546C46.1798 141.586 63.7583 141.398 67.8609 141.398C72.9102 141.398 73.1261 151.153 73.342 154.458C73.403 155.41 73.9954 160.155 73.8846 163.643Z" fill="#5CB0FF" stroke="#263238" stroke-width="0.5" stroke-linecap="round" stroke-linejoin="round"/>
<path d="M68.8353 163.837C68.8353 163.837 81.3368 164.23 82.3112 162.276C83.2857 160.321 82.3112 156.219 79.7755 155.438C77.2398 154.658 66.6871 155.244 66.6871 155.244L68.8353 163.837Z" fill="white" stroke="#263238" stroke-width="0.5" stroke-linecap="round" stroke-linejoin="round"/>
<path d="M38.5559 145.478C37.8124 148.088 37.4836 150.799 37.5814 153.511C37.7752 157.813 38.9489 162.11 44.7789 165.625C50.6089 169.141 69.7819 165.039 69.7819 165.039L68.4144 139.449C68.4144 139.449 55.7191 137.887 48.6877 139.255C41.6563 140.622 38.7607 144.697 38.5559 145.478Z" fill="#263238" stroke="#263238" stroke-width="0.5" stroke-linecap="round" stroke-linejoin="round"/>
<path d="M130.113 55.4428C128.707 56.9234 127.605 58.6652 126.869 60.5696C125.823 63.504 122.368 72.296 122.473 73.968C122.578 75.6401 124.04 77.7384 125.507 76.5868C126.974 75.4352 130.529 69.262 130.739 68.9464C130.949 68.6308 131.16 64.2348 131.16 61.5108C131.16 58.7869 131.343 55.3376 130.113 55.4428Z" fill="white" stroke="#263238" stroke-width="0.5" stroke-linecap="round" stroke-linejoin="round"/>
<path d="M133.491 64.8437C134.637 64.6223 160.808 70.3803 160.808 73.3312C160.808 76.2822 154.901 92.5264 154.901 92.5264L129.804 85.8826C129.804 85.8826 130.308 65.4804 133.491 64.8437Z" fill="#5CB0FF" stroke="#263238" stroke-width="0.5" stroke-linecap="round" stroke-linejoin="round"/>
<path d="M142.333 52.0932C142.333 52.0932 136.68 51.462 132.699 53.4551C128.719 55.4483 128.724 58.7924 128.934 62.0368C129.145 65.2812 130.224 82.7822 130.54 84.039C130.856 85.2958 138.042 84.9636 142.228 85.7996C146.413 86.6356 149.348 83.1808 149.979 81.8188C150.61 80.4568 157.935 67.1636 157.935 64.34C157.935 61.5163 154.901 56.1736 150.604 53.66C148.122 52.168 145.189 51.6123 142.333 52.0932Z" fill="white" stroke="#263238" stroke-width="0.5" stroke-linecap="round" stroke-linejoin="round"/>
<path d="M138.352 62.8728L139.504 65.3864L135.002 81.088L136.049 84.122L139.088 81.8188L140.76 65.702L143.064 63.1884L141.912 60.3592L138.352 62.8728Z" fill="#263238" stroke="#263238" stroke-width="0.5" stroke-linecap="round" stroke-linejoin="round"/>
<path d="M138.668 56.384C138.048 57.5627 137.523 58.7882 137.095 60.0492C136.813 61.4264 136.674 62.829 136.68 64.2348C136.68 64.2348 140.029 62.6624 140.971 62.6624C141.912 62.6624 143.794 66.9588 143.794 66.9588C143.794 66.9588 146.624 62.7676 147.044 59.7612C147.465 56.7549 144.215 54.5292 141.912 54.5292C141.255 54.523 140.609 54.6915 140.039 55.0174C139.469 55.3433 138.995 55.815 138.668 56.384Z" fill="white" stroke="#263238" stroke-width="0.5" stroke-linecap="round" stroke-linejoin="round"/>
<path d="M150.599 53.35C150.599 53.35 151.651 51.7776 151.856 53.2448C152.06 54.712 150.809 55.858 150.078 56.2788C149.894 56.4062 149.674 56.4744 149.45 56.4744C149.225 56.4744 149.006 56.4062 148.822 56.2788" fill="white"/>
<path d="M150.599 53.35C150.599 53.35 151.651 51.7776 151.856 53.2448C152.06 54.712 150.809 55.858 150.078 56.2788C149.894 56.4062 149.674 56.4744 149.45 56.4744C149.225 56.4744 149.006 56.4062 148.822 56.2788" stroke="#263238" stroke-width="0.5" stroke-linecap="round" stroke-linejoin="round"/>
<path d="M139.925 47.2764C139.925 47.2764 138.878 46.4404 138.264 48.1124C137.649 49.7844 138.684 51.8828 138.684 51.8828L139.731 49.6682" fill="white"/>
<path d="M139.925 47.2764C139.925 47.2764 138.878 46.4404 138.264 48.1124C137.649 49.7844 138.684 51.8828 138.684 51.8828L139.731 49.6682" stroke="#263238" stroke-width="0.5" stroke-linecap="round" stroke-linejoin="round"/>
<path d="M139.925 61.306C139.877 61.4663 139.869 61.6356 139.899 61.8C139.93 61.9643 139.999 62.119 140.101 62.2514C140.204 62.3837 140.336 62.49 140.487 62.5615C140.638 62.6329 140.804 62.6675 140.971 62.6624C142.333 62.7676 145.157 59.8388 145.367 59.2076C145.577 58.5765 139.925 61.306 139.925 61.306Z" fill="white" stroke="#263238" stroke-width="0.5" stroke-linecap="round" stroke-linejoin="round"/>
<path d="M144.846 40.8928C144.846 40.8928 141.181 42.5537 140.345 45.1836C139.509 47.8135 138.131 53.1396 138.131 55.1494C138.131 57.1591 138.756 61.2396 140.118 61.8486C141.48 62.4576 145.981 59.5454 147.233 58.7094C148.484 57.8734 149.957 54.6289 151.529 52.741C153.101 50.853 154.353 47.4038 153.744 44.5801C153.135 41.7565 148.506 38.3792 144.846 40.8928Z" fill="white" stroke="#263238" stroke-width="0.5" stroke-linecap="round" stroke-linejoin="round"/>
<path d="M153.743 44.5579C153.112 41.7287 148.506 38.3791 144.846 40.8927C144.846 40.8927 141.181 42.5537 140.345 45.1835C139.946 46.4293 139.431 48.284 139 50.1055C139.714 48.9982 140.899 47.0881 140.971 46.6507C141.076 46.0196 141.076 45.9144 141.807 45.9144C142.537 45.9144 143.899 48.0072 145.787 48.428C147.675 48.8487 150.183 48.5332 150.183 49.5796C150.183 50.626 148.716 52.3035 149.657 52.824C150.394 53.2337 149.735 54.6455 149.801 55.26C150.323 54.3735 150.906 53.5243 151.545 52.7188C153.112 50.8364 154.369 47.3816 153.743 44.5579Z" fill="#263238" stroke="#263238" stroke-width="0.5" stroke-linecap="round" stroke-linejoin="round"/>
<path d="M140.03 51.0468C140.03 51.0468 143.695 52.8241 145.472 53.4552C147.249 54.0864 149.032 54.8117 148.401 55.9633C147.77 57.1149 145.683 57.6242 144.426 57.1149C143.169 56.6055 143.485 53.9757 142.765 53.8705C142.045 53.7653 141.513 55.1273 140.151 55.1273C138.79 55.1273 137.322 53.0344 137.533 51.5673C137.743 50.1001 140.03 51.0468 140.03 51.0468Z" fill="white" stroke="#263238" stroke-width="0.5" stroke-linecap="round" stroke-linejoin="round"/>
<path d="M148.717 54.9168L151.125 52.5084" stroke="#263238" stroke-width="0.5" stroke-linecap="round" stroke-linejoin="round"/>
<path d="M138.147 50.9416L139.398 48.1124" stroke="#263238" stroke-width="0.5" stroke-linecap="round" stroke-linejoin="round"/>
<path d="M167.38 73.143C167.38 73.143 160.437 79.3218 158.638 81.1101C156.838 82.8984 156.755 86.3366 158.466 87.1061C160.177 87.8757 165.581 84.7088 166.433 84.0223C167.286 83.3358 169.606 73.5693 167.38 73.143Z" fill="#263238" stroke="#263238" stroke-width="0.5" stroke-linecap="round" stroke-linejoin="round"/>
<path d="M184.737 88.59C184.737 88.59 194.066 97.9136 192.2 100.898C190.334 103.882 172.429 113.211 172.429 113.211L169.069 98.661L184.737 88.59Z" fill="#5CB0FF" stroke="#263238" stroke-width="0.5" stroke-linecap="round" stroke-linejoin="round"/>
<path d="M172.773 72.5451C172.773 72.5451 168.836 72.2018 167.38 73.143C165.924 74.0843 164.894 82.8265 164.612 88.0529C164.329 93.2794 163.671 97.4651 164.014 98.5004C164.357 99.5357 173.265 110.753 174.533 112.297C175.801 113.842 186.188 98.0741 187.644 94.9016C189.1 91.7292 188.159 88.8115 186.271 84.4542C184.383 80.0969 180.363 76.0553 177.966 73.8296C177.279 73.1942 176.443 72.7431 175.535 72.5185C174.627 72.2938 173.676 72.303 172.773 72.5451Z" fill="#263238" stroke="#263238" stroke-width="0.5" stroke-linecap="round" stroke-linejoin="round"/>
<path d="M172.69 82.9096L172.629 83.2418C172.518 83.8563 172.28 85.2626 172.075 86.8516C171.815 88.9942 171.903 91.8345 172.59 91.8345C173.276 91.8345 182.268 85.3235 182.439 79.416C182.611 73.5085 173.376 80.4292 172.69 82.9096Z" fill="white" stroke="#263238" stroke-width="0.5" stroke-linecap="round" stroke-linejoin="round"/>
<path d="M172.263 71.2606C172.263 71.2606 171.405 74.4275 171.405 74.9424C171.47 75.5506 171.585 76.1525 171.748 76.7418C171.748 76.7418 170.292 79.0561 170.464 79.3107C170.667 79.5619 170.895 79.7919 171.145 79.9973C171.145 79.9973 170.979 83.2528 171.66 83.9393C172.341 84.6258 175.176 84.194 175.176 84.194C175.176 84.194 173.803 85.9103 175.347 85.9934C176.892 86.0764 181 82.6714 182.201 80.6838C183.403 78.6962 183.309 75.114 182.201 73.3147C181.094 71.5153 174.489 69.0294 172.263 71.2606Z" fill="white" stroke="#263238" stroke-width="0.5" stroke-linecap="round" stroke-linejoin="round"/>
<path d="M179.716 65.0874C179.716 65.0874 173.116 65.9456 171.92 68.5146C170.724 71.0835 173.459 74.256 175.43 74.6878C176.497 74.9389 177.591 75.0524 178.686 75.0255C178.686 75.0255 176.632 76.8249 177.916 77.2402C179.201 77.6554 179.799 77.4118 179.799 77.8381C179.799 78.2644 178.514 79.6375 179.627 79.7261C180.74 79.8146 181.083 77.8381 181.77 78.2699C182.456 78.7018 181.515 80.4071 181.858 80.4846C182.202 80.5621 185.457 77.1626 186.841 73.5417C188.225 69.9208 186.326 67.7173 184.959 66.5214C183.591 65.3255 181.344 64.6611 179.716 65.0874Z" fill="#263238" stroke="#263238" stroke-width="0.5" stroke-linecap="round" stroke-linejoin="round"/>
<path d="M179.715 80.0804C179.715 80.0804 180.917 77.3121 181.686 77.9433C182.456 78.5744 182.201 80.5122 181.343 81.1987C180.485 81.8853 178.857 81.1102 178.857 81.1102" fill="white"/>
<path d="M179.715 80.0804C179.715 80.0804 180.917 77.3121 181.686 77.9433C182.456 78.5744 182.201 80.5122 181.343 81.1987C180.485 81.8853 178.857 81.1102 178.857 81.1102" stroke="#263238" stroke-width="0.5" stroke-linecap="round" stroke-linejoin="round"/>
<path d="M172.092 87.6211L174.832 86.2536L174.406 90.3617" fill="white"/>
<path d="M172.092 87.6211L174.832 86.2536L174.406 90.3617" stroke="#263238" stroke-width="0.5" stroke-linecap="round" stroke-linejoin="round"/>
<path d="M193.895 160.388C193.895 160.388 188.967 170.088 189.161 171.849C189.321 173.282 192.738 184.234 193.989 188.198C194.037 188.355 194.045 188.521 194.014 188.682C193.982 188.843 193.912 188.994 193.808 189.121C193.705 189.248 193.572 189.348 193.421 189.412C193.27 189.476 193.106 189.502 192.942 189.488C192.748 189.47 192.563 189.396 192.41 189.274C192.258 189.152 192.144 188.987 192.084 188.801L186.625 172.042C186.625 172.042 185.645 170.869 182.523 170.287C180.125 169.833 168.216 169.274 162.774 169.036C161.771 168.98 160.787 169.315 160.027 169.971C159.267 170.627 158.791 171.552 158.699 172.552C158.696 172.577 158.696 172.603 158.699 172.629C158.522 174.883 154.823 186.537 153.976 189.117C153.93 189.258 153.835 189.379 153.708 189.456C153.581 189.533 153.431 189.562 153.284 189.538C153.201 189.524 153.122 189.493 153.052 189.448C152.981 189.403 152.921 189.344 152.874 189.275C152.826 189.205 152.794 189.127 152.778 189.045C152.762 188.962 152.763 188.878 152.78 188.796C153.445 185.773 156.296 172.74 157.331 166.185C157.331 166.185 178.032 167.159 182.722 165.985C187.411 164.812 192.926 158.04 192.926 158.04C192.926 158.04 194.088 158.04 193.895 160.388Z" fill="#263238" stroke="#263238" stroke-width="0.5" stroke-linecap="round" stroke-linejoin="round"/>
<path d="M197.2 128.226C197.2 128.226 202.592 150.754 201.136 154.563C199.68 158.373 193.634 163.422 191.492 163.256C189.349 163.09 189.166 141.541 189.31 139.593C189.454 137.644 193.673 130.906 195.057 128.043C196.441 125.181 197.2 128.226 197.2 128.226Z" fill="#5CB0FF" stroke="#263238" stroke-width="0.5" stroke-linecap="round" stroke-linejoin="round"/>
<path d="M155.028 163.643C155.095 165.858 155.444 167.552 156.363 167.552C158.123 167.552 177.263 169.501 181.759 169.307C186.254 169.113 189.554 166.799 189.554 163.477C189.554 160.155 189.355 145.478 186.033 143.546C182.711 141.613 165.132 141.398 161.03 141.398C155.981 141.398 155.759 151.153 155.549 154.458C155.488 155.41 154.901 160.155 155.028 163.643Z" fill="#5CB0FF" stroke="#263238" stroke-width="0.5" stroke-linecap="round" stroke-linejoin="round"/>
<path d="M188.159 145.472C188.159 145.472 186.542 149.42 186.542 152.554C186.542 155.687 185.025 161.855 181.892 163.671C178.758 165.487 175.248 166.506 170.06 165.797C164.872 165.088 153.583 163.267 153.583 163.267C153.583 163.267 165.21 154.962 168.139 150.832C171.068 146.702 172.081 143.252 174.406 140.927C176.732 138.602 187.954 136.276 188.159 145.472Z" fill="#263238" stroke="#263238" stroke-width="0.5" stroke-linecap="round" stroke-linejoin="round"/>
<path d="M118.592 176.865C152.915 176.865 180.74 155.361 180.74 128.835C180.74 102.309 152.915 80.8056 118.592 80.8056C84.2689 80.8056 56.4445 102.309 56.4445 128.835C56.4445 155.361 84.2689 176.865 118.592 176.865Z" fill="#263238" stroke="#263238" stroke-width="0.5" stroke-linecap="round" stroke-linejoin="round"/>
<path d="M118.592 175.425C152.915 175.425 180.74 153.922 180.74 127.396C180.74 100.87 152.915 79.3661 118.592 79.3661C84.2689 79.3661 56.4445 100.87 56.4445 127.396C56.4445 153.922 84.2689 175.425 118.592 175.425Z" fill="#85C3FF" stroke="#263238" stroke-width="0.5" stroke-linecap="round" stroke-linejoin="round"/>
<path d="M149.386 97.9025L157.271 106.556L143.302 116.577L135.252 106.811L149.386 97.9025Z" fill="white" stroke="#263238" stroke-width="0.5" stroke-linecap="round" stroke-linejoin="round"/>
<path d="M106.744 98.6499L93.8438 105.283L105.271 119.285L118.537 110.443L106.744 98.6499Z" fill="white" stroke="#263238" stroke-width="0.5" stroke-linecap="round" stroke-linejoin="round"/>
<path d="M126.304 112.674L113.41 119.307L124.832 133.309L138.097 124.467L126.304 112.674Z" fill="white" stroke="#263238" stroke-width="0.5" stroke-linecap="round" stroke-linejoin="round"/>
<path d="M124.865 113.693L110.974 117.845L119.633 133.707L134.294 127.446L124.865 113.693Z" fill="white" stroke="#263238" stroke-width="0.5" stroke-linecap="round" stroke-linejoin="round"/>
<path d="M108.289 90.7825C108.289 90.7825 110.797 89.8468 110.797 90.4725C110.797 91.0981 110.797 91.7237 109.689 92.0393C108.582 92.3549 104.834 91.5687 105.775 91.0981C106.578 90.8029 107.438 90.695 108.289 90.7825Z" fill="white" stroke="#263238" stroke-width="0.5" stroke-linecap="round" stroke-linejoin="round"/>
<path d="M94.4142 63.8749C94.4142 63.8749 91.1642 65.0209 89.5365 67.0362C87.9087 69.0515 87.1447 74.3057 86.7682 76.6034C86.3917 78.901 84.6643 87.61 85.6221 88.662C86.5799 89.7139 96.817 93.2573 98.8268 93.8331C100.837 94.4089 103.256 95.2671 104.574 95.1729C105.536 95.0348 106.454 94.6746 107.253 94.121C107.253 94.121 109.551 95.1729 110.121 95.1729C110.692 95.1729 111.461 94.121 110.791 93.0635C110.121 92.006 108.255 90.4724 107.204 90.4724C106.152 90.4724 102.276 91.0538 102.276 91.0538C102.276 91.0538 95.6709 87.7041 93.7553 86.3643C92.5546 85.5113 91.4335 84.5514 90.4057 83.4964L94.3311 71.244" fill="#263238"/>
<path d="M94.4142 63.8749C94.4142 63.8749 91.1642 65.0209 89.5365 67.0362C87.9087 69.0515 87.1447 74.3057 86.7682 76.6034C86.3917 78.901 84.6643 87.61 85.6221 88.662C86.5799 89.7139 96.817 93.2573 98.8268 93.8331C100.837 94.4089 103.256 95.2671 104.574 95.1729C105.536 95.0348 106.454 94.6746 107.253 94.121C107.253 94.121 109.551 95.1729 110.121 95.1729C110.692 95.1729 111.461 94.121 110.791 93.0635C110.121 92.006 108.255 90.4724 107.204 90.4724C106.152 90.4724 102.276 91.0538 102.276 91.0538C102.276 91.0538 95.6709 87.7041 93.7553 86.3643C92.5546 85.5113 91.4335 84.5514 90.4057 83.4964L94.3311 71.244" stroke="#263238" stroke-width="0.5" stroke-linecap="round" stroke-linejoin="round"/>
<path d="M107.192 90.4725C106.141 90.4725 102.265 91.0539 102.265 91.0539C102.265 91.0539 101.534 90.6885 100.493 90.1459C99.6849 90.6944 99.0661 91.4796 98.7216 92.3937C98.5988 92.8341 98.53 93.2877 98.5167 93.7446L98.8157 93.8332C100.825 94.3869 103.245 95.2672 104.563 95.1731C105.525 95.0349 106.443 94.6748 107.242 94.1211C107.242 94.1211 109.54 95.1731 110.11 95.1731C110.681 95.1731 111.45 94.1211 110.78 93.0636C110.11 92.0062 108.244 90.4725 107.192 90.4725Z" fill="white" stroke="#263238" stroke-width="0.5" stroke-linecap="round" stroke-linejoin="round"/>
<path d="M63.3596 73.359C63.0662 73.4476 60.8405 75.8781 60.6467 78.6907C60.4529 81.5032 62.5845 86.1484 62.972 86.9235C63.3596 87.6986 62.8779 89.0551 63.8468 89.0551C64.8157 89.0551 67.8221 84.5982 67.8221 84.5982C67.8221 84.5982 71.2104 84.7919 71.598 83.9227C71.9855 83.0535 68.8851 78.2034 68.2096 76.1715C67.5342 74.1396 65.0095 72.8773 63.3596 73.359Z" fill="white" stroke="#263238" stroke-width="0.5" stroke-linecap="round" stroke-linejoin="round"/>
<path d="M63.1657 71.9084C63.1724 73.2414 63.0426 74.5716 62.7782 75.8781C62.3906 77.2345 62.2965 77.9155 63.747 80.0471C65.2037 81.9629 66.7909 83.7759 68.4974 85.4729C68.4974 85.4729 68.6912 83.2583 68.7908 81.9849C68.8905 80.7115 70.8227 79.9474 71.2103 79.3661C71.5978 78.7848 69.0787 78.3972 68.1098 76.6532C67.1409 74.9092 67.1409 71.9084 65.7845 71.615C64.428 71.3215 63.6751 70.5519 63.1657 71.9084Z" fill="white" stroke="#263238" stroke-width="0.5" stroke-linecap="round" stroke-linejoin="round"/>
<path d="M76.1545 65.9954C76.1545 65.9954 78.8674 65.2203 78.3691 62.5074C77.8708 59.7945 72.9433 57.7626 67.6172 58.2443C62.291 58.726 59.866 62.2195 59.3788 65.7075C58.8916 69.1956 62.5734 72.5839 62.9609 73.1653C63.3485 73.7466 62.8668 74.3279 64.0295 74.7155C64.8207 74.9377 65.6578 74.9377 66.4489 74.7155C66.7355 75.1277 67.1353 75.448 67.6001 75.6376C68.0649 75.8273 68.5747 75.8781 69.0677 75.784C70.7287 75.3965 70.2304 72.1022 70.9114 71.7147C71.5924 71.3271 72.0741 70.0537 74.106 68.9021C76.1379 67.7505 76.1545 65.9954 76.1545 65.9954Z" fill="#263238" stroke="#263238" stroke-width="0.5" stroke-linecap="round" stroke-linejoin="round"/>
<path d="M67.9162 74.0399C67.9162 74.0399 68.11 72.4897 66.1722 72.2959C64.2344 72.1021 64.7216 73.9569 65.1092 74.815C65.4967 75.6732 66.8476 76.3653 66.8476 76.3653C66.8476 76.3653 67.3349 78.5799 68.0159 78.7847C68.6968 78.9896 72.7607 80.7225 73.5524 80.4457C74.3441 80.1689 75.1026 76.5701 75.1026 76.5701C75.1026 76.5701 76.4591 75.8891 76.4591 75.2137C76.4591 74.5382 75.8556 72.5838 75.8556 72.1243C75.8556 71.6647 76.9241 70.2806 77.1179 69.2176C77.3117 68.1546 76.149 66.0175 76.149 66.0175C76.149 66.0175 75.6618 67.7615 74.1116 67.7615C73.0615 67.7373 72.0191 67.5754 71.0111 67.2798C71.0111 67.2798 71.7862 69.3117 71.2049 70.1865C70.6236 71.0612 69.6547 70.8619 69.4609 71.2495C69.2671 71.637 69.3668 73.3811 69.2671 73.7686C69.1675 74.1562 68.4975 75.4905 67.9162 74.0399Z" fill="white" stroke="#263238" stroke-width="0.5" stroke-linecap="round" stroke-linejoin="round"/>
<path d="M77.3169 84.5981C77.3169 84.5981 77.7986 88.4737 78.7675 90.0239C79.7364 91.5742 83.8057 97.5813 83.8057 97.5813C83.8057 97.5813 83.5178 99.6188 83.8057 100.2C84.3859 101.42 84.8726 102.682 85.2618 103.976C85.2618 104.364 86.0369 104.657 86.1311 104.076C86.1959 103.626 86.2292 103.173 86.2307 102.719L87.8917 105.238C87.8917 105.238 88.7664 105.914 89.0543 105.332C89.3422 104.751 89.154 101.651 89.3478 100.394C89.5416 99.1371 88.5727 97.3875 87.7976 96.6124C87.0224 95.8373 86.0535 94.4809 85.7601 94.193C85.4667 93.9051 84.2099 89.3485 83.6285 86.248C83.0472 83.1476 81.497 81.2098 80.3343 81.016" fill="white"/>
<path d="M77.3169 84.5981C77.3169 84.5981 77.7986 88.4737 78.7675 90.0239C79.7364 91.5742 83.8057 97.5813 83.8057 97.5813C83.8057 97.5813 83.5178 99.6188 83.8057 100.2C84.3859 101.42 84.8726 102.682 85.2618 103.976C85.2618 104.364 86.0369 104.657 86.1311 104.076C86.1959 103.626 86.2292 103.173 86.2307 102.719L87.8917 105.238C87.8917 105.238 88.7664 105.914 89.0543 105.332C89.3422 104.751 89.154 101.651 89.3478 100.394C89.5416 99.1371 88.5727 97.3875 87.7976 96.6124C87.0224 95.8373 86.0535 94.4809 85.7601 94.193C85.4667 93.9051 84.2099 89.3485 83.6285 86.248C83.0472 83.1476 81.497 81.2098 80.3343 81.016" stroke="#263238" stroke-width="0.5" stroke-linecap="round" stroke-linejoin="round"/>
<path d="M89.0381 105.344C89.3315 104.79 89.1378 101.662 89.3315 100.405C89.5253 99.1482 88.5564 97.3987 87.7813 96.6236C87.2226 96.0301 86.6959 95.4073 86.2034 94.7578C85.0317 95.0881 83.9802 95.7494 83.1749 96.6623L83.8061 97.5925C83.8061 97.5925 83.5182 99.6299 83.8061 100.211C84.3862 101.431 84.873 102.694 85.2622 103.987C85.2622 104.375 86.0373 104.668 86.1314 104.087C86.1962 103.638 86.2295 103.184 86.2311 102.73L87.8921 105.249C87.8921 105.249 88.7502 105.897 89.0381 105.344Z" fill="white" stroke="#263238" stroke-width="0.5" stroke-linecap="round" stroke-linejoin="round"/>
<path d="M54.0583 80.7227C52.7936 81.7251 51.9057 83.1263 51.5392 84.6979C50.8637 87.4108 53.0894 98.4562 53.6707 101.651C54.2521 104.845 57.1588 115.492 58.0335 116.184C58.9083 116.876 69.0789 115.603 72.7607 114.927C76.4425 114.252 84.3875 111.439 86.0484 110.952C87.7094 110.465 88.5675 107.951 89.0492 107.464C89.5309 106.977 90.5995 105.333 90.0181 104.751C89.4368 104.17 87.8035 104.751 87.1114 104.751C86.4194 104.751 85.1736 104.657 83.8172 104.657C83.1455 104.675 82.4981 104.912 81.9734 105.332C81.4488 105.752 81.0755 106.331 80.9105 106.982C80.7249 107.717 80.3956 108.408 79.9416 109.014C79.9416 109.014 69.9758 110.371 67.8332 110.371C66.4389 110.361 65.0466 110.265 63.6642 110.083C63.6642 110.083 62.5015 103.395 61.6267 99.2313C60.752 95.0678 59.9658 91.8677 59.3014 90.7992" fill="white"/>
<path d="M54.0583 80.7227C52.7936 81.7251 51.9057 83.1263 51.5392 84.6979C50.8637 87.4108 53.0894 98.4562 53.6707 101.651C54.2521 104.845 57.1588 115.492 58.0335 116.184C58.9083 116.876 69.0789 115.603 72.7607 114.927C76.4425 114.252 84.3875 111.439 86.0484 110.952C87.7094 110.465 88.5675 107.951 89.0492 107.464C89.5309 106.977 90.5995 105.333 90.0181 104.751C89.4368 104.17 87.8035 104.751 87.1114 104.751C86.4194 104.751 85.1736 104.657 83.8172 104.657C83.1455 104.675 82.4981 104.912 81.9734 105.332C81.4488 105.752 81.0755 106.331 80.9105 106.982C80.7249 107.717 80.3956 108.408 79.9416 109.014C79.9416 109.014 69.9758 110.371 67.8332 110.371C66.4389 110.361 65.0466 110.265 63.6642 110.083C63.6642 110.083 62.5015 103.395 61.6267 99.2313C60.752 95.0678 59.9658 91.8677 59.3014 90.7992" stroke="#263238" stroke-width="0.5" stroke-linecap="round" stroke-linejoin="round"/>
<path d="M87.1003 104.751C86.4248 104.751 85.1625 104.657 83.806 104.657C83.1343 104.675 82.4869 104.912 81.9623 105.332C81.4376 105.751 81.0644 106.331 80.8993 106.982C80.7138 107.717 80.3844 108.408 79.9304 109.014L79.2273 109.108C79.5068 109.687 79.6794 110.312 79.7367 110.952C79.7657 111.652 79.723 112.353 79.6093 113.045C82.4772 112.137 85.1459 111.212 86.0372 110.952C87.6982 110.47 88.5564 107.951 89.038 107.464C89.5197 106.977 90.5883 105.333 90.0069 104.751C89.4256 104.17 87.7813 104.751 87.1003 104.751Z" fill="white" stroke="#263238" stroke-width="0.5" stroke-linecap="round" stroke-linejoin="round"/>
<path d="M80.5449 123.011C80.5449 123.011 83.0419 123.216 83.8668 123.216C84.6918 123.216 90.4221 122.595 89.5916 121.66C88.7611 120.724 82.5049 119.888 82.5049 119.888L80.5449 123.011Z" fill="white" stroke="#263238" stroke-width="0.5" stroke-linecap="round" stroke-linejoin="round"/>
<path d="M93.0244 117.391L74.8258 125.818L81.896 140.168L99.7845 131.122L93.0244 117.391Z" fill="white" stroke="#263238" stroke-width="0.5" stroke-linecap="round" stroke-linejoin="round"/>
<path d="M80.8381 122.175C80.8381 122.175 83.0195 122.175 83.54 122.49C84.0604 122.806 86.2418 124.777 86.5574 124.256C86.873 123.736 85.6217 122.49 85.1013 121.97C84.5808 121.449 84.0604 121.034 84.0604 121.034" fill="white"/>
<path d="M80.8381 122.175C80.8381 122.175 83.0195 122.175 83.54 122.49C84.0604 122.806 86.2418 124.777 86.5574 124.256C86.873 123.736 85.6217 122.49 85.1013 121.97C84.5808 121.449 84.0604 121.034 84.0604 121.034" stroke="#263238" stroke-width="0.5" stroke-linecap="round" stroke-linejoin="round"/>
<path d="M63.7582 115.005L82.4994 119.888L79.5651 124.184L59.8384 121.842C59.8384 121.842 55.16 115.398 63.7582 115.005Z" fill="white" stroke="#263238" stroke-width="0.5" stroke-linecap="round" stroke-linejoin="round"/>
<path d="M50.4925 115.824C50.4925 115.824 45.9249 119.7 44.4023 124.406C42.8798 129.112 41.9109 138.524 41.9109 138.524C41.9109 138.524 37.0664 145.445 37.0664 146.137C37.0664 146.829 41.0804 146.137 41.0804 146.137L37.2048 152.781C37.2048 152.781 37.2048 158.317 40.2499 161.224C41.6557 162.559 43.3425 163.563 45.1867 164.162C47.0309 164.761 48.9857 164.939 50.9078 164.684C54.2297 164.131 60.3199 156.656 61.012 156.241C61.704 155.826 59.351 149.459 58.7973 147.106C58.2437 144.753 59.351 143.092 60.0431 142.676C60.7351 142.261 64.7491 139.77 65.5796 137.97C66.4101 136.171 66.2717 133.126 65.9948 130.773C65.718 128.42 62.2577 120.253 59.2126 117.762C56.1675 115.271 53.3992 113.61 50.4925 115.824Z" fill="white" stroke="#263238" stroke-width="0.5" stroke-linecap="round" stroke-linejoin="round"/>
<path d="M53.261 115.132C53.261 115.132 51.1848 118.177 51.1848 120.392C51.1848 122.607 52.9842 126.205 54.3683 127.866C55.1819 128.847 56.0605 129.772 56.9982 130.635L60.0433 129.942L60.1817 132.295C60.1817 132.295 60.8738 131.05 62.8116 131.88C64.7493 132.711 65.9951 132.157 65.9951 131.742C66.6569 129.06 66.6569 126.257 65.9951 123.575C64.8878 118.731 63.642 117.9 61.8427 116.101C60.0433 114.302 55.8909 113.61 53.261 115.132Z" fill="white" stroke="#263238" stroke-width="0.5" stroke-linecap="round" stroke-linejoin="round"/>
<path d="M54.645 115.824C54.645 115.824 53.1225 118.454 53.953 120.53C54.7834 122.607 57.4133 125.098 59.4895 126.897C61.5657 128.697 64.1955 130.635 64.1955 130.635C64.6652 129.103 64.8215 127.492 64.655 125.899C64.4885 124.306 64.0028 122.762 63.2267 121.361C60.5968 116.378 55.8907 114.855 54.645 115.824Z" fill="white" stroke="#263238" stroke-width="0.5" stroke-linecap="round" stroke-linejoin="round"/>
<path d="M66.6871 103.229C67.0751 104.127 67.3988 105.052 67.656 105.997V106.966C67.656 106.966 69.5938 108.073 69.317 108.488C69.0401 108.904 67.9328 110.703 67.9328 110.703C68.0844 112.225 68.0379 113.76 67.7944 115.271C67.3792 117.07 67.9328 117.9 66.4103 117.9H62.5347C62.5347 117.9 62.1195 123.714 61.1506 123.714C60.1817 123.714 55.7524 121.638 54.922 120.53C54.0915 119.423 53.8147 118.316 54.0915 117.485C54.9529 115.267 55.6922 113.002 56.3061 110.703C56.8598 108.211 61.0122 106.274 61.9811 105.858C62.9499 105.443 66.6871 103.229 66.6871 103.229Z" fill="white" stroke="#263238" stroke-width="0.5" stroke-linecap="round" stroke-linejoin="round"/>
<path d="M51.3233 113.056C51.3233 113.056 48.0014 112.502 46.3404 112.779C44.6795 113.056 42.6033 115.409 42.6033 117.762C42.6033 120.115 44.4026 121.499 47.3093 121.776C50.216 122.053 52.1538 119.561 52.1538 118.177C52.1554 116.436 51.8749 114.707 51.3233 113.056Z" fill="#263238" stroke="#263238" stroke-width="0.5" stroke-linecap="round" stroke-linejoin="round"/>
<path d="M59.7664 112.364C59.7664 112.364 65.0261 106.689 66.687 103.229C68.348 99.7682 67.7944 96.1695 65.1645 96.1695C62.5346 96.1695 59.628 95.339 54.6451 97.1384C49.6622 98.9378 47.586 104.751 47.8628 107.796C48.1396 110.841 52.7073 117.07 55.0603 117.485C57.4133 117.9 57.4133 113.748 57.4133 113.748L59.7664 112.364Z" fill="#263238" stroke="#263238" stroke-width="0.5" stroke-linecap="round" stroke-linejoin="round"/>
<path d="M60.4584 113.333C60.4584 113.333 59.2127 110.565 57.6901 111.395C56.1676 112.226 57.5517 115.271 58.5206 115.963C59.4895 116.655 61.0121 115.547 61.0121 115.547" fill="white"/>
<path d="M60.4584 113.333C60.4584 113.333 59.2127 110.565 57.6901 111.395C56.1676 112.226 57.5517 115.271 58.5206 115.963C59.4895 116.655 61.0121 115.547 61.0121 115.547" stroke="#263238" stroke-width="0.5" stroke-linecap="round" stroke-linejoin="round"/>
<path d="M67.6557 106.966C67.6557 106.966 67.1021 108.765 66.41 109.042" stroke="#263238" stroke-width="0.5" stroke-linecap="round" stroke-linejoin="round"/>
<path d="M78.2696 132.03C78.2696 132.03 77.2065 131.321 77.0681 132.24C76.9297 133.159 77.9872 134.15 77.9872 134.15C77.9872 134.15 76.6418 132.666 76.5698 133.513C76.4979 134.361 77.3505 135.285 77.3505 135.285C77.3505 135.285 76.2875 134.787 76.2875 135.213C76.2875 135.639 77.7768 137.123 77.8432 137.826C77.9097 138.53 79.2606 136.343 79.543 134.648C79.603 134.136 79.5149 133.617 79.2892 133.153C79.0636 132.689 78.7097 132.299 78.2696 132.03Z" fill="white" stroke="#263238" stroke-width="0.5" stroke-linecap="round" stroke-linejoin="round"/>
<path d="M76.2374 142.538C76.5716 141.314 76.8031 140.064 76.9295 138.801C76.9295 137.694 78.1752 135.756 78.7289 134.648C79.2825 133.541 76.9295 131.603 78.0368 131.05C79.1441 130.496 79.9746 131.603 80.9435 132.849C81.9124 134.095 82.1892 136.725 81.3587 138.524C80.5756 140.189 79.5494 141.728 78.3136 143.092C77.9082 143.526 77.442 143.899 76.9295 144.199L76.2374 142.538Z" fill="white" stroke="#263238" stroke-width="0.5" stroke-linecap="round" stroke-linejoin="round"/>
<path d="M77.2838 139.881V136.376C77.2838 134.621 78.2693 132.03 78.2693 132.03C78.4314 132.008 78.5964 132.027 78.7493 132.085C78.9023 132.142 79.0385 132.237 79.1456 132.361C79.2527 132.485 79.3274 132.633 79.3629 132.792C79.3984 132.952 79.3936 133.118 79.3489 133.275C79.2583 134.414 79.3272 135.56 79.5538 136.68" fill="white"/>
<path d="M77.2838 139.881V136.376C77.2838 134.621 78.2693 132.03 78.2693 132.03C78.4314 132.008 78.5964 132.027 78.7493 132.085C78.9023 132.142 79.0385 132.237 79.1456 132.361C79.2527 132.485 79.3274 132.633 79.3629 132.792C79.3984 132.952 79.3936 133.118 79.3489 133.275C79.2583 134.414 79.3272 135.56 79.5538 136.68" stroke="#263238" stroke-width="0.5" stroke-linecap="round" stroke-linejoin="round"/>
<path d="M46.617 137.832C46.617 137.832 44.6792 140.6 45.6481 143.645C46.617 146.69 60.4584 165.099 62.3962 165.099C64.3339 165.099 78.3137 146.967 79.1442 145.86C79.9747 144.753 76.3759 141.984 76.3759 141.984L62.3962 154.718C62.3962 154.718 58.659 139.77 57.1364 137.002C55.6139 134.233 52.0151 133.956 52.0151 133.956" fill="white"/>
<path d="M46.617 137.832C46.617 137.832 44.6792 140.6 45.6481 143.645C46.617 146.69 60.4584 165.099 62.3962 165.099C64.3339 165.099 78.3137 146.967 79.1442 145.86C79.9747 144.753 76.3759 141.984 76.3759 141.984L62.3962 154.718C62.3962 154.718 58.659 139.77 57.1364 137.002C55.6139 134.233 52.0151 133.956 52.0151 133.956" stroke="#263238" stroke-width="0.5" stroke-linecap="round" stroke-linejoin="round"/>
<path d="M113.559 79.189C113.559 79.189 115.47 77.0851 117.479 76.6975C119.489 76.31 120.541 77.6554 119.971 80.0471C119.4 82.4389 117.579 83.0147 116.521 82.9206C115.464 82.8265 113.753 82.367 113.272 81.1046C113.117 80.7944 113.062 80.4441 113.113 80.1014C113.165 79.7587 113.321 79.4402 113.559 79.189Z" fill="#263238" stroke="#263238" stroke-width="0.5" stroke-linecap="round" stroke-linejoin="round"/>
<path d="M114.705 78.6132C114.705 78.6132 110.592 79.1668 109.634 79.8589C108.676 80.5509 106.473 84.2604 106.473 84.7366C106.473 85.2127 107.812 85.6944 108.482 85.6944C109.152 85.6944 110.88 83.3967 110.88 83.3967L110.016 85.7941C110.016 85.7941 110.88 85.6944 110.974 85.3124C111.068 84.9304 112.408 82.3448 112.408 82.3448C112.408 82.3448 114.899 82.4444 115.569 81.2928C116.239 80.1412 116.715 79.3772 114.705 78.6132Z" fill="white" stroke="#263238" stroke-width="0.5" stroke-linecap="round" stroke-linejoin="round"/>
<path d="M122.966 72.296C122.966 72.296 121.814 76.1715 121.814 78.5744C121.814 80.9773 123.47 88.734 123.47 88.734C123.241 90.0466 122.667 91.275 121.809 92.2939C120.447 93.7611 120.867 95.7488 121.493 96.3744C122.119 97 123.381 98.1571 123.796 97.4208C124.212 96.6844 123.902 95.328 124.322 94.8075C124.743 94.2871 126.31 93.4455 126.537 91.8732C126.764 90.3008 126.432 85.4895 126.432 82.8708C126.432 80.252 127.794 76.3819 126.327 73.6635" fill="white"/>
<path d="M122.966 72.296C122.966 72.296 121.814 76.1715 121.814 78.5744C121.814 80.9773 123.47 88.734 123.47 88.734C123.241 90.0466 122.667 91.275 121.809 92.2939C120.447 93.7611 120.867 95.7488 121.493 96.3744C122.119 97 123.381 98.1571 123.796 97.4208C124.212 96.6844 123.902 95.328 124.322 94.8075C124.743 94.2871 126.31 93.4455 126.537 91.8732C126.764 90.3008 126.432 85.4895 126.432 82.8708C126.432 80.252 127.794 76.3819 126.327 73.6635" stroke="#263238" stroke-width="0.5" stroke-linecap="round" stroke-linejoin="round"/>
<path d="M126.543 87.4938C124.843 87.156 123.907 87.7318 123.409 88.3519C123.459 88.59 123.492 88.7284 123.492 88.7284C123.263 90.0411 122.69 91.2695 121.831 92.2884C120.469 93.7556 120.89 95.7432 121.516 96.3688C122.141 96.9945 123.404 98.1516 123.819 97.4152C124.234 96.6789 123.924 95.3224 124.345 94.802C124.766 94.2816 126.332 93.44 126.559 91.8676C126.641 90.4107 126.636 88.9501 126.543 87.4938Z" fill="white" stroke="#263238" stroke-width="0.5" stroke-linecap="round" stroke-linejoin="round"/>
<path d="M129.455 87.3665L119.406 98.7773L129.56 106.002L139.293 93.6504L129.455 87.3665Z" fill="white" stroke="#263238" stroke-width="0.5" stroke-linecap="round" stroke-linejoin="round"/>
<path d="M125.059 92.0559C125.059 92.0559 125.164 95.6159 125.164 96.1418C125.164 96.6678 126.316 97.2934 126.421 96.0366C126.438 95.3347 126.508 94.6351 126.631 93.9438C126.737 93.6283 127.362 91.6406 126.526 90.1735" fill="white"/>
<path d="M125.059 92.0559C125.059 92.0559 125.164 95.6159 125.164 96.1418C125.164 96.6678 126.316 97.2934 126.421 96.0366C126.438 95.3347 126.508 94.6351 126.631 93.9438C126.737 93.6283 127.362 91.6406 126.526 90.1735" stroke="#263238" stroke-width="0.5" stroke-linecap="round" stroke-linejoin="round"/>
<path d="M153.323 64.34C153.323 64.34 150.499 67.4792 149.137 70.4301C147.775 73.3811 146.729 80.8942 146.729 80.8942C146.729 80.8942 141.286 89.7914 140.55 90.5278C139.814 91.2641 140.24 91.1534 138.457 91.9894C136.675 92.8254 134.377 93.2462 134.061 93.7722C133.746 94.2982 132.594 96.8062 132.284 97.1218C131.974 97.4374 132.699 98.063 133.12 97.6422C133.541 97.2215 135.002 95.5494 135.002 95.5494L133.225 99.735C133.228 99.8119 133.248 99.8872 133.281 99.9562C133.315 100.025 133.363 100.086 133.422 100.136C133.481 100.185 133.55 100.222 133.623 100.244C133.697 100.265 133.775 100.271 133.851 100.261C134.619 100.118 135.364 99.8723 136.066 99.5302C136.066 99.5302 137.848 99.1094 138.474 98.2734C139.1 97.4374 141.408 92.9306 141.408 92.9306C141.408 92.9306 147.498 89.0551 149.674 86.4418C151.378 84.3769 152.723 82.0415 153.655 79.5322C153.965 78.4858 157.841 66.8702 157.736 64.9822C157.63 63.0942 156.689 62.7676 156.689 62.7676" fill="white"/>
<path d="M153.323 64.34C153.323 64.34 150.499 67.4792 149.137 70.4301C147.775 73.3811 146.729 80.8942 146.729 80.8942C146.729 80.8942 141.286 89.7914 140.55 90.5278C139.814 91.2641 140.24 91.1534 138.457 91.9894C136.675 92.8254 134.377 93.2462 134.061 93.7722C133.746 94.2982 132.594 96.8062 132.284 97.1218C131.974 97.4374 132.699 98.063 133.12 97.6422C133.541 97.2215 135.002 95.5494 135.002 95.5494L133.225 99.735C133.228 99.8119 133.248 99.8872 133.281 99.9562C133.315 100.025 133.363 100.086 133.422 100.136C133.481 100.185 133.55 100.222 133.623 100.244C133.697 100.265 133.775 100.271 133.851 100.261C134.619 100.118 135.364 99.8723 136.066 99.5302C136.066 99.5302 137.848 99.1094 138.474 98.2734C139.1 97.4374 141.408 92.9306 141.408 92.9306C141.408 92.9306 147.498 89.0551 149.674 86.4418C151.378 84.3769 152.723 82.0415 153.655 79.5322C153.965 78.4858 157.841 66.8702 157.736 64.9822C157.63 63.0942 156.689 62.7676 156.689 62.7676" stroke="#263238" stroke-width="0.5" stroke-linecap="round" stroke-linejoin="round"/>
<path d="M140.24 90.8434C139.897 91.2365 139.908 91.2919 138.457 91.9508C136.68 92.7923 134.377 93.2075 134.061 93.7335C133.746 94.2595 132.594 96.7675 132.284 97.0831C131.974 97.3987 132.699 98.0243 133.12 97.6036C133.541 97.1828 135.002 95.5107 135.002 95.5107L133.225 99.6964C133.228 99.7732 133.248 99.8485 133.281 99.9175C133.315 99.9865 133.363 100.048 133.422 100.097C133.481 100.147 133.55 100.183 133.623 100.205C133.697 100.226 133.775 100.232 133.851 100.222C134.619 100.079 135.364 99.8336 136.066 99.4915C136.066 99.4915 137.848 99.0707 138.474 98.2347C139.1 97.3987 141.408 92.892 141.408 92.892C141.408 92.892 141.785 92.6539 142.394 92.2497C141.836 91.5726 141.084 91.0819 140.24 90.8434Z" fill="white" stroke="#263238" stroke-width="0.5" stroke-linecap="round" stroke-linejoin="round"/>
<path d="M181.77 94.1321C181.77 94.1321 179.455 98.5004 179.029 100.222C178.603 101.944 177.922 103.821 177.922 103.821C177.922 103.821 173.637 103.135 169.955 102.714C166.273 102.293 161.046 101.341 159.756 101.086C158.466 100.831 156.075 100.139 155.56 100.571C155.045 101.003 155.388 100.914 155.992 101.169C156.49 101.321 157.018 101.352 157.531 101.258C157.531 101.258 156.673 101.512 155.731 101.856C154.79 102.199 153.074 102.797 152.819 103.14C152.564 103.483 153.162 104.685 154.104 104.685C154.817 104.639 155.533 104.639 156.246 104.685C156.761 104.768 157.016 105.283 158.732 105.283C160.448 105.283 162.84 103.91 162.84 103.91C162.84 103.91 170.896 107.597 175.436 108.367C179.976 109.136 180.662 108.112 182.55 106.65C184.438 105.189 189.914 96.2028 189.488 94.4034C189.209 93.2772 188.745 92.2051 188.115 91.231" fill="#263238"/>
<path d="M181.77 94.1321C181.77 94.1321 179.455 98.5004 179.029 100.222C178.603 101.944 177.922 103.821 177.922 103.821C177.922 103.821 173.637 103.135 169.955 102.714C166.273 102.293 161.046 101.341 159.756 101.086C158.466 100.831 156.075 100.139 155.56 100.571C155.045 101.003 155.388 100.914 155.992 101.169C156.49 101.321 157.018 101.352 157.531 101.258C157.531 101.258 156.673 101.512 155.731 101.856C154.79 102.199 153.074 102.797 152.819 103.14C152.564 103.483 153.162 104.685 154.104 104.685C154.817 104.639 155.533 104.639 156.246 104.685C156.761 104.768 157.016 105.283 158.732 105.283C160.448 105.283 162.84 103.91 162.84 103.91C162.84 103.91 170.896 107.597 175.436 108.367C179.976 109.136 180.662 108.112 182.55 106.65C184.438 105.189 189.914 96.2028 189.488 94.4034C189.209 93.2772 188.745 92.2051 188.115 91.231" stroke="#263238" stroke-width="0.5" stroke-linecap="round" stroke-linejoin="round"/>
<path d="M164.684 101.944C162.442 101.579 160.476 101.219 159.751 101.075C158.466 100.815 156.069 100.128 155.554 100.56C155.039 100.992 155.383 100.903 155.986 101.158C156.485 101.31 157.012 101.341 157.525 101.247C157.525 101.247 156.667 101.501 155.726 101.844C154.785 102.188 153.068 102.786 152.814 103.129C152.559 103.472 153.157 104.674 154.098 104.674C154.812 104.628 155.527 104.628 156.241 104.674C156.756 104.757 157.01 105.272 158.727 105.272C160.443 105.272 162.835 103.899 162.835 103.899C162.835 103.899 163.466 104.186 164.468 104.618L164.684 101.944Z" fill="white" stroke="#263238" stroke-width="0.5" stroke-linecap="round" stroke-linejoin="round"/>
<path d="M159.153 80.9385C159.153 80.9385 155.128 82.9095 153.583 84.2604C152.039 85.6113 148.185 94.2815 148.102 94.8795C148.019 95.4774 151.014 95.8262 151.358 95.6546C151.701 95.483 157.786 88.4571 159.325 87.2557C159.75 86.9788 160.067 86.5644 160.223 86.0816C160.38 85.5989 160.365 85.0771 160.183 84.6037" fill="#263238"/>
<path d="M159.153 80.9385C159.153 80.9385 155.128 82.9095 153.583 84.2604C152.039 85.6113 148.185 94.2815 148.102 94.8795C148.019 95.4774 151.014 95.8262 151.358 95.6546C151.701 95.483 157.786 88.4571 159.325 87.2557C159.75 86.9788 160.067 86.5644 160.223 86.0816C160.38 85.5989 160.365 85.0771 160.183 84.6037" stroke="#263238" stroke-width="0.5" stroke-linecap="round" stroke-linejoin="round"/>
<path d="M149.558 93.1079C148.283 93.3775 147.024 93.7195 145.788 94.1321C144.758 94.564 142.36 97.6478 142.958 97.8195C143.556 97.9911 145.173 96.0201 145.173 96.0201C144.604 96.8262 144.116 97.6868 143.717 98.589C143.545 99.2756 143.374 100.804 144.06 100.56C144.747 100.316 146.114 98.4174 146.114 98.4174C146.114 98.4174 147.825 97.3876 149.198 97.3876C150.571 97.3876 151.512 94.8187 151.512 94.8187C151.512 94.8187 152.62 93.7113 152.199 92.5044C151.778 91.2974 149.558 93.1079 149.558 93.1079Z" fill="white" stroke="#263238" stroke-width="0.5" stroke-linecap="round" stroke-linejoin="round"/>
<path d="M151.872 92.4213C151.534 92.4351 151.196 92.3726 150.885 92.2384C150.573 92.1043 150.296 91.9019 150.073 91.6462C149.387 90.7936 148.966 91.6462 148.966 92.5043C148.976 92.7543 149.064 92.9949 149.217 93.1932C149.369 93.3914 149.579 93.5376 149.818 93.6117C149.818 93.6117 148.362 94.9847 149.22 95.411C149.504 95.5232 149.811 95.5587 150.113 95.514C150.414 95.4693 150.698 95.3459 150.937 95.1563" fill="white"/>
<path d="M151.872 92.4213C151.534 92.4351 151.196 92.3726 150.885 92.2384C150.573 92.1043 150.296 91.9019 150.073 91.6462C149.387 90.7936 148.966 91.6462 148.966 92.5043C148.976 92.7543 149.064 92.9949 149.217 93.1932C149.369 93.3914 149.579 93.5376 149.818 93.6117C149.818 93.6117 148.362 94.9847 149.22 95.411C149.504 95.5232 149.811 95.5587 150.113 95.514C150.414 95.4693 150.698 95.3459 150.937 95.1563" stroke="#263238" stroke-width="0.5" stroke-linecap="round" stroke-linejoin="round"/>
<path d="M181.991 114.756C181.991 114.756 177.745 113.947 176.228 113.648C174.711 113.349 169.755 115.37 168.344 115.863C166.932 116.356 168.344 116.777 169.861 117.075C171.378 117.374 174.406 116.777 174.406 116.777C174.406 116.777 171.084 118.188 171.881 118.393C172.679 118.598 174.306 118.188 175.724 118.089C177.141 117.989 178.553 116.671 178.553 116.671C178.553 116.671 185.33 119.993 186.138 119.993C186.946 119.993 188.159 117.568 186.437 116.555C185.018 115.81 183.529 115.208 181.991 114.756Z" fill="white" stroke="#263238" stroke-width="0.5" stroke-linecap="round" stroke-linejoin="round"/>
<path d="M183.508 118.482C180.854 120.492 178.504 122.875 176.532 125.558C173.598 129.704 173.094 138.092 173.703 140.506C174.312 142.92 174.711 145.76 177.645 147.704C180.579 149.647 182.7 150.433 187.755 147.704C192.81 144.974 195.439 135.878 194.952 128.879C194.465 121.881 190.202 117.048 187.976 116.444C185.75 115.841 183.508 118.482 183.508 118.482Z" fill="white" stroke="#263238" stroke-width="0.5" stroke-linecap="round" stroke-linejoin="round"/>
<path d="M183.818 119.794C183.818 119.794 181.996 119.999 181.088 121.211C180.18 122.424 180.479 122.828 181.088 123.132C181.279 123.255 181.44 123.417 181.562 123.609C181.683 123.8 181.762 124.015 181.792 124.24C181.792 124.24 179.671 127.678 180.784 128.381C181.897 129.084 186.846 126.764 188.164 125.059C189.482 123.354 188.873 120.508 188.064 119.7C187.256 118.891 183.818 119.794 183.818 119.794Z" fill="white" stroke="#263238" stroke-width="0.5" stroke-linecap="round" stroke-linejoin="round"/>
<path d="M182.595 106.656C182.009 107.353 181.329 107.964 180.574 108.472C179.765 108.876 178.758 109.28 179.566 109.889C180.028 110.228 180.466 110.598 180.878 110.996C180.878 110.996 179.865 114.318 180.275 116.251C180.311 116.497 180.399 116.734 180.534 116.943C180.669 117.153 180.848 117.331 181.058 117.465C181.268 117.6 181.505 117.688 181.752 117.722C181.999 117.757 182.25 117.739 182.489 117.668C182.489 117.668 182.185 122.723 181.781 124.24C181.377 125.757 183.298 125.652 184.815 124.744C186.332 123.836 186.537 120.093 187.14 117.363C187.744 114.634 191.387 111.401 188.862 108.367C186.337 105.333 182.595 106.656 182.595 106.656Z" fill="white" stroke="#263238" stroke-width="0.5" stroke-linecap="round" stroke-linejoin="round"/>
<path d="M199.077 103.218C195.334 99.3752 189.665 100.283 188.867 100.488C188.867 100.488 185.712 99.7185 183.885 100.023C182.058 100.328 181.377 105.56 182.489 108.472C182.886 109.517 183.636 110.391 184.61 110.941C184.427 110.781 183.348 109.762 184.388 108.953C185.007 108.446 185.741 108.1 186.526 107.946C186.526 107.946 185.645 110.836 186.022 111.345C187.561 113.394 180.64 123.055 180.369 122.9C180.369 122.9 182.39 124.041 184.92 125.253C190.506 127.938 197.1 122.208 199.171 117.369C200.821 113.549 202.41 106.639 199.077 103.218Z" fill="#263238" stroke="#263238" stroke-width="0.5" stroke-linecap="round" stroke-linejoin="round"/>
<path d="M144.641 117.624L139.537 138.978L149.979 143.734L153.926 123.658L144.641 117.624Z" fill="white" stroke="#263238" stroke-width="0.5" stroke-linecap="round" stroke-linejoin="round"/>
<path d="M144.996 119.833L140.755 137.577L149.431 141.53L152.714 124.843L144.996 119.833Z" fill="#263238" stroke="#263238" stroke-width="0.5" stroke-linecap="round" stroke-linejoin="round"/>
<path d="M153.927 123.659L168.2 124.356L165.415 144.897L149.979 143.734L153.927 123.659Z" fill="white" stroke="#263238" stroke-width="0.5" stroke-linecap="round" stroke-linejoin="round"/>
<path d="M158.129 132.783L159.164 132.827L159.269 132.163L158.25 132.091L158.129 132.783Z" fill="#263238"/>
<path d="M160.532 137.444L160.698 136.431L159.258 136.365L159.103 137.345L160.532 137.444Z" fill="#263238"/>
<path d="M157.985 129.876L158.112 129.162L156.816 129.073L156.684 129.821L157.985 129.876Z" fill="#263238"/>
<path d="M158.627 129.909L159.612 129.953L159.718 129.278L158.749 129.212L158.627 129.909Z" fill="#263238"/>
<path d="M157.863 134.338L158.915 134.416L159.064 133.458L158.018 133.414L157.863 134.338Z" fill="#263238"/>
<path d="M161.478 131.675L161.644 130.684L160.155 130.612L160.005 131.576L161.478 131.675Z" fill="#263238"/>
<path d="M157.193 126.947L158.483 127.008L158.671 125.901L157.392 125.834L157.193 126.947Z" fill="#263238"/>
<path d="M160.061 127.08L160.233 125.984L159.313 125.934L159.125 127.036L160.061 127.08Z" fill="#263238"/>
<path d="M157.082 127.578L156.927 128.447L158.217 128.536L158.372 127.634L157.082 127.578Z" fill="#263238"/>
<path d="M159.518 130.585L158.516 130.54L158.355 131.459L159.369 131.531L159.518 130.585Z" fill="#263238"/>
<path d="M159.967 127.711L159.014 127.667L158.854 128.581L159.817 128.647L159.967 127.711Z" fill="#263238"/>
<path d="M161.007 134.56L161.173 133.558L159.706 133.491L159.557 134.46L161.007 134.56Z" fill="#263238"/>
<path d="M155.155 134.787L154.098 134.715L153.959 135.484L155.022 135.534L155.155 134.787Z" fill="#263238"/>
<path d="M154.912 136.166L153.849 136.116L153.705 136.963L154.757 137.04L154.912 136.166Z" fill="#263238"/>
<path d="M154.646 137.666L153.594 137.594L153.461 138.358L154.513 138.408L154.646 137.666Z" fill="#263238"/>
<path d="M154.402 139.039L153.345 138.989L153.195 139.842L154.242 139.919L154.402 139.039Z" fill="#263238"/>
<path d="M155.421 133.292L154.352 133.242L154.208 134.084L155.266 134.161L155.421 133.292Z" fill="#263238"/>
<path d="M155.93 130.419L154.856 130.369L154.712 131.205L155.781 131.277L155.93 130.419Z" fill="#263238"/>
<path d="M156.446 127.545L155.361 127.495L155.217 128.326L156.291 128.398L156.446 127.545Z" fill="#263238"/>
<path d="M155.665 131.908L154.602 131.836L154.464 132.611L155.532 132.661L155.665 131.908Z" fill="#263238"/>
<path d="M156.18 129.029L155.106 128.951L154.967 129.738L156.041 129.787L156.18 129.029Z" fill="#263238"/>
<path d="M162.115 127.811L160.603 127.739L160.454 128.691L161.954 128.796L162.115 127.811Z" fill="#263238"/>
<path d="M154.131 140.545L153.09 140.473L152.88 141.647L153.921 141.752L154.131 140.545Z" fill="#263238"/>
<path d="M159.806 132.86L161.273 132.927L161.379 132.307L159.906 132.207L159.806 132.86Z" fill="#263238"/>
<path d="M158.903 138.607L160.332 138.673L160.432 138.07L159.003 137.97L158.903 138.607Z" fill="#263238"/>
<path d="M159.352 135.734L160.803 135.8L160.902 135.191L159.457 135.091L159.352 135.734Z" fill="#263238"/>
<path d="M158.821 135.042L157.752 134.97L157.63 135.656L158.716 135.706L158.821 135.042Z" fill="#263238"/>
<path d="M160.227 139.305L158.809 139.238L158.654 140.224L160.061 140.323L160.227 139.305Z" fill="#263238"/>
<path d="M158.555 140.855L158.344 142.2L159.729 142.339L159.956 140.955L158.555 140.855Z" fill="#263238"/>
<path d="M156.418 131.327L157.719 131.415L157.879 130.507L156.573 130.452L156.418 131.327Z" fill="#263238"/>
<path d="M156.556 126.914L156.756 125.801L155.665 125.746L155.471 126.87L156.556 126.914Z" fill="#263238"/>
<path d="M160.255 129.981L161.75 130.053L161.849 129.428L160.354 129.322L160.255 129.981Z" fill="#263238"/>
<path d="M160.703 127.108L162.22 127.18L162.397 126.095L160.869 126.017L160.703 127.108Z" fill="#263238"/>
<path d="M158.616 136.337L157.525 136.282L157.359 137.217L158.466 137.295L158.616 136.337Z" fill="#263238"/>
<path d="M156.883 136.254L155.549 136.193L155.394 137.085L156.722 137.173L156.883 136.254Z" fill="#263238"/>
<path d="M157.253 137.849L157.137 138.524L158.267 138.579L158.372 137.926L157.253 137.849Z" fill="#263238"/>
<path d="M158.167 139.211L157.026 139.155L156.86 140.102L158.017 140.179L158.167 139.211Z" fill="#263238"/>
<path d="M154.884 139.964L156.224 140.058L156.385 139.128L155.039 139.067L154.884 139.964Z" fill="#263238"/>
<path d="M156.617 137.804L155.283 137.71L155.156 138.435L156.495 138.496L156.617 137.804Z" fill="#263238"/>
<path d="M155.665 135.562L156.993 135.623L157.115 134.925L155.792 134.831L155.665 135.562Z" fill="#263238"/>
<path d="M154.768 140.589L154.552 141.813L155.898 141.951L156.119 140.683L154.768 140.589Z" fill="#263238"/>
<path d="M157.918 140.811L156.755 140.728L156.534 142.018L157.713 142.134L157.918 140.811Z" fill="#263238"/>
<path d="M157.614 132.046L156.307 131.952L156.174 132.689L157.492 132.749L157.614 132.046Z" fill="#263238"/>
<path d="M157.381 133.381L156.063 133.32L155.903 134.205L157.221 134.294L157.381 133.381Z" fill="#263238"/>
<path d="M184.012 136.78C184.012 136.78 182.711 136.902 180.496 138.701C178.282 140.501 169.478 155.864 169.478 155.864C169.478 155.864 161.489 150.882 159.468 149.497C157.448 148.113 155.831 145.555 154.718 144.038C153.605 142.521 153.4 142.317 151.883 142.217C150.366 142.117 149.259 141.11 149.054 141.813C148.849 142.516 149.458 142.826 149.862 143.025C150.216 143.161 150.591 143.23 150.97 143.23C150.016 143.374 149.043 143.157 148.24 142.621C146.723 141.713 146.319 141.514 146.319 142.521C146.319 143.529 147.426 145.151 148.24 146.159C149.054 147.167 153.699 147.576 153.699 147.576C155.385 150.831 157.277 153.975 159.363 156.988C162.392 161.235 168.864 165.786 170.685 165.177C172.507 164.568 182.107 152.543 184.737 149.204C187.367 145.865 190.827 141.923 189.991 139.703" fill="white"/>
<path d="M184.012 136.78C184.012 136.78 182.711 136.902 180.496 138.701C178.282 140.501 169.478 155.864 169.478 155.864C169.478 155.864 161.489 150.882 159.468 149.497C157.448 148.113 155.831 145.555 154.718 144.038C153.605 142.521 153.4 142.317 151.883 142.217C150.366 142.117 149.259 141.11 149.054 141.813C148.849 142.516 149.458 142.826 149.862 143.025C150.216 143.161 150.591 143.23 150.97 143.23C150.016 143.374 149.043 143.157 148.24 142.621C146.723 141.713 146.319 141.514 146.319 142.521C146.319 143.529 147.426 145.151 148.24 146.159C149.054 147.167 153.699 147.576 153.699 147.576C155.385 150.831 157.277 153.975 159.363 156.988C162.392 161.235 168.864 165.786 170.685 165.177C172.507 164.568 182.107 152.543 184.737 149.204C187.367 145.865 190.827 141.923 189.991 139.703" stroke="#263238" stroke-width="0.5" stroke-linecap="round" stroke-linejoin="round"/>
<path d="M156.722 146.818C155.931 145.827 155.25 144.814 154.696 144.049C153.589 142.532 153.378 142.328 151.861 142.228C150.344 142.128 149.237 141.121 149.032 141.824C148.827 142.527 149.436 142.837 149.841 143.036C150.194 143.172 150.569 143.242 150.948 143.241C149.994 143.385 149.021 143.168 148.218 142.632C146.701 141.724 146.297 141.525 146.297 142.532C146.297 143.54 147.404 145.162 148.218 146.17C149.032 147.178 153.677 147.587 153.677 147.587C153.677 147.587 153.882 147.986 154.231 148.634C154.888 147.821 155.747 147.195 156.722 146.818Z" fill="white" stroke="#263238" stroke-width="0.5" stroke-linecap="round" stroke-linejoin="round"/>
</svg>
